<?xml version="1.0" encoding="UTF-8" standalone="no"?>
<svg width="364px" height="360px" viewBox="0 0 364 360" version="1.1" xmlns="http://www.w3.org/2000/svg" xmlns:xlink="http://www.w3.org/1999/xlink" xmlns:sketch="http://www.bohemiancoding.com/sketch/ns">
    <!-- Generator: Sketch 3.3.3 (12072) - http://www.bohemiancoding.com/sketch -->
    <title>знак</title>
    <desc>Created with Sketch.</desc>
    <defs></defs>
      <path  d="M182.000499,30.328 C152.835001,48.3 101.796128,103.619 101.796128,180 C101.796128,256.381 152.835001,311.42 182.000499,329.672 C211.165998,311.42 262.203872,256.381 262.203872,180 C262.203872,103.619 211.165998,48.3 182.000499,30.328 M0,180 C0,280.25 81.044234,360 182.000499,360 C282.954767,360 364,280.25 364,180 C364,79.75 282.954767,0 182.000499,0 C81.044234,0 0,79.75 0,180 M24.6775768,180 C24.6775768,93.229 95.3468626,22.465 182.000499,22.465 C268.654136,22.465 339.322423,93.229 339.322423,180 C339.322423,266.77 268.654136,337.535 182.000499,337.535 C95.3468626,337.535 24.6775768,266.77 24.6775768,180 M182.000499,300.749 C164.051809,287.832 126.474703,245.429 126.474703,180 C126.474703,114.571 164.051809,72.169 182.000499,59.251 C199.948191,72.169 237.526295,114.571 237.526295,180 C237.526295,245.429 199.948191,287.832 182.000499,300.749 M195.181647,180 C195.181647,138.721 186.486424,106.708 182.000499,89.859 C177.512578,106.708 168.819352,138.721 168.819352,180 C168.819352,221.279 177.512578,253.292 182.000499,270.14 C186.486424,253.292 195.181647,221.279 195.181647,180" id="знак" fill="#000000" sketch:type="MSShapeGroup"></path>
</svg>