<?xml version="1.0" encoding="UTF-8" standalone="no"?>
<svg width="231px" height="57px" viewBox="0 0 231 57" version="1.1" xmlns="http://www.w3.org/2000/svg" xmlns:xlink="http://www.w3.org/1999/xlink" xmlns:sketch="http://www.bohemiancoding.com/sketch/ns">
    <!-- Generator: Sketch 3.3.3 (12072) - http://www.bohemiancoding.com/sketch -->
    <title>pure</title>
    <desc>Created with Sketch.</desc>
    <defs></defs>
    <g id="Page-1" stroke="none" stroke-width="1" fill="none" fill-rule="evenodd" sketch:type="MSPage">
        <path d="M228.302755,7.6416236 C229.512277,7.6416236 229.605011,7.54872544 229.605011,6.33705361 L229.605011,1.30456999 C229.605011,0.0928981693 229.512277,0 228.302755,0 L200.302256,0 C199.093731,0 199,0.0928981693 199,1.30456999 L199,50.6944311 C199,51.9061029 199.093731,52 200.302256,52 L229.697744,52 C230.907267,52 231,51.9061029 231,50.6944311 L231,45.6629464 C231,44.4512746 230.907267,44.3583764 229.697744,44.3583764 L207.558395,44.3583764 L207.558395,29.4477208 L225.326312,29.4477208 C226.535834,29.4477208 226.627571,29.3548226 226.627571,28.1431508 L226.627571,23.1106672 C226.627571,21.8989953 226.535834,21.8070961 225.326312,21.8070961 L207.558395,21.8070961 L207.558395,7.6416236 L228.302755,7.6416236 L228.302755,7.6416236 Z M99,1.29711598 C99,0.0923673707 98.9056947,0 97.6887557,0 L91.5117618,0 C90.2948227,0 90.2015207,0.0923673707 90.2015207,1.29711598 L90.2015207,32.1527838 C90.2015207,41.0478609 86.2697943,45.3096715 79.9994984,45.3096715 C73.7292024,45.3096715 69.797476,41.0478609 69.797476,32.1527838 L69.797476,1.29711598 C69.797476,0.0923673707 69.704174,0 68.487235,0 L62.310241,0 C61.093302,0 61,0.0923673707 61,1.29711598 L61,32.2441579 C61,44.8468414 67.083692,53 79.9994984,53 C92.916308,53 99,44.8468414 99,32.2441579 L99,1.29711598 L99,1.29711598 Z M0,50.6944311 C0,51.9061029 0.0933438477,52 1.29787669,52 L7.22620404,52 C8.43073688,52 8.52308771,51.9061029 8.52308771,50.6944311 L8.52308771,30.5664944 L15.0084991,30.5664944 C26.8661468,30.5664944 34,25.4401137 34,15.2832472 C34,5.12538179 26.8661468,0 15.0084991,0 L1.29787669,0 C0.0933438477,0 0,0.0928981693 0,1.30456999 L0,50.6944311 L0,50.6944311 Z M16.5859267,22 L9,22 L9,7 L16.5859267,7 C22.4357999,7 26,9.10392157 26,14.5 C26,19.8960784 22.4357999,22 16.5859267,22 L16.5859267,22 L16.5859267,22 Z M141,24 L141,8 L149.190449,8 C155.286071,8 159,10.6196954 159,16.139911 C159,21.6611296 155.286071,24 149.190449,24 L141,24 L141,24 Z M133,50.4347526 C133,51.6402177 133.092757,51.7336338 134.30259,51.7336338 L140.258002,51.7336338 C141.466838,51.7336338 141.560593,51.6402177 141.560593,50.4347526 L141.560593,30.5957582 L147.143978,30.5957582 L153.098392,42.3691673 C156.634138,49.2302813 161.472473,54.5152471 166.683832,56.9251835 C167.055859,57.1110219 167.520642,56.9251835 167.707154,56.6469228 L170.96363,50.991274 C171.056387,50.8074232 170.96363,50.4347526 170.777118,50.3433241 C166.963101,48.2106545 162.961575,43.4812164 160.356395,38.104822 L156.262111,29.8524046 C162.961575,28.0914119 167.427885,22.6216014 167.427885,15.2973822 C167.427885,4.8208667 160.26264,0 148.352814,0 L134.30259,0 C133.092757,0 133,0.0924223052 133,1.29788743 L133,50.4347526 L133,50.4347526 Z" id="pure" fill="#1A1918" sketch:type="MSShapeGroup"></path>
    </g>
</svg>