<?xml version="1.0" encoding="UTF-8" standalone="no"?>
<svg width="883px" height="219px" viewBox="0 0 883 219" version="1.1" xmlns="http://www.w3.org/2000/svg" xmlns:xlink="http://www.w3.org/1999/xlink" xmlns:sketch="http://www.bohemiancoding.com/sketch/ns">
    <!-- Generator: Sketch 3.3.3 (12072) - http://www.bohemiancoding.com/sketch -->
    <title>pure</title>
    <desc>Created with Sketch.</desc>
    <defs>
        <path id="path-1" d="M0,219 L882.367,219 L882.367,0.167 L0,0.167 L0,219 Z"></path>
    </defs>
    <g id="Page-1" stroke="none" stroke-width="1" fill="none" fill-rule="evenodd" sketch:type="MSPage">
        <g id="pure" sketch:type="MSLayerGroup">
            <mask id="mask-2" sketch:name="Clip 2" fill="white">
                <use xlink:href="#path-1"></use>
            </mask>
            <g id="Clip-2"></g>
            <path d="M872.046,29.355 C876.674,29.355 877.027,29 877.027,24.372 L877.027,5.151 C877.027,0.525 876.674,0.167 872.046,0.167 L764.907,0.167 C760.283,0.167 759.926,0.525 759.926,5.151 L759.926,193.798 C759.926,198.426 760.283,198.78 764.907,198.78 L877.385,198.78 C882.013,198.78 882.367,198.426 882.367,193.798 L882.367,174.575 C882.367,169.952 882.013,169.594 877.385,169.594 L792.671,169.594 L792.671,112.645 L860.657,112.645 C865.281,112.645 865.638,112.287 865.638,107.661 L865.638,88.44 C865.638,83.814 865.281,83.457 860.657,83.457 L792.671,83.457 L792.671,29.355 L872.046,29.355 L872.046,29.355 Z M376.937,5.151 C376.937,0.525 376.581,0.167 371.954,0.167 L348.462,0.167 C343.835,0.167 343.479,0.525 343.479,5.151 L343.479,123.68 C343.479,157.847 328.53,174.222 304.682,174.222 C280.835,174.222 265.885,157.847 265.885,123.68 L265.885,5.151 C265.885,0.525 265.529,0.167 260.902,0.167 L237.41,0.167 C232.782,0.167 232.427,0.525 232.427,5.151 L232.427,124.033 C232.427,172.442 255.563,203.761 304.682,203.761 C353.801,203.761 376.937,172.442 376.937,124.033 L376.937,5.151 L376.937,5.151 Z M0,193.798 C0,198.426 0.356,198.78 4.983,198.78 L27.763,198.78 C32.39,198.78 32.745,198.426 32.745,193.798 L32.745,116.915 L57.662,116.915 C103.222,116.915 130.629,97.339 130.629,58.541 C130.629,19.744 103.222,0.167 57.662,0.167 L4.983,0.167 C0.356,0.167 0,0.525 0,5.151 L0,193.798 L0,193.798 Z M62.289,87.727 L32.745,87.727 L32.745,29.355 L62.289,29.355 C85.069,29.355 98.95,37.54 98.95,58.541 C98.95,79.542 85.069,87.727 62.289,87.727 L62.289,87.727 Z M539.956,90.22 L539.956,29.355 L570.564,29.355 C593.346,29.355 607.226,39.323 607.226,60.321 C607.226,81.322 593.346,90.22 570.564,90.22 L539.956,90.22 L539.956,90.22 Z M507.21,193.798 C507.21,198.426 507.568,198.78 512.192,198.78 L534.974,198.78 C539.602,198.78 539.956,198.426 539.956,193.798 L539.956,117.629 L561.312,117.629 L584.09,162.833 C597.617,189.17 616.124,209.458 636.059,218.714 C637.481,219.425 639.26,218.714 639.976,217.645 L652.434,195.931 C652.787,195.22 652.434,193.798 651.718,193.441 C637.128,185.253 621.821,167.103 611.854,146.458 L596.195,114.78 C621.821,108.017 638.907,87.016 638.907,58.897 C638.907,18.675 611.501,0.167 565.94,0.167 L512.192,0.167 C507.568,0.167 507.21,0.525 507.21,5.151 L507.21,193.798 L507.21,193.798 Z" id="Fill-1" fill="#1A1918" sketch:type="MSShapeGroup" mask="url(#mask-2)"></path>
        </g>
    </g>
</svg>