<?xml version="1.0" encoding="utf-8"?>
<!-- Generator: Adobe Illustrator 18.0.0, SVG Export Plug-In . SVG Version: 6.00 Build 0)  -->
<!DOCTYPE svg PUBLIC "-//W3C//DTD SVG 1.1//EN" "http://www.w3.org/Graphics/SVG/1.1/DTD/svg11.dtd">
<svg version="1.1" id="Layer_1" xmlns="http://www.w3.org/2000/svg" xmlns:xlink="http://www.w3.org/1999/xlink" x="0px" y="0px"
	 viewBox="0 0 85.5 98.7" enable-background="new 0 0 85.5 98.7" xml:space="preserve">
<g>
	<path fill="#8a8c8b" d="M45.8,42.6c2.6,0,4.5-2,4.5-4.9h-1.9c0,1.8-1,3-2.6,3s-2.6-1.1-2.6-3h-1.9C41.3,40.6,43.1,42.6,45.8,42.6z"
		/>
	<circle fill="#8a8c8b" cx="45.8" cy="38.1" r="1.3"/>
	<circle fill="#8a8c8b" cx="39.8" cy="49.4" r="0.9"/>
	<path fill="#8a8c8b" d="M45.6,13.6v-1.4c-1.2,0-2.5,0.9-2.5,2.9h1.4C44.5,14.2,44.9,13.6,45.6,13.6z"/>
	<path fill="#8a8c8b" d="M42.1,19.4V18c-0.5,0-1.4-0.2-1.4-1.2h-1.4C39.2,18.4,40.3,19.4,42.1,19.4z"/>
	<path fill="#8a8c8b" d="M49.8,16.1c0.6,0,1.1-0.3,1.2-0.4l0.9-0.7L51,14.4c-0.1-0.1-0.6-0.4-1.2-0.4c-0.6,0-1.1,0.3-1.2,0.4
		l-0.9,0.7l0.9,0.7C48.7,15.8,49.2,16.1,49.8,16.1z"/>
	<path fill="#8a8c8b" d="M74.2,55.4c-0.9-1.1-1.8-2.3-2.6-4.1c-0.1-0.3-0.2-0.6-0.4-0.9l-2,0.8c0.1,0.3,0.2,0.6,0.3,0.9
		c0.2,0.6,0.2,1.1,0.1,1.4c-0.2,0.6-1.1,0.9-2.1,1.4c-0.3,0.1-0.6,0.2-0.9,0.4c-1.9,0.9-2.5,3.5-2.2,6.3c-0.2-0.2-0.5-0.4-0.7-0.6
		c-2-1.5-3.9-1.9-5.3-1.2c-0.7,0.3-1.2,0.7-1.7,1c-0.3,0.2-0.7,0.5-0.9,0.5c-0.1-0.1-0.4-0.3-0.9-1.5l-2,0.4
		c0,9.3,4.1,11.2,7.6,11.2c0.4,0,0.9,0,1.3-0.1c1.1-0.1,2.2-0.2,2.7,0.3c0.5,0.4,0.6,1.4,0.6,2.2c0,3.9-3.7,4.9-5.9,4.9
		c-3.6,0-5.9-2.8-7.2-5.1c-1.7-3-2.7-7.1-2.8-11.3c1.8-1.6,4.5-4.8,4.5-8.4c0-3-1.2-4.9-2.5-6.5l3.9-9.6c0.6,1.3,1.5,3,2.4,4.6
		c3.5,6.4,5.2,7.3,6.3,7.3c3.1,0,3.5-5.3,3.9-12.6c0.1-1.5,0.2-3.1,0.3-4.6c0.2-0.2,0.3-0.3,0.5-0.5c0.3-0.5,0.6-1,0.7-1.6
		c0.1-0.1,0.1-0.2,0.2-0.4l0.4-2.9c0.1-0.4-0.3-0.9-0.7-0.9c-0.1,0-0.2,0-0.3,0c-0.1-0.2-0.3-0.4-0.5-0.5c-0.3-0.1-0.5,0-0.7,0.1
		l0.3-2.6c0-0.4-0.2-0.7-0.6-0.8c-0.4,0-0.7,0.2-0.8,0.6l-0.5,3.6L65.3,23c-0.1-0.4-0.4-0.7-0.8-0.6c-0.4,0.1-0.7,0.4-0.6,0.8
		l0.4,2.5c-0.3,0-0.6,0.2-0.7,0.5l-1.1,2.3c-0.1,0.2-0.1,0.4,0,0.6l1.1,3.2c0,0,0,0,0,0l-1.3,6.1c-0.3-1.1-0.7-2.2-1.2-3.4
		C59,29.5,57,27,54.8,27c-1.8,0-3.4-0.3-4.2-0.6v-1.7c0.2,0,0.3,0,0.4,0c0,0,0,0,0,0c0.6,0,1-0.1,1.3-0.4c0.4-0.3,0.7-0.8,0.7-1.4
		v-3.3h1.6l-0.1-1.1c0-0.1-0.2-1.4-0.5-3.3c0-0.2-0.1-0.3-0.1-0.5c-0.1-0.4-0.2-0.9-0.3-1.3l6.2-1.7l0,0l1.4-0.4l2.6,2l10-2.7
		l-3.6-2.7L72,4.1L62,6.7l-1.3,3.1l-7.9,2.1c-1-1.2-2.1-2.4-5.7-2.4c-2.9,0-5.2,1.8-5.8,2.7c-2.1,0.3-4.3,1.9-4.7,4L30.2,18
		c-0.2-1.3-0.5-1.6-0.7-1.7c-0.2-0.2-0.4-0.4-0.8-0.4c0,0,0,0-0.1,0c-0.1-0.5-0.2-1.4-1-1.4c-0.1,0-1.4,0-1.8,0.1
		c-1.8,0.4-1.8,1.9-1.8,4.2c0,0.3,0,0.6,0.1,0.9l-9.9,2.7l1.7-4.1l-12.6,8l14.9,0.7l-3.5-2.7l9.9-2.6c0.2,0.8,0.5,1.5,0.7,2.1
		c-0.3,1.4-0.7,3.8-1,6.2c-0.9,7.4-0.2,9.4,0.5,10.2c0.4,0.5,1,0.8,1.6,0.8c2.1,0,6.1-2.2,9.3-4.2l-1.3,1.7l0.2,0.5
		c0.5,1.6,2.1,2.8,3.1,3.4c-0.5,1.5-1.7,2.9-3.1,4.6c-2.9,3.5-6.9,8.4-6.9,17.1c0,7.8,2.6,15,7.4,20.3c4.6,5.1,10.9,8.1,17.3,8.1
		c5.9,0,10.9-1.9,14.4-5.6c3.5-3.6,5.4-8.7,5.4-14.7c0-0.4-0.1-0.8-0.1-1.2c-0.2-1.3-0.2-2.3,0.4-2.6c3-1.6,4.4-3.7,4.4-6.8
		C76.7,58.7,75.5,57.1,74.2,55.4z M69.7,10.1l-5.5,1.5L63.5,11l5.5-1.5L69.7,10.1z M63.3,8.3l5.5-1.5l-0.4,0.9l0,0L63,9.2L63.3,8.3z
		 M69.3,56.4c0.6,0.8,1.5,2.3,1.8,4.4c0.3,2.5-1.2,3.8-2.6,5c-0.2,0.2-0.4,0.4-0.6,0.6c0.4-0.6,1-1.7,1.4-2.9
		c0.8-2.5,0.6-4.8-0.5-6.9C69,56.5,69.2,56.4,69.3,56.4z M65,65.3c-2.1-0.6-3.6-1.2-5.3-3.8C61.2,61.4,63.5,63.1,65,65.3z
		 M57.9,62.4c0.1-0.1,0.2-0.2,0.3-0.2c2.3,3.6,4.3,4.1,7.1,4.9c0.2,0.1,0.4,0.1,0.7,0.2c-5.2-0.2-7.3-1.3-8.5-4.6
		C57.6,62.6,57.8,62.5,57.9,62.4z M61.6,69.2c-0.4,0-0.8,0.1-1.1,0.1c-3,0-4.7-2-5.3-6c0,0,0.1,0,0.1,0c0.2,0.1,0.5,0.1,0.7,0.1
		c1.5,3.9,4.1,5.4,10,5.6c-0.2,0.2-0.4,0.5-0.6,0.8C64.2,69,62.8,69.1,61.6,69.2z M61.8,80.5L61.8,80.5c0,0.2,0,0.3-0.1,0.5
		c-0.2,0.4-0.5,0.8-1,1.1c-0.2,0-0.4,0-0.6,0c-0.2-0.5-0.4-0.9-0.8-1.3C60.2,80.8,61,80.7,61.8,80.5z M58.4,83.4c0,1.1-0.7,1.9-2,2
		c-0.4-1-1.2-1.8-2.3-2.1c0,0,0,0,0,0c0-0.2,0.1-0.4,0.1-0.6c1.1,0,2-0.4,2.7-1.1C57.9,81.7,58.4,82.4,58.4,83.4z M55.7,80.1
		c-0.4,0.5-1,0.7-1.8,0.7c-0.1-0.2-0.2-0.3-0.3-0.5c-0.4-0.5-0.9-1-1.5-1.3c0.1-0.5,0-1-0.1-1.6C53.1,78.6,54.3,79.5,55.7,80.1z
		 M51.4,80.7c0.3,0.2,0.5,0.4,0.7,0.6c0.3,0.4,0.4,1,0.3,1.5c-0.1,0.6-0.4,1-0.8,1.3c-0.4,0.2-0.8,0.4-1.4,0.3
		c-0.4-0.8-1.2-1.4-2.1-1.9c0-0.2,0-0.4,0-0.6c0.2,0,0.3,0,0.5,0c0.6,0,1.2-0.1,1.7-0.5C50.7,81.4,51.1,81.1,51.4,80.7z M50.3,78.9
		c-0.1,0.5-0.4,0.9-0.9,1.2c-1,0.5-2,0.1-2.8-1c0.3-0.5,0.6-1,0.7-1.6c0.1,0,0.3,0,0.4,0c0.2,0,0.4,0,0.6,0c0.6-0.1,1.1-0.3,1.6-0.6
		C50.2,77.6,50.4,78.3,50.3,78.9z M49.5,73.5c0,1.1-0.6,1.9-1.5,2c-0.5,0.1-1,0-1.3-0.3c-0.4-0.3-0.7-0.9-0.8-1.6
		c0.8-0.5,1.4-1.4,1.6-2.5c0.3,0.1,0.7,0.1,1,0.1v-0.2C48.8,71.9,49.1,72.8,49.5,73.5z M43.7,72.4c-1.2,0-2-0.9-2-2.3h0
		c0.7-0.7,1.1-1.8,1.1-3h1.8c0,1.2,0.4,2.3,1.1,3h0C45.7,71.5,45,72.4,43.7,72.4z M45.5,76.7c-0.1,1.2-0.7,2-1.8,2
		c-0.2,0-0.4,0-0.6-0.1c0,0,0,0,0-0.1l-0.1,0c-0.2-0.1-0.4-0.2-0.6-0.4c-0.4-0.3-0.6-0.8-0.7-1.5c0.8-0.6,1.3-1.4,1.5-2.5
		c0.2,0,0.4,0.1,0.6,0.1c0.1,0,0.2,0,0.3,0C44.3,75.3,44.8,76.1,45.5,76.7z M44.9,67.1c0-1.7,1-2.6,2.2-3.3c0.1,1.9,0.4,3.8,0.9,5.5
		c-0.9-0.2-1.4-1-1.4-2.2H44.9z M67.7,27.7c0.1-0.3,0.3-0.5,0.5-0.4c0.2,0.1,0.3,0.3,0.2,0.6c-0.1,0.3-0.3,0.5-0.5,0.4
		C67.7,28.3,67.6,28,67.7,27.7z M66.3,27.4c0.1-0.3,0.3-0.5,0.5-0.4c0.2,0.1,0.3,0.3,0.2,0.6c-0.1,0.3-0.3,0.5-0.5,0.4
		C66.3,28,66.2,27.7,66.3,27.4z M65.1,27.2c0.6,0-0.2,1.4,0.2,1.8c0.5,0.5,2.4,0.1,2.4,0.7c0,0.3-0.2,0.8-0.4,1.2
		c0,0.1-0.1,0.1-0.1,0.2c0,0,0,0,0,0c0,0.1-0.1,0.1-0.1,0.2c0,0,0,0,0,0c0,0-0.1,0.1-0.1,0.1c0,0,0,0-0.1,0.1c0,0-0.1,0.1-0.1,0.1
		c0,0,0,0-0.1,0.1c0,0-0.1,0.1-0.1,0.1c0,0,0,0-0.1,0c0,0-0.1,0-0.1,0.1c0,0,0,0-0.1,0c0,0-0.1,0-0.1,0c0,0,0,0-0.1,0
		c-0.1,0-0.1,0-0.2,0c0,0-0.1,0-0.1,0c0,0,0,0,0,0c0,0-0.1,0-0.1,0c0,0,0,0,0,0c0,0-0.1,0-0.1-0.1c0,0,0,0,0,0c0,0-0.1-0.1-0.1-0.1
		c0,0,0,0,0,0c0,0-0.1-0.1-0.1-0.1c0,0,0,0,0,0c0,0-0.1-0.1-0.1-0.2c0,0,0,0,0,0c-0.1-0.1-0.1-0.2-0.2-0.4c-0.4-0.8-0.7-1.9-0.7-2.3
		C64.1,28.3,64.6,27.2,65.1,27.2z M49.9,12.4c0.8,0.3,1,0.6,1,0.6c0.4,0.3,0.8,1.1,1.1,2.4c0,0.2,0.1,0.3,0.1,0.5
		c0.2,0.8,0.3,1.5,0.4,2.1h-1.3l0,1.8L50,19.4l-0.3,1.4l1.6,0.4l0,1.8c0,0-0.1,0-0.2,0h0c-1,0-3.1-0.8-4.5-1.3L46,19.2v-0.1h0l0,0
		v-0.8c-0.6,0-1.1-0.2-1.3-0.6c1.6-0.4,2.3-1.8,2.9-2.9C48.2,13.4,48.7,12.6,49.9,12.4z M41.8,14.3l0.6,0l0.3-0.6
		c0-0.1,1.1-2.1,3.8-2.1c0.4,0,0.8,0,1.1,0.1c-0.8,0.7-1.2,1.6-1.6,2.4c-0.7,1.4-1.1,2.1-2.4,2.1c-1,0-1.5-1-1.6-1l-1.5,0.7
		c0,0.1,0.8,1.5,2.3,1.8c0.1,0.5,0.4,1,0.8,1.4c-0.4,0.4-1.2,0.9-2.4,0.9c-1.9,0-2.8-1.6-2.8-3C38.6,15.6,40.4,14.3,41.8,14.3z
		 M29.6,23c0.4-0.6,0.7-1.4,0.7-2.3c0-0.3,0-0.6,0-0.8l6.3-1.7c0.5,2.1,2.1,3.9,4.7,3.9c1.4,0,2.5-0.4,3.2-0.9l0.2,0.9l-0.8,4
		c-0.6,0.2-1.7,0.5-3.3,0.5c-2.4,0-8.1,3.9-11.2,6.1L29.6,23z M28.1,19.3c0,0-0.2-1.8,0.3-1.8c0.6,0,0.4,2,0.4,3.1s-0.3,1.7-0.9,1.7
		c-0.6,0-1-0.1-1-1.2C26.9,20.1,28.1,19.3,28.1,19.3z M25.6,16.4l0.5,0.3l0.4-0.5l0.6,0.2l0.4-0.6l0.2,1c0,0-0.6,0.3-0.6,0.9
		c0,0.6,0,1.1,0,1.1l-1.4,0.4C25.6,17.7,25.6,16.4,25.6,16.4z M30,68.3c-0.2-1.4-0.3-2.9-0.3-4.4c0-8,3.5-12.3,6.4-15.8
		c1.8-2.2,3.3-4,3.7-6.3l0.1-0.8l-0.7-0.3c-0.4-0.2-1.2-0.7-1.9-1.3c0.6-0.1,1.1-0.6,1.1-1.3c0-0.4-0.2-0.8-0.5-1l3.2-4l-1.3-1.8
		l-0.9,0.6c-3.7,2.6-10.3,6.7-12.5,6.8c-0.2-0.2-1-1.5-0.1-8.3c0.3-2.1,0.6-4.2,0.9-5.7c0.1,0,0.3-0.1,0.4-0.1l-0.3,12.4l1.7-1.3
		c4.6-3.4,10.2-7,11.7-7c1.4,0,2.5-0.2,3.3-0.4l-0.3,1.5l1.6,0.3l0.5-2.8l0.7-3.6c0.7,0.2,1.3,0.5,1.9,0.7v3.6l0.7,0.3
		c0.1,0,2.5,1,5.7,1c0,0,0,0,0,0c0.8,0,2.4,1.7,4.3,6.7c1.4,3.6,2.3,7.3,2.3,7.3l2.1,0l2.1-9.9l0.2,0c-0.1,1.3-0.2,2.6-0.3,3.9
		c-0.2,3-0.4,5.9-0.8,8c-0.4,2.1-0.9,2.6-1,2.6c-0.1,0-1.4-0.6-4.6-6.4c-1.8-3.2-3.2-6.5-3.2-6.5l-1-2.3l-6.2,15.4l0.4,0.5
		c1.5,1.6,2.4,3.2,2.4,5.6c0,3.2-2.7,6-4.1,7.1L47,61.3v0c-0.2,0.1-0.4,0.3-0.7,0.4c-1.4,0.9-3.5,2.2-3.5,5.3h-1.8
		c0,1.4-0.7,2.3-2,2.3c-1.2,0-1.9-0.8-2-2.2c1.2-0.7,2.2-2.1,2.2-4.4h-1.9c0,1.8-0.8,3-2,3c-1.2,0-1.9-1.1-2-2.9l2,0
		c0-2.9,1.6-4.5,1.7-4.5L37,58.3l4.7-2.4l-0.9-1.7l-4,2.1l-1.1-3.1l-1.8,0.6l1.3,3.5c-0.7,0.8-1.9,2.7-2,5.5h-1.8
		c0,2.2,0.9,3.6,2,4.3h-0.1c0,1.4-0.7,2.3-2,2.3C30.8,69.4,30.3,69.4,30,68.3z M41.3,73.4c0,1.3-0.8,2.1-2,2.1c-1.2,0-1.9-0.8-2-2
		c0.7-0.5,1.2-1.3,1.4-2.3c0.1,0,0.1,0,0.2,0c0.4,0,0.7,0,1-0.1C40.2,72.1,40.6,72.9,41.3,73.4z M32,75.6c-0.6-1.4-1.1-2.9-1.5-4.5
		c0.2,0.1,0.5,0.1,0.8,0.1c0.3,1.1,0.9,2,1.8,2.5C33.1,74.7,32.6,75.4,32,75.6z M35.2,67.8c0.2,1.3,0.8,2.3,1.8,2.9
		c-0.2,1.1-0.9,1.7-1.9,1.7c-1,0-1.7-0.6-1.9-1.5C34.2,70.3,35,69.2,35.2,67.8z M33.5,76.9c0.8-0.6,1.3-1.5,1.5-2.7c0,0,0.1,0,0.1,0
		c0.2,0,0.3,0,0.5,0c0.2,1.2,0.9,2.2,1.8,2.7c0,1.1-0.7,1.9-1.8,2c-0.6,0.1-1.1-0.1-1.4-0.4C33.8,78.2,33.6,77.6,33.5,76.9z
		 M38.5,84.8c-0.7-0.6-1.3-1.2-1.9-1.9c-0.6-0.7-1.2-1.4-1.7-2.1c0.2,0,0.4,0,0.6,0c0.1,0,0.3,0,0.4,0c0.1,0,0.1,0,0.2,0
		c0.6,1.8,2,2.9,3.5,2.9c0,0,0,0,0,0C39.4,84.2,39,84.6,38.5,84.8z M37.7,80.1c0.8-0.6,1.4-1.5,1.5-2.7c0,0,0.1,0,0.1,0
		c0.2,0,0.3,0,0.4,0c0.2,0.9,0.6,1.6,1.2,2.2c0.1,0.1,0.2,0.2,0.3,0.3c0,0.9-0.4,1.6-1.3,1.8C39,82,38.1,81.3,37.7,80.1z M43.5,87
		c0,0.3-0.2,0.7-0.4,1C42,87.4,41,86.8,40,86c0.6-0.5,1.1-1.1,1.3-2c0.5,0.7,1.1,1.3,1.8,1.6C43.5,86.1,43.6,86.6,43.5,87z M44,84
		c-0.5-0.2-1-0.6-1.3-1.3l-0.3-0.4c0.4-0.5,0.6-1.1,0.7-1.7c0.1,0,0.3,0,0.4,0c0.1,0,0.2,0,0.2,0c0.5,0,1-0.1,1.4-0.3
		c0.2,0.3,0.4,0.5,0.7,0.8l0,0c0.4,0.7,0.5,1.3,0.4,1.8c-0.1,0.4-0.4,0.8-0.8,1C44.9,84.1,44.4,84.1,44,84z M47.5,88.1
		c-0.5,0.2-1.1,0.2-1.7-0.1l-0.5-0.4c0-0.1,0.1-0.3,0.1-0.4c0-0.5,0-0.9-0.1-1.4c0.3-0.1,0.6-0.2,0.9-0.4c0.5-0.3,0.9-0.6,1.2-1
		c0.6,0.3,1,0.6,1.2,1.1c0.2,0.4,0.2,1,0,1.5C48.4,87.5,48,87.9,47.5,88.1z M48.3,89.8c0.5-0.2,0.9-0.5,1.3-0.9
		c1,0.1,1.7,0.6,1.9,1.3C50.4,90.2,49.3,90,48.3,89.8z M52.9,88.8c-0.5-0.8-1.3-1.4-2.4-1.7c0.1-0.2,0.1-0.5,0.1-0.7
		c0.7,0,1.4-0.3,2-0.6c0.3-0.2,0.6-0.5,0.8-0.8c0.9,0.2,1.5,0.9,1.5,1.9C54.9,88,54.1,88.7,52.9,88.8z M55,90.1
		c1-0.6,1.7-1.6,1.8-2.9c0.1,0,0.3,0,0.4-0.1v0c1.4,0,2.2,0.7,2.3,1.8C58.1,89.6,56.6,89.9,55,90.1z M61.1,87.9
		c-0.3-0.8-0.9-1.5-1.7-2c0.4-0.5,0.7-1.2,0.8-1.9c0.7-0.1,1.3,0,1.7,0.3c0.4,0.3,0.7,0.7,0.8,1.3C63,86.7,62.4,87.5,61.1,87.9z
		 M64.7,85.5c0-0.1,0-0.2,0-0.2c-0.2-1.1-0.8-1.9-1.6-2.5c0,0-0.1-0.1-0.1-0.1c0.2-0.3,0.4-0.5,0.5-0.8c0.4-0.1,0.7-0.1,1,0
		c0.5,0.1,0.9,0.5,1.1,1C66.1,83.8,65.8,84.8,64.7,85.5z M66.1,80.6c-0.3-0.3-0.7-0.5-1.1-0.6c-0.4-0.1-0.9-0.2-1.3-0.1
		c0,0,0-0.1,0-0.1c0.6-0.4,1.2-0.8,1.7-1.3c0.4,0.4,0.7,0.8,0.8,1.3C66.2,80.1,66.2,80.3,66.1,80.6z M67.3,57.3
		c0.9,1.7,1.1,3.6,0.4,5.6c-0.2,0.5-0.4,1-0.6,1.4C66.3,61.5,66.3,58.2,67.3,57.3z M67.7,81.9c0.3-0.8,0.4-1.7,0.3-2.5
		c-0.1-0.7-0.5-1.4-1-2c0.2-0.4,0.6-0.8,1.1-1c0.4-0.2,1-0.2,1.5-0.2C69.2,78.4,68.6,80.3,67.7,81.9z M67.1,72.7
		c0.4,0,0.9,0.1,1.2,0.4c0.4,0.3,0.8,0.8,1,1.4c-0.7,0-1.3,0.1-1.9,0.3c-0.1,0-0.2,0.1-0.3,0.1c0.1-0.4,0.1-0.7,0.1-1.1
		C67.2,73.4,67.1,73,67.1,72.7z M69.4,71.5c-0.7-0.5-1.6-0.7-2.5-0.7c0.5-1,1.7-1.2,2.9-1.1c0,0.5,0.1,1,0.1,1.5
		c0,0.3,0.1,0.6,0.1,0.9C69.8,71.8,69.6,71.6,69.4,71.5z M71.4,66.3c-0.7,0.4-1.1,0.9-1.3,1.5c-0.4,0-0.8-0.1-1.2,0
		c0.2-0.2,0.5-0.5,0.8-0.7c1.5-1.3,3.6-3.2,3.2-6.5c-0.3-2.4-1.3-4.1-2-5.1c0.2-0.1,0.3-0.3,0.5-0.5c0.4,0.7,0.9,1.2,1.3,1.7
		c1.2,1.6,2.1,2.7,2.1,4.7C74.6,63.7,73.7,65.1,71.4,66.3z"/>
</g>
</svg>
