<?xml version="1.0" encoding="UTF-8" standalone="no"?>
<svg width="602px" height="175px" viewBox="0 0 602 175" version="1.1" xmlns="http://www.w3.org/2000/svg" xmlns:xlink="http://www.w3.org/1999/xlink" xmlns:sketch="http://www.bohemiancoding.com/sketch/ns">
    <!-- Generator: Sketch 3.3.3 (12072) - http://www.bohemiancoding.com/sketch -->
    <title>logo</title>
    <desc>Created with Sketch.</desc>
    <defs></defs>
    <g id="Page-1" stroke="none" stroke-width="1" fill="none" fill-rule="evenodd" sketch:type="MSPage">
        <g id="logo" sketch:type="MSLayerGroup" fill="#232020">
            <g id="Group" sketch:type="MSShapeGroup">
                <path d="M221.9,174.5 C221.1,174.5 220.3,174.4 219.6,174.3 L219.3,174.3 C218.8,174.3 217.7,174.3 217.1,173.1 C216.4,173 216,172.6 215.8,172 L215.7,171.6 C214.4,171.1 213.2,170.3 212.4,168.6 C212.3,168.5 212.2,168.3 212.1,168.2 C211.7,167.6 211,166.6 211.9,165.3 C212.3,164.7 212.8,164.5 213.2,164.3 L213.4,164.2 C213.9,164 214.5,163.9 215,163.9 C216.1,163.9 217,164.4 217.8,164.8 C218.4,165.1 218.9,165.4 219.4,165.5 C219.9,165.5 220.4,165.6 220.9,165.6 C223,165.6 225.2,165.2 227.7,164.5 C229.9,163.8 232.5,162.9 234.6,161.5 C235.7,160.8 236.9,160.1 238,159.4 C240.1,158.2 242.2,156.9 244,155.4 C244.6,154.9 245.2,154.4 245.8,153.9 C248.2,151.9 250.7,149.9 252.9,147.6 C256.8,143.6 257.1,139.9 254,135.4 C251.1,131.2 249.3,127.5 248.2,123.8 C246.9,119.4 247,114.9 248.3,109.9 C248.4,109.6 248.5,109.3 248.5,109 C248.8,107.8 249.1,106.6 249.6,105.3 C252,99.4 257.4,90.9 259.8,86.9 L255.1,90.7 C253.1,92.4 251.1,94.5 249,96 C246.4,97.8 244.4,99.9 242,101.9 C240,103.6 238.9,105.2 236.7,106.8 C235.6,107.6 234.6,108.5 233.6,109.3 C231.7,110.8 229.8,112.4 227.6,113.7 C227.3,113.9 227,114.1 226.7,114.4 C226.1,114.9 225.4,115.5 224.4,115.8 C223.5,116.1 222.7,116.2 221.9,116.2 C219.8,116.2 218.1,115.3 216.5,113.3 C214.8,111.2 214.5,108.7 215.7,106 C217.7,101.2 220.6,96.9 223.1,93.3 C223.6,92.6 224,91.8 224.5,90.9 C225,90 225.5,89.1 226.1,88.2 C226.7,87.3 227.3,86.3 227.9,85.3 C228.6,84.1 229.3,82.9 230.2,81.8 C232.2,79.2 234,76.3 235.7,73 C236.2,72 236.8,71 237.3,70.1 C238.8,67.4 240.3,64.6 241.3,61.7 C241.6,60.7 242.4,60.1 243.3,60.1 C243.6,60.1 243.9,60.2 244.3,60.3 C245.5,60.7 246.7,61.2 248,61.4 C248.8,61.6 249.5,62.2 249.9,63.2 C250.4,64.3 250.7,66 250.1,67.1 C245.1,76.3 239.9,85 234.6,93.2 C234.1,93.9 233.6,94.6 233.2,95.4 C232.5,96.4 228.4,102.1 227.7,103.2 C228.5,102.6 232.9,98.8 233.7,98.3 C234.3,97.9 235.3,96.4 235.9,95.9 C236.5,95.5 237.5,94.6 238.1,94.1 C239,93.3 239.9,92.4 241.1,91.7 C242.1,91.1 242.9,90.5 243.5,89.9 C244.3,89 244.4,88.5 245.3,87.9 C245.6,87.7 245.9,87.5 246.2,87.2 C246.3,87 246.6,86.7 247.1,86.6 C247.3,86.1 247.7,85.8 247.9,85.5 L248.1,85.3 C248.7,84.7 249.3,84.2 249.9,83.8 C250.7,83.2 251.4,82.7 251.9,82 C252,81.8 252.3,81.5 252.8,81.4 C253.5,81.3 253.9,80.8 254.6,80.1 C255,79.7 255.5,79.2 256,78.8 C256.5,78.4 257,77.9 257.6,77.4 C258,77 258.4,76.6 258.8,76.2 C259.4,75.7 259.9,75.3 260.5,74.9 C261.1,74.5 261.6,74.2 262.1,73.8 C265.6,70.7 268.7,68 271.6,65.6 C272.4,64.9 273.3,64.3 274.1,63.7 C274.8,63.2 275.5,62.7 276.2,62.2 C278.2,60.6 280,58.7 281.7,56.5 C282.2,55.9 283,55.1 284.3,55.1 C284.6,55.1 285,55.1 285.3,55.2 C287.7,55.8 289.4,57.2 290.2,59.4 C290.8,61 290.3,62.6 288.8,64.1 C285.9,66.8 283.2,69.9 280.8,73.3 C279.9,74.5 278.9,75.6 277.9,76.7 C277.6,77 277.3,77.3 277,77.7 C276.4,78.4 275.9,79.1 275.4,79.9 C274.9,80.8 274.3,81.7 273.6,82.5 C272.6,83.6 271.8,84.9 270.9,86.3 C270.2,87.4 269.5,88.5 268.7,89.5 C267.1,91.5 266,93.4 265.3,95.2 C265.3,95.3 265.2,95.6 265.1,95.8 L264.9,96.1 C264.4,96.7 264,97.3 263.7,98.1 C263.5,98.5 263.4,98.8 263.2,99.2 C262.6,100.5 262,101.9 261.2,103.2 C260.5,104.3 260,105.4 259.4,106.6 C259.2,107 259,107.5 258.8,107.9 C258.2,109 258,110.4 257.7,111.8 C257.6,112.3 257.5,112.7 257.4,113.2 C256.4,117.5 256.5,121.1 257.8,124.3 C258.8,126.8 260.1,129.2 261.9,131.7 C264.6,135.5 266,139.1 266,142.8 C266.1,145.8 265.3,148.5 263.6,150.9 C263.1,151.6 262.6,152.1 262.1,152.7 C261.6,153.3 261,153.9 260.6,154.5 C260.1,155.3 259.3,155.8 258.6,156.2 C258,156.5 257.7,156.8 257.4,157.1 C257.2,157.8 256.5,158.1 256.3,158.2 C255.7,158.7 255.1,159.2 254.6,159.6 C253.1,160.8 251.6,162.1 249.9,163.1 C248.7,163.7 247.6,164.5 246.4,165.2 C245.3,165.9 244.3,166.6 243.1,167.2 C241.6,168 240.1,168.8 238.6,169.6 C236.8,170.5 234.9,171.5 233.1,172.5 C232.2,173 231.3,173.2 230.5,173.3 C230.3,173.3 230.2,173.4 230,173.4 C229.6,173.5 229.2,173.6 228.8,173.7 C226.3,174 224.1,174.5 221.9,174.5 L221.9,174.5 Z" id="Shape"></path>
                <path d="M251.2,45.9 C250.5,45.9 249.7,45.5 249.4,44.3 C249.4,44.1 249.2,43.9 249,43.7 C248.6,43.1 248.1,42.2 248.4,41.1 C247.9,40.7 247.8,40.2 247.7,39.9 C247.6,39.2 247.9,38.6 248.5,38 C249.4,37.2 250.2,36.3 251,35.3 C252.1,34 253.2,32.7 254.6,31.7 C254.7,31.6 254.8,31.4 254.9,31.2 C255.1,30.8 255.3,30.4 255.7,30 C256.4,29.2 257.2,28.4 257.9,27.7 C259.5,26 261.1,24.3 262.7,22.7 C264.7,20.7 266.6,18.7 268.5,16.7 C269.5,15.7 270.5,14.7 271.4,13.7 C272.2,12.9 274.2,12.2 275.3,12.2 C275.9,12.2 276.3,12.3 276.7,12.6 C276.9,12.8 277.1,12.9 277.3,13 C278.3,13.8 279.8,14.9 279.5,17.5 L279.5,17.6 L279.5,17.7 C279.3,18.4 278.8,19.9 277.6,20.9 C276,22.3 274.4,24 273,25.5 C271.5,27.1 269.9,28.7 268.2,30.2 C266.8,31.5 265.4,32.9 264.1,34.3 C263.4,35 262.7,35.7 262,36.4 C261.2,37.2 260.4,38 259.6,38.7 C257.7,40.5 255.8,42.4 254.1,44.3 C253.7,44.7 253.3,44.9 252.9,45.1 C252.8,45.2 252.7,45.2 252.5,45.3 C252.1,45.7 251.6,45.9 251.2,45.9 L251.2,45.9 Z" id="Shape"></path>
                <path d="M278.4,17.4 C278.2,18.1 277.8,19.3 276.8,20.2 C273.5,23.1 270.7,26.6 267.4,29.5 C265.2,31.5 263.2,33.7 261.1,35.7 C258.4,38.3 255.7,40.9 253.1,43.7 C252.8,44.1 252.2,44.3 251.8,44.5 C251.1,44.9 250.6,44.8 250.4,44 C250.1,43 248.8,42.2 249.6,40.8 C249.6,40.7 249.5,40.4 249.3,40.4 C248.4,39.9 248.7,39.3 249.2,38.8 C251.3,36.8 252.9,34.3 255.2,32.5 C255.7,32.1 255.8,31.2 256.4,30.7 C258.7,28.3 261,25.7 263.4,23.4 C266.4,20.4 269.3,17.4 272.2,14.4 C272.9,13.7 275.4,12.9 276,13.4 C277.1,14.4 278.7,15 278.4,17.4 L278.4,17.4 Z" id="Shape"></path>
                <path d="M564.7,113 C565.3,112.4 566,112.2 566.8,112.2 C567.3,112.8 567.8,111.8 568.4,112.3 C567.6,113.1 566.4,113 565.6,113.5 C565.2,113.6 564.7,113.6 564.7,113 L564.7,113 Z" id="Shape"></path>
                <path d="M459.6,108.1 C460.1,106.4 461.5,106.5 462.8,106.5 C461.7,106.9 460.8,107.9 459.6,108.1 L459.6,108.1 Z" id="Shape"></path>
                <path d="M551.3,116.1 C551.8,116.2 552.4,115.9 552.9,116.2 C552,117 551.9,117 550.8,116.6 C550.8,116.3 551.3,116.5 551.3,116.1 L551.3,116.1 L551.3,116.1 Z" id="Shape"></path>
                <path d="M255.7,158.6 C255.6,158.6 254.9,158.6 254.6,157.9 L253.7,157.7 L254.5,156.4 C254.6,156.2 255,155.6 255.7,155.4 C256,155.2 256.3,155.2 256.6,155.2 C257.3,155.2 257.9,155.7 258,156.5 C258.1,157.3 257.7,157.9 256.8,158.3 C256.8,158.3 256.7,158.3 256.7,158.4 C256.5,158.4 256.1,158.6 255.7,158.6 L255.7,158.6 Z" id="Shape"></path>
                <path d="M255.5,157 C255.7,156.8 255.8,156.5 256.1,156.5 C256.4,156.3 256.8,156.3 256.9,156.6 C257,157.1 256.3,157.1 256,157.4 C255.4,157.8 255.7,157 255.5,157 L255.5,157 Z" id="Shape"></path>
                <path d="M100.5,107.8 L100.4,107.8 C100.1,107.7 99.7,107.6 99.3,107.2 C99,106.9 99,106.4 99.1,106 C99.2,105.7 99.5,105.3 100.2,105.1 L100.3,105.1 C100.9,104.9 101.6,104.7 102.3,104.7 L102.8,106.2 L103.8,106.5 L101.3,107.7 L101,108 L100.5,107.8 L100.5,107.8 Z" id="Shape"></path>
                <path d="M100.8,106.8 C100.6,106.7 100.3,106.7 100.2,106.6 C100.1,106.4 100.3,106.3 100.5,106.3 C101.1,106.1 101.7,105.9 102.4,105.9 C101.8,106.1 101.3,106.5 100.8,106.8 L100.8,106.8 L100.8,106.8 Z" id="Shape"></path>
                <path d="M104.1,106.2 C103.2,106.2 102.8,105.7 102.7,105.3 C102.5,104.9 102.5,104.5 102.7,104.2 C102.9,103.6 103.4,103.4 103.6,103.4 C103.9,103.3 104.2,103.2 104.5,103.1 L104.9,103 L106.6,102.4 L106.3,104.2 C106.3,104.3 106.3,104.4 106.2,104.4 L107.1,104.6 L105.2,105.8 L105.1,106.3 L104.1,106.2 L104.1,106.2 Z" id="Shape"></path>
                <path d="M104.3,105.1 C104.1,105 103.8,105.2 103.7,104.9 C103.6,104.6 103.8,104.5 104,104.4 C104.4,104.2 104.7,104.1 105.2,104 C105.1,104.6 104.3,104.6 104.3,105.1 L104.3,105.1 L104.3,105.1 Z" id="Shape"></path>
                <g id="Shape">
                    <path d="M519.5,119.7 C518.8,119.7 518.2,119.8 517.4,119.8 C516.5,119.8 515.6,119.8 514.7,119.7 L513.6,119.7 C512.4,119.7 511,119.6 509.8,118.6 C509.6,118.5 509.3,118.5 508.9,118.4 C508.4,118.4 507.9,118.4 507.3,118.1 C505,117.2 502.3,116.1 499.7,114.5 C497.2,113 495,110.9 493,108.1 C490.5,104.7 489.2,101 489.2,97.1 L489.2,96.1 C489.2,95.2 489.6,92.9 489.6,91.9 C488,92.9 484.4,95.3 482.8,96.1 C481.8,96.6 480.9,97.1 479.9,97.7 C478.3,98.6 476.1,99.8 474.5,100.7 C471.3,102.6 469.7,103.3 466.4,105 C465.8,105.3 464.7,106.1 464.1,106.3 C463.6,106.5 463.8,107.1 463.3,107.3 L463.2,107.4 L463.1,107.4 C461.9,107.6 461.1,108 460.6,108.7 L460.5,108.9 L460.3,109 C457.6,110.4 454.6,111.5 451.2,112.6 C450.9,112.7 450.6,112.7 450.3,112.7 C449.2,112.7 448.3,112.1 447.7,111.6 C447.5,111.5 447.3,111.3 447.2,111.2 C444.2,109.4 443.2,106.4 444.3,102.7 C445.7,98.3 447.7,94.3 450.2,90.9 C451.4,89.3 452.8,87.7 454.3,86.4 C454.8,85.9 455.4,85.4 455.9,84.8 C456.6,84.1 457.3,83.4 458,82.8 C461.8,79.5 466.2,76.3 471.4,73 C472,72.6 475.5,70.5 476.1,70 C475.6,70 472.6,70.7 472.1,70.7 C469.7,70.7 466.9,71 464.6,71.1 C462.2,71.2 459.7,71.3 457.3,71.3 C455.9,71.3 454.3,71 453.1,71 C446.2,70.6 439.5,69.4 432.7,66.1 C431.9,67.9 430.7,71 429.8,72.7 L429.3,73.5 C428.8,74.4 427.9,75.8 426.5,77 C426,77.4 425.8,78 425.4,78.7 C425.1,79.4 424.7,80.2 424.1,80.9 C423.7,81.3 423.3,81.8 423,82.2 C422.1,83.4 421.1,84.6 419.7,85.5 C419.3,85.8 418.9,86.3 418.5,86.9 C418.2,87.3 417.9,87.8 417.5,88.2 C415.5,90.3 413.4,92.2 411.3,94 C410.6,94.6 410,95.2 409.3,95.8 C407.1,97.8 404.7,99.4 402.4,101 C401.6,101.6 400.8,102.1 399.9,102.7 C399.5,103 399,103.3 398.6,103.7 C398.1,104.1 397.6,104.4 397.1,104.8 C394.9,106.3 392.5,107.1 390,107.1 C386.1,107.1 382,105.2 379.2,102 C378.1,100.7 377.2,99.2 376.6,97.6 C376.1,98.8 375.5,99.9 375.1,101 C374.4,102.6 373.6,104.2 372.8,105.7 C372.4,106.4 372.1,107.1 371.7,107.7 C370.8,109.4 369.8,111.1 368.8,112.7 C368.8,112.7 368.2,113.7 366.7,114.7 C365.3,115.6 363.4,116 361.5,116 C360,116 358.5,115.4 357.4,114.5 C356.1,113.3 355.1,111.7 354.5,109.8 C354.5,109.7 354.4,109.6 354.4,109.5 C354.2,109.1 353.9,108.1 354.4,107.3 C354.2,106.6 354.4,106 354.5,105.6 C354.6,105.4 354.6,105.1 354.6,105 C354.1,104 354.3,103 354.5,102.2 C354.6,102 354.6,101.8 354.6,101.6 C355,98.5 355.7,95.6 356.5,92.8 C356.8,91.8 357,90.9 357.3,89.9 C358.1,86.9 359,83.7 360,80.7 C360.8,78.3 361.6,76 362.5,73.7 C362.9,72.7 363.2,71.7 363.6,70.7 C364.3,68.7 365.9,67.5 368.1,67.4 L368.5,67.4 C370.2,67.4 370.8,67.3 372,68.4 C374.2,70.5 373.1,73 372.4,74.5 C372.3,74.7 372.2,74.9 372.1,75.1 C371.1,77.4 370.6,80.6 369.8,83 C369.4,84.1 368.8,85.5 368.4,86.6 C367.7,88.7 367.2,90.8 366.6,92.9 C366.3,93.9 365.9,94.7 365.6,95.6 C365.3,96.5 364.8,98 364.5,98.8 C364,100.2 362.9,104.6 363.5,105.2 C364.8,106.5 367.5,101.5 368,100.5 C368.3,99.8 370.1,96.4 370.4,95.7 C372.6,90.4 373.2,87.7 375.1,80.9 C375.5,79.6 375.8,78.2 376.2,76.8 C376.7,74.6 377.3,72.4 378.1,70.2 C378.9,68 380,67.7 382,67.5 L382.6,67.5 C383.8,67.5 384.6,68 385.4,68.4 C387.5,69.8 388.4,72.2 387.6,74.6 C386,79.6 385.2,85 385.2,91 C385.2,93.9 385.8,95.7 387.1,97.1 C387.6,97.6 388,97.7 388.3,97.7 C388.5,97.7 388.7,97.7 388.9,97.6 C392.4,96.5 395.7,94.8 399,92.5 C403.2,89.5 407.2,86 411.3,81.8 C413.5,79.5 415.5,77.1 417.4,74.9 C419.9,71.9 421.6,68.6 423.5,65 L423.6,64.9 C424.2,63.8 424.3,62.6 424.4,61.3 L424.4,61.1 C424.4,61.1 424.3,60.9 424.3,60.8 C424.2,60.6 424.1,60.5 424.1,60.3 C423.4,58.5 422.3,56 424.1,53.5 C424.3,53.1 424.6,52.9 424.8,52.8 C425.2,52.5 425.6,52.4 426.1,52.4 C426.5,52.4 426.8,52.5 427.1,52.6 C427.3,52.6 427.4,52.7 427.5,52.7 L427.6,52.7 C427.8,52.6 428.2,52.5 428.7,52.5 C429.5,52.5 430.1,52.9 430.4,53.6 L430.5,53.6 C431,53.8 432.1,54.1 432.5,55.3 C433.8,59 437,60.1 440.7,61 C442.8,61.5 444.6,61.9 446.2,62.2 C447.2,62.4 448.2,62.4 449.3,62.5 C449.7,62.5 450.2,62.5 450.6,62.6 L451.6,62.7 C454.1,62.8 456.8,63 459.3,63 C461.7,63 463.7,62.9 465.7,62.6 C466.6,62.5 467.4,62.5 468.2,62.5 L469.4,62.5 C470.5,62.5 471.4,62.5 472.2,62.3 C474,61.9 475.8,61.9 477.4,61.9 L478.9,61.9 C479.8,61.9 480.8,61.9 481.7,61.8 L481.8,61.8 C483.3,61.7 484.9,61.5 486.5,61.5 C487.3,61.5 488.1,61.5 488.9,61.6 C489.8,61.7 491,62 491.9,63.2 C492,63.4 492.2,63.6 492.4,63.8 C493,64.4 494,65.4 493.8,66.9 L493.8,67.1 C493.8,67.5 493.8,68.5 492.8,69 C492,71.2 490.2,72.3 488.6,73.2 C488.2,73.5 487.7,73.7 487.3,73.9 C487.1,74.1 486.8,74.2 486.6,74.4 C485.6,75.1 484.6,75.7 483.5,76.3 C483.4,76.3 483.3,76.6 483.2,76.7 C483,77.1 482.6,77.8 481.8,78.2 C481.6,78.3 481.5,78.4 481.3,78.5 C480.8,78.8 480.2,79.2 479.3,79.3 C479.2,79.3 479,79.5 478.7,79.9 C478.4,80.2 478.1,80.6 477.7,80.9 C477.3,81.2 476.8,81.4 476.4,81.7 C476.1,81.9 475.7,82.1 475.4,82.3 C474.9,82.6 474.4,82.9 473.8,83.2 C472.6,83.8 471.5,84.4 470.7,85.5 C470.3,86.1 469.3,87.5 467.5,87.7 C467.4,88.1 467.3,88.6 466.7,88.9 C465.4,89.8 464.2,90.9 463,92.1 C462.5,92.7 461.9,93.2 461.3,93.7 C459.7,95.2 453.8,100.9 453.4,103 C454.8,102.2 458,100.6 459.6,99.8 C462.6,98.2 464.9,96.8 466.6,95.7 C467.4,95.2 468.5,94.6 469.4,94.1 L473.5,92.1 C476.2,90.6 476.7,90.3 479.3,88.6 C481.7,87 485.7,85.3 488.2,83.9 C490.8,82.5 491.4,81.6 493.9,80 C494.9,79.3 495.8,76.9 496.5,75.9 C496.7,75.7 496.9,75.4 497,75.2 C498.5,73.2 500.2,71.4 501.9,69.7 C502.5,69.1 503.1,68.4 503.7,67.8 C506.8,64.5 510.3,61.7 514.6,59.2 C515.2,58.9 515.7,58.5 516.3,58.1 C517.3,57.4 518.4,56.7 519.5,56.2 C523.7,54.2 527.6,53 531.6,52.4 C533.3,52.1 535.1,51.9 537,51.8 L537.9,51.8 C540.6,51.8 543.2,52.5 545.7,53.3 L546.1,53.4 C547.6,53.8 548.3,55.4 548.7,56.5 C548.8,56.6 548.8,56.7 548.9,56.9 C549.2,57.4 549.7,58.1 549.5,59.1 C549.2,60.8 548.2,61.7 547.3,62.4 C547.1,62.6 546.9,62.7 546.8,62.9 C544.6,65 541.8,66.2 539.2,67.3 C538.5,67.6 537.8,67.9 537.1,68.2 L536.1,68.6 C529.2,71.8 522,75.2 515.2,78.8 C512.7,80.1 510.2,81.6 507.7,83 C506.7,83.6 505.7,84.1 504.8,84.7 C503.9,85.2 503,85.7 501.9,86.2 C500.6,86.8 499.5,87.9 498.7,89.7 C497.1,93.3 497.1,97.4 498.7,101.5 C499.9,104.4 502.4,106.3 504.8,107.8 C507.4,109.4 510.4,110.5 514.5,111.2 C518,111.8 521.7,112 524.9,112.1 L525.7,112.1 C527,112.1 528.3,112 529.6,111.8 C530.7,111.7 531.9,111.6 533.1,111.5 C533.9,111.5 534.8,111.3 535.7,111.2 C536.7,111 537.8,110.9 538.9,110.9 C539.3,110.9 539.6,110.9 539.9,111 L539.9,111 C540.1,111 540.4,110.9 540.7,110.8 C540.9,110.7 541.2,110.6 541.4,110.6 C542.9,110.3 544.4,110 545.9,109.8 C547.7,109.5 549.7,109.2 551.5,108.7 C552.1,108.5 552.6,108.4 553.2,108.2 C554.9,107.7 556.7,107.2 558.5,107 C561.4,106.6 564.4,105.8 567.2,105 C568.9,104.5 570.7,104 572.6,103.6 C575.6,102.9 578.8,101.8 582.2,100.3 L583.2,99.9 C584.3,99.4 585.5,98.9 586.6,98.5 C589.5,97.5 592,95.4 594.5,91.9 C595.2,90.9 596.4,90.3 597.6,90.3 C598.9,90.3 600.1,91 600.7,92.2 C600.9,92.6 600.8,93 600.8,93.2 L600.8,93.5 C601.1,93.6 601.3,93.7 601.5,94 C602,94.6 601.8,95.4 601.7,95.9 C600.8,98.8 599.6,102.1 596.1,104.2 L595.3,104.6 C592.5,106.2 589.6,107.8 586.4,108.8 C585.1,109.2 583.9,109.5 582.6,109.9 C581.4,110.2 580.2,110.6 579,110.9 C578.2,111.1 577.5,111.3 576.7,111.6 C575.1,112 573.6,112.4 572.1,113.1 C571.6,113.3 571.2,113.4 570.7,113.5 C570.3,113.6 569.9,113.7 569.6,113.8 L568.6,114.4 L568.1,113.4 C568,113.4 567.9,113.5 567.9,113.5 C567.7,113.6 567.4,113.7 567.2,113.7 C566.7,114.2 566,114.6 565.1,114.6 C564.9,114.6 564.7,114.6 564.5,114.5 L564.3,114.5 C563.4,114.5 562.5,114.8 561.6,115.1 C560.9,115.3 560.2,115.5 559.4,115.7 L558.6,115.8 C556.2,116.2 553.9,116.6 551.8,117.5 L551.3,116.7 L551.1,117.6 L550.8,117.6 C550.6,117.6 550.3,117.6 550,117.7 C549.7,117.8 549.3,117.8 548.9,117.8 C548.7,118.1 548.3,118.2 547.9,118.2 L547.6,118.2 L546.9,118.2 C546,118.2 545.3,118.4 544.5,118.9 C544.2,119.1 544,119.1 543.7,119.1 C543.4,119.1 543.2,119 543,118.9 C542.8,119 542.5,119 542.4,119 C542.1,119 541.8,118.9 541.6,118.8 L541.6,118.8 C539.8,119.5 537.9,119.6 536.1,119.8 C535.1,119.9 534.1,120 533.1,120.1 C530.7,120.5 528.2,120.6 525.9,120.6 L525,120.6 L523.7,120.6 L522.5,120.6 C521.9,120.6 521.4,120.6 520.9,120.7 L519.6,121 L519.5,119.7 L519.5,119.7 Z M536.7,58.6 C535.7,56.9 525.3,60.2 522,62.3 L518.5,64.6 C516.9,65.6 505.5,75.6 504,76.7 C505.9,75.6 518.9,68.9 520.8,67.8 C525.5,65.2 537.7,60.3 536.7,58.6 L536.7,58.6 Z"></path>
                    <path d="M19,169.6 C18.4,169.6 17,169.6 16.4,169.1 C14.4,167.8 13.5,165.9 12.7,164 C12.4,163.2 12.5,162 13.4,161.3 C13.7,161.1 13.8,160.8 13.9,160.3 C14,160.1 14,159.9 14.1,159.7 C14.9,157.4 16.3,155.7 17.7,153.9 L18.3,153.2 C20.6,150.3 23.2,147.6 25.7,145.1 L26.2,144.6 C27.7,143.1 29.2,141.7 30.7,140.3 C31.4,139.6 32.2,138.9 32.9,138.2 C35.7,135.5 38.3,132.7 41,129.9 C41.3,129.6 41.6,129.4 41.8,129.2 C42,129 42.3,128.8 42.5,128.6 C42.1,127.8 41.1,127.1 40.3,126.5 C35.1,122.5 29.4,118.6 22.6,113.9 L22.4,113.8 C18.2,111 13.9,108.1 10.4,104.4 C5.4,99.2 2.5,94.2 1.1,88.7 C-0.4,82.7 0.5,76.6 3.9,69.9 C5.4,66.8 7.4,64.1 9.9,61 C11.8,58.7 13.9,56.6 16,54.6 C16.7,53.9 17.4,53.2 18.1,52.6 C19.9,50.9 21.9,49.3 23.8,47.9 L24.1,47.7 C24.8,47.2 25.3,46.6 26,46.1 C26.6,45.5 27.2,45 27.9,44.4 C28.9,43.6 30,42.8 31.1,42.1 C32.5,41.2 33.8,40.3 35,39.2 C36,38.3 37.1,37.9 38.2,37.4 C38.5,37.3 38.7,37.2 39,37 C39.6,36.7 40.1,36.3 40.7,35.5 C41,35.1 41.4,34.9 41.9,34.9 L42,34.9 C42.1,34.9 42.2,34.8 42.3,34.8 C43.2,34.6 43.3,34.5 43.3,34.2 C43.5,33.5 44.1,33 45.2,32.7 C47.2,32.1 48.6,31.4 49.8,30.3 C50.2,29.9 50.7,29.7 51.3,29.5 C51.6,29.4 51.9,29.3 52.1,29.2 C52.9,28.7 53.7,28.4 54.5,28.2 C55.5,27.9 56.3,27.6 56.9,27 C57,26.9 57.6,26.2 58.4,26.2 L58.6,26.2 L59,26 C59.1,26 59.3,26.1 59.4,26.1 C59.8,26.1 60.3,25.8 60.8,25.4 C61.3,25 61.9,24.6 62.7,24.4 C63.6,24.2 64.4,23.8 65.3,23.5 C67,22.8 68.7,22.2 70.7,22.2 L71,22.2 C73.9,22.3 75.9,23.7 76.7,26 C77,27 76.9,28.2 76.3,29.3 C75.8,30.3 75,31.1 74.1,31.4 C72,32.1 69.9,33 67.8,33.9 C65.8,34.8 63.7,35.8 61.5,36.5 C61.3,36.6 61,36.7 60.8,36.9 C60.5,37.1 60.2,37.3 59.8,37.4 C55,39.3 50.4,41.7 46.6,43.8 C44.7,44.8 42.8,46 40.9,47.2 L39.6,48 C34.6,51 30,55 25.6,58.8 C24.5,59.7 23.4,60.7 22.3,61.6 C19.5,64 16.9,67 14.2,70.9 C11.5,74.9 10,78.3 9.7,81.8 C9.3,86 10.3,89.8 12.8,93.1 C14.2,95 15.7,96.6 17.2,98.1 C19.5,100.3 22.2,102.3 24.8,104.1 C25.4,104.5 26,105 26.6,105.4 C28.8,107.1 31.2,108.6 33.5,110.2 C36.5,112.2 39.6,114.3 42.6,116.6 C44.5,118.1 46.4,119.7 48.4,121.6 L48.5,121.7 C54.9,116.2 57,113.7 62.7,108.2 L63.1,107.8 C64.8,106.2 65.6,103.1 66.1,100.6 C66.4,99.5 66.6,98.3 66.8,97.1 C67.2,94.9 67.7,92.6 68.3,90.4 C68.7,89 69.4,87.7 70.2,86.4 C70.5,85.9 70.7,85.4 71,84.9 C72.3,82.5 73.6,80.1 76.2,78.5 C77.8,77.6 79.4,76.7 80.9,76.1 C81.2,76 81.5,75.9 81.8,75.9 C82.3,75.9 82.8,76 83.3,76.2 L83.5,76.3 C86.6,77.1 89.7,77.9 91.7,81.1 C92.8,82.9 92.9,84.9 91.9,87.1 C90.5,90.1 88.6,93.1 85.8,96.5 C83.4,99.5 80.8,102.3 78.3,105.1 C77.1,106.4 75.8,107.8 74.6,109.1 C74.4,109.3 74.3,109.7 74.2,110.2 C77.7,109 80.5,107.8 82.9,106.4 C83.8,105.9 84.8,105.5 85.9,105.1 C86.5,104.9 87,104.5 87.6,104.1 C87.9,103.9 88.2,103.7 88.4,103.6 C88.5,103.5 88.6,103.5 88.7,103.4 C89.2,103.1 89.8,102.7 90.6,102.7 L90.6,102.7 C91,102.3 91.5,102.1 91.8,102 C91.9,102 92,101.9 92,101.9 C92.2,101.8 92.5,101.6 92.7,101.4 C93.4,100.9 94.2,100.2 95.3,100.2 C95.4,99.9 95.6,99.7 96,99.5 C97.1,99 98.2,98.4 99.2,97.8 C101,96.8 102.8,95.8 104.8,95 C105.2,94.8 105.6,94.7 106,94.5 C106.9,94.1 107.9,93.7 108.9,93.3 C109.3,93.2 109.7,92.8 110.2,92.4 C110.5,92.1 119.4,88 119.7,87.7 C120,87.5 120.3,87.4 120.5,87.3 C120.6,87.3 120.7,87.2 120.7,87.2 L121.8,86.7 L122.1,87.3 C122.2,87.3 122.2,87.2 122.3,87.2 C122.5,87.1 122.7,87 122.8,86.9 L122.5,86.2 L123.6,85.8 C123.6,85.8 123.7,85.7 123.8,85.7 C124.1,85.5 124.5,85.1 125.2,85.1 C125.4,85.1 125.5,85.1 125.7,85.2 C125.7,85.1 125.8,85.1 125.8,85 C126,84.6 126.4,84.2 127.3,84.2 L127.6,84.2 L127.9,84.2 L128.1,84.2 L128.3,84.2 L128.1,84 L129,83.2 C129.4,82.9 130.1,82.3 131,82.3 L131.3,82.3 L131.6,82.3 C132.6,82.3 133.6,81.8 134,81.2 C135.2,79.6 136.8,79.2 138.1,78.9 C138.1,78.9 138.5,78.8 138.6,78.8 C138.9,78.3 139.4,77.5 140.5,77.5 C140.8,77.5 141.1,77.5 141.4,77.6 C141.8,77.6 142.8,77 143.3,76.7 L143.4,76.6 C144.6,75.8 145.9,75.2 147.3,74.6 C147.4,74.6 147.5,74.4 147.7,74.3 C148,74 148.4,73.6 149,73.3 C152.4,72 155.8,70.5 159,69 C159.2,68.9 159.5,68.7 159.8,68.5 C160.2,68.2 160.6,67.9 161.2,67.6 L161.2,67.5 C161.4,65.3 162.6,64.8 163.5,64.8 C163.9,64.8 164.4,64.9 164.9,65.1 C166,65.5 167.1,66 168.2,66.5 C168.7,66.7 169.2,67 169.7,67.2 C170.5,67.5 171,68.3 170.9,69.3 C170.8,72 171.2,74.6 171.6,77.4 C171.8,78.4 171.9,79.5 172.1,80.5 C172.2,81.4 172.5,82.3 172.9,83.2 C174.1,81.7 175.5,80.5 176.8,79.3 C177.7,78.5 178.6,77.7 179.5,76.9 C181.9,74.4 184.3,72.5 187,71 L187,70.9 C187.6,69.3 188.8,68.3 190.2,68.3 C191.1,68.3 192.1,68.7 192.9,69.5 C193,69.6 193.3,69.7 193.6,69.8 C194,70 194.5,70.2 195,70.5 C196.5,71.7 197,74 196.1,75.7 C195.3,77.1 194.1,77.9 192.9,78.6 C192.5,78.9 192.1,79.1 191.7,79.4 C186.7,83.1 182.4,87.5 177.7,92.3 C179.1,93.5 179.9,94.9 180.8,96.2 C181.3,97 181.7,97.7 182.2,98.3 C182.6,98.8 183,99.3 183.3,99.7 C184.1,100.7 185,101.8 185.8,103 C187,104.8 186.8,106.9 186.1,108.2 C185.2,110 183.7,111 182.1,111 L182.1,111 L181.6,111 C180.1,110.8 179.2,109.9 178.7,109.2 C178,108.2 177.3,107.2 176.6,106.2 C175.8,105 174.9,103.7 174,102.5 L173.7,102.1 C172.9,101.1 172.1,100 171.4,98.8 L171.4,98.8 C169.5,100.5 167.5,102.1 165.6,103.7 C164.2,104.8 162.9,106 161.5,107.2 C160.5,108.1 159.6,109 158.6,110 C157.5,111.1 156.4,112.2 155.2,113.3 C154.5,113.9 153.6,114.2 152.7,114.2 C151,114.2 149.6,113.1 149.1,111.4 C148.8,110.4 148.6,110.1 148.5,110 C147.7,109.1 147.9,108.3 148.1,107.9 L148.1,107.8 C148.2,107.5 148.3,107.3 148.3,107.1 L148.3,107 C148.1,106.6 148,106.2 148.1,105.8 C148.2,105.3 148.6,104.8 149.2,104.6 C150.6,104 151.6,103 152.7,101.8 C153.4,101.1 154.1,100.4 154.9,99.7 C157,98 159.1,96.2 161.1,94.4 C161.8,93.8 162.4,93.2 163.1,92.6 C163.3,92.4 163.6,92.2 163.8,91.9 C164.2,91.5 164.6,91 165.1,90.7 C165.9,90.2 166.2,89.7 165.5,88.5 C163.9,85.8 163.3,82.8 162.7,79.9 C162.5,79.1 162.4,78.4 162.2,77.6 C161,78 159.9,78.7 158.8,79.3 C157.8,79.9 156.7,80.5 155.5,81 C154.4,81.5 153.2,82 152.1,82.6 C150.1,83.6 148,84.6 145.8,85.2 C145,85.4 144.5,85.9 143.8,86.4 C143.3,86.9 142.6,87.4 141.8,87.8 C138.8,89.2 135.7,90.8 132.7,92.3 L130.5,93.4 C129.3,94 128.2,94.6 127,95.2 C125.7,95.9 124.3,96.7 122.9,97.4 L122.8,97.4 C122.6,97.5 122.5,97.6 122.3,97.6 C121.1,98 111.4,102.6 110.3,103.2 C109.6,103.6 108.8,104.1 108.1,104.5 C107,105 105.7,105.7 104.4,106.2 C104.2,106.3 104,106.5 103.8,106.6 C103.1,107.1 102.2,107.7 101.2,107.9 C100.7,108.6 99.9,108.8 99.4,108.9 C99.2,109 99,109 98.8,109.1 L98.6,109.2 C97,110.2 95.4,111.2 93.5,111.6 C92.7,111.8 92.6,111.9 92.5,112.1 C92.2,113 91,113.5 90.3,113.5 L90.2,113.5 C89.7,113.5 89.2,113.8 88.6,114.1 C88.3,114.3 87.9,114.5 87.5,114.7 C87,114.9 86.6,115.3 86.1,115.7 C85.5,116.2 84.9,116.7 84.1,117 C83.7,117.2 83.3,117.3 82.8,117.4 C81.8,117.7 81.2,117.9 80.8,118.6 C80.5,119.2 79.7,119.4 79.3,119.4 C79,119.4 78.8,119.3 78.6,119.2 C78.5,119.2 78.5,119.1 78.5,119.1 C78.4,119.1 78.1,119.3 77.9,119.4 C77.6,119.6 77.2,119.9 76.7,120 C75.7,120.2 74.8,120.3 73.9,120.3 C70.7,120.3 68.3,119 67,116.6 C66.8,116.8 66.7,116.9 66.5,117.1 C65.2,118.3 64,119.5 62.8,120.7 C61.8,121.7 60.8,122.8 59.8,123.8 C57.9,125.7 55.9,127.7 54.2,129.8 C54.1,129.9 54.1,130 54,130 C54,130 54,130 54,130.1 C55.9,132.8 55.8,135.8 55.6,137.9 C55.4,140.1 54.8,142.5 53.9,145 C53.5,146 52.9,146.7 52.3,147.3 C52,147.6 51.7,147.9 51.5,148.2 L51,148.9 C49.9,150.5 48.7,152.2 47,153.4 C45.9,154.1 44.8,154.9 43.8,155.7 C41.4,157.4 39,159.2 36.3,160.7 C35.3,161.2 34.3,161.9 33.4,162.5 C32.4,163.1 31.5,163.8 30.4,164.4 C29.7,164.8 28.9,165.1 28.2,165.5 C27.4,165.8 26.7,166.2 26,166.6 C25.2,167 24.5,167.3 23.7,167.5 C22.6,167.8 21.7,168.1 21.1,168.9 C21.1,169.3 20.6,169.6 19,169.6 L19,169.6 Z M47.5,135.9 C43.5,139.8 31.4,152.7 27.7,156.6 C32,154.5 35.4,152.8 41.3,146.8 C45.5,142.5 47.3,138.3 47.5,135.9 L47.5,135.9 Z M83,84.5 C82.4,84.1 82.4,84.3 81.4,84.5 C81.1,84.6 80.5,85 79.9,85.4 C79.2,85.9 78.5,87.3 78,87.8 C76.6,89.6 74.5,95.3 73.7,97.6 C75.6,95.5 80.5,89.5 82.6,86.8 C82.7,86.6 82.9,86.4 83.1,86.2 C83.6,85.7 83.6,84.9 83,84.5 L83,84.5 Z"></path>
                    <path d="M324.1,128.2 C323.5,128.2 322.9,128.1 322.2,127.8 C318.1,126.1 318,122.9 317.9,120.4 L317.9,120.1 C317.9,119.4 318.2,118.4 319,118.2 C319.4,118.1 319.5,117.8 319.7,117 C319.8,116.7 319.8,116.5 319.9,116.2 C320.3,115.2 320.7,114.2 321,113.1 C321.9,110.6 322.9,108.1 323.7,105.6 C325.4,100.5 327.1,95.9 328.8,91.7 C329.3,90.4 329.8,89 330.3,87.7 C331.3,85 332.3,82.2 333.6,79.6 C333.8,79.3 333.9,79 334.1,78.7 C334.8,77.4 335.4,76 335.8,74.8 C336.3,73.1 337,71.3 337.7,69.7 C338,69 338.2,68.3 338.5,67.7 C339.3,65.6 340.2,63.6 341.1,61.7 C341.6,60.7 342,59.7 342.5,58.6 C344.5,54 346.8,49.2 349.1,44.5 C350.2,42.3 351.3,40.2 352.4,38 C354.3,34.3 356.3,30.5 358.1,26.6 C358.8,25 359.7,23.5 360.5,22 C361.8,19.5 363.2,17 364.2,14.3 C362.2,14.8 360,15.5 357.5,16.4 C356.6,16.7 355.6,17.1 354.7,17.4 C352.7,18.1 350.6,18.8 348.6,19.6 C346.2,20.6 343.8,21.7 341.4,22.8 C340.4,23.3 339.4,23.7 338.4,24.2 C333.3,26.5 328.7,29.6 324.1,32.7 L323.8,32.9 C320.1,35.4 316.4,38.4 312.2,42.6 C311.3,43.5 310.6,44.5 309.8,45.5 C309.5,46 309.1,46.4 308.8,46.9 C308.5,47.3 308.3,47.6 308,48.1 C307.8,48.3 307.7,48.6 307.5,48.9 L306.4,49.2 L305.5,48.4 C305.4,47.9 305.2,47.6 304.9,47.2 C304.8,47.1 304.7,47 304.6,46.8 C302.5,43.9 302.4,41.8 304.3,39.1 C305.6,37.3 307.1,35.1 308.8,33.1 C309.9,31.8 311.3,30.7 312.8,29.7 C313.8,29.1 314.6,28.3 315.6,27.6 C316.5,26.8 317.5,26 318.6,25.3 C320.9,23.8 323.3,22.4 325.6,21.1 C326.6,20.5 327.7,19.9 328.7,19.2 C331.2,17.7 333.9,16.4 336.2,15.3 C337.1,14.9 337.9,14.5 338.7,14.1 C342.2,12.4 345.8,10.6 349.8,9.5 C351.4,9.1 352.9,8.5 354.4,7.9 C355.8,7.3 357.3,6.8 358.8,6.3 C359.3,6.1 359.9,6 360.4,5.8 C363,5 365.7,4.3 368.5,4 C369.6,3.9 370.2,3.4 370.5,2.3 C370.5,2.3 370.5,2.3 370.5,2.2 C370.4,0.8 371.4,0.4 371.8,0.4 L372.3,0.4 C373,0.4 373.8,0.7 374.3,1.2 C375.1,1.9 376.2,2 376.7,2 L377.3,2 C381.9,1.3 386.6,0.9 391.3,0.9 C392.8,0.9 394.3,0.9 395.8,1 C401.7,1.3 407,2.8 411.6,5.5 C415.1,7.6 417.5,13 416.7,17.2 C416.2,20.2 414.9,23.1 412.9,26.3 C411.5,28.4 409.6,31.1 407.3,33.6 C404.7,36.2 402,38.7 399.4,41.1 C398.4,42 397.5,42.9 396.5,43.8 C395.9,44.4 395.1,44.7 394.5,45.1 C394.2,45.3 393.8,45.4 393.6,45.6 C392.6,46.2 391.6,47 390.6,47.8 C389.3,48.8 388,49.8 386.6,50.5 C383.3,52.3 380,54.4 376.9,56.4 C375.2,57.5 373.5,58.5 371.8,59.6 C370.2,60.6 368.4,61.3 366.6,62 C366.1,62.2 365.6,62.4 365.1,62.6 C363.9,63.1 362.6,63.7 361.4,64.3 C359.4,65.3 357.2,66.3 355,67 C354,67.3 353,67.8 352,68.2 C350.7,68.8 349.3,69.4 347.7,69.8 C347.7,69.8 347.7,69.8 347.7,69.9 C347.4,70.8 347,71.7 346.7,72.5 C346.2,73.9 345.6,75.3 345.1,76.7 C344.5,78.1 343.9,79.5 343.3,80.9 C342.5,82.9 341.6,85 340.8,87.1 C339.1,91.5 337.4,96 335.8,100.4 L335.7,100.7 C335.2,102.1 334.7,103.5 334.3,104.9 L334,105.7 C333.9,105.9 333.9,106 333.8,106.2 C333.6,106.8 333.5,107.2 333.6,107.6 C333.9,108.6 333.4,109.8 332.7,110.4 C331.8,111.3 331.4,112.6 331,113.9 C330.8,114.5 330.7,115.1 330.4,115.7 C329.8,117.3 329.3,119 328.8,120.6 C328.6,121.3 328.4,122.1 328.1,122.8 C327.9,123.4 327.8,124.1 327.6,124.8 L327.5,125.2 C327.3,126.2 326.6,127.3 325.8,128 C325.5,128 324.8,128.2 324.1,128.2 L324.1,128.2 Z M392.8,9.6 C391.2,9.6 389.4,9.7 387.3,9.8 C384.8,10 382.3,10.3 379.8,10.5 C378.9,10.6 377.9,10.7 377,10.8 C376.4,10.9 376.1,11.1 375.8,11.5 C375.1,12.8 374.4,14.1 373.8,15.4 C373.5,16 373.3,16.6 373,17.1 C371.7,19.8 370.4,22.5 369.1,25.2 C367,29.7 364.8,34.4 362.3,38.9 C361.3,40.8 360.3,42.8 359.4,44.8 C358.5,46.8 357.5,48.8 356.4,50.8 C355.4,52.6 354.6,54.5 353.6,56.4 C353.6,56.5 353.5,56.5 353.5,56.6 C354.2,56.5 354.8,56.1 355.5,55.8 C355.9,55.6 356.3,55.4 356.7,55.2 C358.1,54.6 359.4,53.9 360.8,53.1 C361.2,52.9 361.6,52.6 362,52.4 C362.9,51.9 363.9,51.3 364.8,50.8 C367.5,49.3 370.4,47.7 373.1,46 C374,45.4 375,45 376,44.5 C377.2,43.9 378.3,43.4 379.4,42.6 C379.6,42.4 379.8,42.3 380,42.1 C381,41.3 382,40.5 383.2,40 C384.3,39.5 385.3,38.8 386.3,38 C387.2,37.3 388.1,36.6 389.2,36 C389.8,35.7 390.3,35.2 390.9,34.7 C391.5,34.2 392.1,33.6 392.8,33.2 C394.6,32.1 396.1,30.7 397.8,29.2 C398.2,28.8 398.7,28.4 399.1,28 C401.3,26.1 402.9,24.1 404.2,22 C404.5,21.5 404.9,20.9 405.2,20.4 C406.3,18.7 407.4,17 407.7,15 C408,13.3 407.8,12.7 406.5,12 C404.6,10.9 402.4,10.5 400.3,10 L400,9.9 C397.9,9.8 395.5,9.6 392.8,9.6 L392.8,9.6 Z"></path>
                </g>
            </g>
        </g>
    </g>
</svg>