<?xml version="1.0" standalone="no"?>
<!DOCTYPE svg PUBLIC "-//W3C//DTD SVG 1.1//EN" "http://www.w3.org/Graphics/SVG/1.1/DTD/svg11.dtd" >
<svg>
<metadata>
Created by FontForge 20120731 at Tue Nov 24 13:22:43 2015
 By ,,,
Copyright (c) 2008 by Nick Shinn. All rights reserved.
</metadata>
<defs>
<font id="FigginsSansV3-Bold" horiz-adv-x="10" >
  <font-face 
    font-family="Figgins Sans V3"
    font-weight="700"
    font-stretch="normal"
    units-per-em="1000"
    panose-1="2 0 8 3 5 0 0 2 0 3"
    ascent="746"
    descent="-254"
    x-height="456"
    cap-height="717"
    bbox="-542 -335 1733 955"
    underline-thickness="26"
    underline-position="-107"
    unicode-range="U+000D-FB04"
  />
<missing-glyph horiz-adv-x="619" 
 />
    <glyph glyph-name="f_j" unicode="fj" horiz-adv-x="561" 
d="M336 380q0 -9 -10 -9h-112v-362q0 -9 -10 -9h-100q-9 0 -9 9v362h-81q-9 0 -9 9v67q0 9 9 9h81v93q0 77 47.5 124.5t135.5 47.5q31 0 49 -4q9 -2 9 -10v-71q0 -9 -10 -9q-24 2 -38 2q-38 0 -56 -23t-18 -57v-93h112q10 0 10 -9v-67zM505 560q0 -9 -9 -9h-104q-9 0 -9 9
v106q0 9 9 9h104q9 0 9 -9v-106zM503 -104q0 -132 -143 -132q-30 0 -55 9q-3 1 -3 6l7 66q1 7 11 7h28q37 0 37 39v556q0 9 8 9h101q9 0 9 -9v-551z" />
    <glyph glyph-name="ff" unicode="ff" horiz-adv-x="615" 
d="M610 380q0 -9 -9 -9h-113v-362q0 -9 -9 -9h-101q-9 0 -9 9v362h-156v-362q0 -9 -9 -9h-101q-9 0 -9 9v362h-80q-9 0 -9 9v67q0 9 9 9h80v60q0 204 184 204q57 0 57 -14v-71q0 -9 -10 -9q-18 2 -37 2q-75 0 -75 -80v-92h156v60q0 204 184 204q57 0 57 -14v-71q0 -9 -10 -9
q-18 2 -30 2h-7q-75 0 -75 -80v-92h113q9 0 9 -9v-67z" />
    <glyph glyph-name="fi" unicode="fi" horiz-adv-x="561" 
d="M506 563q0 -9 -9 -9h-100q-9 0 -9 9v104q0 9 9 9h100q9 0 9 -9v-104zM506 9q0 -9 -9 -9h-100q-9 0 -9 9v438q0 9 9 9h100q9 0 9 -9v-438zM336 380q0 -9 -10 -9h-112v-362q0 -9 -10 -9h-100q-9 0 -9 9v362h-81q-9 0 -9 9v67q0 9 9 9h81v93q0 83 50.5 127.5t134.5 44.5
q31 0 47 -4q9 -2 9 -10v-71q0 -9 -10 -9q-24 2 -38 2q-38 0 -56 -23t-18 -57v-93h112q10 0 10 -9v-67z" />
    <glyph glyph-name="fl" unicode="fl" horiz-adv-x="562" 
d="M506 9q0 -9 -9 -9h-100q-9 0 -9 9v699q0 9 9 9h100q9 0 9 -9v-699zM336 380q0 -9 -10 -9h-112v-362q0 -9 -10 -9h-100q-9 0 -9 9v362h-81q-9 0 -9 9v67q0 9 9 9h81v93q0 83 50.5 127.5t134.5 44.5q31 0 47 -4q9 -2 9 -10v-71q0 -9 -10 -9q-24 2 -38 2q-38 0 -56 -23
t-18 -57v-93h112q10 0 10 -9v-67z" />
    <glyph glyph-name="ffi" unicode="ffi" horiz-adv-x="837" 
d="M610 380q0 -9 -9 -9h-113v-362q0 -9 -9 -9h-101q-9 0 -9 9v362h-156v-362q0 -9 -9 -9h-101q-9 0 -9 9v362h-80q-9 0 -9 9v67q0 9 9 9h80v60q0 204 184 204q57 0 57 -14v-71q0 -9 -10 -9q-3 0 -14.5 1t-22.5 1q-75 0 -75 -80v-92h156v60q0 204 184 204q57 0 57 -14v-71
q0 -9 -10 -9q-4 0 -13.5 1t-16.5 1h-7q-75 0 -75 -80v-92h113q9 0 9 -9v-67zM782 561q0 -9 -9 -9h-105q-8 0 -8 9v106q0 9 8 9h105q9 0 9 -9v-106zM780 9q0 -9 -9 -9h-101q-8 0 -8 9v438q0 9 8 9h101q9 0 9 -9v-438z" />
    <glyph glyph-name="ffl" unicode="ffl" horiz-adv-x="838" 
d="M610 380q0 -9 -9 -9h-113v-362q0 -9 -9 -9h-101q-9 0 -9 9v362h-156v-362q0 -9 -9 -9h-101q-9 0 -9 9v362h-80q-9 0 -9 9v67q0 9 9 9h80v92q0 76 48 124t136 48q28 0 49 -4q8 -2 8 -10v-71q0 -9 -10 -9q-18 2 -37 2q-75 0 -75 -80v-92h156v92q0 76 47.5 124t136.5 48
q28 0 49 -4q8 -2 8 -10v-71q0 -9 -10 -9q-18 2 -37 2q-75 0 -75 -80v-92h113q9 0 9 -9v-67zM781 9q0 -9 -9 -9h-101q-8 0 -8 9v699q0 9 8 9h101q9 0 9 -9v-699z" />
    <glyph glyph-name=".notdef" horiz-adv-x="619" 
 />
    <glyph glyph-name=".null" horiz-adv-x="0" 
 />
    <glyph glyph-name="nonmarkingreturn" horiz-adv-x="333" 
 />
    <glyph glyph-name="CR" unicode="&#xd;" horiz-adv-x="934" 
 />
    <glyph glyph-name="space" unicode=" " horiz-adv-x="272" 
 />
    <glyph glyph-name="exclam" unicode="!" horiz-adv-x="311" 
d="M230 707q-4 -56 -9.5 -237.5t-9.5 -249.5v-10q0 -9 -9 -9h-93q-9 0 -9 9v10q-4 68 -9.5 249.5t-9.5 237.5q0 10 9 10h131q9 0 9 -10zM224 9q0 -9 -8 -9h-121q-10 0 -10 9v123q0 10 10 10h121q8 0 8 -10v-123z" />
    <glyph glyph-name="quotedbl" unicode="&#x22;" horiz-adv-x="466" 
d="M385 404q0 -9 -9 -9h-91q-9 0 -9 9l-5 304q0 9 9 9h101q9 0 9 -9zM191 404q0 -9 -10 -9h-90q-9 0 -9 9l-5 304q0 9 9 9h100q10 0 10 -9z" />
    <glyph glyph-name="numbersign" unicode="#" horiz-adv-x="683" 
d="M617 416q0 -12 -12 -12h-115l-22 -144h103q9 0 9 -8v-60q0 -13 -12 -13h-113l-26 -171q-2 -8 -10 -8h-66q-9 0 -9 9v1l26 169h-156l-27 -171q-2 -8 -9 -8h-66q-9 0 -9 9v2l27 168h-106q-9 0 -9 8v62q0 11 12 11h115l23 144h-105q-9 0 -9 7v63q0 4 4 7t7 3h115l25 163
q2 8 9 8h67q8 0 8 -9v-2l-23 -160h155l25 163q2 8 9 8h65q9 0 9 -9v-2l-23 -160h104q10 0 10 -8v-60zM405 404h-155l-22 -144h155z" />
    <glyph glyph-name="dollar" unicode="$" horiz-adv-x="606" 
d="M524 188q0 -75 -52 -124t-128 -61v-75q0 -9 -9 -9h-73q-10 0 -10 9v75q-130 19 -196 120q-5 7 -5 11q0 3 3 6l64 50q5 4 7 4q5 0 7 -4q58 -79 124 -96v197q-90 28 -134 65.5t-44 112.5q0 74 49.5 123.5t124.5 61.5v73q0 9 10 9h73q9 0 9 -9v-75q103 -18 164 -98
q2 -2 2 -6q0 -3 -2 -5l-52 -55q-6 -6 -9 -6t-5 3q-52 65 -102 80v-193q42 -13 68 -24t56 -31.5t45 -52.5t15 -76zM421 183q0 56 -81 83v-172q81 17 81 89zM175 480q0 -29 19.5 -48t61.5 -34v167q-81 -17 -81 -85z" />
    <glyph glyph-name="percent" unicode="%" horiz-adv-x="851" 
d="M803 177q0 -84 -43.5 -137.5t-123.5 -53.5t-123.5 53t-43.5 137t43.5 137t123.5 53t123.5 -53t43.5 -136zM665 682q0 -3 -2 -5l-387 -678q-5 -5 -10 -5h-73q-11 0 -11 9q0 1 2 5l387 678q5 5 8 5h76q10 0 10 -9zM378 510q0 -85 -44 -138.5t-124 -53.5t-124 53.5
t-44 137.5q0 83 44 136.5t124 53.5t124 -53t44 -136zM706 176q0 56 -18.5 88.5t-51.5 32.5t-51 -32.5t-18 -88.5q0 -57 18 -89.5t51 -32.5t51.5 33t18.5 89zM280 509q0 56 -18.5 88.5t-51.5 32.5t-51 -32.5t-18 -88.5q0 -57 18 -89.5t51 -32.5t51.5 33t18.5 89z" />
    <glyph glyph-name="ampersand" unicode="&#x26;" horiz-adv-x="826" 
d="M800 28q3 -8 -5 -13q-37 -28 -98 -28q-108 0 -199 79q-104 -80 -210 -80q-113 0 -177.5 59.5t-64.5 145.5q0 72 40.5 122t122.5 91q-53 87 -53 148q0 85 58.5 132.5t142.5 47.5q76 0 133.5 -44t57.5 -118q0 -39 -15.5 -70.5t-45 -55t-56 -38t-66.5 -31.5q53 -71 139 -165
q72 98 95 200q2 6 9 6h98q9 0 9 -8q0 -1 -1 -4q-37 -139 -135 -260q70 -58 138 -58q27 0 52 14q8 4 11 -5zM437 566q0 33 -23 54t-57 21q-40 0 -62 -23t-22 -63q0 -38 43 -107q26 11 42 19t37 22.5t31.5 34t10.5 42.5zM424 134q-116 128 -166 195q-90 -47 -90 -124
q0 -51 34.5 -86.5t97.5 -35.5q58 0 124 51z" />
    <glyph glyph-name="quotesingle" unicode="'" horiz-adv-x="236" 
d="M175 401q0 -9 -10 -9h-95q-9 0 -9 9l-5 307q0 9 9 9h105q10 0 10 -9z" />
    <glyph glyph-name="parenleft" unicode="(" horiz-adv-x="371" 
d="M304 -222q0 -8 -10 -8h-92q-3 0 -7 4q-62 84 -95 208.5t-33 261.5q0 136 33 260.5t95 208.5q4 4 7 4h92q10 0 10 -8q0 -1 -2 -5q-102 -192 -102 -460t102 -460q2 -4 2 -6z" />
    <glyph glyph-name="parenright" unicode=")" horiz-adv-x="370" 
d="M303 243q0 -133 -36.5 -258.5t-100.5 -211.5q-4 -4 -8 -4h-82q-9 0 -9 8q0 2 2 6q101 189 101 460q0 272 -101 461q-2 4 -2 5q0 8 9 8h82q4 0 8 -4q64 -86 100.5 -211.5t36.5 -258.5z" />
    <glyph glyph-name="asterisk" unicode="*" horiz-adv-x="441" 
d="M398 545q0 -3 -6 -5l-102 -21l69 -83q2 -2 2 -4t-2 -4l-78 -57q-1 -1 -4 -1t-5 3l-52 94l-52 -94q-2 -3 -5 -3t-4 1l-78 57q-2 2 -2 4q0 3 1 4l69 83l-102 21q-5 2 -5 5v2l30 94q1 4 7 4h2l96 -41l-11 104v2q0 6 6 6h96q6 0 6 -6v-2l-12 -104l97 41h2q5 0 6 -4l31 -94v-2
z" />
    <glyph glyph-name="plus" unicode="+" horiz-adv-x="592" 
d="M540 208q0 -9 -9 -9h-188v-190q0 -9 -9 -9h-76q-9 0 -9 9v190h-188q-9 0 -9 9v74q0 9 9 9h188v188q0 9 9 9h76q9 0 9 -9v-188h188q9 0 9 -9v-74z" />
    <glyph glyph-name="comma" unicode="," horiz-adv-x="253" 
d="M198 0q0 -71 -39 -111t-100 -45q-9 0 -9 8v60q0 8 7 8q66 8 66 80h-58q-9 0 -9 9v124q0 9 9 9h124q9 0 9 -9v-133z" />
    <glyph glyph-name="hyphen" unicode="-" horiz-adv-x="353" 
d="M311 199q0 -9 -9 -9h-250q-9 0 -9 9v89q0 9 9 9h250q9 0 9 -9v-89z" />
    <glyph glyph-name="period" unicode="." horiz-adv-x="253" 
d="M197 9q0 -9 -9 -9h-123q-9 0 -9 9v124q0 9 9 9h123q9 0 9 -9v-124z" />
    <glyph glyph-name="slash" unicode="/" horiz-adv-x="407" 
d="M423 735q0 -3 -1 -4l-339 -799q-3 -5 -8 -5h-95q-8 0 -8 7q0 3 1 5l339 798q2 5 9 5h94q8 0 8 -7z" />
    <glyph glyph-name="zero" unicode="0" horiz-adv-x="500" 
d="M470 330q0 -160 -56.5 -252.5t-163.5 -92.5t-163.5 92.5t-56.5 252.5q0 159 56.5 251.5t163.5 92.5t163.5 -92.5t56.5 -251.5zM342 332q0 249 -92 249t-92 -250q0 -253 92 -253t92 254z" />
    <glyph glyph-name="one" unicode="1" horiz-adv-x="500" 
d="M452 9q0 -9 -10 -9h-391q-9 0 -9 9v87q0 9 9 9h140v374h-140q-9 0 -9 9v73q0 8 9 10l60 6q37 4 54 16t41 52l7 12q5 9 14 9h73q9 0 9 -9v-552h133q10 0 10 -9v-87z" />
    <glyph glyph-name="two" unicode="2" horiz-adv-x="500" 
d="M458 9q0 -9 -9 -9h-408q-8 0 -8 10q0 34 16 71q20 49 57 93t74.5 75.5t72.5 63t57 68.5t22 78q0 52 -22.5 85.5t-66.5 33.5q-95 0 -95 -135v-8q0 -9 -9 -9h-98q-12 0 -12 33q0 40 11 76t34.5 68.5t67 51.5t101.5 19q102 0 157 -59.5t55 -154.5q0 -76 -43 -132t-136 -130
q-73 -58 -91 -94h264q9 0 9 -9v-86z" />
    <glyph glyph-name="three" unicode="3" horiz-adv-x="500" 
d="M463 177q0 -83 -62 -137.5t-164 -54.5q-105 0 -161 55.5t-56 129.5v8q0 8 9 8h94q10 0 10 -8q13 -100 104 -100q49 0 77.5 28t28.5 71q0 114 -119 114h-64q-8 0 -8 10v69q0 9 8 9h65q49 0 76 28.5t27 73.5t-26 73t-68 28q-40 0 -65.5 -26.5t-26.5 -67.5q0 -9 -11 -9h-94
q-8 0 -8 9q0 71 51.5 128.5t153.5 57.5q90 0 151.5 -50.5t61.5 -132.5q0 -45 -25 -85.5t-68 -61.5q109 -45 109 -167z" />
    <glyph glyph-name="four" unicode="4" horiz-adv-x="500" 
d="M467 162q0 -9 -10 -9h-73v-149q0 -9 -9 -9h-100q-9 0 -9 9v149h-244q-9 0 -9 9v79q0 7 5 12l246 403q4 4 8 4h103q9 0 9 -9v-408h73q10 0 10 -9v-72zM266 243v254l-156 -254h156z" />
    <glyph glyph-name="five" unicode="5" horiz-adv-x="500" 
d="M471 210q0 -102 -62 -163.5t-169 -61.5q-94 0 -154 51t-60 138v3q0 9 8 9h97q10 0 10 -9q5 -46 30 -75t72 -29t76.5 38t29.5 99q0 58 -28.5 95.5t-77.5 37.5q-63 0 -96 -50l-5 -2h-85q-9 0 -9 8l41 353q0 8 7 8h336q9 0 9 -9v-86q0 -9 -9 -9h-250l-20 -164q52 36 114 36
q87 0 141 -63t54 -155z" />
    <glyph glyph-name="six" unicode="6" horiz-adv-x="500" 
d="M471 212q0 -102 -58.5 -164.5t-155.5 -62.5q-65 0 -111 28.5t-70 78t-34 104t-10 118.5q0 159 58 259.5t176 100.5q94 0 142.5 -57t48.5 -124v-4q0 -9 -7 -9h-96q-8 0 -9 9q-3 34 -23 63.5t-60 29.5q-52 0 -80.5 -51t-28.5 -173q52 63 129 63t133 -55.5t56 -153.5z
M349 205q0 134 -91 134q-100 0 -100 -116q0 -65 25 -106t73 -41q46 0 69.5 34.5t23.5 94.5z" />
    <glyph glyph-name="seven" unicode="7" horiz-adv-x="500" 
d="M331 557h-186q-8 0 -12 -11l-16 -60q-2 -7 -9 -7h-79q-10 0 -10 9v1l18 163q0 8 9 8h415q8 0 8 -9v-61l-26 -42q-93 -138 -135 -267.5t-48 -277.5q0 -8 -10 -8h-114q-10 0 -10 9q12 142 56 269.5t149 283.5z" />
    <glyph glyph-name="eight" unicode="8" horiz-adv-x="500" 
d="M478 171q0 -83 -64 -134.5t-164 -51.5q-103 0 -165 51.5t-62 134.5q0 56 33.5 101t94.5 67q-103 47 -103 154q0 77 55 129t147 52t148 -52t56 -129q0 -50 -29.5 -91t-74.5 -61q62 -23 95 -67t33 -103zM341 488q0 42 -24 70.5t-67 28.5q-44 0 -67.5 -29.5t-23.5 -69.5
q0 -82 95 -108q41 11 64 40.5t23 67.5zM357 177q0 91 -109 119q-104 -28 -104 -119q0 -46 28.5 -75.5t77.5 -29.5t78 30.5t29 74.5z" />
    <glyph glyph-name="nine" unicode="9" horiz-adv-x="500" 
d="M29 447q0 102 58.5 164.5t155.5 62.5q65 0 111 -28.5t70 -78t34 -104t10 -118.5q0 -159 -58 -259.5t-176 -100.5q-94 0 -142.5 57t-48.5 124v4q0 9 7 9h96q8 0 9 -9q3 -34 23 -63.5t60 -29.5q110 0 110 224q-52 -63 -130 -63q-77 0 -133 55.5t-56 153.5zM151 454
q0 -134 91 -134q100 0 100 116q0 65 -25 106t-73 41q-46 0 -69.5 -34.5t-23.5 -94.5z" />
    <glyph glyph-name="colon" unicode=":" horiz-adv-x="276" 
d="M208 295q0 -10 -9 -10h-122q-9 0 -9 10v123q0 9 9 9h122q9 0 9 -9v-123zM208 9q0 -9 -9 -9h-122q-9 0 -9 9v124q0 9 9 9h122q9 0 9 -9v-124z" />
    <glyph glyph-name="semicolon" unicode=";" horiz-adv-x="278" 
d="M207 295q0 -10 -9 -10h-122q-9 0 -9 10v123q0 9 9 9h122q9 0 9 -9v-123zM208 0q0 -70 -39.5 -113t-98.5 -43q-8 0 -8 9v59q0 8 7 8q64 8 64 80h-56q-9 0 -9 9v124q0 9 9 9h122q9 0 9 -9v-133z" />
    <glyph glyph-name="less" unicode="&#x3c;" horiz-adv-x="592" 
d="M524 11q0 -10 -7 -10q-3 0 -5 2l-439 198q-6 2 -6 8v66q0 7 5 9l439 198q2 1 5 1q8 0 8 -9v-76q0 -6 -5 -9l-327 -147l327 -146q5 -2 5 -9v-76z" />
    <glyph glyph-name="equal" unicode="=" horiz-adv-x="592" 
d="M535 302q0 -9 -9 -9h-460q-9 0 -9 9v73q0 10 9 10h460q9 0 9 -10v-73zM535 106q0 -9 -9 -9h-460q-9 0 -9 9v74q0 9 9 9h460q9 0 9 -9v-74z" />
    <glyph glyph-name="greater" unicode="&#x3e;" horiz-adv-x="592" 
d="M524 209q0 -7 -5 -9l-438 -198q-2 -1 -5 -1q-8 0 -8 9v76q0 6 5 9l324 146l-324 147q-5 2 -5 9v76q0 9 8 9q3 0 5 -1l438 -198q5 -3 5 -8v-66z" />
    <glyph glyph-name="question" unicode="?" horiz-adv-x="514" 
d="M476 543q0 -79 -80 -147l-41 -37q-32 -30 -44 -49t-17 -54q-2 -17 -4 -51q0 -8 -9 -8h-104q-10 0 -10 8q-3 42 -3 52q0 44 16.5 79t33.5 52.5t51 44.5q7 5 10 8q31 25 47.5 49.5t16.5 57.5q0 40 -24.5 62.5t-60.5 22.5q-41 0 -64 -26.5t-24 -67.5q0 -9 -11 -9h-109
q-9 0 -9 9q0 83 63.5 136.5t155.5 53.5q94 0 157 -48.5t63 -137.5zM297 9q0 -9 -9 -9h-121q-8 0 -8 9v124q0 9 8 9h121q9 0 9 -9v-124z" />
    <glyph glyph-name="at" unicode="@" horiz-adv-x="802" 
d="M756 360q0 -105 -60.5 -175t-153.5 -70q-88 0 -102 57q-48 -57 -99 -57q-47 0 -77 40.5t-30 109.5q0 94 53 166.5t121 72.5q53 0 73 -50l10 31q3 8 10 8h58q9 0 9 -9q-2 -9 -52 -252q-1 -7 -1 -16q0 -30 44 -30q46 0 81 47t35 119q0 115 -66.5 186t-177.5 71
q-92 0 -161.5 -45t-103 -114t-33.5 -148q0 -130 74.5 -211.5t218.5 -81.5q94 0 194 59q2 2 5 2q6 0 9 -6l27 -35q2 -2 2 -5q0 -4 -6 -10q-103 -75 -237 -75q-95 0 -168.5 29.5t-117.5 80.5t-66.5 115t-22.5 137q0 72 25.5 139t72.5 120.5t121.5 86t164.5 32.5
q146 0 236.5 -89.5t90.5 -229.5zM464 373q0 63 -44 63q-43 0 -71 -57t-28 -117q0 -37 14 -55t34 -18q60 0 83 111l6 29q4 17 6 44z" />
    <glyph glyph-name="A" unicode="A" horiz-adv-x="722" 
d="M701 8q0 -8 -10 -8h-133q-7 0 -9 6l-68 188h-265l-70 -188q-2 -6 -8 -6h-106q-10 0 -10 8q0 3 1 4l265 699q2 6 8 6h138q6 0 8 -6l258 -699q1 -1 1 -4zM451 290l-101 284l-102 -284h203z" />
    <glyph glyph-name="B" unicode="B" horiz-adv-x="655" 
d="M611 198q0 -91 -70 -144.5t-194 -53.5h-269q-9 0 -9 9v699q0 9 9 9h262q117 0 180.5 -47.5t63.5 -132.5q0 -50 -29.5 -92.5t-87.5 -66.5q73 -23 108.5 -72t35.5 -108zM445 516q0 44 -27.5 73.5t-83.5 29.5h-135v-212h109q137 0 137 109zM466 208q0 114 -149 114h-118
v-224h142q61 0 93 31.5t32 78.5z" />
    <glyph glyph-name="C" unicode="C" horiz-adv-x="773" 
d="M180 359q0 -120 63.5 -188.5t151.5 -68.5q74 0 124 38.5t71 110.5q2 7 8 7h114q10 0 10 -9q0 -39 -35 -101q-43 -75 -120.5 -118t-176.5 -43q-154 0 -252.5 106.5t-98.5 265.5t98.5 265.5t252.5 106.5q103 0 181.5 -43.5t119.5 -124.5q28 -56 31 -94q0 -10 -10 -10h-114
q-6 0 -8 7q-22 69 -72.5 109.5t-122.5 40.5q-88 0 -151.5 -68.5t-63.5 -188.5z" />
    <glyph glyph-name="D" unicode="D" horiz-adv-x="727" 
d="M689 366q0 -156 -92.5 -261t-261.5 -105h-257q-9 0 -9 9v699q0 9 9 9h257q74 0 134.5 -20.5t100.5 -54.5t67.5 -79.5t39.5 -95t12 -101.5zM544 366q0 112 -58 178t-153 66h-130v-504h124q98 0 157.5 67.5t59.5 192.5z" />
    <glyph glyph-name="E" unicode="E" horiz-adv-x="633" 
d="M585 9q0 -9 -9 -9h-498q-9 0 -9 9v699q0 9 9 9h480q9 0 9 -9v-90q0 -9 -9 -9h-350v-198h206q9 0 9 -10v-84q0 -9 -9 -9h-206v-201h368q9 0 9 -9v-89z" />
    <glyph glyph-name="F" unicode="F" horiz-adv-x="613" 
d="M577 618q0 -9 -9 -9h-360v-200h211q9 0 9 -9v-86q0 -9 -9 -9h-211v-296q0 -9 -9 -9h-121q-9 0 -9 9v699q0 9 9 9h490q9 0 9 -9v-90z" />
    <glyph glyph-name="G" unicode="G" horiz-adv-x="794" 
d="M724 9q0 -9 -9 -9h-91q-9 0 -9 8l-6 77q-90 -97 -230 -97q-150 0 -244.5 102.5t-94.5 267.5q0 157 99 265.5t255 108.5q116 0 197 -53.5t115 -148.5q17 -47 17 -62q0 -9 -10 -9h-110q-7 0 -9 7q-20 72 -72 111t-128 39q-93 0 -153.5 -71t-60.5 -187t61 -188.5t159 -72.5
q48 0 88.5 17t63 40t35 43t12.5 30h-100q-10 0 -10 9v71q0 10 10 10h216q9 0 9 -10v-298z" />
    <glyph glyph-name="H" unicode="H" horiz-adv-x="749" 
d="M679 9q0 -9 -8 -9h-122q-10 0 -10 9v293h-331v-293q0 -9 -9 -9h-121q-9 0 -9 9v699q0 9 9 9h121q9 0 9 -9v-294h331v294q0 9 10 9h122q8 0 8 -9v-699z" />
    <glyph glyph-name="I" unicode="I" horiz-adv-x="283" 
d="M212 9q0 -9 -10 -9h-121q-9 0 -9 9v699q0 9 9 9h121q10 0 10 -9v-699z" />
    <glyph glyph-name="J" unicode="J" horiz-adv-x="553" 
d="M483 210q0 -105 -67 -163.5t-173 -58.5q-102 0 -154 57.5t-52 135.5v10q0 9 9 9h104q9 0 9 -9q2 -40 26 -71.5t60 -31.5q43 0 70 28.5t27 88.5v503q0 9 9 9h123q9 0 9 -9v-498z" />
    <glyph glyph-name="K" unicode="K" horiz-adv-x="683" 
d="M665 7q0 -7 -8 -7h-145q-4 0 -8 4l-234 320l-62 -60v-255q0 -9 -9 -9h-121q-9 0 -9 9v699q0 9 9 9h121q9 0 9 -9v-302l296 308q3 3 7 3h132q9 0 9 -7q0 -3 -4 -7l-286 -286l301 -404q2 -2 2 -6z" />
    <glyph glyph-name="L" unicode="L" horiz-adv-x="595" 
d="M557 9q0 -9 -10 -9h-469q-9 0 -9 9v699q0 9 9 9h121q9 0 9 -9v-591h339q10 0 10 -9v-99z" />
    <glyph glyph-name="M" unicode="M" horiz-adv-x="914" 
d="M843 9q0 -9 -9 -9h-120q-10 0 -10 9v529h-1l-215 -532q-3 -6 -9 -6h-67q-6 0 -8 6l-219 531v-528q0 -9 -9 -9h-97q-9 0 -9 9v699q0 9 9 9h157q5 0 8 -6l215 -518h1q40 97 113 275.5t99 242.5q3 6 8 6h154q9 0 9 -9v-699z" />
    <glyph glyph-name="N" unicode="N" horiz-adv-x="751" 
d="M682 9q0 -9 -10 -9h-117q-6 0 -9 5l-360 515h-1v-511q0 -9 -9 -9h-98q-9 0 -9 9v699q0 9 9 9h128q6 0 10 -6l347 -501h2v498q0 9 9 9h98q10 0 10 -9v-699z" />
    <glyph glyph-name="O" unicode="O" horiz-adv-x="802" 
d="M762 360q0 -155 -99 -264.5t-262 -109.5q-166 0 -263.5 107t-97.5 267q0 97 39.5 179.5t123.5 137t198 54.5q167 0 264 -106.5t97 -264.5zM400 616q-101 0 -160.5 -72.5t-59.5 -182.5q0 -111 60.5 -185t159.5 -74q100 0 161 72.5t61 186.5q0 116 -60.5 185.5t-161.5 69.5
z" />
    <glyph glyph-name="P" unicode="P" horiz-adv-x="631" 
d="M593 496q0 -107 -70.5 -168t-194.5 -61h-120v-258q0 -9 -9 -9h-121q-9 0 -9 9v699q0 9 9 9h259q120 0 188 -60.5t68 -160.5zM444 490q0 57 -35 92t-96 35h-105v-257h104q62 0 97 35t35 95z" />
    <glyph glyph-name="Q" unicode="Q" horiz-adv-x="812" 
d="M813 -104q0 -10 -8 -10q-2 0 -3 1q-131 24 -228 140q-80 -40 -174 -40q-161 0 -261 107t-100 264q0 72 23.5 138t67.5 119t114 85t156 32q111 0 195 -52t125.5 -136t41.5 -187q0 -141 -89 -243q67 -78 133 -87q7 -2 7 -9v-122zM622 360q0 116 -61 186.5t-161 70.5
q-102 0 -160.5 -73.5t-58.5 -180.5q0 -103 59 -174v6q0 58 42 100t105 42q57 0 102 -31.5t89 -98.5q44 67 44 153zM509 122q-19 31 -27 43t-25 33t-35 29t-39 8q-35 0 -56 -20.5t-21 -48.5q0 -33 23.5 -54.5t69.5 -21.5q61 0 110 32z" />
    <glyph glyph-name="R" unicode="R" horiz-adv-x="653" 
d="M639 8q0 -8 -9 -8h-132q-5 0 -9 4l-188 275h-98v-270q0 -9 -8 -9h-117q-9 0 -9 9v699q0 9 9 9h274q104 0 168 -58t64 -148q0 -71 -43.5 -125.5t-116.5 -71.5l213 -300q2 -2 2 -6zM441 494q0 55 -34 88t-93 33h-111v-245h110q61 0 94.5 34t33.5 90z" />
    <glyph glyph-name="S" unicode="S" horiz-adv-x="648" 
d="M603 202q0 -96 -79 -156t-203 -60q-189 0 -287 149q-1 1 -1 5q0 5 3 7l81 62q1 1 4 1t8 -5q37 -53 88.5 -85t103.5 -32q70 0 108 27.5t38 68.5q0 46 -42.5 71.5t-112.5 44.5q-112 29 -169 68q-79 55 -79 149q0 87 69 150.5t188 63.5q163 0 264 -118l3 -6q0 -3 -3 -6
l-66 -71q-2 -2 -6 -2t-7 3q-84 99 -186 99q-60 0 -94 -26t-34 -67q0 -40 33 -62t94 -40q131 -40 182 -69q102 -57 102 -164z" />
    <glyph glyph-name="T" unicode="T" horiz-adv-x="705" 
d="M674 608q0 -9 -9 -9h-241v-590q0 -9 -10 -9h-120q-10 0 -10 9v590h-244q-10 0 -10 9v100q0 9 10 9h625q9 0 9 -9v-100z" />
    <glyph glyph-name="U" unicode="U" horiz-adv-x="697" 
d="M627 243q0 -114 -77 -184.5t-194 -70.5q-131 0 -209 68.5t-78 185.5v466q0 9 9 9h121q9 0 9 -9v-470q0 -64 41 -104.5t107 -40.5t106 40t40 105v470q0 9 10 9h106q9 0 9 -9v-465z" />
    <glyph glyph-name="V" unicode="V" horiz-adv-x="678" 
d="M669 710l-1 -5l-265 -699q-2 -6 -8 -6h-115q-6 0 -8 6q-55 146 -262 700v2l-1 2q0 7 9 7h136q7 0 9 -7q36 -99 102 -280t91 -249q101 277 191 529q3 7 9 7h104q9 0 9 -7z" />
    <glyph glyph-name="W" unicode="W" horiz-adv-x="1030" 
d="M1019 709l-1 -6l-218 -697q-2 -6 -9 -6h-121q-8 0 -10 6l-146 478q-29 -94 -82 -271t-62 -207q-2 -6 -9 -6h-122q-7 0 -9 6l-219 699q-1 3 -1 4q0 8 9 8h123q8 0 10 -8q28 -89 81.5 -267t81.5 -267l155 535q2 7 8 7h97q7 0 9 -7l156 -535h1l156 535q2 7 9 7h105q8 0 8 -8
z" />
    <glyph glyph-name="X" unicode="X" horiz-adv-x="703" 
d="M684 7q0 -7 -10 -7h-140q-5 0 -10 5l-180 255l-187 -255q-5 -5 -10 -5h-118q-9 0 -9 7q0 4 2 6l253 345l-245 346q-2 2 -2 6q0 7 8 7h143q7 0 11 -6l169 -239l176 240q3 5 10 5h114q9 0 9 -8q0 -3 -2 -5l-241 -328l256 -363q3 -3 3 -6z" />
    <glyph glyph-name="Y" unicode="Y" horiz-adv-x="719" 
d="M706 710q0 -1 -1 -4l-1 -2l-276 -449v-246q0 -9 -10 -9h-121q-10 0 -10 9v245q-45 75 -136 225t-136 225q-2 2 -2 5q0 8 9 8h141q7 0 11 -6l199 -335h1l202 335q3 6 10 6h110q10 0 10 -7z" />
    <glyph glyph-name="Z" unicode="Z" horiz-adv-x="666" 
d="M622 9q0 -9 -9 -9h-562q-8 0 -8 9v39l2 5l377 551h-359q-9 0 -9 9v95q0 9 9 9h547q8 0 8 -9v-37l-2 -5l-381 -553h378q9 0 9 -9v-95z" />
    <glyph glyph-name="bracketleft" unicode="[" horiz-adv-x="413" 
d="M356 -221q0 -9 -9 -9h-255q-9 0 -9 9v929q0 9 9 9h254q9 0 9 -9v-55q0 -9 -9 -9h-145v-800h146q9 0 9 -9v-56z" />
    <glyph glyph-name="backslash" unicode="\" horiz-adv-x="401" 
d="M-17 735q0 7 8 7h94q5 0 8 -5l340 -798q1 -2 1 -5q0 -7 -8 -7h-95q-5 0 -8 5l-11 25q-110 258 -328 774q-1 1 -1 4z" />
    <glyph glyph-name="bracketright" unicode="]" horiz-adv-x="413" 
d="M329 -221q0 -9 -9 -9h-254q-9 0 -9 9v56q0 9 9 9h144v800h-144q-9 0 -9 9v55q0 9 9 9h254q9 0 9 -9v-929z" />
    <glyph glyph-name="asciicircum" unicode="^" horiz-adv-x="592" 
d="M523 324q0 -8 -10 -8h-85q-6 0 -9 5l-124 257q-21 -42 -126 -257q0 -5 -8 -5h-82q-10 0 -10 8q1 1 1 5l178 356q0 5 8 5h79q8 0 8 -5l179 -356q1 -1 1 -5z" />
    <glyph glyph-name="underscore" unicode="_" horiz-adv-x="558" 
d="M562 -148q0 -9 -9 -9h-548q-9 0 -9 9v70q0 9 9 9h548q9 0 9 -9v-70z" />
    <glyph glyph-name="grave" unicode="`" horiz-adv-x="561" 
d="M373 531q0 -6 -8 -6h-71q-3 0 -7 4l-134 175q-3 3 -3 6q0 7 8 7h113q5 0 8 -5l92 -176q2 -4 2 -5z" />
    <glyph glyph-name="a" unicode="a" horiz-adv-x="512" 
d="M498 14q0 -6 -7 -8q-36 -12 -69 -12q-78 0 -99 52q-49 -58 -141 -58q-66 0 -108 33.5t-42 86.5q0 32 14 57t44 43t53 27.5t63 22.5l27 9q54 18 66.5 28.5t12.5 33.5q0 60 -66 60q-82 0 -87 -87q0 -8 -8 -8h-94q-9 0 -9 9q2 85 66 128q54 36 133 36q182 0 182 -138v-219
q0 -33 31 -33q4 0 15 0.5t15 0.5q8 0 8 -9v-55zM312 151v85q-34 -19 -65 -32q-55 -24 -75.5 -40.5t-20.5 -46.5q0 -24 19.5 -38t50.5 -14q91 0 91 86z" />
    <glyph glyph-name="b" unicode="b" horiz-adv-x="550" 
d="M518 227q0 -103 -56 -171.5t-150 -68.5q-39 0 -78 15.5t-65 42.5l-8 -36q-2 -9 -9 -9h-86q-9 0 -9 9v697q0 9 9 9h101q10 0 10 -9v-298q56 60 137 60q94 0 149 -71t55 -170zM396 228q0 74 -30.5 114t-81.5 40q-45 0 -76 -27.5t-31 -79.5v-94q0 -51 30.5 -80t76.5 -29
q53 0 82.5 41.5t29.5 114.5z" />
    <glyph glyph-name="c" unicode="c" horiz-adv-x="519" 
d="M473 160q-12 -80 -68.5 -126t-139.5 -46q-107 0 -169 69t-62 171t62 171t169 69q83 0 140.5 -46t67.5 -123q0 -10 -9 -10h-88q-8 0 -9 9q-5 39 -32 62t-67 23q-51 0 -82 -42.5t-31 -112.5q0 -72 32 -113.5t81 -41.5q39 0 66.5 25.5t33.5 63.5q2 9 9 9h87q9 0 9 -11z" />
    <glyph glyph-name="d" unicode="d" horiz-adv-x="549" 
d="M494 9q0 -9 -9 -9h-86q-7 0 -9 9l-7 36q-25 -27 -64 -42.5t-78 -15.5q-93 0 -149.5 69t-56.5 171q0 98 55.5 169.5t148.5 71.5q81 0 137 -60v300q0 9 9 9h100q9 0 9 -9v-699zM376 181v94q0 52 -31 79.5t-76 27.5q-51 0 -81.5 -40t-30.5 -114q0 -73 29.5 -114.5
t82.5 -41.5q46 0 76.5 29t30.5 80z" />
    <glyph glyph-name="e" unicode="e" horiz-adv-x="524" 
d="M482 215q0 -7 -9 -7h-320q3 -61 33 -99.5t82 -38.5q70 0 98 65q2 5 9 5h94q9 0 9 -9q0 -2 -1 -4q-18 -54 -70 -97t-140 -43q-107 0 -169.5 69.5t-62.5 171.5q0 105 65 172.5t167 67.5q108 0 161.5 -69.5t53.5 -179.5v-4zM370 276q-5 52 -32.5 80.5t-70.5 28.5
q-47 0 -75.5 -30.5t-37.5 -78.5h216z" />
    <glyph glyph-name="f" unicode="f" horiz-adv-x="340" 
d="M336 380q0 -9 -10 -9h-112v-362q0 -9 -10 -9h-100q-9 0 -9 9v362h-81q-9 0 -9 9v67q0 9 9 9h81v93q0 77 47.5 124.5t135.5 47.5q31 0 49 -4q9 -2 9 -10v-71q0 -9 -10 -9q-24 2 -38 2q-38 0 -56 -23t-18 -57v-93h112q10 0 10 -9v-67z" />
    <glyph glyph-name="g" unicode="g" horiz-adv-x="549" 
d="M528 381q0 -9 -9 -9q-70 -4 -86 -16q5 -27 5 -60q0 -76 -54.5 -126t-142.5 -50q-16 0 -38 2h-9q-28 0 -42 -9.5t-14 -22.5q0 -31 76 -31h20q50 0 73.5 -0.5t61 -2.5t55 -6.5t40.5 -13.5t33 -22.5t17.5 -33.5t7.5 -46q0 -73 -76 -120.5t-215 -47.5q-219 0 -219 112
q0 36 26.5 64t71.5 37q-67 28 -67 85q0 31 21.5 55.5t55.5 30.5q-35 21 -55 60.5t-20 80.5q0 74 54 125.5t143 51.5q94 0 145 -45q49 39 131 39q10 0 10 -9v-72zM324 294q0 45 -22.5 70t-60.5 25t-60 -26.5t-22 -69.5q0 -44 22 -69.5t60 -25.5q37 0 60 26t23 70zM412 -92
q0 33 -35.5 41t-121.5 7h-33q-108 0 -108 -57q0 -58 132 -58h12q78 0 116 19.5t38 47.5z" />
    <glyph glyph-name="h" unicode="h" horiz-adv-x="527" 
d="M470 9q0 -9 -9 -9h-99q-10 0 -10 9v299q0 32 -19 53t-58 21q-46 0 -73 -32t-27 -74v-267q0 -9 -9 -9h-101q-8 0 -8 9v699q0 9 8 9h101q9 0 9 -9v-310q57 70 138 70q70 0 113.5 -39t43.5 -103v-317z" />
    <glyph glyph-name="i" unicode="i" horiz-adv-x="233" 
d="M177 560q0 -9 -9 -9h-104q-9 0 -9 9v106q0 9 9 9h104q9 0 9 -9v-106zM176 9q0 -9 -9 -9h-101q-9 0 -9 9v436q0 9 9 9h101q9 0 9 -9v-436z" />
    <glyph glyph-name="j" unicode="j" horiz-adv-x="233" 
d="M177 560q0 -9 -9 -9h-104q-9 0 -9 9v106q0 9 9 9h104q9 0 9 -9v-106zM175 -104q0 -132 -143 -132q-30 0 -55 9q-3 1 -3 6l7 66q1 7 11 7h28q37 0 37 39v556q0 9 8 9h101q9 0 9 -9v-551z" />
    <glyph glyph-name="k" unicode="k" horiz-adv-x="517" 
d="M498 6q0 -6 -9 -6h-114q-6 0 -11 5l-138 188l-51 -46v-138q0 -9 -9 -9h-101q-8 0 -8 9v699q0 9 8 9h101q9 0 9 -9v-452l193 196q4 4 12 4h99q9 0 9 -7q0 -2 -4 -6l-180 -177l192 -253q2 -3 2 -7z" />
    <glyph glyph-name="l" unicode="l" horiz-adv-x="232" 
d="M175 9q0 -9 -9 -9h-101q-8 0 -8 9v699q0 9 8 9h101q9 0 9 -9v-699z" />
    <glyph glyph-name="m" unicode="m" horiz-adv-x="815" 
d="M758 9q0 -9 -9 -9h-101q-9 0 -9 9v298q0 28 -21.5 51.5t-49.5 23.5q-48 0 -75 -31t-27 -73v-269q0 -9 -9 -9h-100q-9 0 -9 9v298q0 36 -20.5 54t-49.5 18q-49 0 -76 -30.5t-27 -70.5v-269q0 -9 -9 -9h-101q-8 0 -8 9v438q0 9 8 9h89q9 0 11 -9l6 -50h1q57 70 146 70
q95 0 135 -70q62 70 149 70q65 0 110.5 -39t45.5 -102v-317z" />
    <glyph glyph-name="n" unicode="n" horiz-adv-x="528" 
d="M471 9q0 -9 -9 -9h-99q-10 0 -10 9v298q0 30 -21.5 52.5t-52.5 22.5q-49 0 -76.5 -31t-27.5 -73v-269q0 -9 -9 -9h-101q-8 0 -8 9v438q0 9 8 9h89q10 0 11 -9l6 -48h1q57 68 151 68q69 0 108.5 -39.5t39.5 -100.5v-318z" />
    <glyph glyph-name="o" unicode="o" horiz-adv-x="544" 
d="M509 229q0 -103 -64 -172t-173 -69t-173.5 69t-64.5 172q0 105 66 172t172 67q109 0 173 -68t64 -171zM389 230q0 72 -30.5 112.5t-85.5 40.5q-56 0 -87 -44.5t-31 -110.5q0 -68 31.5 -111.5t84.5 -43.5q55 0 86.5 44t31.5 113z" />
    <glyph glyph-name="p" unicode="p" horiz-adv-x="550" 
d="M515 228q0 -107 -58 -174t-145 -67q-86 0 -136 58v-266q0 -9 -9 -9h-101q-9 0 -9 9v668q0 9 9 9h86q7 0 9 -8q7 -36 8 -42q54 62 141 62t146 -64.5t59 -175.5zM395 228q0 74 -30.5 114t-81.5 40q-45 0 -76 -27.5t-31 -79.5v-94q0 -51 30.5 -80t76.5 -29q53 0 82.5 41.5
t29.5 114.5z" />
    <glyph glyph-name="q" unicode="q" horiz-adv-x="549" 
d="M493 447v-668q0 -9 -9 -9h-101q-9 0 -9 9v266q-50 -58 -136 -58q-87 0 -145 67t-58 174q0 111 59 175.5t146 64.5t141 -62l8 42q2 8 9 8h86q9 0 9 -9zM374 181v94q0 52 -31 79.5t-76 27.5q-51 0 -81.5 -40t-30.5 -114q0 -73 29.5 -114.5t82.5 -41.5q46 0 76.5 29t30.5 80
z" />
    <glyph glyph-name="r" unicode="r" horiz-adv-x="434" 
d="M414 320q0 -10 -8 -10l-87 -4h-2q-7 0 -9 9q-7 67 -54 67q-29 0 -53.5 -25.5t-24.5 -79.5v-268q0 -9 -9 -9h-101q-9 0 -9 9v438q0 9 9 9h90q8 0 10 -9l6 -47q45 66 118 66q46 0 80 -29q44 -39 44 -117z" />
    <glyph glyph-name="s" unicode="s" horiz-adv-x="459" 
d="M422 128q0 -57 -51.5 -99.5t-143.5 -42.5q-126 0 -195 86q-1 2 -1 6t2 6l51 50q2 2 6 2t7 -3q25 -30 60.5 -50t71.5 -20q34 0 57 15.5t23 38.5q0 19 -15.5 32.5t-29 17.5t-46.5 13q-65 17 -105 38q-68 38 -68 113q0 52 49 95.5t135 43.5q93 0 175 -73q3 -3 3 -7
q0 -3 -2 -5l-47 -51q-2 -2 -6 -2t-7 3q-60 60 -118 60q-32 0 -51.5 -14.5t-19.5 -36.5q0 -23 19 -35t57 -23q5 -1 31 -8.5t34 -10t30 -11.5t31 -15t24.5 -18.5t22 -25t12 -30.5t5.5 -39z" />
    <glyph glyph-name="t" unicode="t" horiz-adv-x="381" 
d="M351 12q0 -11 -41 -18t-75 -7q-79 0 -109.5 40t-30.5 128v216h-78q-9 0 -9 9v67q0 9 9 9h78v130q0 9 9 9h101q9 0 9 -9v-130h128q9 0 9 -9v-67q0 -9 -9 -9h-128v-245q0 -29 13.5 -41t41.5 -12q16 0 43 5t30 5q9 0 9 -9v-62z" />
    <glyph glyph-name="u" unicode="u" horiz-adv-x="527" 
d="M471 9q0 -9 -9 -9h-89q-8 0 -10 9l-7 49q-59 -71 -143 -71q-71 0 -113.5 38.5t-42.5 102.5v319q0 9 9 9h100q9 0 9 -9v-299q0 -37 20.5 -56t54.5 -19q45 0 73.5 29.5t28.5 74.5v270q0 9 10 9h100q9 0 9 -9v-438z" />
    <glyph glyph-name="v" unicode="v" horiz-adv-x="479" 
d="M469 448q0 -3 -1 -4l-167 -438q-3 -6 -8 -6h-109q-7 0 -9 6l-164 438q-1 1 -1 4q0 8 9 8h105q6 0 8 -6l119 -330l119 330q2 6 9 6h81q9 0 9 -8z" />
    <glyph glyph-name="w" unicode="w" horiz-adv-x="761" 
d="M747 448q0 -4 -1 -6l-150 -436q-2 -6 -9 -6h-103q-7 0 -9 6l-98 280l-93 -280q-2 -6 -9 -6h-104q-7 0 -9 6l-149 436q-1 2 -1 6q0 8 9 8h103q8 0 10 -6l103 -326l107 326q2 6 9 6h75q6 0 8 -6l108 -326l103 326q2 6 9 6h82q9 0 9 -8z" />
    <glyph glyph-name="x" unicode="x" horiz-adv-x="516" 
d="M494 7q0 -7 -9 -7h-113q-5 0 -10 5l-111 148l-116 -148q-3 -5 -11 -5h-93q-9 0 -9 7l3 6l171 211l-165 219q-2 2 -2 6q0 7 9 7h114q6 0 9 -4l106 -142l112 141q3 5 10 5h91q9 0 9 -7q0 -1 -4 -7l-163 -204l169 -225q3 -3 3 -6z" />
    <glyph glyph-name="y" unicode="y" horiz-adv-x="476" 
d="M464 449q0 -4 -1 -6l-182 -481q-37 -97 -58 -128q-49 -72 -136 -72q-40 0 -74 13q-6 3 -6 8l1 2q0 3 1 5l19 70q2 6 8 6q2 0 8 -2q32 -8 48 -8q43 0 72 70q11 27 11 44q0 13 -4 26q-2 6 -9 28l-151 421q0 1 -0.5 2t-0.5 2q0 7 9 7h106q8 0 12 -9l110 -328l118 328
q4 9 12 9h80q7 0 7 -7z" />
    <glyph glyph-name="z" unicode="z" horiz-adv-x="495" 
d="M461 9q0 -9 -9 -9h-402q-9 0 -9 9v19q2 4 2 5l238 337v1h-226q-9 0 -9 9v67q0 9 9 9h391q9 0 9 -9v-19q0 -3 -2 -5l-237 -337q0 -1 1 -1h235q9 0 9 -9v-67z" />
    <glyph glyph-name="braceleft" unicode="{" horiz-adv-x="442" 
d="M378 -238q0 -9 -9 -9q-125 1 -169.5 46.5t-44.5 141.5v175q0 50 -22.5 69t-66.5 22q-8 2 -8 9v48q0 9 9 9q44 4 66 23.5t22 67.5v173q0 100 45 144.5t169 45.5q9 0 9 -9v-47q0 -9 -9 -9q-66 -1 -85 -25t-19 -86v-176q0 -54 -19 -85.5t-71 -48.5q51 -19 70.5 -52t19.5 -87
v-173q0 -59 20 -84t84 -27q9 0 9 -9v-47z" />
    <glyph glyph-name="bar" unicode="|" horiz-adv-x="273" 
d="M192 -206q0 -9 -9 -9h-94q-8 0 -8 9v914q0 9 8 9h94q9 0 9 -9v-914z" />
    <glyph glyph-name="braceright" unicode="}" horiz-adv-x="442" 
d="M383 216q0 -7 -8 -9q-43 -3 -65 -22.5t-22 -67.5v-155q0 -112 -45.5 -160t-170.5 -49q-9 0 -9 9v47q0 10 9 10q66 1 85.5 25.5t19.5 85.5v157q0 124 90 153q-52 19 -71 51.5t-19 86.5v174q0 60 -20 84.5t-85 26.5q-9 0 -9 9v46q0 9 9 9q125 -1 170.5 -46t45.5 -141v-175
q0 -49 21 -68.5t66 -23.5q8 0 8 -9v-48z" />
    <glyph glyph-name="asciitilde" unicode="~" horiz-adv-x="592" 
d="M534 343q0 -8 -1 -12q-13 -61 -47 -97.5t-87 -36.5q-37 0 -75 19.5t-70 39t-55 19.5q-46 0 -70 -61q-2 -8 -8 -7q-1 -1 -7.5 0.5t-7.5 2.5l-42 14q-6 2 -6 10t1 12q12 61 46 98t87 37q37 0 74.5 -19.5t70 -39t56.5 -19.5q46 0 70 61q2 8 8 6q1 1 6.5 -0.5t6.5 -2.5
l43 -14q7 -2 7 -10z" />
    <glyph glyph-name="nbspace" unicode="&#xa0;" horiz-adv-x="212" 
 />
    <glyph glyph-name="exclamdown" unicode="&#xa1;" horiz-adv-x="312" 
d="M81 -220q4 57 10 224t9 233v10q0 9 9 9h93q9 0 9 -9v-10q3 -66 9 -233t10 -224q0 -10 -9 -10h-131q-9 0 -9 10zM86 447q0 4 2 5q2 5 7 5h121q10 0 10 -9v-123q0 -5 -3 -6q0 -1 -2 -3l-2 -1h-2h-1h-120h-1q-3 0 -5 2q-4 1 -4 7v123z" />
    <glyph glyph-name="cent" unicode="&#xa2;" horiz-adv-x="516" 
d="M474 259q-10 -65 -49.5 -109t-100.5 -58v-88q0 -9 -8 -9h-94q-9 0 -9 9v88q-83 18 -130 83t-47 153t47 152.5t130 81.5v84q0 9 9 9h94q8 0 8 -9v-84q61 -14 100.5 -56.5t49.5 -106.5v-2q0 -8 -9 -8h-88q-7 0 -8 8q-5 39 -32 62t-67 23q-51 0 -82 -42t-31 -112t31 -113
t82 -43q39 0 66.5 25.5t32.5 63.5q1 9 9 9h88q8 0 8 -9v-2z" />
    <glyph glyph-name="sterling" unicode="&#xa3;" horiz-adv-x="611" 
d="M48 364h84q-19 72 -19 117q0 74 58 131t158 57q91 0 148.5 -46.5t57.5 -128.5v-6q0 -9 -9 -9h-89q-10 0 -10 9q0 39 -26.5 64t-71.5 25q-41 0 -68 -28.5t-27 -67.5q0 -43 21 -117h168q10 0 10 -9v-76q0 -9 -10 -9h-146q3 -20 3 -38q0 -77 -64 -128h316q9 0 9 -9v-86
q0 -9 -9 -9h-485q-8 0 -8 10v59q0 17 14 20q47 14 76.5 49.5t29.5 86.5q0 25 -4 45h-107q-9 0 -9 9v76q0 9 9 9z" />
    <glyph glyph-name="currency" unicode="&#xa4;" horiz-adv-x="578" 
d="M442 58l-52 52q-46 -28 -99 -28q-55 0 -102 28l-52 -51q-3 -3 -6 -3q-8 0 -56 52l-16 17l-1 2q0 4 3 7l54 52q-28 46 -28 98q0 50 28 96l-54 54q-3 3 -3 8q0 2 2 4l50 50q16 16 20 16q3 0 6 -3l55 -54q45 27 99 27q53 0 98 -27l54 54q3 3 6 3l12 -9q60 -46 60 -61
q0 -6 -2 -8l-54 -53q29 -46 29 -99q0 -50 -28 -97l53 -52q2 -4 2 -7v-2l-16 -17q-48 -52 -54 -52q-5 0 -8 3zM177 283q0 -45 32.5 -78t79.5 -33t79.5 32t32.5 79q0 46 -31.5 77.5t-79.5 31.5t-80.5 -32t-32.5 -77z" />
    <glyph glyph-name="yen" unicode="&#xa5;" horiz-adv-x="654" 
d="M586 645q0 -2 -2 -6l-153 -243h128q4 0 7.5 -3t3.5 -7v-69q0 -9 -11 -9h-166v-70h166q11 0 11 -9v-68q0 -4 -3.5 -7t-7.5 -3h-166v-142q0 -9 -9 -9h-118q-9 0 -9 9v142h-165q-9 0 -9 10v68q0 9 9 9h165v70h-165q-9 0 -9 9v69q0 10 9 10h128l-152 243q-2 4 -2 6q0 8 10 8
h116q6 0 8 -4l131 -225l131 225q2 4 8 4h106q10 0 10 -8z" />
    <glyph glyph-name="brokenbar" unicode="&#xa6;" horiz-adv-x="273" 
d="M192 357q0 -9 -9 -9h-94q-8 0 -8 9v351q0 9 8 9h94q9 0 9 -9v-351zM192 -206q0 -9 -9 -9h-94q-8 0 -8 9v355q0 9 8 9h94q9 0 9 -9v-355z" />
    <glyph glyph-name="section" unicode="&#xa7;" horiz-adv-x="495" 
d="M458 270q0 -45 -23 -85.5t-65 -67.5q67 -49 67 -125q0 -75 -54.5 -128t-145.5 -53q-151 0 -188 126q-3 11 0 14.5t17 7.5l77 10q6 0 10 -6q20 -66 85 -66q38 0 61 23t23 59q0 30 -15.5 51.5t-41 35t-55.5 26t-60.5 27.5t-56 35t-41 54t-15.5 80q0 94 91 149
q-66 51 -66 125q0 69 51.5 119t136.5 50q143 0 178 -110q2 -6 2 -16t-27 -13l-63 -9q-8 0 -10 7q-18 53 -81 53q-26 0 -49 -22t-23 -50q0 -31 21 -53.5t52 -35t67.5 -30t67.5 -37t52 -57t21 -88.5zM353 261q0 44 -27.5 70t-73.5 46l-23 10q-4 1 -10.5 4t-11 4.5t-8.5 2.5
q-22 -10 -39.5 -39.5t-17.5 -58.5q0 -26 8 -45.5t23 -32t30.5 -21t36.5 -17.5q7 -3 10 -4q36 -17 46 -20q22 0 39.5 36t17.5 65z" />
    <glyph glyph-name="dieresis" unicode="&#xa8;" horiz-adv-x="536" 
d="M416 561q0 -10 -9 -10h-90q-8 0 -8 10v90q0 9 8 9h90q9 0 9 -9v-90zM214 561q0 -10 -9 -10h-88q-10 0 -10 10v90q0 9 10 9h88q9 0 9 -9v-90z" />
    <glyph glyph-name="copyright" unicode="&#xa9;" horiz-adv-x="826" 
d="M784 360q0 -70 -23.5 -136t-68 -119t-116.5 -85t-161 -32t-160.5 32t-116 85t-68.5 119t-24 136t23.5 135.5t68 118.5t116.5 85t161 32t161 -32t116.5 -85t68 -118t23.5 -136zM711 360q0 78 -32 145.5t-101 112t-163 44.5t-163 -44.5t-101 -112t-32 -145.5t32 -146
t101 -113t163 -45q139 0 217.5 90.5t78.5 213.5zM611 292q-13 -71 -64.5 -112t-131.5 -41q-91 0 -149 63.5t-58 156.5q0 94 58.5 158.5t148.5 64.5q79 0 130.5 -40.5t65.5 -112.5q0 -11 -8 -11h-62q-8 0 -10 9q-9 35 -36 60.5t-79 25.5q-55 0 -90.5 -41t-35.5 -112
q0 -72 35 -112.5t91 -40.5q45 0 75.5 23t40.5 65q2 7 10 7h61q8 0 8 -10z" />
    <glyph glyph-name="ordfeminine" unicode="&#xaa;" horiz-adv-x="377" 
d="M360 275q0 -9 -9 -9h-318q-9 0 -9 9v54q0 9 9 9h318q9 0 9 -9v-54zM361 407q0 -7 -8 -9q-32 -9 -53 -9q-54 0 -69 36q-36 -39 -99 -39q-47 0 -78 24t-31 63q0 18 7 32.5t14.5 23.5t26.5 19.5t27.5 14.5t34.5 13.5t32 11.5q26 10 45 21q11 7 11 21q0 23 -12 31.5t-35 8.5
q-53 0 -56 -59q0 -8 -9 -8h-67q-8 0 -8 9q0 60 41 89t103 29q133 0 133 -101v-154q0 -22 18 -22q1 0 11 0.5t12 0.5q9 0 9 -9v-38zM221 506v56q-18 -13 -63 -34q-27 -12 -36 -22.5t-9 -26.5t13 -25t33 -9q62 0 62 61z" />
    <glyph glyph-name="guillemotleft" unicode="&#xab;" horiz-adv-x="490" 
d="M239 80q0 -8 -10 -8h-83q-6 0 -8 5l-92 147v2q-1 1 -1 2t1 2v2l92 146q2 5 8 5h83q10 0 10 -8q0 -1 -1.5 -2.5t-1.5 -2.5l-89 -142l89 -142zM436 80q0 -8 -10 -8h-83q-5 0 -8 5l-92 147l-1 2v2v2l1 2l92 146q3 5 8 5h83q10 0 10 -8q0 -1 -1.5 -2.5t-1.5 -2.5l-89 -142
l89 -142z" />
    <glyph glyph-name="logicalnot" unicode="&#xac;" horiz-adv-x="591" 
d="M532 98q0 -9 -9 -9h-74q-9 0 -9 9v173h-371q-10 0 -10 9v72q0 10 10 10h453q10 0 10 -10v-254z" />
    <glyph glyph-name="uni00AD" unicode="&#xad;" horiz-adv-x="315" 
d="M285 218q0 -10 -10 -10h-235q-10 0 -10 10v83q0 10 10 10h235q10 0 10 -10v-83z" />
    <glyph glyph-name="registered" unicode="&#xae;" horiz-adv-x="831" 
d="M784 360q0 -70 -23.5 -136t-68 -119t-116.5 -85t-161 -32t-160.5 32t-116 85t-68.5 119t-24 136t23.5 135.5t68 118.5t116.5 85t161 32t161 -32t116.5 -85t68 -118t23.5 -136zM711 360q0 78 -32 145.5t-101 112t-163 44.5t-163 -44.5t-101 -112t-32 -145.5t32 -146
t101 -113t163 -45q139 0 217.5 90.5t78.5 213.5zM579 450q0 -44 -29.5 -76.5t-78.5 -41.5l104 -177q1 -2 1 -6q0 -8 -9 -8h-69q-6 0 -9 5l-95 174h-35v-170q0 -9 -9 -9h-57q-9 0 -9 9v421q0 8 9 8h159q59 0 93 -39t34 -90zM499 447q0 28 -18 48t-49 20h-73v-137h72
q31 0 49.5 20t18.5 49z" />
    <glyph glyph-name="macron" unicode="&#xaf;" horiz-adv-x="561" 
d="M433 572q0 -9 -9 -9h-286q-9 0 -9 9v61q0 9 9 9h286q9 0 9 -9v-61z" />
    <glyph glyph-name="degree" unicode="&#xb0;" horiz-adv-x="407" 
d="M371 569q0 -72 -48.5 -118t-115.5 -46q-65 0 -113 46t-48 117q0 72 48.5 118t114.5 46t114 -45.5t48 -117.5zM299 569q0 41 -27 66.5t-64 25.5t-63.5 -25.5t-26.5 -66.5t26.5 -66.5t63.5 -25.5t64 25.5t27 66.5z" />
    <glyph glyph-name="plusminus" unicode="&#xb1;" horiz-adv-x="592" 
d="M530 307q0 -9 -8 -9h-179v-157q0 -9 -8 -9h-77q-10 0 -10 9v157h-178q-9 0 -9 9v74q0 9 9 9h178v159q0 9 10 9h77q8 0 8 -9v-159h179q8 0 8 -9v-74zM527 9q0 -9 -9 -9h-445q-9 0 -9 9v74q0 9 9 9h445q9 0 9 -9v-74z" />
    <glyph glyph-name="twosuperior" unicode="&#xb2;" horiz-adv-x="366" 
d="M331 386v-56q0 -9 -10 -9h-281q-9 0 -9 9q0 32 15 59q17 31 52 61.5t65 50.5t53 46t23 52q0 27 -15.5 44t-42.5 17q-61 0 -61 -74q0 -18 -10 -18h-68q-10 0 -10 9v7q0 1 -0.5 4.5t-0.5 5.5q0 57 42 96t110 39t107.5 -36t39.5 -95q0 -32 -18.5 -61t-35.5 -43.5t-50 -38.5
l-33 -24q-12 -8 -37 -36h165q10 0 10 -9z" />
    <glyph glyph-name="threesuperior" unicode="&#xb3;" horiz-adv-x="366" 
d="M332 434q0 -52 -43 -86.5t-114 -34.5q-73 0 -112.5 32.5t-39.5 82.5q0 10 9 10h66q7 0 9 -10l4 -11q12 -38 61 -38q29 0 48.5 15.5t19.5 41.5q0 56 -74 56h-41q-9 0 -9 9v45q0 10 9 10h42q30 0 46 15t16 39t-16.5 38t-41.5 14q-24 0 -42 -13.5t-18 -35.5q0 -9 -9 -9h-61
q-9 0 -9 9v3q0 50 41.5 81t103.5 31q55 0 96.5 -30t41.5 -82q0 -51 -51 -86q32 -11 50 -36.5t18 -59.5z" />
    <glyph glyph-name="acute" unicode="&#xb4;" horiz-adv-x="561" 
d="M442 710q0 -1 -2 -5l-136 -172q-3 -3 -6 -3h-72q-7 0 -7 6q0 3 1 4l92 172q2 5 9 5h113q8 0 8 -7z" />
    <glyph glyph-name="uni00B5" unicode="&#xb5;" horiz-adv-x="553" 
d="M260 79q43 0 68 29t25 76v263q0 9 9 9h99q10 0 10 -9v-283q0 -56 4.5 -70.5t26.5 -14.5h20q10 0 10 -9v-59q0 -17 -67 -17q-71 0 -96 52q-38 -52 -112 -52q-51 0 -89 30v-245q0 -9 -9 -9h-93q-9 0 -9 9v668q0 9 9 9h101q8 0 8 -9v-292q0 -38 25.5 -57t59.5 -19z" />
    <glyph glyph-name="paragraph" unicode="&#xb6;" horiz-adv-x="581" 
d="M496 -173q0 -9 -9 -9h-64q-9 0 -9 9v822h-88v-822q0 -9 -8 -9h-64q-10 0 -10 9v403q-223 48 -223 238q0 102 66.5 175.5t178.5 73.5h221q9 0 9 -9v-881z" />
    <glyph glyph-name="periodcentered" unicode="&#xb7;" horiz-adv-x="287" 
d="M215 248q0 -9 -9 -9h-124q-9 0 -9 9v124q0 9 9 9h124q9 0 9 -9v-124z" />
    <glyph glyph-name="cedilla" unicode="&#xb8;" horiz-adv-x="507" 
d="M287 -30q4 -2 17 -6q31 -8 50.5 -30t19.5 -50q0 -49 -38.5 -74.5t-101.5 -25.5h-7q-56 2 -56 15l5 47q0 6 6 7q4 0 20.5 -2.5t27.5 -2.5q24 0 36 11t12 25q0 29 -61 31h-6q-8 0 -8 7q0 17 9.5 50t15.5 33h56q9 0 9 -7q0 -6 -3 -16t-3 -12z" />
    <glyph glyph-name="onesuperior" unicode="&#xb9;" horiz-adv-x="366" 
d="M325 321h-273q-9 0 -9 9v56q0 9 9 9h97v222h-97q-9 0 -9 9v45q0 10 9 10q94 4 110 25q2 2 4.5 6.5t5.5 7.5t6 3h52q9 0 9 -10v-318h86q9 0 9 -9v-56q0 -9 -9 -9z" />
    <glyph glyph-name="ordmasculine" unicode="&#xba;" horiz-adv-x="393" 
d="M367 558q0 -74 -46.5 -124t-124.5 -50t-124.5 50t-46.5 124q0 76 47 124.5t124 48.5q78 0 124.5 -49.5t46.5 -123.5zM276 559q0 50 -21.5 78t-58.5 28q-38 0 -59 -30.5t-21 -76.5q0 -48 22 -78t57 -30q38 0 59.5 30t21.5 79zM366 275q0 -9 -10 -9h-320q-10 0 -10 9v54
q0 9 10 9h320q10 0 10 -9v-54z" />
    <glyph glyph-name="guillemotright" unicode="&#xbb;" horiz-adv-x="490" 
d="M251 375q0 8 10 8h83q6 0 8 -5l92 -147v-1q1 -2 1 -3t-1 -3v-1l-92 -146q-2 -5 -8 -5h-83q-10 0 -10 8q0 1 1.5 2.5t1.5 2.5l89 142l-89 142zM54 375q0 8 10 8h83q5 0 8 -5l92 -147l1 -1v-3v-3l-1 -1l-92 -146q-3 -5 -8 -5h-83q-10 0 -10 8q0 1 1.5 2.5t1.5 2.5l89 142
l-89 142z" />
    <glyph glyph-name="onequarter" unicode="&#xbc;" horiz-adv-x="502" 
d="M403 -77v-47q0 -9 -10 -9h-54v-91q0 -9 -8 -9h-68q-10 0 -10 9v91h-171q-9 0 -9 9v31q0 18 10 31l159 218q10 14 31 14h57q9 0 9 -10v-228h54q10 0 10 -9zM443 218q0 -9 -9 -9h-366q-9 0 -9 9v55q0 9 9 9h366q9 0 9 -9v-55zM157 -68h96v135zM387 321h-273q-9 0 -9 9v56
q0 9 9 9h97v222h-97q-9 0 -9 9v45q0 10 9 10q94 4 110 25q2 2 4.5 6.5t5.5 7.5t6 3h52q9 0 9 -10v-318h86q9 0 9 -9v-56q0 -9 -9 -9z" />
    <glyph glyph-name="onehalf" unicode="&#xbd;" horiz-adv-x="502" 
d="M443 218q0 -9 -9 -9h-366q-9 0 -9 9v55q0 9 9 9h366q9 0 9 -9v-55zM387 321h-273q-9 0 -9 9v56q0 9 9 9h97v222h-97q-9 0 -9 9v45q0 10 9 10q94 4 110 25q2 2 4.5 6.5t5.5 7.5t6 3h52q9 0 9 -10v-318h86q9 0 9 -9v-56q0 -9 -9 -9zM403 -167v-56q0 -9 -10 -9h-281
q-9 0 -9 9q0 30 16 59q17 31 51.5 62t64.5 50.5t53 45.5t23 51q0 28 -15.5 45t-42.5 17q-61 0 -61 -77q0 -16 -9 -16h-69q-10 0 -10 17v14q0 54 42.5 92t109.5 38q68 0 107 -35.5t39 -94.5q0 -29 -15.5 -56t-31 -41.5t-43.5 -36.5l-27 -19q-37 -26 -57 -50h165q10 0 10 -9z
" />
    <glyph glyph-name="threequarters" unicode="&#xbe;" horiz-adv-x="502" 
d="M405 429q0 -52 -43 -86.5t-115 -34.5q-73 0 -112 32t-39 84q0 9 8 9h66q8 0 10 -9q12 -48 64 -48q30 0 49.5 15t19.5 41q0 55 -74 55h-41q-10 0 -10 9v46q0 10 10 10h41q31 0 47 14.5t16 38.5t-16.5 38t-42.5 14q-53 0 -59 -48q-2 -10 -9 -10h-61q-9 0 -9 10v3
q0 49 41 80.5t103 31.5q56 0 97.5 -30t41.5 -83q0 -24 -14.5 -47t-36.5 -38q68 -24 68 -97zM443 218q0 -9 -9 -9h-366q-9 0 -9 9v55q0 9 9 9h366q9 0 9 -9v-55zM403 -77v-47q0 -9 -10 -9h-54v-91q0 -9 -8 -9h-68q-10 0 -10 9v91h-171q-9 0 -9 9v31q0 18 10 31l159 218
q10 14 31 14h57q9 0 9 -10v-228h54q10 0 10 -9zM157 -68h96v135z" />
    <glyph glyph-name="questiondown" unicode="&#xbf;" horiz-adv-x="506" 
d="M345 324q0 -9 -9 -9h-120q-10 0 -10 9v123q0 9 10 9h120q9 0 9 -9v-123zM470 -66q0 -67 -58.5 -118t-154.5 -51t-158 43t-62 129q0 27 7 49.5t23.5 41.5t29.5 31t38 32t36 29q27 23 38.5 45t11.5 56v33q0 9 9 9h97q7 0 12 -9q8 -29 8 -58q0 -14 -1 -20q-3 -34 -19 -62.5
t-30.5 -41.5t-46 -35t-41.5 -31q-37 -31 -37 -71q0 -34 23 -54t63 -20t59.5 22.5t24.5 51.5l1 6q2 6 9 6h110q8 0 8 -7v-6z" />
    <glyph glyph-name="Agrave" unicode="&#xc0;" horiz-adv-x="722" 
d="M400 784q0 -7 -7 -7h-72q-3 0 -7 4l-145 149q-2 2 -2 5q0 7 7 7h113q5 0 8 -5l104 -148q1 -2 1 -5zM701 8q0 -8 -10 -8h-133q-7 0 -9 6l-68 188h-265l-70 -188q-2 -6 -8 -6h-106q-10 0 -10 8q0 3 1 4l265 697q2 6 8 6h138q6 0 8 -6l258 -697q1 -1 1 -4zM451 290l-101 282
l-102 -282h203z" />
    <glyph glyph-name="Aacute" unicode="&#xc1;" horiz-adv-x="722" 
d="M556 935q0 -3 -2 -5l-146 -149q-4 -4 -7 -4h-71q-8 0 -8 7q0 3 1 5l104 148q3 5 8 5h113q8 0 8 -7zM701 8q0 -8 -10 -8h-133q-7 0 -9 6l-68 190h-265l-70 -190q-2 -6 -8 -6h-106q-10 0 -10 8q0 3 1 4l265 699q2 6 8 6h138q6 0 8 -6l258 -699q1 -1 1 -4zM451 292l-101 282
l-102 -282h203z" />
    <glyph glyph-name="Acircumflex" unicode="&#xc2;" horiz-adv-x="722" 
d="M526 785q0 -8 -9 -8h-77q-3 0 -8 5l-71 90l-70 -90q-5 -5 -8 -5h-77q-11 0 -11 8q0 4 3 7l108 145q5 5 8 5h96q6 0 8 -5l107 -147q1 -2 1 -5zM701 8q0 -8 -10 -8h-133q-7 0 -9 6l-68 188h-265l-70 -188q-2 -6 -8 -6h-106q-10 0 -10 8q0 3 1 4l265 697q2 6 8 6h138
q6 0 8 -6l258 -697q1 -1 1 -4zM451 290l-101 282l-102 -282h203z" />
    <glyph glyph-name="Atilde" unicode="&#xc3;" horiz-adv-x="722" 
d="M538 909v-12q-2 -47 -26.5 -81t-69.5 -34q-34 0 -82 24.5t-61 24.5q-16 0 -26.5 -24.5t-14.5 -24.5h-62q-10 0 -10 9v3q0 47 26 84.5t72 37.5q32 0 81.5 -25t61.5 -25q15 0 25 25.5t15 25.5h62q9 0 9 -8zM701 8q0 -8 -10 -8h-133q-7 0 -9 6l-68 188h-265l-70 -188
q-2 -6 -8 -6h-106q-10 0 -10 8q0 3 1 4l265 697q2 6 8 6h138q6 0 8 -6l258 -697q1 -1 1 -4zM451 290l-101 282l-102 -282h203z" />
    <glyph glyph-name="Adieresis" unicode="&#xc4;" horiz-adv-x="722" 
d="M522 795q0 -10 -9 -10h-94q-9 0 -9 10v96q0 9 9 9h94q9 0 9 -9v-96zM311 795q0 -10 -9 -10h-93q-9 0 -9 10v96q0 9 9 9h93q9 0 9 -9v-96zM701 8q0 -8 -10 -8h-133q-7 0 -9 6l-68 188h-265l-70 -188q-2 -6 -8 -6h-106q-10 0 -10 8q0 3 1 4l265 697q2 6 8 6h138q6 0 8 -6
l258 -697q1 -1 1 -4zM451 290l-101 282l-102 -282h203z" />
    <glyph glyph-name="Aring" unicode="&#xc5;" horiz-adv-x="722" 
d="M464 856q0 -43 -29.5 -71.5t-72.5 -28.5q-41 0 -70.5 29t-29.5 71q0 41 28.5 70t71.5 29q42 0 72 -28.5t30 -70.5zM410 856q0 22 -14 35.5t-33 13.5t-33 -14t-14 -36t14 -36t33 -14t33 14t14 37zM702 8q0 -8 -10 -8h-133q-7 0 -9 6l-66 182h-273q-3 -8 -11.5 -34
t-17 -49.5t-18 -49t-17 -40.5t-11.5 -15h-106q-10 0 -10 8l1 4l265 698q4 7 9 7h138q7 0 9 -8l259 -697q1 -3 1 -4zM453 284q-17 48 -51.5 145t-52.5 145l-105 -290h209z" />
    <glyph glyph-name="AE" unicode="&#xc6;" horiz-adv-x="1027" 
d="M974 9q0 -9 -9 -9h-468q-9 0 -9 9v179h-241l-109 -183q-2 -5 -9 -5h-108q-9 0 -9 8q0 1 2 5l425 698q4 6 11 6h497q9 0 9 -9v-90q0 -9 -9 -9h-325v-198h186q9 0 9 -10v-84q0 -9 -9 -9h-186v-201h343q9 0 9 -9v-89zM303 284h185v305z" />
    <glyph glyph-name="Ccedilla" unicode="&#xc7;" horiz-adv-x="773" 
d="M412 -30q88 -15 88 -88q0 -48 -40 -73t-101 -25q-63 0 -63 15l5 47q0 6 6 7q1 0 18.5 -2.5t29.5 -2.5q50 0 50 33t-63 34h-6q-8 0 -8 7v2l15 66q-136 16 -220 119t-84 250q0 159 98.5 265.5t252.5 106.5q123 0 210.5 -62t116.5 -174q4 -15 5 -26q0 -10 -10 -10h-106
q-6 0 -8 7l-9 23q-23 59 -75 93t-119 34q-88 0 -151.5 -68.5t-63.5 -188.5t63.5 -188.5t151.5 -68.5q75 0 128 39t75 110q2 7 8 7h106q10 0 10 -10q-13 -114 -100 -183.5t-206 -76.5q-4 -12 -4 -18z" />
    <glyph glyph-name="Egrave" unicode="&#xc8;" horiz-adv-x="633" 
d="M402 783q0 -6 -7 -6h-75q-5 0 -8 3l-146 149q-2 2 -2 5q0 7 7 7h118q4 0 8 -4l102 -145q3 -6 3 -9zM585 9q0 -9 -9 -9h-498q-9 0 -9 9v699q0 9 9 9h480q9 0 9 -9v-90q0 -9 -9 -9h-350v-198h206q9 0 9 -10v-84q0 -9 -9 -9h-206v-201h368q9 0 9 -9v-89z" />
    <glyph glyph-name="Eacute" unicode="&#xc9;" horiz-adv-x="631" 
d="M498 934q0 -3 -2 -5l-146 -149q-3 -3 -8 -3h-75q-7 0 -7 6q0 3 3 9l102 145q4 4 8 4h118q7 0 7 -7zM583 9q0 -9 -9 -9h-496q-9 0 -9 9v696q0 9 9 9h478q9 0 9 -9v-89q0 -9 -9 -9h-347v-197h205q9 0 9 -9v-85q0 -9 -9 -9h-205v-200h365q9 0 9 -9v-89z" />
    <glyph glyph-name="Ecircumflex" unicode="&#xca;" horiz-adv-x="633" 
d="M585 9q0 -9 -9 -9h-498q-9 0 -9 9v699q0 9 9 9h480q9 0 9 -9v-90q0 -9 -9 -9h-350v-198h206q9 0 9 -10v-84q0 -9 -9 -9h-206v-201h368q9 0 9 -9v-89zM487 785q0 -8 -9 -8h-77q-3 0 -8 5l-71 90l-70 -90q-5 -5 -8 -5h-77q-11 0 -11 8q0 4 3 7l108 145q5 5 8 5h96q5 0 8 -5
l107 -147q1 -2 1 -5z" />
    <glyph glyph-name="Edieresis" unicode="&#xcb;" horiz-adv-x="633" 
d="M585 9q0 -9 -9 -9h-498q-9 0 -9 9v699q0 9 9 9h480q9 0 9 -9v-90q0 -9 -9 -9h-350v-198h206q9 0 9 -10v-84q0 -9 -9 -9h-206v-201h368q9 0 9 -9v-89zM485 795q0 -10 -9 -10h-94q-9 0 -9 10v96q0 9 9 9h94q9 0 9 -9v-96zM274 795q0 -10 -9 -10h-93q-9 0 -9 10v96q0 9 9 9
h93q9 0 9 -9v-96z" />
    <glyph glyph-name="Igrave" unicode="&#xcc;" horiz-adv-x="283" 
d="M189 783q0 -6 -7 -6h-75q-5 0 -8 3l-146 149q-2 2 -2 5q0 7 7 7h118q4 0 8 -4l102 -145q3 -6 3 -9zM212 9q0 -9 -10 -9h-121q-9 0 -9 9v699q0 9 9 9h121q10 0 10 -9v-699z" />
    <glyph glyph-name="Iacute" unicode="&#xcd;" horiz-adv-x="283" 
d="M337 934q0 -1 -2 -5l-146 -149q-6 -3 -8 -3h-75q-7 0 -7 6q0 5 3 9l102 145q2 4 8 4h118q7 0 7 -7zM212 9q0 -9 -10 -9h-121q-9 0 -9 9v699q0 9 9 9h121q10 0 10 -9v-699z" />
    <glyph glyph-name="Icircumflex" unicode="&#xce;" horiz-adv-x="283" 
d="M300 784q0 -7 -10 -7h-76q-7 0 -9 5l-63 85l-62 -85q-2 -5 -9 -5h-76q-10 0 -10 7q0 3 2 7l107 144q2 5 9 5h79q6 0 9 -5l107 -145q2 -4 2 -6zM212 9q0 -9 -10 -9h-121q-9 0 -9 9v699q0 9 9 9h121q10 0 10 -9v-699z" />
    <glyph glyph-name="Idieresis" unicode="&#xcf;" horiz-adv-x="283" 
d="M296 795q0 -10 -9 -10h-94q-9 0 -9 10v96q0 9 9 9h94q9 0 9 -9v-96zM100 795q0 -10 -10 -10h-93q-8 0 -8 10v96q0 9 8 9h93q10 0 10 -9v-96zM212 9q0 -9 -10 -9h-121q-9 0 -9 9v699q0 9 9 9h121q10 0 10 -9v-699z" />
    <glyph glyph-name="Eth" unicode="&#xd0;" horiz-adv-x="728" 
d="M688 366q0 -156 -92.5 -261t-261.5 -105h-256q-9 0 -9 9v302h-65q-9 0 -9 9v79q0 9 9 9h65v300q0 9 9 9h256q74 0 134.5 -20.5t100.5 -54.5t67.5 -79.5t39.5 -95t12 -101.5zM543 366q0 112 -58 177.5t-153 65.5h-129v-201h139q9 0 9 -9v-79q0 -9 -9 -9h-139v-203h123
q98 0 157.5 66.5t59.5 191.5z" />
    <glyph glyph-name="Ntilde" unicode="&#xd1;" horiz-adv-x="749" 
d="M682 9q0 -9 -10 -9h-117q-6 0 -9 5l-360 515h-1v-511q0 -9 -9 -9h-98q-9 0 -9 9v699q0 9 9 9h128q6 0 10 -6l347 -501h2v498q0 9 9 9h98q10 0 10 -9v-699zM554 902q0 -45 -26.5 -83.5t-78.5 -38.5q-31 0 -78.5 26.5t-67.5 26.5q-28 0 -33 -42q0 -9 -8 -9h-58q-9 0 -9 10
v9q0 40 30 77t80 37q33 0 78 -27t63 -27q15 0 23 13.5t10 31.5q0 8 8 8h58q9 0 9 -7v-5z" />
    <glyph glyph-name="Ograve" unicode="&#xd2;" horiz-adv-x="802" 
d="M444 783q0 -6 -7 -6h-75q-2 0 -8 3l-146 149q-2 4 -2 5q0 7 7 7h118q6 0 8 -4l102 -145q3 -4 3 -9zM762 360q0 -155 -99 -264.5t-262 -109.5q-166 0 -263.5 107t-97.5 267q0 97 39.5 179.5t123.5 137t198 54.5q167 0 264 -106.5t97 -264.5zM400 616q-101 0 -160.5 -72.5
t-59.5 -182.5q0 -111 60.5 -185t159.5 -74q100 0 161 72.5t61 186.5q0 116 -60.5 185.5t-161.5 69.5z" />
    <glyph glyph-name="Oacute" unicode="&#xd3;" horiz-adv-x="802" 
d="M590 934q0 -1 -2 -5l-146 -149q-6 -3 -8 -3h-75q-7 0 -7 6q0 5 3 9l102 145q2 4 8 4h118q7 0 7 -7zM762 360q0 -155 -99 -264.5t-262 -109.5q-166 0 -263.5 107t-97.5 267q0 97 39.5 179.5t123.5 137t198 54.5q167 0 264 -106.5t97 -264.5zM400 616q-101 0 -160.5 -72.5
t-59.5 -182.5q0 -111 60.5 -185t159.5 -74q100 0 161 72.5t61 186.5q0 116 -60.5 185.5t-161.5 69.5z" />
    <glyph glyph-name="Ocircumflex" unicode="&#xd4;" horiz-adv-x="802" 
d="M556 784q0 -7 -10 -7h-76q-7 0 -9 5l-63 85l-62 -85q-2 -5 -9 -5h-76q-10 0 -10 7q0 3 2 7l107 144q2 5 9 5h79q6 0 9 -5l107 -145q2 -4 2 -6zM762 360q0 -155 -99 -264.5t-262 -109.5q-166 0 -263.5 107t-97.5 267q0 97 39.5 179.5t123.5 137t198 54.5q167 0 264 -106.5
t97 -264.5zM400 616q-101 0 -160.5 -72.5t-59.5 -182.5q0 -111 60.5 -185t159.5 -74q100 0 161 72.5t61 186.5q0 116 -60.5 185.5t-161.5 69.5z" />
    <glyph glyph-name="Otilde" unicode="&#xd5;" horiz-adv-x="802" 
d="M762 360q0 -155 -99 -264.5t-262 -109.5q-166 0 -263.5 107t-97.5 267q0 97 39.5 179.5t123.5 137t198 54.5q167 0 264 -106.5t97 -264.5zM400 616q-101 0 -160.5 -72.5t-59.5 -182.5q0 -111 60.5 -185t159.5 -74q100 0 161 72.5t61 186.5q0 116 -60.5 185.5t-161.5 69.5
zM578 909v-12q-2 -47 -26.5 -81t-69.5 -34q-34 0 -82 24.5t-61 24.5q-16 0 -26.5 -24.5t-14.5 -24.5h-62q-10 0 -10 9v3q0 47 26 84.5t72 37.5q32 0 81.5 -25t61.5 -25q15 0 25 25.5t15 25.5h62q9 0 9 -8z" />
    <glyph glyph-name="Odieresis" unicode="&#xd6;" horiz-adv-x="802" 
d="M762 360q0 -155 -99 -264.5t-262 -109.5q-166 0 -263.5 107t-97.5 267q0 97 39.5 179.5t123.5 137t198 54.5q167 0 264 -106.5t97 -264.5zM400 616q-101 0 -160.5 -72.5t-59.5 -182.5q0 -111 60.5 -185t159.5 -74q100 0 161 72.5t61 186.5q0 116 -60.5 185.5t-161.5 69.5
zM561 795q0 -10 -9 -10h-94q-9 0 -9 10v96q0 9 9 9h94q9 0 9 -9v-96zM350 795q0 -10 -9 -10h-93q-9 0 -9 10v96q0 9 9 9h93q9 0 9 -9v-96z" />
    <glyph glyph-name="multiply" unicode="&#xd7;" horiz-adv-x="592" 
d="M507 394q0 -4 -3 -7l-144 -142l143 -142q4 -4 4 -7q0 -1 -1.5 -2.5t-1.5 -2.5l-55 -54q-3 -3 -6 -3t-6 3l-141 143l-145 -144q-3 -3 -5 -3q-3 0 -5 2l-55 56q-2 2 -2 5q0 4 2 6l144 143l-143 142q-2 2 -2 7q0 3 1 5l54 54l6 3q4 0 5 -2l143 -144l143 144q3 3 6 3
q5 0 6 -3l55 -55q3 -3 3 -5z" />
    <glyph glyph-name="Oslash" unicode="&#xd8;" horiz-adv-x="802" 
d="M134 -18q-4 -2 -5 -2q-2 0 -4 2l-58 52q-1 1 -1 5q0 5 4 10l54 60q-84 101 -84 251q0 97 39.5 179.5t123.5 137t198 54.5q119 0 207 -58l59 68q7 7 13 2l57 -52q6 -4 0 -10l-61 -71q86 -100 86 -250q0 -155 -99 -264t-262 -109q-123 0 -210 59l-54 -62q-1 -2 -3 -2z
M622 361q0 83 -40 145q-288 -345 -305 -365q51 -39 123 -39q100 0 161 72.5t61 186.5zM180 361q0 -85 41 -144l303 362q-52 37 -124 37q-101 0 -160.5 -72.5t-59.5 -182.5z" />
    <glyph glyph-name="Ugrave" unicode="&#xd9;" horiz-adv-x="697" 
d="M409 783q0 -6 -7 -6h-75q-2 0 -8 3l-146 149q-2 4 -2 5q0 7 7 7h118q6 0 8 -4l102 -145q3 -4 3 -9zM627 243q0 -114 -77 -184.5t-194 -70.5q-131 0 -209 68.5t-78 185.5v466q0 9 9 9h121q9 0 9 -9v-470q0 -64 41 -104.5t107 -40.5t106 40t40 105v470q0 9 10 9h106
q9 0 9 -9v-465z" />
    <glyph glyph-name="Uacute" unicode="&#xda;" horiz-adv-x="697" 
d="M538 934q0 -3 -2 -5l-146 -149q-3 -3 -8 -3h-75q-7 0 -7 6q0 3 3 9l102 145q4 4 8 4h118q7 0 7 -7zM627 243q0 -114 -77 -184.5t-194 -70.5q-131 0 -209 68.5t-78 185.5v466q0 9 9 9h121q9 0 9 -9v-470q0 -64 41 -104.5t107 -40.5t106 40t40 105v470q0 9 10 9h106
q9 0 9 -9v-465z" />
    <glyph glyph-name="Ucircumflex" unicode="&#xdb;" horiz-adv-x="697" 
d="M511 784q0 -7 -9 -7h-76q-7 0 -10 5l-62 85l-62 -85q-3 -5 -9 -5h-77q-10 0 -10 7q0 4 3 7l107 144q2 5 8 5h80q6 0 9 -5l106 -145q2 -2 2 -6zM627 243q0 -114 -77 -184.5t-194 -70.5q-131 0 -209 68.5t-78 185.5v466q0 9 9 9h121q9 0 9 -9v-470q0 -64 41 -104.5
t107 -40.5t106 40t40 105v470q0 9 10 9h106q9 0 9 -9v-465z" />
    <glyph glyph-name="Udieresis" unicode="&#xdc;" horiz-adv-x="697" 
d="M627 243q0 -114 -77 -184.5t-194 -70.5q-131 0 -209 68.5t-78 185.5v466q0 9 9 9h121q9 0 9 -9v-470q0 -64 41 -104.5t107 -40.5t106 40t40 105v470q0 9 10 9h106q9 0 9 -9v-465zM514 796q0 -10 -9 -10h-94q-9 0 -9 10v96q0 9 9 9h94q9 0 9 -9v-96zM303 796q0 -10 -9 -10
h-93q-9 0 -9 10v96q0 9 9 9h93q9 0 9 -9v-96z" />
    <glyph glyph-name="Yacute" unicode="&#xdd;" horiz-adv-x="719" 
d="M706 710q0 -1 -1 -4l-1 -2l-276 -449v-246q0 -9 -10 -9h-121q-10 0 -10 9v245q-45 75 -136 225t-136 225q-2 2 -2 5q0 8 9 8h141q7 0 11 -6l199 -335h1l202 335q3 6 10 6h110q10 0 10 -7zM556 935q0 -3 -2 -5l-146 -149q-4 -4 -7 -4h-71q-7 0 -7 7q0 3 1 5l104 148
q2 5 8 5h112q8 0 8 -7z" />
    <glyph glyph-name="Thorn" unicode="&#xde;" horiz-adv-x="646" 
d="M345 597q126 0 194.5 -64.5t68.5 -166.5q0 -107 -71.5 -173t-200.5 -66h-128v-118q0 -9 -9 -9h-121q-9 0 -9 9v699q0 9 9 9h121q9 0 9 -9v-111h137zM320 219q68 0 104.5 40.5t36.5 102.5q0 61 -36.5 99.5t-104.5 38.5h-112v-281h112z" />
    <glyph glyph-name="germandbls" unicode="&#xdf;" horiz-adv-x="548" 
d="M511 199q0 -93 -54 -148t-146 -55q-66 0 -81 5q-10 2 -10 10v62q0 10 11 10h47q53 0 83.5 30.5t30.5 88.5q0 133 -113 133h-49q-10 0 -10 9v65q0 9 10 9h50q41 0 64 31.5t23 80.5q0 47 -28 76t-69 29q-47 0 -71 -29.5t-24 -78.5v-518q0 -9 -9 -9h-100q-9 0 -9 9v510
q0 97 55 151t160 54q89 0 148.5 -49.5t59.5 -139.5q0 -48 -27 -92t-79 -61v-2q137 -26 137 -181z" />
    <glyph glyph-name="agrave" unicode="&#xe0;" horiz-adv-x="512" 
d="M326 536q0 -6 -8 -6h-71q-4 0 -7 3l-134 171q-3 3 -3 6q0 7 9 7h112q6 0 9 -5l92 -171q1 -2 1 -5zM498 14q0 -6 -7 -8q-36 -12 -69 -12q-78 0 -99 52q-49 -58 -141 -58q-66 0 -108 33.5t-42 86.5q0 32 14 57t44 43t53 27.5t63 22.5l27 9q54 18 66.5 28.5t12.5 33.5
q0 60 -66 60q-82 0 -87 -87q0 -8 -8 -8h-94q-9 0 -9 9q2 85 66 128q54 36 133 36q182 0 182 -138v-219q0 -33 31 -33q4 0 15 0.5t15 0.5q8 0 8 -9v-55zM312 151v85q-34 -19 -65 -32q-55 -24 -75.5 -40.5t-20.5 -46.5q0 -24 19.5 -38t50.5 -14q91 0 91 86z" />
    <glyph glyph-name="aacute" unicode="&#xe1;" horiz-adv-x="512" 
d="M416 710q0 -1 -2 -5l-135 -172q-3 -3 -7 -3h-72q-7 0 -7 6q0 3 1 4l93 172q3 5 8 5h114q7 0 7 -7zM498 14q0 -6 -7 -8q-36 -12 -69 -12q-78 0 -99 52q-49 -58 -141 -58q-66 0 -108 33.5t-42 86.5q0 32 14 57t44 43t53 27.5t63 22.5l27 9q54 18 66.5 28.5t12.5 33.5
q0 60 -66 60q-82 0 -87 -87q0 -8 -8 -8h-94q-9 0 -9 9q2 85 66 128q54 36 133 36q182 0 182 -138v-219q0 -33 31 -33q4 0 15 0.5t15 0.5q8 0 8 -9v-55zM312 151v85q-34 -19 -65 -32q-55 -24 -75.5 -40.5t-20.5 -46.5q0 -24 19.5 -38t50.5 -14q91 0 91 86z" />
    <glyph glyph-name="acircumflex" unicode="&#xe2;" horiz-adv-x="512" 
d="M411 537q0 -7 -10 -7h-72q-7 0 -9 4l-65 113l-67 -113q-2 -4 -8 -4h-72q-11 0 -11 7q0 2 2 6l100 169q3 5 8 5h96q7 0 9 -5l98 -170q1 -2 1 -5zM498 14q0 -6 -7 -8q-36 -12 -69 -12q-78 0 -99 52q-49 -58 -141 -58q-66 0 -108 33.5t-42 86.5q0 32 14 57t44 43t53 27.5
t63 22.5l27 9q54 18 66.5 28.5t12.5 33.5q0 60 -66 60q-82 0 -87 -87q0 -8 -8 -8h-94q-9 0 -9 9q2 85 66 128q54 36 133 36q182 0 182 -138v-219q0 -33 31 -33q4 0 15 0.5t15 0.5q8 0 8 -9v-55zM312 151v85q-34 -19 -65 -32q-55 -24 -75.5 -40.5t-20.5 -46.5q0 -24 19.5 -38
t50.5 -14q91 0 91 86z" />
    <glyph glyph-name="atilde" unicode="&#xe3;" horiz-adv-x="512" 
d="M426 671q0 -51 -23 -89t-72 -38q-33 0 -75 26t-56 26q-15 0 -21 -13t-9 -26t-10 -13h-57q-9 0 -9 9v12q2 46 27 79.5t68 33.5q32 0 75.5 -26t55.5 -26q17 0 24.5 26.5t14.5 26.5h58q9 0 9 -8zM498 14q0 -6 -7 -8q-36 -12 -69 -12q-78 0 -99 52q-49 -58 -141 -58
q-66 0 -108 33.5t-42 86.5q0 32 14 57t44 43t53 27.5t63 22.5l27 9q54 18 66.5 28.5t12.5 33.5q0 60 -66 60q-82 0 -87 -87q0 -8 -8 -8h-94q-9 0 -9 9q2 85 66 128q54 36 133 36q182 0 182 -138v-219q0 -33 31 -33q4 0 15 0.5t15 0.5q8 0 8 -9v-55zM312 151v85
q-34 -19 -65 -32q-55 -24 -75.5 -40.5t-20.5 -46.5q0 -24 19.5 -38t50.5 -14q91 0 91 86z" />
    <glyph glyph-name="adieresis" unicode="&#xe4;" horiz-adv-x="512" 
d="M403 560q0 -10 -9 -10h-90q-8 0 -8 10v91q0 9 8 9h90q9 0 9 -9v-91zM201 560q0 -10 -9 -10h-88q-10 0 -10 10v91q0 9 10 9h88q9 0 9 -9v-91zM498 14q0 -6 -7 -8q-36 -12 -69 -12q-78 0 -99 52q-49 -58 -141 -58q-66 0 -108 33.5t-42 86.5q0 32 14 57t44 43t53 27.5
t63 22.5l27 9q54 18 66.5 28.5t12.5 33.5q0 60 -66 60q-82 0 -87 -87q0 -8 -8 -8h-94q-9 0 -9 9q2 85 66 128q54 36 133 36q182 0 182 -138v-219q0 -33 31 -33q4 0 15 0.5t15 0.5q8 0 8 -9v-55zM312 151v85q-34 -19 -65 -32q-55 -24 -75.5 -40.5t-20.5 -46.5q0 -24 19.5 -38
t50.5 -14q91 0 91 86z" />
    <glyph glyph-name="aring" unicode="&#xe5;" horiz-adv-x="512" 
d="M360 621q0 -44 -30.5 -72t-71.5 -28t-70.5 28.5t-29.5 72.5t29.5 71t70.5 27t71.5 -27.5t30.5 -71.5zM306 621q0 22 -14 35.5t-33 13.5t-33 -13.5t-14 -35.5t14 -36t33 -14t33 14t14 36zM498 14q0 -6 -7 -8q-36 -12 -69 -12q-78 0 -99 52q-49 -58 -141 -58
q-66 0 -108 33.5t-42 86.5q0 32 14 57t44 43t53 27.5t63 22.5l27 9q54 18 66.5 28.5t12.5 33.5q0 60 -66 60q-82 0 -87 -87q0 -8 -8 -8h-94q-9 0 -9 9q2 85 66 128q54 36 133 36q182 0 182 -138v-219q0 -33 31 -33q4 0 15 0.5t15 0.5q8 0 8 -9v-55zM312 151v85
q-34 -19 -65 -32q-55 -24 -75.5 -40.5t-20.5 -46.5q0 -24 19.5 -38t50.5 -14q91 0 91 86z" />
    <glyph glyph-name="ae" unicode="&#xe6;" horiz-adv-x="797" 
d="M761 215q0 -7 -9 -7h-316q2 -58 31.5 -97t80.5 -39q67 0 93 63q2 5 9 5h96q9 0 9 -9v-3q-21 -68 -75.5 -104.5t-131.5 -36.5q-116 0 -169 73q-55 -72 -174 -72q-78 0 -124 33t-46 87q0 25 10 46.5t23.5 34.5t38 26.5t42.5 20t48 17t44 15.5q50 19 64.5 31.5t14.5 29.5
q0 60 -72 60q-81 0 -86 -87q0 -8 -9 -8h-94q-9 0 -9 9q0 75 49 119.5t149 44.5q114 0 154 -56q60 57 146 57q106 0 159.5 -73.5t53.5 -175.5v-4zM650 270q-7 55 -34 85t-68 30q-49 0 -77.5 -33t-34.5 -82h214zM320 156v86q-21 -17 -89 -45q-44 -19 -60.5 -36t-16.5 -44
q0 -24 20.5 -38t48.5 -14q45 0 71 22.5t26 68.5z" />
    <glyph glyph-name="ccedilla" unicode="&#xe7;" horiz-adv-x="519" 
d="M287 -30q45 -7 66.5 -31.5t21.5 -56.5q0 -48 -39.5 -73t-101.5 -25q-63 0 -63 15l5 47q0 6 6 7q1 0 18.5 -2.5t29.5 -2.5q20 0 35 8.5t15 24.5q0 33 -63 34h-6q-8 0 -8 7v2l15 69q-86 14 -135 79.5t-49 155.5q0 102 62 171t169 69q84 0 140 -45t68 -123q0 -11 -9 -11h-88
q-8 0 -9 9q-5 40 -33.5 62.5t-65.5 22.5q-51 0 -82 -42.5t-31 -112.5t31 -112.5t82 -42.5q39 0 66.5 25.5t33.5 63.5q2 9 9 9h87q9 0 9 -11q-12 -73 -60 -117.5t-121 -52.5z" />
    <glyph glyph-name="egrave" unicode="&#xe8;" horiz-adv-x="524" 
d="M322 536q0 -6 -10 -6h-70q-4 0 -7 3l-134 171q-3 3 -3 6q0 7 9 7h112q5 0 8 -5l93 -171q2 -4 2 -5zM482 215q0 -7 -9 -7h-320q3 -61 33 -99.5t82 -38.5q70 0 98 65q2 5 9 5h94q9 0 9 -9q0 -2 -1 -4q-18 -54 -70 -97t-140 -43q-107 0 -169.5 69.5t-62.5 171.5
q0 105 65 172.5t167 67.5q108 0 161.5 -69.5t53.5 -179.5v-4zM370 276q-5 52 -32.5 80.5t-70.5 28.5q-47 0 -75.5 -30.5t-37.5 -78.5h216z" />
    <glyph glyph-name="eacute" unicode="&#xe9;" horiz-adv-x="524" 
d="M447 710q0 -1 -2 -5l-136 -172q-3 -3 -7 -3h-72q-6 0 -6 6v4l94 172q2 5 7 5h114q8 0 8 -7zM482 215q0 -7 -9 -7h-320q3 -61 33 -99.5t82 -38.5q70 0 98 65q2 5 9 5h94q9 0 9 -9q0 -2 -1 -4q-18 -54 -70 -97t-140 -43q-107 0 -169.5 69.5t-62.5 171.5q0 105 65 172.5
t167 67.5q108 0 161.5 -69.5t53.5 -179.5v-4zM370 276q-5 52 -32.5 80.5t-70.5 28.5q-47 0 -75.5 -30.5t-37.5 -78.5h216z" />
    <glyph glyph-name="ecircumflex" unicode="&#xea;" horiz-adv-x="524" 
d="M418 537q0 -7 -10 -7h-72q-6 0 -8 4l-66 113l-67 -113q-2 -4 -8 -4h-72q-10 0 -10 7q0 2 2 6l99 169q2 5 8 5h97q5 0 7 -5l98 -170q2 -4 2 -5zM482 215q0 -7 -9 -7h-320q3 -61 33 -99.5t82 -38.5q70 0 98 65q2 5 9 5h94q9 0 9 -9q0 -2 -1 -4q-18 -54 -70 -97t-140 -43
q-107 0 -169.5 69.5t-62.5 171.5q0 105 65 172.5t167 67.5q108 0 161.5 -69.5t53.5 -179.5v-4zM370 276q-5 52 -32.5 80.5t-70.5 28.5q-47 0 -75.5 -30.5t-37.5 -78.5h216z" />
    <glyph glyph-name="edieresis" unicode="&#xeb;" horiz-adv-x="524" 
d="M416 560q0 -10 -9 -10h-90q-8 0 -8 10v91q0 9 8 9h90q9 0 9 -9v-91zM214 560q0 -10 -9 -10h-88q-10 0 -10 10v91q0 9 10 9h88q9 0 9 -9v-91zM482 215q0 -7 -9 -7h-320q3 -61 33 -99.5t82 -38.5q70 0 98 65q2 5 9 5h94q9 0 9 -9q0 -2 -1 -4q-18 -54 -70 -97t-140 -43
q-107 0 -169.5 69.5t-62.5 171.5q0 105 65 172.5t167 67.5q108 0 161.5 -69.5t53.5 -179.5v-4zM370 276q-5 52 -32.5 80.5t-70.5 28.5q-47 0 -75.5 -30.5t-37.5 -78.5h216z" />
    <glyph glyph-name="igrave" unicode="&#xec;" horiz-adv-x="235" 
d="M178 9q0 -9 -9 -9h-101q-8 0 -8 9v438q0 9 8 9h101q9 0 9 -9v-438zM159 536q0 -6 -9 -6h-70q-5 0 -8 3l-133 171q-3 3 -3 6q0 7 8 7h113q5 0 8 -5l92 -171q2 -4 2 -5z" />
    <glyph glyph-name="iacute" unicode="&#xed;" horiz-adv-x="237" 
d="M175 9q0 -9 -9 -9h-101q-8 0 -8 9v438q0 9 8 9h101q9 0 9 -9v-438zM289 710q0 -1 -2 -5l-134 -172q-3 -3 -8 -3h-72q-7 0 -7 6q0 3 1 4l93 172q2 5 8 5h113q8 0 8 -7z" />
    <glyph glyph-name="icircumflex" unicode="&#xee;" horiz-adv-x="232" 
d="M175 9q0 -9 -9 -9h-101q-8 0 -8 9v438q0 9 8 9h101q9 0 9 -9v-438zM272 537q0 -7 -9 -7h-72q-6 0 -8 4l-66 113l-67 -113q-2 -4 -8 -4h-72q-10 0 -10 7q0 4 1 6l100 169q3 5 7 5h97q5 0 8 -5l98 -170q1 -2 1 -5z" />
    <glyph glyph-name="idieresis" unicode="&#xef;" horiz-adv-x="232" 
d="M175 9q0 -9 -9 -9h-101q-8 0 -8 9v438q0 9 8 9h101q9 0 9 -9v-438zM262 560q0 -10 -9 -10h-89q-9 0 -9 10v91q0 9 9 9h89q9 0 9 -9v-91zM81 560q0 -10 -10 -10h-88q-9 0 -9 10v91q0 9 9 9h88q10 0 10 -9v-91z" />
    <glyph glyph-name="eth" unicode="&#xf0;" horiz-adv-x="539" 
d="M508 250q0 -123 -65.5 -193t-172.5 -70q-109 0 -173 69t-64 172q0 104 64 171.5t168 67.5q18 0 43.5 -8t40.5 -21q-28 80 -88 138l-89 -52q-2 -2 -6 -2q-3 0 -6 3l-32 39q-2 2 -2 4q0 5 4 8l76 44q-54 34 -112 46q-6 2 -6 7q0 3 2 5l50 52q2 2 7 2q7 0 19 -3
q68 -13 130 -53l81 48q7 4 12 -1l33 -40q7 -7 -3 -13l-65 -38q77 -74 115.5 -174t38.5 -208zM387 229q0 71 -30.5 112t-85.5 41q-56 0 -87 -44.5t-31 -110.5q0 -68 31.5 -111.5t84.5 -43.5q56 0 87 43.5t31 113.5z" />
    <glyph glyph-name="ntilde" unicode="&#xf1;" horiz-adv-x="528" 
d="M471 9q0 -9 -9 -9h-99q-10 0 -10 9v298q0 30 -21.5 52.5t-52.5 22.5q-49 0 -76.5 -31t-27.5 -73v-269q0 -9 -9 -9h-101q-8 0 -8 9v438q0 9 8 9h89q10 0 11 -9l6 -48h1q57 68 151 68q69 0 108.5 -39.5t39.5 -100.5v-318zM426 668q0 -51 -23 -89t-72 -38q-33 0 -75 26
t-56 26q-15 0 -21 -13t-9 -26t-10 -13h-57q-9 0 -9 9v12q2 46 27 79.5t68 33.5q32 0 75.5 -26t55.5 -26q17 0 24.5 26.5t14.5 26.5h58q9 0 9 -8z" />
    <glyph glyph-name="ograve" unicode="&#xf2;" horiz-adv-x="544" 
d="M328 536q0 -6 -8 -6h-71q-4 0 -7 3l-134 171q-3 3 -3 6q0 7 8 7h113q6 0 8 -5l92 -171q2 -4 2 -5zM510 228q0 -103 -64.5 -172t-173.5 -69t-173 69t-64 172q0 105 65.5 172.5t171.5 67.5q109 0 173.5 -69t64.5 -171zM389 229q0 71 -30.5 112t-85.5 41q-56 0 -87 -44.5
t-31 -110.5q0 -68 31.5 -111.5t84.5 -43.5q56 0 87 43.5t31 113.5z" />
    <glyph glyph-name="oacute" unicode="&#xf3;" horiz-adv-x="544" 
d="M434 710q0 -1 -2 -5l-135 -172q-3 -3 -8 -3h-72q-6 0 -6 6v4l94 172q3 5 7 5h114q8 0 8 -7zM510 228q0 -103 -64.5 -172t-173.5 -69t-173 69t-64 172q0 105 65.5 172.5t171.5 67.5q109 0 173.5 -69t64.5 -171zM389 229q0 71 -30.5 112t-85.5 41q-56 0 -87 -44.5
t-31 -110.5q0 -68 31.5 -111.5t84.5 -43.5q56 0 87 43.5t31 113.5z" />
    <glyph glyph-name="ocircumflex" unicode="&#xf4;" horiz-adv-x="544" 
d="M429 537q0 -7 -10 -7h-73q-5 0 -7 4l-66 113l-67 -113q-2 -4 -8 -4h-72q-10 0 -10 8q0 3 1 5l100 169q3 5 8 5h96q5 0 8 -5l98 -170q2 -4 2 -5zM510 228q0 -103 -64.5 -172t-173.5 -69t-173 69t-64 172q0 105 65.5 172.5t171.5 67.5q109 0 173.5 -69t64.5 -171zM389 229
q0 71 -30.5 112t-85.5 41q-56 0 -87 -44.5t-31 -110.5q0 -68 31.5 -111.5t84.5 -43.5q56 0 87 43.5t31 113.5z" />
    <glyph glyph-name="otilde" unicode="&#xf5;" horiz-adv-x="544" 
d="M509 229q0 -103 -64 -172t-173 -69t-173.5 69t-64.5 172q0 105 66 172t172 67q109 0 173 -68t64 -171zM389 230q0 72 -30.5 112.5t-85.5 40.5q-56 0 -87 -44.5t-31 -110.5q0 -68 31.5 -111.5t84.5 -43.5q55 0 86.5 44t31.5 113zM436 668q0 -51 -23 -89t-72 -38
q-33 0 -75 26t-56 26q-15 0 -21 -13t-9 -26t-10 -13h-57q-9 0 -9 9v12q2 46 27 79.5t68 33.5q32 0 75.5 -26t55.5 -26q17 0 24.5 26.5t14.5 26.5h58q9 0 9 -8z" />
    <glyph glyph-name="odieresis" unicode="&#xf6;" horiz-adv-x="544" 
d="M509 229q0 -103 -64 -172t-173 -69t-173.5 69t-64.5 172q0 105 66 172t172 67q109 0 173 -68t64 -171zM389 230q0 72 -30.5 112.5t-85.5 40.5q-56 0 -87 -44.5t-31 -110.5q0 -68 31.5 -111.5t84.5 -43.5q55 0 86.5 44t31.5 113zM427 561q0 -10 -9 -10h-90q-8 0 -8 10v91
q0 9 8 9h90q9 0 9 -9v-91zM225 561q0 -10 -9 -10h-88q-10 0 -10 10v91q0 9 10 9h88q9 0 9 -9v-91z" />
    <glyph glyph-name="divide" unicode="&#xf7;" horiz-adv-x="592" 
d="M349 381q0 -9 -9 -9h-89q-9 0 -9 9v87q0 9 9 9h89q9 0 9 -9v-87zM541 207q0 -9 -9 -9h-472q-10 0 -10 9v76q0 9 10 9h472q9 0 9 -9v-76zM349 23q0 -9 -9 -9h-89q-9 0 -9 9v87q0 9 9 9h89q9 0 9 -9v-87z" />
    <glyph glyph-name="oslash" unicode="&#xf8;" horiz-adv-x="544" 
d="M509 228q0 -103 -64.5 -172t-173.5 -69q-76 0 -137 40l-41 -45q-3 -3 -6 -3q-4 0 -6 2l-27 24q-4 4 -4 7q0 4 3 5l39 46q-58 68 -58 165q0 105 65.5 172.5t171.5 67.5q85 0 142 -41l41 44q3 3 6 3q4 0 7 -3l27 -23q3 -3 3 -6t-2 -7l-42 -45q56 -65 56 -162zM347 354
q-29 29 -74 29q-56 0 -87 -44.5t-31 -110.5q0 -45 18 -77zM389 228q0 42 -16 73l-172 -199q29 -29 69 -29q56 0 87.5 43t31.5 112z" />
    <glyph glyph-name="ugrave" unicode="&#xf9;" horiz-adv-x="527" 
d="M316 536q0 -6 -9 -6h-71q-4 0 -7 3l-134 171q-3 3 -3 6q0 7 9 7h113q4 0 7 -5l93 -171q2 -4 2 -5zM471 9q0 -9 -9 -9h-89q-8 0 -10 9l-7 49q-59 -71 -143 -71q-71 0 -113.5 38.5t-42.5 102.5v319q0 9 9 9h100q9 0 9 -9v-299q0 -37 20.5 -56t54.5 -19q45 0 73.5 29.5
t28.5 74.5v270q0 9 10 9h100q9 0 9 -9v-438z" />
    <glyph glyph-name="uacute" unicode="&#xfa;" horiz-adv-x="527" 
d="M438 710q0 -1 -2 -5l-135 -172q-3 -3 -8 -3h-71q-8 0 -8 6q0 3 1 4l94 172q3 5 8 5h113q8 0 8 -7zM471 9q0 -9 -9 -9h-89q-8 0 -10 9l-7 49q-59 -71 -143 -71q-71 0 -113.5 38.5t-42.5 102.5v319q0 9 9 9h100q9 0 9 -9v-299q0 -37 20.5 -56t54.5 -19q45 0 73.5 29.5
t28.5 74.5v270q0 9 10 9h100q9 0 9 -9v-438z" />
    <glyph glyph-name="ucircumflex" unicode="&#xfb;" horiz-adv-x="527" 
d="M421 537q0 -7 -10 -7h-73q-5 0 -7 4l-66 113l-67 -113q-2 -4 -8 -4h-72q-10 0 -10 8q0 3 1 5l99 169q2 5 9 5h96q5 0 8 -5l98 -170q2 -4 2 -5zM471 9q0 -9 -9 -9h-89q-8 0 -10 9l-7 49q-59 -71 -143 -71q-71 0 -113.5 38.5t-42.5 102.5v319q0 9 9 9h100q9 0 9 -9v-299
q0 -37 20.5 -56t54.5 -19q45 0 73.5 29.5t28.5 74.5v270q0 9 10 9h100q9 0 9 -9v-438z" />
    <glyph glyph-name="udieresis" unicode="&#xfc;" horiz-adv-x="527" 
d="M418 561q0 -10 -9 -10h-90q-8 0 -8 10v90q0 9 8 9h90q9 0 9 -9v-90zM216 561q0 -10 -9 -10h-88q-10 0 -10 10v90q0 9 10 9h88q9 0 9 -9v-90zM471 9q0 -9 -9 -9h-89q-8 0 -10 9l-7 49q-59 -71 -143 -71q-71 0 -113.5 38.5t-42.5 102.5v319q0 9 9 9h100q9 0 9 -9v-299
q0 -37 20.5 -56t54.5 -19q45 0 73.5 29.5t28.5 74.5v270q0 9 10 9h100q9 0 9 -9v-438z" />
    <glyph glyph-name="yacute" unicode="&#xfd;" horiz-adv-x="476" 
d="M464 449q0 -4 -1 -6l-182 -479q-37 -97 -58 -128q-49 -72 -136 -72q-40 0 -74 13q-6 3 -6 8q0 1 1 2q0 3 1 5l19 70q2 6 8 6q2 0 8 -2q32 -8 48 -8q43 0 72 70q11 27 11 44q0 13 -4 26q-2 6 -9 28l-151 419q0 1 -0.5 2t-0.5 2q0 7 9 7h106q8 0 12 -9l110 -326l118 326
q4 9 12 9h80q7 0 7 -7zM398 711q0 -1 -2 -5l-136 -172q-3 -3 -6 -3h-72q-8 0 -8 6q0 2 1 4l93 171q2 5 9 5h113q8 0 8 -6z" />
    <glyph glyph-name="thorn" unicode="&#xfe;" horiz-adv-x="552" 
d="M515 228q0 -107 -58 -174t-145 -67q-89 0 -136 58v-266q0 -9 -9 -9h-101q-9 0 -9 9v927q0 9 9 9h101q9 0 9 -9v-294q54 56 134 56q87 0 146 -64.5t59 -175.5zM397 228q0 74 -30.5 114t-81.5 40q-45 0 -76 -27.5t-31 -79.5v-94q0 -51 30.5 -80t76.5 -29q53 0 82.5 41.5
t29.5 114.5z" />
    <glyph glyph-name="ydieresis" unicode="&#xff;" horiz-adv-x="476" 
d="M398 560q0 -10 -9 -10h-89q-9 0 -9 10v91q0 9 9 9h89q9 0 9 -9v-91zM197 560q0 -10 -10 -10h-88q-9 0 -9 10v91q0 9 9 9h88q10 0 10 -9v-91zM464 448l-1 -2q-1 -2 -1 -3l-182 -479q-30 -80 -51 -117q-49 -83 -143 -83q-40 0 -74 13q-6 3 -6 8q0 1 1 2q1 3 1 5q1 5 9 33.5
t10 36.5q1 6 8 6q2 0 8 -2q32 -8 48 -8q31 0 50 31q6 3 21 37.5t15 43.5q0 8 -16 56l-151 419q0 1 -0.5 2t-0.5 2q0 7 9 7h106q8 0 12 -9l110 -326l118 326q4 9 12 9h80q5 0 7 -5q0 -1 1 -3z" />
    <glyph glyph-name="Amacron" unicode="&#x100;" horiz-adv-x="722" 
d="M527 813q0 -10 -10 -10h-312q-10 0 -10 10v64q0 10 10 10h312q10 0 10 -10v-64zM701 8q0 -8 -10 -8h-133q-7 0 -9 6l-68 188h-265l-70 -188q-2 -6 -8 -6h-106q-10 0 -10 8q0 3 1 4l265 697q2 6 8 6h138q6 0 8 -6l258 -697q1 -1 1 -4zM451 290l-101 282l-102 -282h203z
" />
    <glyph glyph-name="amacron" unicode="&#x101;" horiz-adv-x="512" 
d="M403 572q0 -9 -9 -9h-286q-9 0 -9 9v61q0 9 9 9h286q9 0 9 -9v-61zM498 14q0 -6 -7 -8q-36 -12 -69 -12q-78 0 -99 52q-49 -58 -141 -58q-66 0 -108 33.5t-42 86.5q0 32 14 57t44 43t53 27.5t63 22.5l27 9q54 18 66.5 28.5t12.5 33.5q0 60 -66 60q-82 0 -87 -87
q0 -8 -8 -8h-94q-9 0 -9 9q2 85 66 128q54 36 133 36q182 0 182 -138v-219q0 -33 31 -33q4 0 15 0.5t15 0.5q8 0 8 -9v-55zM312 151v85q-34 -19 -65 -32q-55 -24 -75.5 -40.5t-20.5 -46.5q0 -24 19.5 -38t50.5 -14q91 0 91 86z" />
    <glyph glyph-name="Abreve" unicode="&#x102;" horiz-adv-x="725" 
d="M512 926q0 -70 -44 -110.5t-109 -40.5q-67 0 -109.5 38.5t-42.5 112.5q0 8 9 8h72q9 0 9 -6q3 -72 62 -72q27 0 44.5 19t18.5 53q0 6 9 6h73q8 0 8 -8zM701 8q0 -8 -10 -8h-133q-7 0 -9 6l-68 188h-265l-70 -188q-2 -6 -8 -6h-106q-10 0 -10 8q0 3 1 4l265 697q2 6 8 6
h138q6 0 8 -6l258 -697q1 -1 1 -4zM451 290l-101 282l-102 -282h203z" />
    <glyph glyph-name="abreve" unicode="&#x103;" horiz-adv-x="512" 
d="M399 667q0 -70 -42 -110t-105 -40q-65 0 -106.5 38t-41.5 112q0 8 9 8h67q9 0 9 -7q3 -70 62 -70q27 0 44.5 18.5t18.5 51.5q0 7 9 7h68q8 0 8 -8zM498 14q0 -6 -7 -8q-36 -12 -69 -12q-78 0 -99 52q-49 -58 -141 -58q-66 0 -108 33.5t-42 86.5q0 32 14 57t44 43t53 27.5
t63 22.5l27 9q54 18 66.5 28.5t12.5 33.5q0 60 -66 60q-82 0 -87 -87q0 -8 -8 -8h-94q-9 0 -9 9q2 85 66 128q54 36 133 36q182 0 182 -138v-219q0 -33 31 -33q4 0 15 0.5t15 0.5q8 0 8 -9v-55zM312 151v85q-34 -19 -65 -32q-55 -24 -75.5 -40.5t-20.5 -46.5q0 -24 19.5 -38
t50.5 -14q91 0 91 86z" />
    <glyph glyph-name="Aogonek" unicode="&#x104;" horiz-adv-x="722" 
d="M700 -184q0 -15 -39 -24.5t-68 -9.5q-51 0 -84 24.5t-33 66.5q0 34 20.5 63t68.5 64l-81 188h-273q-2 -5 -21 -61.5t-33.5 -91.5t-21.5 -35h-105q-10 0 -10 8l1 4l266 700q2 6 9 6h137q6 0 8 -6l260 -700q1 -5 1 -9q0 -6 -11 -12q-112 -55 -112 -98q0 -32 39 -32
q29 0 62 12q2 0 3.5 0.5t2.5 0.5q7 0 8 -7zM454 284l-105 290l-105 -290h210z" />
    <glyph glyph-name="aogonek" unicode="&#x105;" horiz-adv-x="512" 
d="M498 -184q0 -14 -30 -23t-58 -11q-56 0 -91.5 22t-35.5 67q0 77 105 129q-46 7 -62 47q-51 -58 -146 -58q-64 0 -105.5 33t-41.5 84q0 56 35 86t104 54q5 2 17.5 6t20 7t20 7.5t21 8t19 8.5t17 10l13 10t9.5 10.5t3 10.5q0 65 -64 65q-84 0 -89 -86q0 -9 -9 -9h-94
q-9 0 -9 9q2 74 53 119t147 45q93 0 137.5 -35.5t44.5 -116.5v-206q0 -15 8 -24t22 -9q8 0 18.5 1t11.5 1q9 0 9 -9v-57q-1 -10 -5 -15t-21 -15l-19 -11q-67 -39 -69 -79q0 -14 10 -23t28 -9q19 0 57 12q4 2 6 2q7 0 7 -8zM312 151v89q-26 -18 -88 -45q-42 -19 -57.5 -35.5
t-15.5 -42.5q0 -24 20.5 -38t48.5 -14q92 0 92 86z" />
    <glyph glyph-name="Cacute" unicode="&#x106;" horiz-adv-x="767" 
d="M180 359q0 -120 63.5 -188.5t151.5 -68.5q75 0 128.5 39t74.5 110q2 7 8 7h106q10 0 10 -9q0 -15 -8 -37q-31 -107 -117 -166t-207 -59q-154 0 -252.5 106.5t-98.5 265.5t98.5 265.5t252.5 106.5q121 0 206.5 -59t117.5 -166q7 -20 8 -37q0 -10 -10 -10h-106q-6 0 -8 7
q-21 72 -74.5 111t-128.5 39q-88 0 -151.5 -68.5t-63.5 -188.5zM588 934q0 -1 -2 -5l-135 -138q-4 -4 -10 -7l-16 -6q-2 0 -7 -0.5t-7 -0.5h-54q-7 0 -7 6q0 7 8 15l92 133l7 8q16 2 48 2h76q7 0 7 -7z" />
    <glyph glyph-name="cacute" unicode="&#x107;" horiz-adv-x="519" 
d="M473 160q-12 -80 -68.5 -126t-139.5 -46q-107 0 -169 69t-62 171t62 171t169 69q83 0 140.5 -46t67.5 -123q0 -10 -9 -10h-88q-8 0 -9 9q-5 39 -32 62t-67 23q-51 0 -82 -42.5t-31 -112.5q0 -72 32 -113.5t81 -41.5q39 0 66.5 25.5t33.5 63.5q2 9 9 9h87q9 0 9 -11z
M442 710q0 -1 -2 -5l-136 -172q-3 -3 -6 -3h-72q-7 0 -7 6q0 3 1 4l92 172q2 5 9 5h113q8 0 8 -7z" />
    <glyph glyph-name="Ccircumflex" unicode="&#x108;" horiz-adv-x="767" 
d="M180 359q0 -120 63.5 -188.5t151.5 -68.5q75 0 128.5 39t74.5 110q2 7 8 7h106q10 0 10 -9q0 -15 -8 -37q-31 -107 -117 -166t-207 -59q-154 0 -252.5 106.5t-98.5 265.5t98.5 265.5t252.5 106.5q121 0 206.5 -59t117.5 -166q7 -20 8 -37q0 -10 -10 -10h-106q-6 0 -8 7
q-21 72 -74.5 111t-128.5 39q-88 0 -151.5 -68.5t-63.5 -188.5zM549 784q0 -7 -10 -7h-58q-24 0 -32 11q-4 5 -25.5 34t-32.5 45l-57 -79q-7 -11 -31 -11h-59q-10 0 -10 7q0 3 2 7l109 146q4 0 13.5 1.5t13.5 1.5h49q4 0 10.5 -1.5t7.5 -1.5l108 -147q2 -4 2 -6z" />
    <glyph glyph-name="ccircumflex" unicode="&#x109;" horiz-adv-x="500" 
d="M473 160q-12 -80 -68.5 -126t-139.5 -46q-107 0 -169 69t-62 171t62 171t169 69q83 0 140.5 -46t67.5 -123q0 -10 -9 -10h-88q-8 0 -9 9q-5 39 -32 62t-67 23q-51 0 -82 -42.5t-31 -112.5q0 -72 32 -113.5t81 -41.5q39 0 66.5 25.5t33.5 63.5q2 9 9 9h87q9 0 9 -11z
M413 539q0 -7 -10 -7h-68q-5 0 -8 5l-57 98l-58 -98q-2 -5 -9 -5h-67q-10 0 -10 8q0 3 2 5l100 166q3 6 9 6h65q8 0 9 -6l100 -167q2 -2 2 -5z" />
    <glyph glyph-name="Cdotaccent" unicode="&#x10a;" horiz-adv-x="767" 
d="M180 359q0 -120 63.5 -188.5t151.5 -68.5q75 0 128.5 39t74.5 110q2 7 8 7h106q10 0 10 -9q0 -15 -8 -37q-31 -107 -117 -166t-207 -59q-154 0 -252.5 106.5t-98.5 265.5t98.5 265.5t252.5 106.5q121 0 206.5 -59t117.5 -166q7 -20 8 -37q0 -10 -10 -10h-106q-6 0 -8 7
q-21 72 -74.5 111t-128.5 39q-88 0 -151.5 -68.5t-63.5 -188.5zM454 795q0 -9 -9 -9h-104q-9 0 -9 9v106q0 9 9 9h104q9 0 9 -9v-106z" />
    <glyph glyph-name="cdotaccent" unicode="&#x10b;" horiz-adv-x="500" 
d="M473 160q-12 -80 -68.5 -126t-139.5 -46q-107 0 -169 69t-62 171t62 171t169 69q83 0 140.5 -46t67.5 -123q0 -10 -9 -10h-88q-8 0 -9 9q-5 39 -32 62t-67 23q-51 0 -82 -42.5t-31 -112.5q0 -72 32 -113.5t81 -41.5q39 0 66.5 25.5t33.5 63.5q2 9 9 9h87q9 0 9 -11z
M328 560q0 -9 -9 -9h-105q-8 0 -8 9v106q0 9 8 9h105q9 0 9 -9v-106z" />
    <glyph glyph-name="Ccaron" unicode="&#x10c;" horiz-adv-x="767" 
d="M180 359q0 -120 63.5 -188.5t151.5 -68.5q75 0 128.5 39t74.5 110q2 7 8 7h106q10 0 10 -9q0 -15 -8 -37q-31 -107 -117 -166t-207 -59q-154 0 -252.5 106.5t-98.5 265.5t98.5 265.5t252.5 106.5q121 0 206.5 -59t117.5 -166q7 -20 8 -37q0 -10 -10 -10h-106q-6 0 -8 7
q-21 72 -74.5 111t-128.5 39q-88 0 -151.5 -68.5t-63.5 -188.5zM236 933q0 7 9 7h59q3 0 9 -0.5t10 -0.5l6 -2l6 -8q11 -16 32.5 -45t25.5 -34l64 87q3 3 25 3h59q10 0 10 -7q0 -3 -3 -8l-108 -145q-6 -3 -28 -3h-48q-15 0 -25 10l-101 140q-2 2 -2 6z" />
    <glyph glyph-name="ccaron" unicode="&#x10d;" horiz-adv-x="519" 
d="M473 160q-12 -80 -68.5 -126t-139.5 -46q-107 0 -169 69t-62 171t62 171t169 69q83 0 140.5 -46t67.5 -123q0 -10 -9 -10h-88q-8 0 -9 9q-5 39 -32 62t-67 23q-51 0 -82 -42.5t-31 -112.5q0 -72 32 -113.5t81 -41.5q39 0 66.5 25.5t33.5 63.5q2 9 9 9h87q9 0 9 -11z
M128 710q0 7 10 7h68q6 0 8 -5l57 -98l58 98q3 5 9 5h67q10 0 10 -8q0 -3 -2 -5l-100 -166q-3 -6 -9 -6h-65q-7 0 -9 6l-100 167q-2 2 -2 5z" />
    <glyph glyph-name="Dcaron" unicode="&#x10e;" horiz-adv-x="727" 
d="M186 933q0 7 9 7h76q5 0 10 -5l62 -85l62 85q5 5 9 5h77q10 0 10 -7q0 -3 -3 -8l-107 -144q-4 -4 -8 -4h-80q-5 0 -9 4l-106 146q-2 2 -2 6zM689 366q0 -156 -92.5 -261t-261.5 -105h-257q-9 0 -9 9v699q0 9 9 9h257q74 0 134.5 -20.5t100.5 -54.5t67.5 -79.5t39.5 -95
t12 -101.5zM544 366q0 112 -58 178t-153 66h-130v-504h124q98 0 157.5 67.5t59.5 192.5z" />
    <glyph glyph-name="dcaron" unicode="&#x10f;" horiz-adv-x="609" 
d="M494 9q0 -9 -9 -9h-86q-7 0 -9 9l-7 36q-25 -27 -64 -42.5t-78 -15.5q-93 0 -149.5 69t-56.5 171q0 98 55.5 169.5t148.5 71.5q81 0 137 -60v300q0 9 9 9h100q9 0 9 -9v-699zM376 181v94q0 52 -31 79.5t-76 27.5q-51 0 -81.5 -40t-30.5 -114q0 -73 29.5 -114.5
t82.5 -41.5q46 0 76.5 29t30.5 80zM666 708v-86q-7 -90 -96 -111h-10q-8 0 -8 9v40q0 7 7 9q43 5 43 58h-27q-9 0 -9 9v72q0 9 9 9h82q9 0 9 -9z" />
    <glyph glyph-name="Dcroat" unicode="&#x110;" horiz-adv-x="728" 
d="M688 365q0 -156 -92.5 -260.5t-261.5 -104.5h-256q-9 0 -9 9v310h-65q-9 0 -9 9v77q0 9 9 9h65v291q0 9 9 9h256q92 0 162.5 -30.5t111 -81.5t60.5 -111t20 -126zM543 365q0 111 -58 176t-153 65h-129v-192h139q9 0 9 -9v-77q0 -9 -9 -9h-139v-211h123q98 0 157.5 66
t59.5 191z" />
    <glyph glyph-name="dcroat" unicode="&#x111;" horiz-adv-x="549" 
d="M493 9q0 -9 -9 -9h-86q-11 0 -11 30l-6 16q-50 -57 -142 -57t-148 68.5t-56 170.5q0 98 54.5 169t146.5 71q84 0 138 -61q0 1 1 1v166h-160q-9 0 -9 9v60q0 9 9 9h160v56q0 9 9 9h100q9 0 9 -9v-56h70q10 0 10 -9v-60q0 -9 -10 -9h-70v-565zM376 181v94q0 52 -31 79.5
t-76 27.5q-51 0 -81.5 -40t-30.5 -114q0 -73 29.5 -114.5t82.5 -41.5q46 0 76.5 29t30.5 80z" />
    <glyph glyph-name="Emacron" unicode="&#x112;" horiz-adv-x="633" 
d="M501 813q0 -10 -10 -10h-332q-10 0 -10 10v64q0 10 10 10h332q10 0 10 -10v-64zM585 9q0 -9 -9 -9h-498q-9 0 -9 9v699q0 9 9 9h480q9 0 9 -9v-90q0 -9 -9 -9h-350v-198h206q9 0 9 -10v-84q0 -9 -9 -9h-206v-201h368q9 0 9 -9v-89z" />
    <glyph glyph-name="emacron" unicode="&#x113;" horiz-adv-x="524" 
d="M482 218q0 -9 -9 -9h-323q2 -60 33 -99t83 -39q70 0 97 65q3 5 9 5h97q9 0 9 -9v-1q-1 -1 -1.5 -2.5t-0.5 -4.5q-20 -56 -74 -96t-138 -40q-104 0 -167 67t-63 173q0 103 63 171.5t167 68.5q97 0 158 -64t60 -186zM367 276q-5 52 -32.5 80.5t-70.5 28.5
q-44 0 -74.5 -30.5t-37.5 -78.5h215zM423 572q0 -9 -9 -9h-286q-9 0 -9 9v61q0 9 9 9h286q9 0 9 -9v-61z" />
    <glyph glyph-name="Ebreve" unicode="&#x114;" horiz-adv-x="633" 
d="M585 9q0 -9 -9 -9h-498q-9 0 -9 9v699q0 9 9 9h480q9 0 9 -9v-90q0 -9 -9 -9h-350v-198h206q9 0 9 -10v-84q0 -9 -9 -9h-206v-201h368q9 0 9 -9v-89zM481 926q0 -70 -44 -110.5t-109 -40.5q-67 0 -109.5 38.5t-42.5 112.5q0 8 8 8h72q10 0 10 -6q2 -72 62 -72
q27 0 44.5 19t18.5 53q0 6 9 6h72q9 0 9 -8z" />
    <glyph glyph-name="ebreve" unicode="&#x115;" horiz-adv-x="524" 
d="M482 218q0 -9 -9 -9h-323q2 -60 33 -99t83 -39q70 0 97 65q3 5 9 5h97q9 0 9 -9v-1q-1 -1 -1.5 -2.5t-0.5 -4.5q-20 -56 -74 -96t-138 -40q-104 0 -167 67t-63 173q0 103 63 171.5t167 68.5q97 0 158 -64t60 -186zM367 276q-5 52 -32.5 80.5t-70.5 28.5
q-44 0 -74.5 -30.5t-37.5 -78.5h215zM413 667q0 -70 -42 -110t-105 -40q-65 0 -106.5 38t-41.5 112q0 8 9 8h67q9 0 9 -7q3 -70 62 -70q27 0 44.5 18.5t18.5 51.5q0 7 9 7h68q8 0 8 -8z" />
    <glyph glyph-name="Edotaccent" unicode="&#x116;" horiz-adv-x="633" 
d="M389 795q0 -9 -9 -9h-104q-9 0 -9 9v106q0 9 9 9h104q9 0 9 -9v-106zM585 9q0 -9 -9 -9h-498q-9 0 -9 9v699q0 9 9 9h480q9 0 9 -9v-90q0 -9 -9 -9h-350v-198h206q9 0 9 -10v-84q0 -9 -9 -9h-206v-201h368q9 0 9 -9v-89z" />
    <glyph glyph-name="edotaccent" unicode="&#x117;" horiz-adv-x="524" 
d="M482 218q0 -9 -9 -9h-323q2 -60 33 -99t83 -39q70 0 97 65q3 5 9 5h97q9 0 9 -9v-1q-1 -1 -1.5 -2.5t-0.5 -4.5q-20 -56 -74 -96t-138 -40q-104 0 -167 67t-63 173q0 103 63 171.5t167 68.5q97 0 158 -64t60 -186zM367 276q-5 52 -32.5 80.5t-70.5 28.5
q-44 0 -74.5 -30.5t-37.5 -78.5h215zM324 560q0 -9 -9 -9h-105q-8 0 -8 9v106q0 9 8 9h105q9 0 9 -9v-106z" />
    <glyph glyph-name="Eogonek" unicode="&#x118;" horiz-adv-x="633" 
d="M579 -184v-3q0 -13 -40 -22t-67 -9q-51 0 -84 24.5t-33 66.5q0 76 100 127h-377q-9 0 -9 9v699q0 9 9 9h480q9 0 9 -9v-90q0 -9 -9 -9h-350v-198h206q9 0 9 -10v-84q0 -9 -9 -9h-206v-201h368q9 0 9 -9v-84q0 -11 -15 -18q-112 -52 -112 -102q0 -15 11 -24t29 -9
q24 0 62 12q1 1 6 1q6 0 7 -7z" />
    <glyph glyph-name="eogonek" unicode="&#x119;" horiz-adv-x="524" 
d="M393 -184q0 -15 -38.5 -25t-68.5 -10q-51 0 -83.5 25.5t-32.5 66.5q0 32 21 63t56 53q-100 7 -156.5 74.5t-56.5 164.5q0 104 65.5 172t167.5 68q101 0 158 -67.5t57 -180.5q0 -11 -9 -11h-323q3 -60 33.5 -99t81.5 -39q73 0 98 65q3 5 9 5h97q9 0 9 -9q0 -10 -15 -37
t-39 -50q-12 -11 -56 -42.5t-70.5 -57.5t-26.5 -49q0 -15 11 -25.5t29 -10.5q24 0 62 12q3 1 6 1q7 0 8 -7zM367 277q-5 51 -33 80t-70 29q-47 0 -75.5 -30.5t-37.5 -78.5h216z" />
    <glyph glyph-name="Ecaron" unicode="&#x11a;" horiz-adv-x="633" 
d="M171 933q0 7 9 7h76q5 0 10 -5l62 -85l62 85q5 5 9 5h77q10 0 10 -7q0 -3 -3 -8l-107 -144q-4 -4 -8 -4h-80q-5 0 -9 4l-106 146q-2 2 -2 6zM585 9q0 -9 -9 -9h-498q-9 0 -9 9v699q0 9 9 9h480q9 0 9 -9v-90q0 -9 -9 -9h-350v-198h206q9 0 9 -10v-84q0 -9 -9 -9h-206
v-201h368q9 0 9 -9v-89z" />
    <glyph glyph-name="ecaron" unicode="&#x11b;" horiz-adv-x="524" 
d="M482 218q0 -9 -9 -9h-323q2 -60 33 -99t83 -39q70 0 97 65q3 5 9 5h97q9 0 9 -9v-1q-1 -1 -1.5 -2.5t-0.5 -4.5q-20 -56 -74 -96t-138 -40q-104 0 -167 67t-63 173q0 103 63 171.5t167 68.5q97 0 158 -64t60 -186zM367 276q-5 52 -32.5 80.5t-70.5 28.5
q-44 0 -74.5 -30.5t-37.5 -78.5h215zM121 710q0 7 10 7h68q5 0 8 -5l57 -98l58 98q2 5 9 5h67q10 0 10 -8q0 -3 -2 -5l-100 -166q-3 -6 -9 -6h-65q-8 0 -9 6l-100 167q-2 2 -2 5z" />
    <glyph glyph-name="Gcircumflex" unicode="&#x11c;" horiz-adv-x="794" 
d="M724 9q0 -9 -9 -9h-91q-9 0 -9 8l-5 71h-1q-87 -91 -230 -91q-150 0 -244.5 102.5t-94.5 267.5q0 157 99 265.5t255 108.5q134 0 220 -70.5t109 -191.5v-2q0 -9 -10 -9h-105q-7 0 -9 7q-20 72 -74 111t-131 39q-93 0 -153.5 -71t-60.5 -187t61 -188.5t159 -72.5
q69 0 123.5 34t75.5 92v4h-100q-10 0 -10 9v71q0 10 10 10h216q9 0 9 -10v-298zM549 784q0 -7 -10 -7h-58q-24 0 -32 11q-4 5 -25.5 34t-32.5 45l-57 -79q-7 -11 -31 -11h-59q-10 0 -10 7q0 3 2 7l109 146q4 0 13.5 1.5t13.5 1.5h49q4 0 10.5 -1.5t7.5 -1.5l108 -147
q2 -4 2 -6z" />
    <glyph glyph-name="gcircumflex" unicode="&#x11d;" horiz-adv-x="549" 
d="M528 381q0 -9 -9 -9q-70 -4 -86 -16q5 -27 5 -60q0 -76 -54.5 -126t-142.5 -50q-16 0 -38 2h-9q-28 0 -42 -9.5t-14 -22.5q0 -31 76 -31h20q50 0 73.5 -0.5t61 -2.5t55 -6.5t40.5 -13.5t33 -22.5t17.5 -33.5t7.5 -46q0 -73 -76 -120.5t-215 -47.5q-219 0 -219 112
q0 36 26.5 64t71.5 37q-67 28 -67 85q0 31 21.5 55.5t55.5 30.5q-35 21 -55 60.5t-20 80.5q0 74 54 125.5t143 51.5q94 0 145 -45q49 39 131 39q10 0 10 -9v-72zM394 539q0 -7 -9 -7h-68q-3 0 -12 12l-53 91l-57 -95q-6 -8 -10 -8h-68q-9 0 -9 8q0 1 0.5 2.5t0.5 2.5l97 159
q5 10 10 11.5t19 1.5h48q7 0 10 -6l100 -167q0 -1 0.5 -2.5t0.5 -2.5zM412 -92q0 33 -35.5 41t-121.5 7h-33q-108 0 -108 -57q0 -58 132 -58h12q78 0 116 19.5t38 47.5zM324 294q0 45 -22.5 70t-60.5 25t-60 -26.5t-22 -69.5q0 -44 22 -69.5t60 -25.5q37 0 60 26t23 70z" />
    <glyph glyph-name="Gbreve" unicode="&#x11e;" horiz-adv-x="793" 
d="M724 9q0 -9 -9 -9h-91q-9 0 -9 8l-5 71h-1q-87 -91 -230 -91q-150 0 -244.5 102.5t-94.5 267.5q0 157 99 265.5t255 108.5q134 0 220 -70.5t109 -191.5v-2q0 -9 -10 -9h-105q-7 0 -9 7q-20 72 -74 111t-131 39q-93 0 -153.5 -71t-60.5 -187t61 -188.5t159 -72.5
q69 0 123.5 34t75.5 92v4h-100q-10 0 -10 9v71q0 10 10 10h216q9 0 9 -10v-298zM551 926q0 -70 -44 -110.5t-109 -40.5q-67 0 -109.5 38.5t-42.5 112.5q0 8 8 8h72q10 0 10 -6q2 -72 62 -72q27 0 44.5 19t18.5 53q0 6 9 6h72q9 0 9 -8z" />
    <glyph glyph-name="gbreve" unicode="&#x11f;" horiz-adv-x="549" 
d="M528 381q0 -9 -9 -9q-70 -4 -86 -16q5 -27 5 -60q0 -76 -54.5 -126t-142.5 -50q-16 0 -38 2h-9q-28 0 -42 -9.5t-14 -22.5q0 -31 76 -31h20q50 0 73.5 -0.5t61 -2.5t55 -6.5t40.5 -13.5t33 -22.5t17.5 -33.5t7.5 -46q0 -73 -76 -120.5t-215 -47.5q-219 0 -219 112
q0 36 26.5 64t71.5 37q-67 28 -67 85q0 31 21.5 55.5t55.5 30.5q-35 21 -55 60.5t-20 80.5q0 74 54 125.5t143 51.5q94 0 145 -45q49 39 131 39q10 0 10 -9v-72zM324 294q0 45 -22.5 70t-60.5 25t-60 -26.5t-22 -69.5q0 -44 22 -69.5t60 -25.5q37 0 60 26t23 70zM412 -92
q0 33 -35.5 41t-121.5 7h-33q-108 0 -108 -57q0 -58 132 -58h12q78 0 116 19.5t38 47.5zM394 667q0 -70 -42 -110t-105 -40q-65 0 -106.5 38t-41.5 112q0 8 9 8h67q9 0 9 -7q3 -70 62 -70q27 0 44.5 18.5t18.5 51.5q0 7 9 7h68q8 0 8 -8z" />
    <glyph glyph-name="Gdotaccent" unicode="&#x120;" horiz-adv-x="794" 
d="M724 9q0 -9 -9 -9h-91q-9 0 -9 8l-5 71h-1q-87 -91 -230 -91q-150 0 -244.5 102.5t-94.5 267.5q0 157 99 265.5t255 108.5q134 0 220 -70.5t109 -191.5v-2q0 -9 -10 -9h-105q-7 0 -9 7q-20 72 -74 111t-131 39q-93 0 -153.5 -71t-60.5 -187t61 -188.5t159 -72.5
q69 0 123.5 34t75.5 92v4h-100q-10 0 -10 9v71q0 10 10 10h216q9 0 9 -10v-298zM454 795q0 -9 -9 -9h-104q-9 0 -9 9v106q0 9 9 9h104q9 0 9 -9v-106z" />
    <glyph glyph-name="gdotaccent" unicode="&#x121;" horiz-adv-x="549" 
d="M528 381q0 -9 -9 -9q-70 -4 -86 -16q5 -27 5 -60q0 -76 -54.5 -126t-142.5 -50q-16 0 -38 2h-9q-28 0 -42 -9.5t-14 -22.5q0 -31 76 -31h20q50 0 73.5 -0.5t61 -2.5t55 -6.5t40.5 -13.5t33 -22.5t17.5 -33.5t7.5 -46q0 -73 -76 -120.5t-215 -47.5q-219 0 -219 112
q0 36 26.5 64t71.5 37q-67 28 -67 85q0 31 21.5 55.5t55.5 30.5q-35 21 -55 60.5t-20 80.5q0 74 54 125.5t143 51.5q94 0 145 -45q49 39 131 39q10 0 10 -9v-72zM324 294q0 45 -22.5 70t-60.5 25t-60 -26.5t-22 -69.5q0 -44 22 -69.5t60 -25.5q37 0 60 26t23 70zM412 -92
q0 33 -35.5 41t-121.5 7h-33q-108 0 -108 -57q0 -58 132 -58h12q78 0 116 19.5t38 47.5zM311 560q0 -9 -9 -9h-104q-9 0 -9 9v106q0 9 9 9h104q9 0 9 -9v-106z" />
    <glyph glyph-name="Gcommaaccent" unicode="&#x122;" horiz-adv-x="793" 
d="M724 9q0 -9 -9 -9h-96q-9 0 -9 8v71h-1q-83 -86 -230 -86q-150 0 -244.5 102t-94.5 266q0 156 99 263.5t255 107.5q134 0 220 -70.5t109 -191.5v-2q0 -9 -10 -9h-105q-7 0 -9 7q-20 72 -74 111t-131 39q-93 0 -153.5 -69.5t-60.5 -185.5t61 -188t159 -72q70 0 124 32.5
t75 89.5v4h-100q-10 0 -10 9v71q0 10 10 10h216q9 0 9 -10v-298zM448 -51v-68q0 -55 -26.5 -91t-79.5 -36h-10q-8 0 -8 9v42q0 7 7 9q41 0 43 54h-32q-9 0 -9 9v72q0 9 8 9h98q9 0 9 -9z" />
    <glyph glyph-name="gcommaaccent" unicode="&#x123;" horiz-adv-x="549" 
d="M528 381q0 -9 -9 -9q-70 -4 -86 -16q5 -27 5 -60q0 -76 -54.5 -126t-142.5 -50q-16 0 -38 2h-9q-28 0 -42 -9.5t-14 -22.5q0 -31 76 -31h20q50 0 73.5 -0.5t61 -2.5t55 -6.5t40.5 -13.5t33 -22.5t17.5 -33.5t7.5 -46q0 -73 -76 -120.5t-215 -47.5q-219 0 -219 112
q0 36 26.5 64t71.5 37q-67 28 -67 85q0 31 21.5 55.5t55.5 30.5q-35 21 -55 60.5t-20 80.5q0 74 54 125.5t143 51.5q94 0 145 -45q49 39 131 39q10 0 10 -9v-72zM412 -92q0 33 -35.5 41t-121.5 7h-33q-108 0 -108 -57q0 -58 132 -58h12q78 0 116 19.5t38 47.5zM324 294
q0 45 -22.5 70t-60.5 25t-60 -26.5t-22 -69.5q0 -44 22 -69.5t60 -25.5q37 0 60 26t23 70zM182 526v83q5 97 106 112h9q9 0 9 -9v-42q0 -7 -7 -9q-43 0 -43 -54h32q9 0 9 -9v-72q0 -9 -9 -9h-97q-9 0 -9 9z" />
    <glyph glyph-name="Hcircumflex" unicode="&#x124;" horiz-adv-x="749" 
d="M531 784q0 -7 -10 -7h-76q-7 0 -9 5l-63 85l-62 -85q-2 -5 -9 -5h-76q-10 0 -10 7q0 3 2 7l107 144q3 5 9 5h79q7 0 9 -5l107 -145q2 -4 2 -6zM679 9q0 -9 -8 -9h-122q-10 0 -10 9v293h-331v-293q0 -9 -9 -9h-121q-9 0 -9 9v699q0 9 9 9h121q9 0 9 -9v-294h331v294
q0 9 10 9h122q8 0 8 -9v-699z" />
    <glyph glyph-name="hcircumflex" unicode="&#x125;" horiz-adv-x="527" 
d="M423 784q0 -7 -9 -7h-76q-7 0 -10 5l-62 85l-62 -85q-3 -5 -9 -5h-77q-10 0 -10 7q0 4 3 7l107 144q2 5 8 5h80q6 0 9 -5l106 -145q2 -2 2 -6zM470 9q0 -9 -9 -9h-99q-10 0 -10 9v299q0 32 -19 53t-58 21q-46 0 -73 -32t-27 -74v-267q0 -9 -9 -9h-101q-8 0 -8 9v699
q0 9 8 9h101q9 0 9 -9v-310q57 70 138 70q70 0 113.5 -39t43.5 -103v-317z" />
    <glyph glyph-name="Hbar" unicode="&#x126;" horiz-adv-x="750" 
d="M679 708v-699q0 -9 -8 -9h-122q-10 0 -10 9v293h-331v-293q0 -9 -9 -9h-121q-9 0 -9 9v699q0 9 9 9h121q9 0 9 -9v-103h331v103q0 9 10 9h122q8 0 8 -9zM208 407h331v104h-331v-104z" />
    <glyph glyph-name="hbar" unicode="&#x127;" horiz-adv-x="527" 
d="M470 9q0 -9 -9 -9h-99q-10 0 -10 9v299q0 33 -20.5 53.5t-56.5 20.5q-46 0 -73 -32t-27 -74v-267q0 -9 -9 -9h-101q-8 0 -8 9v533h-58q-9 0 -9 9v61q0 9 9 9h58v87q0 9 8 9h101q9 0 9 -9v-87h159q9 0 9 -9v-61q0 -9 -9 -9h-159v-144q54 70 142 70q68 0 110.5 -40
t42.5 -102v-317z" />
    <glyph glyph-name="Itilde" unicode="&#x128;" horiz-adv-x="283" 
d="M320 909v-6q0 -46 -24 -83.5t-73 -37.5q-19 0 -40 6.5t-45 17t-27 11.5q-34 11 -45 -1q-12 -3 -22 -30q0 -4 -49 -4q-23 0 -23 4q-4 0 -4 11q0 44 26 81.5t72 37.5q32 0 81.5 -25t61.5 -25q13 0 21.5 13t8.5 29q0 9 9 9h63q9 0 9 -8zM212 9q0 -9 -10 -9h-121q-9 0 -9 9
v699q0 9 9 9h121q10 0 10 -9v-699z" />
    <glyph glyph-name="itilde" unicode="&#x129;" horiz-adv-x="232" 
d="M175 9q0 -9 -9 -9h-101q-8 0 -8 9v438q0 9 8 9h101q9 0 9 -9v-438zM271 680v-12q-2 -47 -24.5 -81t-65.5 -34q-28 0 -69 26t-56 26q-14 0 -20 -13t-8.5 -26t-8.5 -13h-57q-9 0 -9 10v12q3 45 26.5 79t64.5 34q30 0 71.5 -26.5t52.5 -26.5q17 0 23.5 27t13.5 27h58
q8 0 8 -9z" />
    <glyph glyph-name="Imacron" unicode="&#x12a;" horiz-adv-x="280" 
d="M306 813q0 -10 -9 -10h-313q-10 0 -10 10v64q0 10 10 10h313q9 0 9 -10v-64zM212 9q0 -9 -10 -9h-121q-9 0 -9 9v699q0 9 9 9h121q10 0 10 -9v-699z" />
    <glyph glyph-name="imacron" unicode="&#x12b;" horiz-adv-x="231" 
d="M175 9q0 -9 -9 -9h-101q-8 0 -8 9v438q0 9 8 9h101q9 0 9 -9v-438zM267 572q0 -9 -8 -9h-286q-9 0 -9 9v61q0 9 9 9h286q8 0 8 -9v-61z" />
    <glyph glyph-name="Ibreve" unicode="&#x12c;" horiz-adv-x="283" 
d="M212 9q0 -9 -10 -9h-121q-9 0 -9 9v699q0 9 9 9h121q10 0 10 -9v-699zM295 926q0 -70 -44 -110.5t-109 -40.5q-67 0 -109.5 38.5t-42.5 112.5q0 8 9 8h72q9 0 9 -6q3 -72 62 -72q28 0 45 19t18 53q0 6 9 6h73q8 0 8 -8z" />
    <glyph glyph-name="ibreve" unicode="&#x12d;" horiz-adv-x="232" 
d="M175 9q0 -9 -9 -9h-101q-8 0 -8 9v438q0 9 8 9h101q9 0 9 -9v-438zM264 667q0 -70 -42 -110t-105 -40q-65 0 -106.5 38t-41.5 112q0 8 9 8h67q9 0 9 -7q3 -70 62 -70q28 0 45 18.5t18 51.5q0 7 9 7h68q8 0 8 -8z" />
    <glyph glyph-name="Iogonek" unicode="&#x12e;" horiz-adv-x="283" 
d="M238 -184q0 -15 -36 -24.5t-63 -9.5q-50 0 -81.5 24.5t-31.5 65.5q0 65 87 124q-5 1 -17 3.5t-20 4.5q-4 26 -4 44v660q0 9 9 9h121q10 0 10 -9v-699q0 -21 -10 -30q-24 -16 -49.5 -41t-25.5 -46q0 -13 10 -22t28 -9q21 0 54 12q1 0 3 0.5t3 0.5q6 0 7 -7z" />
    <glyph glyph-name="iogonek" unicode="&#x12f;" horiz-adv-x="232" 
d="M213 -184v-4q0 -12 -37 -21.5t-59 -9.5q-51 0 -82 23.5t-31 64.5q0 71 87 127q-1 0 -6 1t-9 2t-8.5 2.5t-7.5 3.5t-3 5v437q0 9 8 9h101q9 0 9 -9v-450q0 -16 -10 -24q-61 -45 -61 -81q0 -13 10.5 -22.5t27.5 -9.5q11 0 29.5 6.5t28.5 6.5q7 0 8 -7zM177 560q0 -9 -9 -9
h-105q-8 0 -8 9v106q0 9 8 9h105q9 0 9 -9v-106z" />
    <glyph glyph-name="Idotaccent" unicode="&#x130;" horiz-adv-x="283" 
d="M212 9q0 -9 -10 -9h-121q-9 0 -9 9v699q0 9 9 9h121q10 0 10 -9v-699zM203 794q0 -9 -9 -9h-105q-8 0 -8 9v106q0 9 8 9h105q9 0 9 -9v-106z" />
    <glyph glyph-name="dotlessi" unicode="&#x131;" horiz-adv-x="232" 
d="M175 9q0 -9 -9 -9h-101q-8 0 -8 9v438q0 9 8 9h101q9 0 9 -9v-438z" />
    <glyph glyph-name="IJ" unicode="&#x132;" horiz-adv-x="829" 
d="M212 9q0 -9 -10 -9h-121q-9 0 -9 9v699q0 9 9 9h121q10 0 10 -9v-699zM757 210q0 -105 -67 -163.5t-173 -58.5q-102 0 -154.5 57.5t-52.5 135.5v10q0 9 9 9h105q9 0 9 -9q2 -40 25.5 -71.5t60.5 -31.5q42 0 69 28.5t27 88.5v503q0 9 9 9h124q9 0 9 -9v-498z" />
    <glyph glyph-name="ij" unicode="&#x133;" horiz-adv-x="454" 
d="M177 560q0 -9 -9 -9h-105q-8 0 -8 9v106q0 9 8 9h105q9 0 9 -9v-106zM175 9q0 -9 -9 -9h-101q-8 0 -8 9v438q0 9 8 9h101q9 0 9 -9v-438zM399 560q0 -9 -9 -9h-105q-8 0 -8 9v106q0 9 8 9h105q9 0 9 -9v-106zM397 -105q0 -69 -38 -100.5t-97 -31.5q-34 0 -59 6q-8 0 -8 9
l7 67q2 8 9 8q3 0 15 -1t15 -1q37 0 37 39v557q0 9 9 9h101q9 0 9 -9v-552z" />
    <glyph glyph-name="Jcircumflex" unicode="&#x134;" horiz-adv-x="553" 
d="M483 210q0 -105 -67 -163.5t-173 -58.5q-102 0 -154 57.5t-52 135.5v10q0 9 9 9h104q9 0 9 -9q2 -40 26 -71.5t60 -31.5q43 0 70 28.5t27 88.5v503q0 9 9 9h123q9 0 9 -9v-498zM569 784q0 -7 -10 -7h-58q-24 0 -32 11q-4 5 -25.5 34t-32.5 45l-57 -79q-7 -11 -31 -11h-59
q-10 0 -10 7q0 3 2 7l109 146q4 0 13.5 1.5t13.5 1.5h49q4 0 10.5 -1.5t7.5 -1.5l108 -147q2 -4 2 -6z" />
    <glyph glyph-name="jcircumflex" unicode="&#x135;" horiz-adv-x="234" 
d="M175 -105q0 -69 -38 -100.5t-97 -31.5q-34 0 -59 6q-8 0 -8 9l7 67q2 8 9 8q4 0 15.5 -1t14.5 -1q37 0 37 39v557q0 9 9 9h101q9 0 9 -9v-552zM259 539q0 -7 -9 -7h-68q-6 0 -8 5l-57 98l-59 -98q-2 -5 -8 -5h-68q-9 0 -9 8l1 2v3l101 166q1 6 9 6h64q7 0 10 -6l100 -167
v-2q1 -2 1 -3z" />
    <glyph glyph-name="Kcommaaccent" unicode="&#x136;" horiz-adv-x="696" 
d="M402 -51v-67q0 -113 -106 -128h-10q-8 0 -8 9v42q0 7 7 9q41 0 43 54h-32q-9 0 -9 9v72q0 9 8 9h98q9 0 9 -9zM665 7q0 -7 -8 -7h-145q-4 0 -8 4l-234 320l-62 -60v-255q0 -9 -9 -9h-121q-9 0 -9 9v699q0 9 9 9h121q9 0 9 -9v-302l296 308q3 3 7 3h132q9 0 9 -7
q0 -3 -4 -7l-286 -286l301 -404q2 -2 2 -6z" />
    <glyph glyph-name="kcommaaccent" unicode="&#x137;" horiz-adv-x="531" 
d="M330 -51v-67q0 -113 -106 -128h-10q-8 0 -8 9v42q0 7 7 9q41 0 43 54h-32q-9 0 -9 9v72q0 9 8 9h98q9 0 9 -9zM498 6q0 -6 -9 -6h-114q-6 0 -11 5l-138 188l-51 -46v-138q0 -9 -9 -9h-101q-8 0 -8 9v699q0 9 8 9h101q9 0 9 -9v-452l193 196q4 4 12 4h99q9 0 9 -7
q0 -2 -4 -6l-180 -177l192 -253q2 -3 2 -7z" />
    <glyph glyph-name="kgreenlandic" unicode="&#x138;" horiz-adv-x="517" 
d="M498 6q0 -6 -9 -6h-114q-6 0 -11 5l-138 188l-51 -46v-138q0 -9 -9 -9h-101q-8 0 -8 9v438q0 9 8 9h101q9 0 9 -9v-191l193 195q5 5 12 5h99q9 0 9 -7q0 -1 -4 -7l-180 -176l192 -253q2 -3 2 -7z" />
    <glyph glyph-name="Lacute" unicode="&#x139;" horiz-adv-x="595" 
d="M375 934q0 -1 -2 -5l-146 -149q-6 -3 -8 -3h-75q-7 0 -7 6q0 5 3 9l102 145q2 4 8 4h118q7 0 7 -7zM557 9q0 -9 -10 -9h-469q-9 0 -9 9v699q0 9 9 9h121q9 0 9 -9v-591h339q10 0 10 -9v-99z" />
    <glyph glyph-name="lacute" unicode="&#x13a;" horiz-adv-x="232" 
d="M308 934q0 -1 -2 -5l-146 -149q-6 -3 -8 -3h-75q-7 0 -7 6q0 5 3 9l102 145q2 4 8 4h118q7 0 7 -7zM175 9q0 -9 -9 -9h-101q-8 0 -8 9v699q0 9 8 9h101q9 0 9 -9v-699z" />
    <glyph glyph-name="Lcommaaccent" unicode="&#x13b;" horiz-adv-x="595" 
d="M557 9q0 -9 -10 -9h-469q-9 0 -9 9v699q0 9 9 9h121q9 0 9 -9v-591h339q10 0 10 -9v-99zM380 -51v-83q-5 -97 -106 -112h-9q-9 0 -9 9v42q0 7 7 9q43 0 43 54h-32q-9 0 -9 9v72q0 9 9 9h97q9 0 9 -9z" />
    <glyph glyph-name="lcommaaccent" unicode="&#x13c;" horiz-adv-x="232" 
d="M175 9q0 -9 -9 -9h-101q-8 0 -8 9v699q0 9 8 9h101q9 0 9 -9v-699zM174 -56v-78q-5 -97 -106 -112h-9q-9 0 -9 9v42q0 7 7 9q43 0 43 54h-32q-9 0 -9 9v67q0 9 9 9h97q9 0 9 -9z" />
    <glyph glyph-name="Lcaron" unicode="&#x13d;" horiz-adv-x="595" 
d="M428 804v-93q0 -51 -30 -86.5t-86 -35.5q-8 0 -8 9v43q0 3 2.5 6t5.5 2l7 3q33 7 35 56h-34q-9 0 -9 9v87q0 9 9 9h99q9 0 9 -9zM557 9q0 -9 -10 -9h-469q-9 0 -9 9v699q0 9 9 9h121q9 0 9 -9v-591h339q10 0 10 -9v-99z" />
    <glyph glyph-name="lcaron" unicode="&#x13e;" horiz-adv-x="291" 
d="M175 9q0 -9 -9 -9h-101q-8 0 -8 9v699q0 9 8 9h101q9 0 9 -9v-699zM346 708v-86q-7 -90 -96 -111h-10q-8 0 -8 9v40q0 7 7 9q43 5 43 58h-27q-9 0 -9 9v72q0 9 9 9h82q9 0 9 -9z" />
    <glyph glyph-name="Ldot" unicode="&#x13f;" horiz-adv-x="595" 
d="M511 310q0 -9 -9 -9h-119q-9 0 -9 9v119q0 9 9 9h119q9 0 9 -9v-119zM557 9q0 -9 -10 -9h-469q-9 0 -9 9v699q0 9 9 9h121q9 0 9 -9v-591h339q10 0 10 -9v-99z" />
    <glyph glyph-name="ldot" unicode="&#x140;" horiz-adv-x="399" 
d="M175 9q0 -9 -9 -9h-101q-8 0 -8 9v699q0 9 8 9h101q9 0 9 -9v-699zM371 248q0 -9 -9 -9h-109q-8 0 -8 9v111q0 9 8 9h109q9 0 9 -9v-111z" />
    <glyph glyph-name="Lslash" unicode="&#x141;" horiz-adv-x="612" 
d="M576 9q0 -9 -10 -9h-466q-9 0 -9 9v243l-57 -36q-3 -3 -8 -3q-7 0 -7 10v87q0 6 5 8l67 43v347q0 9 9 9h121q9 0 9 -9v-260l124 82q4 2 7 2q7 0 7 -10v-87q0 -4 -4 -8l-134 -88v-222h336q10 0 10 -9v-99z" />
    <glyph glyph-name="lslash" unicode="&#x142;" horiz-adv-x="277" 
d="M260 392q0 -4 -4 -8l-59 -37v-338q0 -9 -9 -9h-100q-9 0 -9 9v265l-50 -34q-4 -2 -6 -2q-6 0 -6 10v76q0 4 4 8l58 38v338q0 9 9 9h100q9 0 9 -9v-266l50 34q4 2 7 2q6 0 6 -11v-75z" />
    <glyph glyph-name="Nacute" unicode="&#x143;" horiz-adv-x="751" 
d="M682 9q0 -9 -10 -9h-117q-6 0 -9 5l-360 515h-1v-511q0 -9 -9 -9h-98q-9 0 -9 9v699q0 9 9 9h128q6 0 10 -6l347 -501h2v498q0 9 9 9h98q10 0 10 -9v-699zM551 934q0 -1 -2 -5l-135 -138q-4 -4 -10 -7l-16 -6q-2 0 -7 -0.5t-7 -0.5h-54q-7 0 -7 6q0 7 8 15l92 133l7 8
q16 2 48 2h76q7 0 7 -7z" />
    <glyph glyph-name="nacute" unicode="&#x144;" horiz-adv-x="532" 
d="M471 9q0 -9 -9 -9h-99q-10 0 -10 9v298q0 30 -21.5 52.5t-52.5 22.5q-49 0 -76.5 -31t-27.5 -73v-269q0 -9 -9 -9h-101q-8 0 -8 9v438q0 9 8 9h89q10 0 11 -9l6 -48h1q57 68 151 68q69 0 108.5 -39.5t39.5 -100.5v-318zM442 710q0 -1 -2 -5l-136 -172q-3 -3 -6 -3h-72
q-7 0 -7 6q0 3 1 4l92 172q2 5 9 5h113q8 0 8 -7z" />
    <glyph glyph-name="Ncommaaccent" unicode="&#x145;" horiz-adv-x="751" 
d="M682 9q0 -9 -10 -9h-117q-6 0 -9 5l-360 515h-1v-511q0 -9 -9 -9h-98q-9 0 -9 9v699q0 9 9 9h128q6 0 10 -6l347 -501h2v498q0 9 9 9h98q10 0 10 -9v-699zM438 -51v-68q0 -111 -106 -127h-10q-8 0 -8 9v42q0 7 7 9q41 0 43 54h-32q-9 0 -9 9v72q0 9 8 9h98q9 0 9 -9z" />
    <glyph glyph-name="ncommaaccent" unicode="&#x146;" horiz-adv-x="530" 
d="M471 9q0 -9 -9 -9h-99q-10 0 -10 9v298q0 30 -21.5 52.5t-52.5 22.5q-49 0 -76.5 -31t-27.5 -73v-269q0 -9 -9 -9h-101q-8 0 -8 9v438q0 9 8 9h89q10 0 11 -9l6 -48h1q57 68 151 68q69 0 108.5 -39.5t39.5 -100.5v-318zM323 -51v-67q0 -113 -106 -128h-10q-8 0 -8 9v42
q0 7 7 9q41 0 43 54h-32q-9 0 -9 9v72q0 9 8 9h98q9 0 9 -9z" />
    <glyph glyph-name="Ncaron" unicode="&#x147;" horiz-adv-x="751" 
d="M682 9q0 -9 -10 -9h-117q-6 0 -9 5l-360 515h-1v-511q0 -9 -9 -9h-98q-9 0 -9 9v699q0 9 9 9h128q6 0 10 -6l347 -501h2v498q0 9 9 9h98q10 0 10 -9v-699zM221 933q0 7 10 7h58q22 0 25 -3l64 -87q28 37 58 79l7 8q3 3 24 3h59q10 0 10 -7q0 -2 -2 -8l-102 -138
q-10 -10 -34 -10h-49q-19 0 -24 10l-102 140q-2 4 -2 6z" />
    <glyph glyph-name="ncaron" unicode="&#x148;" horiz-adv-x="527" 
d="M471 9q0 -9 -9 -9h-99q-10 0 -10 9v298q0 30 -21.5 52.5t-52.5 22.5q-49 0 -76.5 -31t-27.5 -73v-269q0 -9 -9 -9h-101q-8 0 -8 9v438q0 9 8 9h89q10 0 11 -9l6 -48h1q57 68 151 68q69 0 108.5 -39.5t39.5 -100.5v-318zM410 709q0 -1 -2 -5l-100 -166q-3 -6 -10 -6h-55
q-14 0 -20 10q-1 2 -2 3l-96 160q-2 4 -2 5q0 7 9 7h68q6 0 9 -5l57 -98l58 98q2 5 8 5h68q10 0 10 -8z" />
    <glyph glyph-name="napostrophe" unicode="&#x149;" horiz-adv-x="528" 
d="M471 9q0 -9 -9 -9h-99q-10 0 -10 9v298q0 30 -21.5 52.5t-52.5 22.5q-49 0 -76.5 -31t-27.5 -73v-269q0 -9 -9 -9h-101q-8 0 -8 9v438q0 9 8 9h89q10 0 11 -9l6 -48h1q57 68 151 68q69 0 108.5 -39.5t39.5 -100.5v-318zM173 708v-62q0 -56 -24.5 -88t-81.5 -40h-10
q-8 0 -8 9v42q0 7 7 9q42 0 43 49h-32q-9 0 -9 9v72q0 9 8 9h98q9 0 9 -9z" />
    <glyph glyph-name="Eng" unicode="&#x14a;" horiz-adv-x="751" 
d="M682 -26q0 -102 -54.5 -156.5t-146.5 -54.5q-59 0 -58 14l4 81q2 8 8 8h6q49 0 82 23.5t33 64.5q0 33 -20 62l-350 504h-1v-511q0 -9 -9 -9h-98q-9 0 -9 9v699q0 9 9 9h130q6 0 10 -6q64 -97 186.5 -272.5t158.5 -228.5h2v498q0 9 9 9h98q10 0 10 -9v-734z" />
    <glyph glyph-name="eng" unicode="&#x14b;" horiz-adv-x="528" 
d="M471 -104q0 -69 -37.5 -100.5t-96.5 -31.5q-67 0 -67 15q0 23 4 48.5t12 25.5q5 0 15 -0.5t15 -0.5q37 0 37 39v404q0 37 -19.5 62t-54.5 25q-49 0 -76.5 -31t-27.5 -73v-269q0 -9 -9 -9h-101q-8 0 -8 9v438q0 9 8 9h89q10 0 11 -9l6 -48h1q57 68 151 68
q69 0 108.5 -39.5t39.5 -100.5v-431z" />
    <glyph glyph-name="Omacron" unicode="&#x14c;" horiz-adv-x="802" 
d="M569 808q0 -10 -9 -10h-313q-10 0 -10 10v64q0 10 10 10h313q9 0 9 -10v-64zM762 360q0 -155 -99 -264.5t-262 -109.5q-166 0 -263.5 107t-97.5 267q0 97 39.5 179.5t123.5 137t198 54.5q167 0 264 -106.5t97 -264.5zM400 616q-101 0 -160.5 -72.5t-59.5 -182.5
q0 -111 60.5 -185t159.5 -74q100 0 161 72.5t61 186.5q0 116 -60.5 185.5t-161.5 69.5z" />
    <glyph glyph-name="omacron" unicode="&#x14d;" horiz-adv-x="544" 
d="M509 229q0 -103 -64 -172t-173 -69t-173.5 69t-64.5 172q0 105 66 172t172 67q109 0 173 -68t64 -171zM389 230q0 72 -30.5 112.5t-85.5 40.5q-56 0 -87 -44.5t-31 -110.5q0 -68 31.5 -111.5t84.5 -43.5q55 0 86.5 44t31.5 113zM426 582q0 -9 -9 -9h-286q-9 0 -9 9v61
q0 9 9 9h286q9 0 9 -9v-61z" />
    <glyph glyph-name="Obreve" unicode="&#x14e;" horiz-adv-x="802" 
d="M762 360q0 -155 -99 -264.5t-262 -109.5q-166 0 -263.5 107t-97.5 267q0 97 39.5 179.5t123.5 137t198 54.5q167 0 264 -106.5t97 -264.5zM400 616q-101 0 -160.5 -72.5t-59.5 -182.5q0 -111 60.5 -185t159.5 -74q100 0 161 72.5t61 186.5q0 116 -60.5 185.5t-161.5 69.5
zM553 926q0 -70 -44 -110.5t-109 -40.5q-67 0 -109.5 38.5t-42.5 112.5q0 8 8 8h72q10 0 10 -6q2 -72 62 -72q27 0 44.5 19t18.5 53q0 6 9 6h72q9 0 9 -8z" />
    <glyph glyph-name="obreve" unicode="&#x14f;" horiz-adv-x="544" 
d="M509 229q0 -103 -64 -172t-173 -69t-173.5 69t-64.5 172q0 105 66 172t172 67q109 0 173 -68t64 -171zM389 230q0 72 -30.5 112.5t-85.5 40.5q-56 0 -87 -44.5t-31 -110.5q0 -68 31.5 -111.5t84.5 -43.5q55 0 86.5 44t31.5 113zM420 667q0 -70 -42 -110t-106 -40
q-65 0 -106 38t-41 112q0 8 8 8h67q10 0 10 -7q1 -70 62 -70q27 0 44.5 18.5t18.5 51.5q0 7 9 7h67q9 0 9 -8z" />
    <glyph glyph-name="Ohungarumlaut" unicode="&#x150;" horiz-adv-x="802" 
d="M679 934q0 -3 -2 -5l-140 -149q-3 -3 -7 -3h-77q-7 0 -7 7q0 3 1 4l102 149q4 4 8 4h114q8 0 8 -7zM468 934q0 -3 -2 -5l-135 -149q-3 -3 -7 -3h-75q-7 0 -7 7q0 3 1 4l94 149q4 4 9 4h114q8 0 8 -7zM762 360q0 -155 -99 -264.5t-262 -109.5q-166 0 -263.5 107t-97.5 267
q0 97 39.5 179.5t123.5 137t198 54.5q167 0 264 -106.5t97 -264.5zM400 616q-101 0 -160.5 -72.5t-59.5 -182.5q0 -111 60.5 -185t159.5 -74q100 0 161 72.5t61 186.5q0 116 -60.5 185.5t-161.5 69.5z" />
    <glyph glyph-name="ohungarumlaut" unicode="&#x151;" horiz-adv-x="544" 
d="M509 229q0 -103 -64 -172t-173 -69t-173.5 69t-64.5 172q0 105 66 172t172 67q109 0 173 -68t64 -171zM389 230q0 72 -30.5 112.5t-85.5 40.5q-56 0 -87 -44.5t-31 -110.5q0 -68 31.5 -111.5t84.5 -43.5q55 0 86.5 44t31.5 113zM525 710q0 -3 -2 -5l-133 -172
q-3 -3 -7 -3h-73q-7 0 -7 6q0 3 1 4l96 172q5 5 8 5h109q8 0 8 -7zM329 710q0 -3 -2 -5l-128 -172q-3 -3 -7 -3h-72q-6 0 -6 6v4l90 172q5 5 8 5h109q8 0 8 -7z" />
    <glyph glyph-name="OE" unicode="&#x152;" horiz-adv-x="1118" 
d="M1074 9q0 -9 -9 -9h-465q-9 0 -9 9v70q-89 -94 -209 -94q-165 0 -253.5 105t-88.5 268q0 73 20.5 138t61 118t107.5 84.5t153 31.5q124 0 209 -88v64q0 9 9 9h448q9 0 9 -9v-90q0 -9 -9 -9h-318v-196h186q8 0 8 -10v-84q0 -9 -8 -9h-186v-200h335q9 0 9 -9v-90zM592 358
q0 123 -57.5 190t-152.5 67q-99 0 -150.5 -72t-51.5 -185q0 -114 52 -186t150 -72q95 0 152.5 70t57.5 188z" />
    <glyph glyph-name="oe" unicode="&#x153;" horiz-adv-x="879" 
d="M836 219q0 -10 -9 -10h-323q4 -62 34 -99t81 -37q70 0 95 61q4 7 11 7h96q8 0 8 -9q0 -2 -3 -11q-19 -56 -72 -94.5t-135 -38.5q-108 0 -173 83q-68 -83 -177 -83t-173 68.5t-64 171.5q0 105 65.5 172.5t171.5 67.5q110 0 180 -84q66 84 170 84q103 0 160.5 -69.5
t56.5 -179.5zM723 277q-6 53 -35.5 81t-69.5 28q-46 0 -74.5 -30t-38.5 -79h218zM387 228q0 72 -30.5 113.5t-85.5 41.5q-56 0 -87 -44.5t-31 -110.5q0 -69 31 -112t84 -43q56 0 87.5 43t31.5 112z" />
    <glyph glyph-name="Racute" unicode="&#x154;" horiz-adv-x="653" 
d="M486 934q0 -1 -2 -5l-146 -149q-6 -3 -8 -3h-75q-7 0 -7 6q0 5 3 9l102 145q2 4 8 4h118q7 0 7 -7zM642 8q0 -8 -9 -8h-138q-5 0 -9 4l-185 275h-98v-270q0 -9 -8 -9h-117q-9 0 -9 9v699q0 9 9 9h274q104 0 168 -58t64 -148q0 -71 -43.5 -125.5t-116.5 -71.5l216 -300
q2 -2 2 -6zM441 494q0 55 -34 88t-93 33h-111v-245h110q61 0 94.5 34t33.5 90z" />
    <glyph glyph-name="racute" unicode="&#x155;" horiz-adv-x="434" 
d="M414 320q0 -10 -8 -10l-87 -4h-2q-7 0 -9 9q-7 67 -54 67q-29 0 -53.5 -25.5t-24.5 -79.5v-268q0 -9 -9 -9h-101q-9 0 -9 9v438q0 9 9 9h90q8 0 10 -9l6 -47q45 66 118 66q46 0 80 -29q44 -39 44 -117zM382 710q0 -1 -2 -5l-136 -172q-3 -3 -6 -3h-72q-7 0 -7 6q0 3 1 4
l92 172q2 5 9 5h113q8 0 8 -7z" />
    <glyph glyph-name="Rcommaaccent" unicode="&#x156;" horiz-adv-x="653" 
d="M642 8q0 -8 -9 -8h-138q-5 0 -9 4q-20 30 -85 126t-100 149h-98v-270q0 -9 -8 -9h-117q-9 0 -9 9v699q0 9 9 9h246q120 0 190 -54t70 -152q0 -71 -43.5 -125.5t-116.5 -71.5l216 -300q2 -2 2 -6zM441 494q0 55 -34 88t-93 33h-111v-245h110q61 0 94.5 34t33.5 90z
M403 -51v-67q0 -113 -106 -128h-10q-8 0 -8 9v42q0 7 7 9q41 0 43 54h-32q-9 0 -9 9v72q0 9 8 9h98q9 0 9 -9z" />
    <glyph glyph-name="rcommaaccent" unicode="&#x157;" horiz-adv-x="457" 
d="M253 -51v-67q0 -113 -106 -128h-10q-8 0 -8 9v42q0 7 7 9q41 0 43 54h-32q-9 0 -9 9v72q0 9 8 9h98q9 0 9 -9zM414 320q0 -10 -8 -10l-87 -4h-2q-7 0 -9 9q-7 67 -54 67q-29 0 -53.5 -25.5t-24.5 -79.5v-268q0 -9 -9 -9h-101q-9 0 -9 9v438q0 9 9 9h90q8 0 10 -9l6 -47
q45 66 118 66q46 0 80 -29q44 -39 44 -117z" />
    <glyph glyph-name="Rcaron" unicode="&#x158;" horiz-adv-x="653" 
d="M156 933q0 7 9 7h76q5 0 10 -5l62 -85l62 85q5 5 9 5h77q10 0 10 -7q0 -3 -3 -8l-107 -144q-4 -4 -8 -4h-80q-5 0 -9 4l-106 146q-2 2 -2 6zM642 8q0 -8 -9 -8h-138q-5 0 -9 4l-185 275h-98v-270q0 -9 -8 -9h-117q-9 0 -9 9v699q0 9 9 9h274q104 0 168 -58t64 -148
q0 -71 -43.5 -125.5t-116.5 -71.5l216 -300q2 -2 2 -6zM441 494q0 55 -34 88t-93 33h-111v-245h110q61 0 94.5 34t33.5 90z" />
    <glyph glyph-name="rcaron" unicode="&#x159;" horiz-adv-x="426" 
d="M370 709q0 -1 -2 -5l-100 -166q-3 -6 -10 -6h-55q-14 0 -20 10q-1 2 -2 3l-96 160q-2 4 -2 5q0 7 9 7h68q6 0 9 -5l57 -98l58 98q2 5 8 5h68q10 0 10 -8zM414 320q0 -10 -8 -10l-87 -4h-2q-7 0 -9 9q-7 67 -54 67q-29 0 -53.5 -25.5t-24.5 -79.5v-268q0 -9 -9 -9h-101
q-9 0 -9 9v438q0 9 9 9h90q8 0 10 -9l6 -47q45 66 118 66q46 0 80 -29q44 -39 44 -117z" />
    <glyph glyph-name="Sacute" unicode="&#x15a;" horiz-adv-x="634" 
d="M496 934q0 -1 -2 -5l-135 -138q-4 -4 -10 -7l-16 -6q-2 0 -7 -0.5t-7 -0.5h-54q-7 0 -7 6q0 7 8 15l92 133l7 8q16 2 48 2h76q7 0 7 -7zM596 202q0 -96 -79 -156t-203 -60q-189 0 -287 149q-1 1 -1 5q0 5 3 7l81 62q1 1 4 1t8 -5q37 -53 88.5 -85t103.5 -32
q70 0 108 27.5t38 68.5q0 46 -42.5 71.5t-112.5 44.5q-112 29 -169 68q-79 55 -79 149q0 87 69 150.5t188 63.5q163 0 264 -118l3 -6q0 -3 -3 -6l-66 -71q-2 -2 -6 -2t-7 3q-84 99 -186 99q-60 0 -94 -26t-34 -67q0 -40 33 -62t94 -40q131 -40 182 -69q102 -57 102 -164z
" />
    <glyph glyph-name="sacute" unicode="&#x15b;" horiz-adv-x="459" 
d="M422 128q0 -57 -51.5 -99.5t-143.5 -42.5q-126 0 -195 86q-1 2 -1 6t2 6l51 50q2 2 6 2t7 -3q25 -30 60.5 -50t71.5 -20q34 0 57 15.5t23 38.5q0 19 -15.5 32.5t-29 17.5t-46.5 13q-65 17 -105 38q-68 38 -68 113q0 52 49 95.5t135 43.5q93 0 175 -73q3 -3 3 -7
q0 -3 -2 -5l-47 -51q-2 -2 -6 -2t-7 3q-60 60 -118 60q-32 0 -51.5 -14.5t-19.5 -36.5q0 -23 19 -35t57 -23q5 -1 31 -8.5t34 -10t30 -11.5t31 -15t24.5 -18.5t22 -25t12 -30.5t5.5 -39zM382 710q0 -1 -2 -5l-136 -172q-3 -3 -6 -3h-72q-7 0 -7 6q0 3 1 4l92 172q2 5 9 5
h113q8 0 8 -7z" />
    <glyph glyph-name="Scircumflex" unicode="&#x15c;" horiz-adv-x="634" 
d="M596 203q0 -97 -76.5 -156.5t-196.5 -59.5q-191 0 -296 145q-2 2 -2 5q0 4 4 7l77 63q2 1 6 1q2 0 7 -5q89 -114 209 -114q60 0 95.5 27t35.5 69q0 19 -8 35.5t-25.5 29.5t-32.5 21.5t-42.5 17.5t-42 13t-43.5 11q-111 31 -160 82t-49 124q0 86 70 149.5t183 63.5
q162 0 268 -118q3 -3 3 -6t-3 -6l-66 -71q-2 -2 -5 -2q-4 0 -7 3q-83 99 -194 99q-55 0 -87.5 -26.5t-32.5 -66.5q0 -21 10 -38t21.5 -27t39.5 -21t43.5 -15.5t54.5 -15.5q125 -33 183.5 -85t58.5 -133zM469 784q0 -7 -10 -7h-58q-24 0 -32 11q-4 5 -25.5 34t-32.5 45
l-57 -79q-7 -11 -31 -11h-59q-10 0 -10 7q0 3 2 7l109 146q4 0 13.5 1.5t13.5 1.5h49q4 0 10.5 -1.5t7.5 -1.5l108 -147q2 -4 2 -6z" />
    <glyph glyph-name="scircumflex" unicode="&#x15d;" horiz-adv-x="459" 
d="M422 128q0 -57 -51.5 -99.5t-143.5 -42.5q-126 0 -195 86q-1 2 -1 6t2 6l51 50q2 2 6 2t7 -3q25 -30 60.5 -50t71.5 -20q34 0 57 15.5t23 38.5q0 19 -15.5 32.5t-29 17.5t-46.5 13q-65 17 -105 38q-68 38 -68 113q0 52 49 95.5t135 43.5q93 0 175 -73q3 -3 3 -7
q0 -3 -2 -5l-47 -51q-2 -2 -6 -2t-7 3q-60 60 -118 60q-32 0 -51.5 -14.5t-19.5 -36.5q0 -23 19 -35t57 -23q5 -1 31 -8.5t34 -10t30 -11.5t31 -15t24.5 -18.5t22 -25t12 -30.5t5.5 -39zM375 539q0 -7 -10 -7h-68q-5 0 -8 5l-57 98l-58 -98q-2 -5 -9 -5h-67q-10 0 -10 8
q0 3 2 5l100 166q3 6 9 6h65q8 0 9 -6l100 -167q2 -2 2 -5z" />
    <glyph glyph-name="Scedilla" unicode="&#x15e;" horiz-adv-x="634" 
d="M459 185q0 25 -13 44t-38.5 32.5t-48 21.5t-55.5 17q-112 29 -169 68q-80 56 -80 149q0 87 69.5 150.5t188.5 63.5q163 0 264 -118l3 -6q0 -3 -3 -6l-66 -71q-2 -2 -6 -2t-7 3q-84 99 -186 99q-60 0 -93.5 -26t-33.5 -67q0 -40 33 -62t93 -40q131 -40 182 -69
q103 -58 103 -164q0 -91 -68 -149t-176 -65q-5 -17 -5 -18l25 -9q63 -23 63 -79q0 -48 -40 -73t-101 -25q-63 0 -63 15l5 47q0 6 6 7q1 0 18.5 -2.5t29.5 -2.5q50 0 50 33t-63 34h-6q-8 0 -8 7v2l15 66q-161 16 -251 142q-2 2 -2 5q0 4 4 7l77 63q2 1 6 1q2 0 7 -5
q89 -114 209 -114q60 0 95.5 27t35.5 69z" />
    <glyph glyph-name="scedilla" unicode="&#x15f;" horiz-adv-x="459" 
d="M245 -30q88 -14 88 -88q0 -47 -39.5 -72.5t-101.5 -25.5q-63 0 -63 15l5 47q0 6 6 7q4 0 20.5 -2.5t27.5 -2.5q48 0 48 33t-61 34h-6q-8 0 -8 7v2l15 67q-90 13 -143 77q-3 4 -3 9q0 4 2 6l51 51q3 3 6 3t7 -4q59 -68 132 -68q37 0 59 15t22 38q0 14 -6 24t-21.5 17
t-30 11.5t-42.5 12.5t-49 15q-62 19 -88.5 50.5t-26.5 77.5q0 53 47.5 97.5t135.5 44.5q98 0 176 -72q3 -3 3 -5q0 -7 -4 -8l-45 -51q-2 -2 -7 -2q-3 0 -6 3q-58 58 -118 58q-34 0 -53 -14t-19 -34q0 -15 8.5 -26t26.5 -19t33.5 -12.5t42.5 -11.5q11 -3 16 -4
q68 -19 103.5 -50t35.5 -90q0 -58 -46 -98t-126 -44q-4 -16 -4 -18z" />
    <glyph glyph-name="Scaron" unicode="&#x160;" horiz-adv-x="634" 
d="M597 202q0 -96 -79.5 -156t-203.5 -60q-189 0 -287 149q-1 1 -1 5q0 5 3 7l81 62q1 1 4 1t8 -5q37 -53 88.5 -85t103.5 -32q70 0 107.5 27.5t37.5 68.5q0 46 -42 71.5t-112 44.5q-112 29 -169 68q-80 56 -80 149q0 87 69.5 150.5t188.5 63.5q163 0 264 -118l3 -6
q0 -3 -3 -6l-66 -71q-2 -2 -6 -2t-7 3q-84 99 -186 99q-60 0 -93.5 -26t-33.5 -67q0 -40 33 -62t93 -40q131 -40 182 -69q103 -58 103 -164zM473 935q0 -2 -2 -6l-107 -147q-2 -5 -8 -5h-96q-2 0 -7 5l-108 146q-3 3 -3 7q0 7 10 7h77q3 0 8 -5l71 -95l71 95q5 5 7 5h78
q9 0 9 -7z" />
    <glyph glyph-name="scaron" unicode="&#x161;" horiz-adv-x="459" 
d="M366 709q0 -1 -2 -5l-100 -166q-3 -6 -10 -6h-55q-11 0 -15 2.5t-7 10.5l-96 160q-2 4 -2 5q0 7 9 7h68q6 0 9 -5l57 -98l58 98q2 5 8 5h68q10 0 10 -8zM422 128q0 -57 -51.5 -99.5t-143.5 -42.5q-126 0 -195 86q-1 2 -1 6t2 6l51 50q2 2 6 2t7 -3q25 -30 60.5 -50
t71.5 -20q34 0 57 15.5t23 38.5q0 19 -15.5 32.5t-29 17.5t-46.5 13q-65 17 -105 38q-68 38 -68 113q0 52 49 95.5t135 43.5q93 0 175 -73q3 -3 3 -7q0 -3 -2 -5l-47 -51q-2 -2 -6 -2t-7 3q-60 60 -118 60q-32 0 -51.5 -14.5t-19.5 -36.5q0 -23 19 -35t57 -23q5 -1 31 -8.5
t34 -10t30 -11.5t31 -15t24.5 -18.5t22 -25t12 -30.5t5.5 -39z" />
    <glyph glyph-name="Tcommaaccent" unicode="&#x162;" horiz-adv-x="721" 
d="M690 608q0 -9 -9 -9h-241v-590q0 -9 -10 -9h-120q-10 0 -10 9v590h-244q-10 0 -10 9v100q0 9 10 9h625q9 0 9 -9v-100zM429 -54v-65q0 -111 -106 -127h-10q-8 0 -8 9v42q0 7 7 9q41 0 43 54h-32q-9 0 -9 9v69q0 9 8 9h98q9 0 9 -9z" />
    <glyph glyph-name="tcommaaccent" unicode="&#x163;" horiz-adv-x="383" 
d="M351 12q0 -11 -41 -18t-75 -7q-79 0 -109.5 40t-30.5 128v216h-78q-9 0 -9 9v67q0 9 9 9h78v130q0 9 9 9h101q9 0 9 -9v-130h128q9 0 9 -9v-67q0 -9 -9 -9h-128v-245q0 -29 13.5 -41t41.5 -12q16 0 43 5t30 5q9 0 9 -9v-62zM263 -51v-67q0 -113 -106 -128h-10q-8 0 -8 9
v42q0 7 7 9q41 0 43 54h-32q-9 0 -9 9v72q0 9 8 9h98q9 0 9 -9z" />
    <glyph glyph-name="Tcaron" unicode="&#x164;" horiz-adv-x="705" 
d="M193 933q0 7 9 7h76q5 0 10 -5l62 -85l62 85q5 5 9 5h77q10 0 10 -7q0 -3 -3 -8l-107 -144q-4 -4 -8 -4h-80q-5 0 -9 4l-106 146q-2 2 -2 6zM674 608q0 -9 -9 -9h-241v-590q0 -9 -10 -9h-120q-10 0 -10 9v590h-244q-10 0 -10 9v100q0 9 10 9h625q9 0 9 -9v-100z" />
    <glyph glyph-name="tcaron" unicode="&#x165;" horiz-adv-x="387" 
d="M392 708v-66q0 -109 -97 -131h-9q-8 0 -8 9v40q0 7 6 9q44 3 44 58h-28q-8 0 -8 9v72q0 9 8 9h83q9 0 9 -9zM351 12q0 -11 -41 -18t-75 -7q-79 0 -109.5 40t-30.5 128v216h-78q-9 0 -9 9v67q0 9 9 9h78v130q0 9 9 9h101q9 0 9 -9v-130h128q9 0 9 -9v-67q0 -9 -9 -9h-128
v-245q0 -29 13.5 -41t41.5 -12q16 0 43 5t30 5q9 0 9 -9v-62z" />
    <glyph glyph-name="Tbar" unicode="&#x166;" horiz-adv-x="705" 
d="M597 302q0 -9 -9 -9h-164v-284q0 -9 -10 -9h-120q-10 0 -10 9v284h-163q-9 0 -9 9v79q0 9 9 9h163v209h-244q-10 0 -10 9v100q0 9 10 9h625q9 0 9 -9v-100q0 -9 -9 -9h-241v-209h164q9 0 9 -9v-79z" />
    <glyph glyph-name="tbar" unicode="&#x167;" horiz-adv-x="392" 
d="M338 210h-112v-65q0 -42 11 -57t43 -15q15 0 42.5 5t31.5 5q9 0 9 -9v-62q0 -10 -40 -17.5t-71 -7.5q-83 0 -114 36.5t-31 125.5v61h-76q-9 0 -9 9v61q0 9 9 9h76v82h-78q-9 0 -9 9v67q0 9 9 9h78v130q0 9 9 9h100q10 0 10 -9v-130h127q10 0 10 -9v-67q0 -9 -10 -9h-127
v-82h112q10 0 10 -9v-61q0 -9 -10 -9z" />
    <glyph glyph-name="Utilde" unicode="&#x168;" horiz-adv-x="697" 
d="M534 909v-6q0 -46 -24 -83.5t-73 -37.5q-19 0 -40 6.5t-45 17t-27 11.5q-34 11 -45 -1q-11 -2 -22 -30q0 -4 -49 -4q-23 0 -23 4q-4 0 -4 11q0 44 26 81.5t72 37.5q32 0 81.5 -25t61.5 -25q13 0 21.5 13t8.5 29q0 9 9 9h63q9 0 9 -8zM627 243q0 -114 -77 -184.5
t-194 -70.5q-131 0 -209 68.5t-78 185.5v466q0 9 9 9h121q9 0 9 -9v-470q0 -64 41 -104.5t107 -40.5t106 40t40 105v470q0 9 10 9h106q9 0 9 -9v-465z" />
    <glyph glyph-name="utilde" unicode="&#x169;" horiz-adv-x="527" 
d="M471 9q0 -9 -9 -9h-89q-8 0 -10 9l-7 49q-59 -71 -143 -71q-71 0 -113.5 38.5t-42.5 102.5v319q0 9 9 9h100q9 0 9 -9v-299q0 -37 20.5 -56t54.5 -19q45 0 73.5 29.5t28.5 74.5v270q0 9 10 9h100q9 0 9 -9v-438zM434 671q0 -51 -23 -89t-72 -38q-33 0 -75 26t-56 26
q-15 0 -21 -13t-9 -26t-10 -13h-57q-9 0 -9 9v12q2 46 27 79.5t68 33.5q32 0 75.5 -26t55.5 -26q17 0 24.5 26.5t14.5 26.5h58q9 0 9 -8z" />
    <glyph glyph-name="Umacron" unicode="&#x16a;" horiz-adv-x="697" 
d="M532 813q0 -10 -10 -10h-332q-10 0 -10 10v64q0 10 10 10h332q10 0 10 -10v-64zM627 243q0 -114 -77 -184.5t-194 -70.5q-131 0 -209 68.5t-78 185.5v466q0 9 9 9h121q9 0 9 -9v-470q0 -64 41 -104.5t107 -40.5t106 40t40 105v470q0 9 10 9h106q9 0 9 -9v-465z" />
    <glyph glyph-name="umacron" unicode="&#x16b;" horiz-adv-x="529" 
d="M413 582q0 -9 -9 -9h-286q-9 0 -9 9v61q0 9 9 9h286q9 0 9 -9v-61zM471 9q0 -9 -9 -9h-89q-8 0 -10 9l-7 49q-59 -71 -143 -71q-71 0 -113.5 38.5t-42.5 102.5v319q0 9 9 9h100q9 0 9 -9v-299q0 -37 20.5 -56t54.5 -19q45 0 73.5 29.5t28.5 74.5v270q0 9 10 9h100
q9 0 9 -9v-438z" />
    <glyph glyph-name="Ubreve" unicode="&#x16c;" horiz-adv-x="697" 
d="M627 243q0 -114 -77 -184.5t-194 -70.5q-131 0 -209 68.5t-78 185.5v466q0 9 9 9h121q9 0 9 -9v-470q0 -64 41 -104.5t107 -40.5t106 40t40 105v470q0 9 10 9h106q9 0 9 -9v-465zM511 926q0 -70 -44 -110.5t-109 -40.5q-67 0 -109.5 38.5t-42.5 112.5q0 8 8 8h72
q10 0 10 -6q2 -72 62 -72q27 0 44.5 19t18.5 53q0 6 9 6h72q9 0 9 -8z" />
    <glyph glyph-name="ubreve" unicode="&#x16d;" horiz-adv-x="527" 
d="M471 9q0 -9 -9 -9h-89q-8 0 -10 9l-7 49q-59 -71 -143 -71q-71 0 -113.5 38.5t-42.5 102.5v319q0 9 9 9h100q9 0 9 -9v-299q0 -37 20.5 -56t54.5 -19q45 0 73.5 29.5t28.5 74.5v270q0 9 10 9h100q9 0 9 -9v-438zM414 667q0 -70 -42 -110t-105 -40q-65 0 -106.5 38
t-41.5 112q0 8 9 8h67q9 0 9 -7q3 -70 62 -70q28 0 45 18.5t18 51.5q0 7 9 7h68q8 0 8 -8z" />
    <glyph glyph-name="Uring" unicode="&#x16e;" horiz-adv-x="697" 
d="M461 851q0 -44 -30.5 -72t-71.5 -28t-70.5 28.5t-29.5 72.5q0 43 29.5 70.5t70.5 27.5q42 0 72 -27.5t30 -71.5zM407 851q0 22 -13.5 35.5t-33.5 13.5q-19 0 -33 -13.5t-14 -35.5t14 -36t33 -14t33 14t14 36zM627 243q0 -114 -77 -184.5t-194 -70.5q-131 0 -209 68.5
t-78 185.5v466q0 9 9 9h121q9 0 9 -9v-470q0 -64 41 -104.5t107 -40.5t106 40t40 105v470q0 9 10 9h106q9 0 9 -9v-465z" />
    <glyph glyph-name="uring" unicode="&#x16f;" horiz-adv-x="528" 
d="M363 620q0 -44 -30.5 -72t-71.5 -28t-70.5 28.5t-29.5 72.5q0 43 29.5 70.5t70.5 27.5q42 0 72 -27.5t30 -71.5zM309 620q0 22 -13.5 35.5t-33.5 13.5q-19 0 -33 -13.5t-14 -35.5t14 -36t33 -14t33 14t14 36zM471 9q0 -9 -9 -9h-89q-8 0 -10 9l-7 49q-59 -71 -143 -71
q-71 0 -113.5 38.5t-42.5 102.5v319q0 9 9 9h100q9 0 9 -9v-299q0 -37 20.5 -56t54.5 -19q45 0 73.5 29.5t28.5 74.5v270q0 9 10 9h100q9 0 9 -9v-438z" />
    <glyph glyph-name="Uhungarumlaut" unicode="&#x170;" horiz-adv-x="696" 
d="M624 934q0 -3 -2 -5l-140 -149q-3 -3 -7 -3h-77q-7 0 -7 7q0 3 1 4l102 149q4 4 8 4h114q8 0 8 -7zM413 934q0 -3 -2 -5l-135 -149q-3 -3 -7 -3h-75q-7 0 -7 7q0 3 1 4l94 149q4 4 9 4h114q8 0 8 -7zM627 243q0 -114 -77 -184.5t-194 -70.5q-131 0 -209 68.5t-78 185.5
v466q0 9 9 9h121q9 0 9 -9v-470q0 -64 41 -104.5t107 -40.5t106 40t40 105v470q0 9 10 9h106q9 0 9 -9v-465z" />
    <glyph glyph-name="uhungarumlaut" unicode="&#x171;" horiz-adv-x="527" 
d="M471 9q0 -9 -9 -9h-89q-8 0 -10 9l-7 49q-59 -71 -143 -71q-71 0 -113.5 38.5t-42.5 102.5v319q0 9 9 9h100q9 0 9 -9v-299q0 -37 20.5 -56t54.5 -19q45 0 73.5 29.5t28.5 74.5v270q0 9 10 9h100q9 0 9 -9v-438zM520 710q0 -3 -2 -5l-133 -170q-3 -3 -7 -3h-73q-7 0 -7 6
q0 3 1 4l96 170q5 5 8 5h109q8 0 8 -7zM324 710q0 -3 -2 -5l-128 -170q-3 -3 -7 -3h-72q-6 0 -6 6v4l90 170q5 5 8 5h109q8 0 8 -7z" />
    <glyph glyph-name="Uogonek" unicode="&#x172;" horiz-adv-x="697" 
d="M473 -184q0 -15 -39 -24.5t-68 -9.5q-51 0 -83.5 24.5t-32.5 66.5q0 69 90 121q-141 11 -206 76t-65 199v439q0 9 9 9h121q9 0 9 -9v-464q0 -72 43 -111.5t105 -39.5q61 0 103.5 40t42.5 111v464q0 9 10 9h106q9 0 9 -9v-438q0 -59 -12 -102t-40.5 -76.5t-55.5 -54
t-78 -52.5q-40 -20 -64 -46t-24 -45q0 -33 38 -33q29 0 62 12q2 0 3.5 0.5t2.5 0.5q7 0 8 -7z" />
    <glyph glyph-name="uogonek" unicode="&#x173;" horiz-adv-x="527" 
d="M472 -184q0 -15 -35.5 -24.5t-64.5 -9.5q-48 0 -79 24.5t-31 65.5q0 70 103 132q0 1 -0.5 14.5t-2 26.5t-5.5 17q-68 -70 -156 -70q-67 0 -105.5 39t-38.5 98v318q0 9 8 9h101q9 0 9 -9v-298q0 -31 16 -48.5t42 -17.5q44 0 81.5 27.5t37.5 70.5v266q0 9 9 9h100q9 0 9 -9
v-434q0 -18 -21 -31q-86 -53 -86 -90q0 -31 38 -31q19 0 52 12q1 0 3 0.5t3 0.5q6 0 7 -7z" />
    <glyph glyph-name="Wcircumflex" unicode="&#x174;" horiz-adv-x="1030" 
d="M1019 709l-1 -6l-218 -697q-2 -6 -9 -6h-121q-8 0 -10 6l-146 478q-29 -94 -82 -271t-62 -207q-2 -6 -9 -6h-122q-7 0 -9 6l-219 699q-1 3 -1 4q0 8 9 8h123q8 0 10 -8q28 -89 81.5 -267t81.5 -267l155 535q2 7 8 7h97q7 0 9 -7l156 -535h1l156 535q2 7 9 7h105q8 0 8 -8
zM680 784q0 -7 -10 -7h-58q-24 0 -32 11q-4 5 -25.5 34t-32.5 45l-57 -79q-7 -11 -31 -11h-59q-10 0 -10 7q0 3 2 7l109 146q4 0 13.5 1.5t13.5 1.5h49q4 0 10.5 -1.5t7.5 -1.5l108 -147q2 -4 2 -6z" />
    <glyph glyph-name="wcircumflex" unicode="&#x175;" horiz-adv-x="761" 
d="M747 448q0 -4 -1 -6l-150 -436q-2 -6 -9 -6h-103q-7 0 -9 6l-98 280l-93 -280q-2 -6 -9 -6h-104q-7 0 -9 6l-149 436q-1 2 -1 6q0 8 9 8h103q8 0 10 -6l103 -326l107 326q2 6 9 6h75q6 0 8 -6l108 -326l103 326q2 6 9 6h82q9 0 9 -8zM535 539q0 -7 -10 -7h-68q-5 0 -8 5
l-57 98l-58 -98q-2 -5 -9 -5h-67q-10 0 -10 8q0 3 2 5l100 166q3 6 9 6h65q8 0 9 -6l100 -167q2 -2 2 -5z" />
    <glyph glyph-name="Ycircumflex" unicode="&#x176;" horiz-adv-x="719" 
d="M706 710q0 -1 -1 -4l-1 -2l-276 -449v-246q0 -9 -10 -9h-121q-10 0 -10 9v245q-45 75 -136 225t-136 225q-2 2 -2 5q0 8 9 8h141q7 0 11 -6l199 -335h1l202 335q3 6 10 6h110q10 0 10 -7zM532 784q0 -7 -10 -7h-58q-24 0 -32 11q-4 5 -25.5 34t-32.5 45l-57 -79
q-7 -11 -31 -11h-59q-10 0 -10 7q0 3 2 7l109 146q4 0 13.5 1.5t13.5 1.5h49q4 0 10.5 -1.5t7.5 -1.5l108 -147q2 -4 2 -6z" />
    <glyph glyph-name="ycircumflex" unicode="&#x177;" horiz-adv-x="476" 
d="M464 449q0 -4 -1 -6l-182 -481q-37 -97 -58 -128q-49 -72 -136 -72q-40 0 -74 13q-6 3 -6 8l1 2q0 3 1 5l19 70q2 6 8 6q2 0 8 -2q32 -8 48 -8q43 0 72 70q11 27 11 44q0 13 -4 26q-2 6 -9 28l-151 421q0 1 -0.5 2t-0.5 2q0 7 9 7h106q8 0 12 -9l110 -328l118 328
q4 9 12 9h80q7 0 7 -7zM395 539q0 -7 -10 -7h-68q-5 0 -8 5l-57 98l-58 -98q-2 -5 -9 -5h-67q-10 0 -10 8q0 3 2 5l100 166q3 6 9 6h65q8 0 9 -6l100 -167q2 -2 2 -5z" />
    <glyph glyph-name="Ydieresis" unicode="&#x178;" horiz-adv-x="719" 
d="M706 710q0 -1 -1 -4l-1 -2l-276 -449v-246q0 -9 -10 -9h-121q-10 0 -10 9v245q-45 75 -136 225t-136 225q-2 2 -2 5q0 8 9 8h141q7 0 11 -6l199 -335h1l202 335q3 6 10 6h110q10 0 10 -7zM321 796q0 -10 -10 -10h-93q-9 0 -9 10v96q0 9 9 9h93q10 0 10 -9v-96zM531 796
q0 -10 -9 -10h-93q-10 0 -10 10v96q0 9 10 9h93q9 0 9 -9v-96z" />
    <glyph glyph-name="Zacute" unicode="&#x179;" horiz-adv-x="666" 
d="M622 9q0 -9 -9 -9h-562q-9 0 -9 9v5v1l1 1v17l18 43q1 1 1 3l358 524v1h-358q-9 0 -9 9v95q0 9 9 9h547q9 0 9 -9v-37l-2 -5l-18 -26q-325 -472 -362 -527v-1h377q9 0 9 -9v-94zM498 934q0 -1 -2 -5l-135 -138q-4 -4 -10 -7l-16 -6q-2 0 -7 -0.5t-7 -0.5h-54q-7 0 -7 6
q0 7 8 15l92 133l7 8q16 2 48 2h76q7 0 7 -7z" />
    <glyph glyph-name="zacute" unicode="&#x17a;" horiz-adv-x="495" 
d="M461 9q0 -9 -9 -9h-402q-9 0 -9 9v19q2 4 2 5l238 337v1h-226q-9 0 -9 9v67q0 9 9 9h391q9 0 9 -9v-19q0 -3 -2 -5l-237 -337q0 -1 1 -1h235q9 0 9 -9v-67zM412 710q0 -1 -2 -5l-136 -172q-3 -3 -6 -3h-72q-7 0 -7 6q0 3 1 4l92 172q2 5 9 5h113q8 0 8 -7z" />
    <glyph glyph-name="Zdotaccent" unicode="&#x17b;" horiz-adv-x="666" 
d="M622 9q0 -9 -9 -9h-562q-9 0 -9 9v5v1l1 1v17l18 43q1 1 1 3l358 524v1h-358q-9 0 -9 9v95q0 9 9 9h547q9 0 9 -9v-37l-2 -5l-18 -26q-325 -472 -362 -527v-1h377q9 0 9 -9v-94zM389 795q0 -9 -9 -9h-104q-9 0 -9 9v106q0 9 9 9h104q9 0 9 -9v-106z" />
    <glyph glyph-name="zdotaccent" unicode="&#x17c;" horiz-adv-x="495" 
d="M461 9q0 -9 -9 -9h-402q-9 0 -9 9v19q2 4 2 5l238 337v1h-226q-9 0 -9 9v67q0 9 9 9h391q9 0 9 -9v-19q0 -3 -2 -5l-237 -337q0 -1 1 -1h235q9 0 9 -9v-67zM311 560q0 -9 -9 -9h-104q-9 0 -9 9v106q0 9 9 9h104q9 0 9 -9v-106z" />
    <glyph glyph-name="Zcaron" unicode="&#x17d;" horiz-adv-x="666" 
d="M495 935q0 -2 -2 -6l-107 -147q-2 -5 -8 -5h-96q-3 0 -8 5l-107 146q-3 3 -3 7q0 7 10 7h77q3 0 8 -5l71 -89l71 89q5 5 7 5h78q9 0 9 -7zM621 9q0 -9 -9 -9h-562q-8 0 -8 9v39l2 5l377 549h-359q-9 0 -9 9v95q0 9 9 9h547q8 0 8 -9v-37l-2 -5l-381 -551h378q9 0 9 -9
v-95z" />
    <glyph glyph-name="zcaron" unicode="&#x17e;" horiz-adv-x="495" 
d="M461 9q0 -9 -9 -9h-402q-9 0 -9 9v19q2 4 2 5l238 337v1h-226q-9 0 -9 9v67q0 9 9 9h391q9 0 9 -9v-19q0 -3 -2 -5l-237 -337q0 -1 1 -1h235q9 0 9 -9v-67zM387 709q0 -1 -0.5 -2.5t-0.5 -2.5l-101 -166q-1 -6 -9 -6h-55q-14 0 -17 3l-102 170q0 1 -0.5 2.5t-0.5 2.5
q0 7 9 7h68q6 0 8 -5l57 -98l53 90q10 13 14 13h67q10 0 10 -8z" />
    <glyph glyph-name="longs" unicode="&#x17f;" horiz-adv-x="278" 
d="M213 546v-537q0 -9 -9 -9h-101q-9 0 -9 9v362h-80q-9 0 -9 9v67q0 9 9 9h80v91q0 77 48 124.5t136 47.5q22 0 49 -5q8 -2 8 -9v-71q0 -9 -10 -9q-18 2 -37 2q-75 0 -75 -81z" />
    <glyph glyph-name="Schwa" unicode="&#x18f;" horiz-adv-x="777" 
d="M47 360v18q0 9 9 9h542q-4 110 -67 172.5t-146 62.5q-64 0 -115 -35.5t-73 -100.5q-5 -7 -9 -7h-121q-10 0 -10 10l9 25q28 94 113 155.5t205 61.5q150 0 252.5 -102.5t102.5 -269.5q0 -165 -100 -268t-252 -103q-156 0 -248 96.5t-92 275.5zM388 96q81 0 136.5 53.5
t68.5 140.5h-412q14 -95 70 -144.5t137 -49.5z" />
    <glyph glyph-name="florin" unicode="&#x192;" horiz-adv-x="455" 
d="M445 678l-18 -65q-1 -4 -6 -4h-19q-70 0 -87 -99l-27 -154h77q9 0 9 -10l-7 -65q0 -9 -9 -9h-84l-36 -202q-19 -105 -60.5 -162t-119.5 -57q-23 0 -56 11q-4 2 -4 7v1l16 67q1 4 6 4q4 0 10.5 0.5t9.5 0.5q26 1 42.5 23t27.5 77l44 230h-77q-10 0 -10 10l6 65q0 9 10 9
h84q8 66 24 143q40 200 193 200q30 0 57 -12q4 -2 4 -7v-2z" />
    <glyph glyph-name="uni0195" unicode="&#x195;" horiz-adv-x="799" 
d="M747 336v-182q0 -77 -56 -122.5t-149 -45.5q-92 0 -147 44t-55 121v157q0 74 -72 74q-46 0 -72 -32t-26 -74v-267q0 -9 -9 -9h-101q-8 0 -8 9v699q0 9 8 9h101q9 0 9 -9v-310q57 70 136 70q70 0 111 -39t41 -103v-192q0 -29 25 -49t61 -20q41 0 63 19.5t22 48.5v208
q0 19 -5.5 28t-22.5 11l-18 3q-10 4 -11 8v66q0 11 41 11q67 0 100.5 -31.5t33.5 -100.5z" />
    <glyph glyph-name="Ohorn" unicode="&#x1a0;" horiz-adv-x="802" 
d="M733 767q0 -43 -21 -78.5t-55 -55.5q105 -105 105 -273q0 -155 -99 -264.5t-262 -109.5q-166 0 -263.5 107t-97.5 267q0 97 39.5 179.5t123.5 137t198 54.5q112 0 199 -54q23 10 40.5 33.5t17.5 50.5h-36q-9 0 -9 9v77q0 9 8 9h103q9 0 9 -9v-80zM400 616
q-101 0 -160.5 -72.5t-59.5 -182.5q0 -111 60.5 -185t159.5 -74q100 0 161 72.5t61 186.5q0 116 -60.5 185.5t-161.5 69.5z" />
    <glyph glyph-name="ohorn" unicode="&#x1a1;" horiz-adv-x="544" 
d="M497 546q0 -43 -12.5 -84.5t-37.5 -63.5q62 -67 62 -169q0 -103 -64 -172t-173 -69t-173.5 69t-64.5 172q0 105 66 172t172 67q65 0 115 -28q15 12 24 40t9 57h-39q-8 0 -8 9v100q0 9 8 9h107q9 0 9 -9v-100zM389 230q0 72 -30.5 112.5t-85.5 40.5q-56 0 -87 -44.5
t-31 -110.5q0 -68 31.5 -111.5t84.5 -43.5q55 0 86.5 44t31.5 113z" />
    <glyph glyph-name="Uhorn" unicode="&#x1af;" horiz-adv-x="697" 
d="M627 243q0 -114 -77 -184t-194 -70q-142 0 -214.5 74t-72.5 206v439q0 9 9 9h121q9 0 9 -9v-470q0 -59 43.5 -102t104.5 -43q65 0 105.5 39.5t40.5 105.5v470q0 9 10 9h103q27 0 37.5 11t10.5 37h-33q-9 0 -9 9v73q0 9 8 9h103q9 0 9 -9v-70q0 -48 -31 -77.5t-83 -39.5
v-417z" />
    <glyph glyph-name="uhorn" unicode="&#x1b0;" horiz-adv-x="602" 
d="M470 9q0 -9 -9 -9h-88q-9 0 -10 9l-7 50q-61 -71 -140 -71q-73 0 -116 37.5t-43 103.5v318q0 9 8 9h101q9 0 9 -9v-298q0 -34 21 -54.5t54 -20.5q44 0 73 30t29 74v269q0 9 9 9h71q32 0 45 14t13 47h-36q-9 0 -9 9v100q0 9 9 9h107q9 0 9 -9v-91q0 -44 -13 -71
t-29.5 -37.5t-47.5 -24.5q-7 -2 -10 -4v-389z" />
    <glyph glyph-name="uni01BF" unicode="&#x1bf;" horiz-adv-x="505" 
d="M299 468q84 0 129.5 -49.5t45.5 -130.5q0 -209 -304 -437v-72q0 -9 -9 -9h-101q-8 0 -8 9v668q0 9 8 9h87q7 0 9 -8l7 -42h1q56 62 135 62zM170 273v-308q92 80 136.5 155t44.5 159q0 54 -21 81.5t-58 27.5q-51 0 -76.5 -36.5t-25.5 -78.5z" />
    <glyph glyph-name="Oogonek" unicode="&#x1ea;" horiz-adv-x="792" 
d="M757 360q0 -105 -47.5 -189.5t-133.5 -139.5q-25 -16 -58.5 -35.5t-51 -30t-35.5 -23t-25.5 -24t-7.5 -24.5q0 -33 38 -33q30 0 60 11q6 2 9 2q6 0 7 -7l6 -51q0 -15 -39 -24.5t-68 -9.5q-51 0 -83.5 24.5t-32.5 66.5q0 63 84 116q-158 4 -251 110t-93 261
q0 97 39.5 179.5t123.5 137t198 54.5q167 0 264 -106.5t97 -264.5zM395 616q-101 0 -160.5 -72.5t-59.5 -182.5q0 -111 60.5 -185t159.5 -74q100 0 161 72.5t61 186.5q0 116 -60.5 185.5t-161.5 69.5z" />
    <glyph glyph-name="oogonek" unicode="&#x1eb;" horiz-adv-x="534" 
d="M504 229q-2 -126 -93 -199q-2 -2 -47.5 -32.5t-72 -57t-26.5 -48.5q0 -13 10 -22t28 -9q22 0 52 10q9 3 11 3q6 0 7 -7l6 -51q0 -10 -7 -12l-19 -7q-40 -15 -76 -15q-50 0 -81.5 24.5t-31.5 65.5q0 62 89 117q-103 4 -163.5 72t-60.5 168q0 105 66 172t172 67
q109 0 173 -68t64 -171zM384 230q0 72 -30.5 112.5t-85.5 40.5q-56 0 -87 -44.5t-31 -110.5q0 -68 31.5 -111.5t84.5 -43.5q55 0 86.5 44t31.5 113z" />
    <glyph glyph-name="uni01F6" unicode="&#x1f6;" horiz-adv-x="1117" 
d="M524 232v70h-321v-293q0 -9 -9 -9h-121q-9 0 -9 9v699q0 9 9 9h121q9 0 9 -9v-294h321v294q0 9 10 9h122q8 0 8 -9v-485q0 -57 36 -93.5t97 -36.5q58 0 94.5 35t36.5 95v224q0 9 9 9h107q9 0 9 -9v-214q0 -113 -72.5 -179t-183.5 -66q-128 0 -200.5 65t-72.5 179z" />
    <glyph glyph-name="uni01F7" unicode="&#x1f7;" horiz-adv-x="610" 
d="M576 514q0 -140 -271 -349l-102 -79v-77q0 -9 -9 -9h-121q-9 0 -9 9v699q0 9 9 9h257q119 0 182.5 -56.5t63.5 -146.5zM432 503q0 50 -30.5 82t-88.5 32h-110v-388q38 29 123 102q106 91 106 172z" />
    <glyph glyph-name="AEacute" unicode="&#x1fc;" horiz-adv-x="1005" 
d="M728 934q0 -1 -2 -5l-146 -149q-6 -3 -8 -3h-75q-7 0 -7 6q0 5 3 9l102 145q2 4 8 4h118q7 0 7 -7zM974 9q0 -9 -9 -9h-468q-9 0 -9 9v179h-241l-109 -183q-2 -5 -9 -5h-108q-9 0 -9 8q0 1 2 5l425 698q4 6 11 6h497q9 0 9 -9v-90q0 -9 -9 -9h-325v-198h186q9 0 9 -10
v-84q0 -9 -9 -9h-186v-201h343q9 0 9 -9v-89zM303 284h185v305z" />
    <glyph glyph-name="aeacute" unicode="&#x1fd;" horiz-adv-x="800" 
d="M562 717q7 0 7 -6q0 -4 -2 -6q-16 -22 -59 -81t-66 -91q-6 -3 -7 -3h-72q-7 0 -7 5l1 5l87 170q3 7 10 7h108zM761 215q0 -7 -9 -7h-316q2 -58 31.5 -97t80.5 -39q67 0 93 63q2 5 9 5h96q9 0 9 -9v-3q-21 -68 -75.5 -104.5t-131.5 -36.5q-116 0 -169 73q-55 -72 -174 -72
q-78 0 -124 33t-46 87q0 25 10 46.5t23.5 34.5t38 26.5t42.5 20t48 17t44 15.5q50 19 64.5 31.5t14.5 29.5q0 60 -72 60q-81 0 -86 -87q0 -8 -9 -8h-94q-9 0 -9 9q0 75 49 119.5t149 44.5q114 0 154 -56q60 57 146 57q106 0 159.5 -73.5t53.5 -175.5v-4zM650 270
q-7 55 -34 85t-68 30q-49 0 -77.5 -33t-34.5 -82h214zM320 156v86q-21 -17 -89 -45q-44 -19 -60.5 -36t-16.5 -44q0 -24 20.5 -38t48.5 -14q45 0 71 22.5t26 68.5z" />
    <glyph glyph-name="Oslashacute" unicode="&#x1fe;" horiz-adv-x="802" 
d="M134 -18q-4 -2 -5 -2q-2 0 -4 2l-58 52q-1 1 -1 5q0 5 11 18.5t27.5 31t19.5 20.5q-84 101 -84 251q0 97 39.5 179.5t123.5 137t198 54.5q119 0 207 -58q4 4 21 25.5t29 34t18 12.5q2 0 4 -2l57 -52q2 -1 2 -5q0 -3 -2 -5l-61 -71q86 -100 86 -250q0 -155 -99 -264
t-262 -109q-123 0 -210 59l-54 -62q-1 -2 -3 -2zM622 361q0 83 -40 145q-288 -345 -305 -365q51 -39 123 -39q100 0 161 72.5t61 186.5zM180 361q0 -85 41 -144l303 362q-52 37 -124 37q-101 0 -160.5 -72.5t-59.5 -182.5zM588 934q0 -1 -2 -5l-135 -138q-4 -4 -10 -7
l-16 -6q-2 0 -7 -0.5t-7 -0.5h-54q-7 0 -7 6q0 7 8 15l92 133l7 8q16 2 48 2h76q7 0 7 -7z" />
    <glyph glyph-name="oslashacute" unicode="&#x1ff;" horiz-adv-x="544" 
d="M507 228q0 -103 -64.5 -171.5t-173.5 -68.5q-78 0 -137 39l-14 -15q-13 -16 -21 -24t-12 -8q-5 0 -21 13.5t-16 18.5q0 4 3 5l39 46q-58 68 -58 165q0 105 65.5 172.5t171.5 67.5q85 0 142 -41l41 44q3 3 6 3q4 0 7 -3l27 -23q3 -3 3 -6t-2 -7l-42 -45q56 -65 56 -162z
M345 354q-29 29 -74 29q-56 0 -87 -44.5t-31 -110.5q0 -36 18 -77zM387 228q0 42 -16 73q-8 -9 -172 -199q29 -29 69 -29q56 0 87.5 43t31.5 112zM442 710q0 -1 -2 -5l-136 -172q-3 -3 -6 -3h-72q-7 0 -7 6q0 3 1 4l92 172q2 5 9 5h113q8 0 8 -7z" />
    <glyph glyph-name="Scommaaccent" unicode="&#x218;" horiz-adv-x="646" 
d="M377 -51v-67q0 -113 -106 -128h-10q-8 0 -8 9v42q0 7 7 9q41 0 43 54h-32q-9 0 -9 9v72q0 9 8 9h98q9 0 9 -9zM597 202q0 -96 -79.5 -156t-203.5 -60q-189 0 -287 149q-1 1 -1 5q0 5 3 7l81 62q1 1 4 1t8 -5q37 -53 88.5 -85t103.5 -32q70 0 107.5 27.5t37.5 68.5
q0 46 -42 71.5t-112 44.5q-112 29 -169 68q-80 56 -80 149q0 87 69.5 150.5t188.5 63.5q163 0 264 -118l3 -6q0 -3 -3 -6l-66 -71q-2 -2 -6 -2t-7 3q-84 99 -186 99q-60 0 -93.5 -26t-33.5 -67q0 -40 33 -62t93 -40q131 -40 182 -69q103 -58 103 -164z" />
    <glyph glyph-name="scommaaccent" unicode="&#x219;" horiz-adv-x="464" 
d="M286 -51v-67q0 -113 -106 -128h-10q-8 0 -8 9v42q0 7 7 9q41 0 43 54h-32q-9 0 -9 9v72q0 9 8 9h98q9 0 9 -9zM422 128q0 -57 -51.5 -99.5t-143.5 -42.5q-126 0 -195 86q-1 2 -1 6t2 6l51 50q2 2 6 2t7 -3q25 -30 60.5 -50t71.5 -20q34 0 57 15.5t23 38.5
q0 19 -15.5 32.5t-29 17.5t-46.5 13q-65 17 -105 38q-68 38 -68 113q0 52 49 95.5t135 43.5q93 0 175 -73q3 -3 3 -7q0 -3 -2 -5l-47 -51q-2 -2 -6 -2t-7 3q-60 60 -118 60q-32 0 -51.5 -14.5t-19.5 -36.5q0 -23 19 -35t57 -23q5 -1 31 -8.5t34 -10t30 -11.5t31 -15
t24.5 -18.5t22 -25t12 -30.5t5.5 -39z" />
    <glyph glyph-name="uni021A" unicode="&#x21a;" horiz-adv-x="705" 
d="M674 608q0 -9 -9 -9h-241v-590q0 -9 -10 -9h-120q-10 0 -10 9v590h-244q-10 0 -10 9v100q0 9 10 9h625q9 0 9 -9v-100zM411 -51v-83q-5 -97 -106 -112h-9q-9 0 -9 9v42q0 7 7 9q43 0 43 54h-32q-9 0 -9 9v72q0 9 9 9h97q9 0 9 -9z" />
    <glyph glyph-name="uni021B" unicode="&#x21b;" horiz-adv-x="388" 
d="M351 12q0 -11 -41 -18t-75 -7q-79 0 -109.5 40t-30.5 128v216h-78q-9 0 -9 9v67q0 9 9 9h78v130q0 9 9 9h101q9 0 9 -9v-130h128q9 0 9 -9v-67q0 -9 -9 -9h-128v-245q0 -29 13.5 -41t41.5 -12q16 0 43 5t30 5q9 0 9 -9v-62zM273 -51v-83q-5 -97 -106 -112h-9q-9 0 -9 9
v42q0 7 7 9q43 0 43 54h-32q-9 0 -9 9v72q0 9 9 9h97q9 0 9 -9z" />
    <glyph glyph-name="uni021C" unicode="&#x21c;" horiz-adv-x="624" 
d="M586 252q0 -115 -109.5 -183.5t-311.5 -68.5h-84q-10 0 -10 9v89q0 9 10 9h72q144 0 214 38.5t70 102.5q0 36 -26.5 59.5t-71.5 23.5q-43 0 -160 -56l-68 -33q-5 -2 -9 -2q-9 0 -9 8v85q0 9 9 14l162 74q79 36 111.5 64t32.5 65q0 33 -27.5 56t-79.5 23q-53 0 -89.5 -28
t-37.5 -71q0 -6 0.5 -14t0.5 -10q0 -11 -11 -11h-102q-13 0 -13 20v8q0 97 76.5 152.5t182.5 55.5q114 0 178 -47t64 -122q0 -92 -120 -151q156 -37 156 -159z" />
    <glyph glyph-name="uni021D" unicode="&#x21d;" horiz-adv-x="503" 
d="M432 43q0 -69 -48 -126t-115 -90.5t-147 -51.5q-36 -9 -56 -9q-9 0 -9 9v70q0 12 10 14q120 27 181.5 69t61.5 107q0 32 -16 48t-41 16q-27 0 -55 -17l-121 -75q-6 -3 -11 -3q-9 0 -9 12v72q0 9 6 12l137 84q51 31 75.5 58.5t24.5 61.5q0 29 -20.5 50t-56.5 21
q-41 0 -65.5 -24.5t-25.5 -64.5q0 -9 -10 -9h-85q-9 0 -9 9v6q0 72 51.5 123t148.5 51q88 0 138.5 -42t50.5 -102q0 -43 -27.5 -80t-71.5 -64q47 -12 80.5 -47t33.5 -88z" />
    <glyph glyph-name="schwa" unicode="&#x259;" horiz-adv-x="524" 
d="M42 238q0 9 9 9h320q-2 60 -32.5 99t-81.5 39q-71 0 -99 -65q-3 -5 -9 -5h-94q-9 0 -9 9q-1 2 2 8q19 56 71.5 96t137.5 40q107 0 169.5 -69t62.5 -171q0 -103 -64 -171.5t-168 -68.5q-97 0 -156.5 63.5t-58.5 186.5zM154 180q5 -52 32.5 -80.5t70.5 -28.5
q44 0 74.5 30.5t37.5 78.5h-215z" />
    <glyph glyph-name="afii57929" unicode="&#x2bc;" horiz-adv-x="235" 
d="M192 576q0 -64 -38 -104t-100 -47h-2q-8 0 -8 9v53q0 7 8 10q67 9 67 79v17h-61q-8 0 -8 9v106q0 9 8 9h125q9 0 9 -9v-132z" />
    <glyph glyph-name="uni02BE" unicode="&#x2be;" horiz-adv-x="303" 
d="M68 719q89 0 140 -42t51 -115q0 -74 -50.5 -115t-140.5 -41q-8 0 -8 9v72q0 9 9 9q35 1 54.5 19t19.5 47q0 28 -19.5 47t-55.5 20q-8 0 -8 9v72q0 9 8 9z" />
    <glyph glyph-name="uni02BF" unicode="&#x2bf;" horiz-adv-x="303" 
d="M235 719q8 0 8 -9v-72q0 -9 -8 -9q-37 -1 -56 -19.5t-19 -47.5t19.5 -47t54.5 -19q9 0 9 -9v-72q0 -9 -8 -9q-90 0 -140.5 41t-50.5 115t50.5 115.5t140.5 41.5z" />
    <glyph glyph-name="circumflex" unicode="&#x2c6;" horiz-adv-x="543" 
d="M415 539q0 -7 -10 -7h-68q-5 0 -8 5l-57 98l-58 -98q-2 -5 -9 -5h-67q-10 0 -10 8q0 3 2 5l100 166q3 6 9 6h65q8 0 9 -6l100 -167q2 -2 2 -5z" />
    <glyph glyph-name="caron" unicode="&#x2c7;" horiz-adv-x="543" 
d="M128 710q0 7 10 7h68q6 0 8 -5l57 -98l58 98q3 5 9 5h67q10 0 10 -8q0 -3 -2 -5l-100 -166q-3 -6 -9 -6h-65q-7 0 -9 6l-100 167q-2 2 -2 5z" />
    <glyph glyph-name="breve" unicode="&#x2d8;" horiz-adv-x="561" 
d="M428 667q0 -70 -42 -110t-105 -40q-65 0 -106.5 38t-41.5 112q0 8 9 8h67q9 0 9 -7q3 -70 62 -70q28 0 45 18.5t18 51.5q0 7 9 7h68q8 0 8 -8z" />
    <glyph glyph-name="dotaccent" unicode="&#x2d9;" horiz-adv-x="561" 
d="M341 560q0 -9 -9 -9h-104q-9 0 -9 9v106q0 9 9 9h104q9 0 9 -9v-106z" />
    <glyph glyph-name="ring" unicode="&#x2da;" horiz-adv-x="529" 
d="M305 620q0 22 -13.5 35.5t-32.5 13.5q-20 0 -34 -13.5t-14 -35.5t14 -36t34 -14q19 0 32.5 14t13.5 36zM359 620q0 -44 -30 -72t-71 -28t-71 28.5t-30 72.5t30 71t71 27t71 -27.5t30 -71.5z" />
    <glyph glyph-name="ogonek" unicode="&#x2db;" horiz-adv-x="561" 
d="M396 -184q0 -15 -37 -24.5t-65 -9.5q-50 0 -81.5 24.5t-31.5 65.5q0 72 114 130l3 2q4 1 6 1h74q10 0 10 -8q0 -4 -5 -8q-101 -58 -101 -97q0 -13 10.5 -22t27.5 -9h8q9 0 27.5 6.5t27.5 6.5q5 0 7.5 -10t3.5 -27t2 -21z" />
    <glyph glyph-name="tilde" unicode="&#x2dc;" horiz-adv-x="547" 
d="M436 671q0 -51 -23 -89t-72 -38q-33 0 -75 26t-56 26q-15 0 -21 -13t-9 -26t-10 -13h-57q-9 0 -9 9v12q2 46 27 79.5t68 33.5q32 0 75.5 -26t55.5 -26q17 0 24.5 26.5t14.5 26.5h58q9 0 9 -8z" />
    <glyph glyph-name="hungarumlaut" unicode="&#x2dd;" horiz-adv-x="561" 
d="M520 710q0 -3 -2 -5l-133 -170q-3 -3 -7 -3h-73q-7 0 -7 6q0 3 1 4l96 170q5 5 8 5h109q8 0 8 -7zM324 710q0 -3 -2 -5l-128 -170q-3 -3 -7 -3h-72q-6 0 -6 6v4l90 170q5 5 8 5h109q8 0 8 -7z" />
    <glyph glyph-name="gravecomb" unicode="&#x300;" 
d="M-398 697h69q47 0 59 -23q23 -48 71 -142q5 -12 5 -17t-7 -5h-73q-2 0 -4 2l-8 9l-117 163q-3 0 -3 7q0 6 8 6z" />
    <glyph glyph-name="acutecomb" unicode="&#x301;" 
d="M-98 697q7 0 7 -6q0 -4 -2 -6q-11 -15 -119 -164l-8 -9l-3 -2h-74q-7 0 -7 5l1 5q26 51 76 153q3 7 8 12t8.5 7.5t10 3.5t9.5 1h12h11h70z" />
    <glyph glyph-name="uni0302" unicode="&#x302;" 
d="M-114 519q0 -7 -10 -7h-68q-6 0 -8 5l-56 98l-59 -98q-3 -5 -9 -5h-67q-10 0 -10 8q0 3 2 5l100 166q3 6 9 6h65q7 0 9 -6l100 -167q2 -2 2 -5z" />
    <glyph glyph-name="tildecomb" unicode="&#x303;" 
d="M-94 668v-6q0 -47 -23.5 -84t-71.5 -37q-19 0 -38.5 7.5t-37.5 17.5t-25 12q-30 12 -43 -3q-12 -3 -22 -30q0 -4 -44 -4q-23 0 -23 4q-4 0 -4 11q0 45 24.5 82t70.5 37q32 0 75.5 -26t55.5 -26q13 0 21 13.5t8 30.5q0 9 10 9h58q9 0 9 -8z" />
    <glyph glyph-name="uni0304" unicode="&#x304;" 
d="M-96 572q0 -9 -9 -9h-286q-9 0 -9 9v61q0 9 9 9h286q9 0 9 -9v-61z" />
    <glyph glyph-name="uni0305" unicode="&#x305;" 
d="M13 572q0 -9 -8 -9h-529q-9 0 -9 9v61q0 9 9 9h529q8 0 8 -9v-61z" />
    <glyph glyph-name="uni0306" unicode="&#x306;" 
d="M-103 678q0 -70 -42 -111t-105 -41q-65 0 -106.5 39t-41.5 113q0 8 9 8h67q9 0 9 -7q3 -72 62 -72q27 0 44.5 19.5t18.5 52.5q0 7 9 7h68q8 0 8 -8z" />
    <glyph glyph-name="uni0307" unicode="&#x307;" 
d="M-188 557q0 -9 -9 -9h-104q-9 0 -9 9v106q0 9 9 9h104q9 0 9 -9v-106z" />
    <glyph glyph-name="uni0308" unicode="&#x308;" 
d="M-107 558q0 -10 -9 -10h-90q-8 0 -8 10v91q0 9 8 9h90q9 0 9 -9v-91zM-309 558q0 -10 -9 -10h-88q-10 0 -10 10v91q0 9 10 9h88q9 0 9 -9v-91z" />
    <glyph glyph-name="hookabovecomb" unicode="&#x309;" 
d="M-306 460q46 7 46 65h-39q-8 0 -8 9v106q0 9 8 9h105q9 0 9 -9v-115q0 -59 -34.5 -95t-86.5 -36q-4 -1 -6 1.5t-2 7.5v48q0 7 8 9z" />
    <glyph glyph-name="uni030A" unicode="&#x30a;" 
d="M-154 610q0 -44 -30 -72t-71 -28t-71 28.5t-30 72.5t30 71t71 27t71 -27.5t30 -71.5zM-208 610q0 22 -13.5 35.5t-32.5 13.5q-20 0 -34 -13.5t-14 -35.5t14 -36t34 -14q19 0 32.5 14t13.5 36z" />
    <glyph glyph-name="uni030B" unicode="&#x30b;" 
d="M-5 690q0 -3 -1 -5l-134 -172q-3 -3 -7 -3h-72q-8 0 -8 6q0 3 1 4l97 172q5 5 8 5h108q8 0 8 -7zM-201 690q0 -3 -1 -5l-128 -172q-3 -3 -8 -3h-71q-7 0 -7 6q0 3 1 4l90 172q5 5 8 5h108q8 0 8 -7z" />
    <glyph glyph-name="uni030C" unicode="&#x30c;" 
d="M-109 689q0 -3 -2 -5l-100 -166q-3 -6 -10 -6h-64q-7 0 -9 6l-100 167q-2 2 -2 5q0 7 9 7h68q7 0 9 -5l57 -98l58 98q3 5 8 5h68q10 0 10 -8z" />
    <glyph glyph-name="uni030D" unicode="&#x30d;" 
d="M-203 519q0 -9 -10 -9h-85q-9 0 -9 9v169q0 9 9 9h85q10 0 10 -9v-169z" />
    <glyph glyph-name="uni030E" unicode="&#x30e;" 
d="M-289 519q0 -9 -10 -9h-80q-9 0 -9 9v169q0 9 9 9h80q10 0 10 -9v-169zM-119 519q0 -9 -10 -9h-80q-9 0 -9 9v169q0 9 9 9h80q10 0 10 -9v-169z" />
    <glyph glyph-name="uni030F" unicode="&#x30f;" 
d="M-521 690q0 7 8 7h109q3 0 8 -5l96 -172q1 -1 1 -4q0 -6 -7 -6h-73q-4 0 -7 3l-133 172q-2 2 -2 5zM-325 690q0 7 8 7h109q3 0 8 -5l90 -172v-4q0 -6 -6 -6h-72q-4 0 -7 3l-128 172q-2 2 -2 5z" />
    <glyph glyph-name="uni0310" unicode="&#x310;" 
d="M-305 662q0 20 14 34t34 14t33.5 -14t13.5 -34t-14 -33.5t-33 -13.5q-20 0 -34 13.5t-14 33.5zM-107 660q0 -64 -42.5 -107t-107.5 -43q-67 0 -108.5 40.5t-41.5 109.5q0 8 9 8h46q9 0 9 -7q1 -37 27 -60.5t59 -23.5t58.5 23.5t26.5 60.5q0 7 9 7h48q8 0 8 -8z" />
    <glyph glyph-name="uni0311" unicode="&#x311;" 
d="M-401 538q0 70 42 110.5t105 40.5q65 0 106.5 -38.5t41.5 -112.5q0 -8 -9 -8h-67q-9 0 -9 6q-3 72 -62 72q-28 0 -45 -19t-18 -53q0 -6 -9 -6h-68q-8 0 -8 8z" />
    <glyph glyph-name="uni0312" unicode="&#x312;" 
d="M-311 515v67q0 52 28.5 90t87.5 38q8 0 8 -9v-43q0 -8 -7 -8l-7 -2q-35 -7 -36 -52h32q9 0 9 -9v-72q0 -9 -8 -9h-98q-9 0 -9 9z" />
    <glyph glyph-name="uni0313" unicode="&#x313;" 
d="M-187 695v-83q0 -45 -31.5 -78.5t-83.5 -33.5q-9 0 -9 9v43q0 8 7 8l11 4q32 7 32 50h-32q-9 0 -9 9v72q0 9 9 9h97q9 0 9 -9z" />
    <glyph glyph-name="uni0314" unicode="&#x314;" 
d="M-316 622v73q0 9 9 9h98q8 0 8 -9v-72q0 -9 -9 -9h-32q2 -42 31 -49q2 -1 7.5 -3t8.5 -4t3 -6v-43q0 -9 -8 -9q-56 0 -86 35.5t-30 86.5z" />
    <glyph glyph-name="uni0315" unicode="&#x315;" 
d="M-12 695v-83q0 -45 -31.5 -78.5t-83.5 -33.5q-9 0 -9 9v43q0 8 7 8l11 4q32 7 32 50h-32q-9 0 -9 9v72q0 9 9 9h97q9 0 9 -9z" />
    <glyph glyph-name="uni0316" unicode="&#x316;" 
d="M-336 -51h69q47 0 64 -31q11 -21 33 -62.5t32 -62.5l6 -14v-2q0 -6 -8 -6h-73q-1 0 -3 2l-126 163q0 1 -1 3.5t-1 3.5q0 6 8 6z" />
    <glyph glyph-name="uni0317" unicode="&#x317;" 
d="M-171 -51q8 0 8 -6q0 -4 -3 -7l-125 -163q-2 -2 -4 -2h-73q-8 0 -8 5q0 4 3 10.5t4 8.5l65 123q13 31 56 31h77z" />
    <glyph glyph-name="uni0318" unicode="&#x318;" 
d="M-156 -47v-180q0 -9 -9 -9h-62q-9 0 -9 9v53h-100q-10 0 -10 9v57q0 9 10 9h100v52q0 9 9 9h62q9 0 9 -9z" />
    <glyph glyph-name="uni0319" unicode="&#x319;" 
d="M-351 -227v179q0 9 9 9h62q9 0 9 -9v-52h100q10 0 10 -9v-57q0 -9 -10 -9h-100v-52q0 -9 -9 -9h-62q-9 0 -9 9z" />
    <glyph glyph-name="uni031A" unicode="&#x31a;" 
d="M-16 688v-140q0 -9 -9 -9h-67q-9 0 -9 9v72h-72q-10 0 -10 9v59q0 9 10 9h148q9 0 9 -9z" />
    <glyph glyph-name="uni031B" unicode="&#x31b;" 
d="M-178 456q33 0 45 14t12 47h-36q-8 0 -8 9v100q0 9 8 9h107q9 0 9 -9v-117q-5 -116 -122 -121h-14q-10 0 -10 9v50q0 9 9 9z" />
    <glyph glyph-name="uni031C" unicode="&#x31c;" 
d="M-194 -86q0 -9 -6 -9q-28 -1 -42 -14t-14 -30q0 -18 14 -30.5t42 -13.5q6 0 6 -9v-46q0 -9 -6 -9q-69 0 -105 30.5t-36 78.5q0 42 30.5 72.5t87.5 33.5h23q6 0 6 -8v-46z" />
    <glyph glyph-name="uni031D" unicode="&#x31d;" 
d="M-154 -214h-209q-10 0 -10 9v56q0 9 10 9h65v68q0 9 9 9h62q9 0 9 -9v-68h64q10 0 10 -9v-56q0 -9 -10 -9z" />
    <glyph glyph-name="uni031E" unicode="&#x31e;" 
d="M-361 -79h209q10 0 10 -9v-57q0 -9 -10 -9h-65v-67q0 -9 -9 -9h-62q-9 0 -9 9v67h-64q-10 0 -10 9v57q0 9 10 9z" />
    <glyph glyph-name="uni031F" unicode="&#x31f;" 
d="M-144 -168q0 -9 -10 -9h-62v-58q0 -9 -9 -9h-62q-9 0 -9 9v58h-62q-10 0 -10 9v57q0 9 10 9h62v58q0 9 9 9h62q9 0 9 -9v-58h62q10 0 10 -9v-57z" />
    <glyph glyph-name="uni0320" unicode="&#x320;" 
d="M-359 -103h204q10 0 10 -9v-57q0 -9 -10 -9h-204q-10 0 -10 9v57q0 9 10 9z" />
    <glyph glyph-name="uni0321" unicode="&#x321;" 
d="M-43 -104q0 -67 -35.5 -98.5t-91.5 -33.5q-74 0 -74 15q0 23 4 48.5t12 25.5q5 0 15 -0.5t15 -0.5q37 0 37 39v115q0 9 8 9h101q9 0 9 -9v-110z" />
    <glyph glyph-name="uni0322" unicode="&#x322;" 
d="M-161 -104v110q0 9 9 9h101q9 0 9 -9v-115q0 -39 37 -39q5 0 14.5 0.5t14.5 0.5q11 0 11 -20l5 -54q0 -15 -74 -15q-56 2 -91.5 33.5t-35.5 98.5z" />
    <glyph glyph-name="dotbelowcomb" unicode="&#x323;" 
d="M-198 -196q0 -9 -9 -9h-104q-9 0 -9 9v106q0 9 9 9h104q9 0 9 -9v-106z" />
    <glyph glyph-name="uni0324" unicode="&#x324;" 
d="M-107 -187q0 -10 -9 -10h-89q-9 0 -9 10v91q0 9 9 9h89q9 0 9 -9v-91zM-308 -187q0 -10 -10 -10h-88q-9 0 -9 10v91q0 9 9 9h88q10 0 10 -9v-91z" />
    <glyph glyph-name="uni0325" unicode="&#x325;" 
d="M-154 -144q0 -44 -30 -72t-71 -28t-71 28t-30 72t30 71.5t71 27.5t71 -27.5t30 -71.5zM-208 -144q0 22 -13.5 35.5t-32.5 13.5q-20 0 -34 -14t-14 -36t14.5 -36t33.5 -14t32.5 14t13.5 37z" />
    <glyph glyph-name="uni0326" unicode="&#x326;" 
d="M-194 -51v-68q0 -111 -106 -127h-10q-8 0 -8 9v42q0 7 7 9q41 0 43 54h-32q-9 0 -9 9v72q0 9 8 9h98q9 0 9 -9z" />
    <glyph glyph-name="uni0327" unicode="&#x327;" 
d="M-223 -30q7 -4 15 -5q33 -9 53 -31.5t20 -52.5q0 -47 -39.5 -72t-101.5 -25h-7q-56 2 -56 15l5 47q0 6 6 7q4 0 20.5 -2.5t27.5 -2.5q50 0 50 33t-63 34h-6q-8 0 -8 7q0 17 9.5 50t15.5 33h56q9 0 9 -7q0 -6 -3 -16t-3 -12z" />
    <glyph glyph-name="uni0328" unicode="&#x328;" 
d="M-153 -179q0 -15 -37 -24.5t-65 -9.5q-50 0 -81.5 24.5t-31.5 65.5q0 74 109 130l3 1q3 2 5 2h75q10 0 10 -8q0 -4 -5 -8q-96 -57 -96 -97q0 -13 10.5 -22t27.5 -9h8q9 0 27.5 6.5t27.5 6.5q5 0 7.5 -10t3.5 -27t2 -21z" />
    <glyph glyph-name="uni0329" unicode="&#x329;" 
d="M-205 -222q0 -9 -10 -9h-81q-9 0 -9 9v173q0 9 9 9h81q10 0 10 -9v-173z" />
    <glyph glyph-name="uni032A" unicode="&#x32a;" 
d="M-382 -74h261q10 0 10 -9v-128q0 -9 -9 -9h-62q-9 0 -9 9v64h-121v-64q0 -9 -9 -9h-62q-9 0 -9 9v128q0 9 10 9z" />
    <glyph glyph-name="uni032B" unicode="&#x32b;" 
d="M-61 -95q0 -53 -31 -84t-83 -31q-57 0 -82 42q-24 -43 -79 -43q-52 0 -83.5 30t-31.5 86q0 8 8 8h62q9 0 9 -6q3 -50 39 -50q37 0 38 50q0 6 9 6h61q8 0 8 -6q1 -24 11.5 -37t26.5 -13q38 0 39 50q0 6 9 6h62q8 0 8 -8z" />
    <glyph glyph-name="uni032C" unicode="&#x32c;" 
d="M-113 -62l-1 -2v-3l-101 -166q-2 -5 -9 -5h-65q-6 0 -9 5l-100 167l-1 5q0 7 9 7h68q6 0 8 -4l58 -98l58 98q2 4 8 4h67q10 0 10 -8z" />
    <glyph glyph-name="uni032D" unicode="&#x32d;" 
d="M-401 -230l1 2v3l101 166q1 6 9 6h65q6 0 9 -6l100 -167v-2q1 -2 1 -3q0 -7 -9 -7h-68q-6 0 -8 5l-57 98l-59 -98q-2 -5 -8 -5h-67q-10 0 -10 8z" />
    <glyph glyph-name="uni032E" unicode="&#x32e;" 
d="M-104 -85q0 -70 -42 -111t-105 -41q-65 0 -106.5 39t-41.5 113q0 8 9 8h67q9 0 9 -7q3 -72 62 -72q27 0 44.5 19.5t18.5 52.5q0 7 9 7h68q8 0 8 -8z" />
    <glyph glyph-name="uni032F" unicode="&#x32f;" 
d="M-402 -208q0 70 42 111t106 41q65 0 106 -39t41 -113q0 -8 -8 -8h-67q-10 0 -10 7q-2 72 -62 72q-27 0 -44.5 -19.5t-18.5 -52.5q0 -7 -9 -7h-67q-9 0 -9 8z" />
    <glyph glyph-name="uni0330" unicode="&#x330;" 
d="M-92 -86v-5q0 -47 -23 -84.5t-71 -37.5q-19 0 -38.5 7.5t-38 18t-24.5 12.5q-32 10 -44 -4q-12 -2 -22 -29q0 -5 -44 -5q-22 0 -22 5q-5 0 -5 11q0 45 24.5 82t70.5 37q32 0 76 -26.5t56 -26.5q13 0 21 14t8 31q0 9 10 9h57q9 0 9 -9z" />
    <glyph glyph-name="uni0331" unicode="&#x331;" 
d="M-109 -177q0 -9 -9 -9h-286q-9 0 -9 9v60q0 9 9 9h286q9 0 9 -9v-60z" />
    <glyph glyph-name="uni0332" unicode="&#x332;" 
d="M14 -178q0 -9 -9 -9h-527q-9 0 -9 9v61q0 9 9 9h527q9 0 9 -9v-61z" />
    <glyph glyph-name="uni0333" unicode="&#x333;" 
d="M-110 -221q0 -9 -9 -9h-274q-9 0 -9 9v46q0 9 9 9h274q9 0 9 -9v-46zM-110 -112q0 -9 -9 -9h-274q-9 0 -9 9v46q0 9 9 9h274q9 0 9 -9v-46z" />
    <glyph glyph-name="uni0334" unicode="&#x334;" 
d="M-98 285v-6q0 -47 -23.5 -84t-71.5 -37q-19 0 -38.5 7.5t-37.5 17.5t-25 12q-30 12 -43 -3q-12 -3 -22 -30q0 -4 -44 -4q-23 0 -23 4q-4 0 -4 11q0 45 24.5 82t70.5 37q32 0 75.5 -26t55.5 -26q13 0 21 13.5t8 30.5q0 9 10 9h58q9 0 9 -8z" />
    <glyph glyph-name="uni0335" unicode="&#x335;" 
d="M-117 198q0 -9 -9 -9h-278q-9 0 -9 9v62q0 9 9 9h278q9 0 9 -9v-62z" />
    <glyph glyph-name="uni0336" unicode="&#x336;" 
d="M14 198q0 -9 -9 -9h-538q-9 0 -9 9v62q0 9 9 9h538q9 0 9 -9v-62z" />
    <glyph glyph-name="uni0337" unicode="&#x337;" 
d="M-80 373q2 -4 2 -6q0 -6 -2 -6l-307 -307q-3 -3 -7 -3q-3 0 -6 3l-43 42q-2 1 -2 7q0 2 2 6l308 307q2 2 5 2q5 0 7 -2z" />
    <glyph glyph-name="uni0338" unicode="&#x338;" 
d="M-58 595q0 -3 -1 -4l-319 -735q-2 -5 -8 -5h-66q-10 0 -10 7q0 3 1 4l317 733q2 5 8 5h69q9 0 9 -5z" />
    <glyph glyph-name="uni0340" unicode="&#x340;" horiz-adv-x="561" 
d="M166 697h69q47 0 59 -23q23 -48 71 -142q5 -13 5 -17q0 -5 -7 -5h-73q-2 0 -4 2l-8 9l-117 163q-3 0 -3 7q0 6 8 6z" />
    <glyph glyph-name="uni0341" unicode="&#x341;" horiz-adv-x="561" 
d="M424 697q7 0 7 -6q0 -4 -2 -6q-11 -15 -119 -164l-8 -9l-3 -2h-74q-7 0 -7 5l1 5q26 51 76 153q3 7 8 12t8.5 7.5t10 3.5t9.5 1h12h11h70z" />
    <glyph glyph-name="uni0374" unicode="&#x374;" horiz-adv-x="297" 
d="M148 444q-2 -9 -13 -9h-75q-8 0 -6 9l95 259q2 9 12 9h75q9 0 7 -9z" />
    <glyph glyph-name="uni0375" unicode="&#x375;" horiz-adv-x="316" 
d="M279 -32l-1 -3l-178 -192q-3 -3 -7 -3h-95q-5 0 -5 5l1 4l172 191q3 4 8 4h99q6 0 6 -6z" />
    <glyph glyph-name="uni037A" unicode="&#x37a;" horiz-adv-x="400" 
d="M281 -180q0 -9 -8 -9l-13 -2q-8 -1 -21.5 -1h-20.5q-99 4 -99 102v29q0 9 9 9h96q8 0 8 -9v-32q0 -18 7.5 -25t25.5 -9h7q9 -1 9 -9v-44z" />
    <glyph glyph-name="uni037E" unicode="&#x37e;" horiz-adv-x="278" 
d="M207 295q0 -10 -9 -10h-122q-9 0 -9 10v123q0 9 9 9h122q9 0 9 -9v-123zM208 0q0 -70 -39.5 -113t-98.5 -43q-8 0 -8 9v59q0 8 7 8q64 8 64 80h-56q-9 0 -9 9v124q0 9 9 9h122q9 0 9 -9v-133z" />
    <glyph glyph-name="tonos" unicode="&#x384;" horiz-adv-x="156" 
d="M156 711q0 -3 -2 -7l-80 -179q-2 -5 -9 -5h-58q-7 0 -7 6v3l48 182q2 6 8 6h93q7 0 7 -6z" />
    <glyph glyph-name="dieresistonos" unicode="&#x385;" horiz-adv-x="400" 
d="M292 710l-2 -5l-71 -180q-3 -5 -9 -5h-54q-7 0 -7 6v3l38 182q2 6 8 6h89q8 0 8 -7zM383 528q0 -8 -8 -8h-78q-8 0 -8 8v80q0 8 8 8h78q8 0 8 -8v-80zM109 528q0 -8 -8 -8h-76q-9 0 -9 8v80q0 8 9 8h76q8 0 8 -8v-80z" />
    <glyph glyph-name="Alphatonos" unicode="&#x386;" horiz-adv-x="832" 
d="M810 7q0 -7 -9 -7h-134q-6 0 -8 6l-67 182h-272q-3 -9 -12 -35t-17 -49.5t-17.5 -48.5t-17.5 -40t-12 -15h-106q-9 0 -9 7l2 8l264 696q2 6 9 6h138q6 0 8 -6l258 -696q2 -6 2 -8zM174 711q0 -3 -2 -7l-77 -172l-6 -10q-2 -2 -5 -2h-60q-7 0 -7 6l1 3l45 175q1 5 3.5 8
t7 4t7 1.5t10.5 0t11 -0.5h64q8 0 8 -6zM459 571h-3q-43 -122 -104 -287h209z" />
    <glyph glyph-name="anotoleia" unicode="&#x387;" horiz-adv-x="286" 
d="M213 295q0 -10 -9 -10h-122q-9 0 -9 10v123q0 9 9 9h122q9 0 9 -9v-123z" />
    <glyph glyph-name="Epsilontonos" unicode="&#x388;" horiz-adv-x="786" 
d="M738 9q0 -9 -9 -9h-498q-9 0 -9 9v699q0 9 9 9h480q9 0 9 -9v-90q0 -9 -9 -9h-350v-198h206q9 0 9 -10v-84q0 -9 -9 -9h-206v-201h368q9 0 9 -9v-89zM168 711q0 -3 -2 -7l-80 -179q-4 -5 -10 -5h-58q-7 0 -7 6l1 3l47 182q3 6 9 6h92q8 0 8 -6z" />
    <glyph glyph-name="Etatonos" unicode="&#x389;" horiz-adv-x="902" 
d="M833 9q0 -9 -9 -9h-122q-9 0 -9 9v293h-331v-293q0 -9 -9 -9h-121q-9 0 -9 9v699q0 9 9 9h121q9 0 9 -9v-294h331v294q0 9 9 9h122q9 0 9 -9v-699zM169 711q0 -3 -2 -7l-80 -179q-3 -5 -9 -5h-58q-7 0 -7 6v3l48 182q1 6 8 6h93q7 0 7 -6z" />
    <glyph glyph-name="Iotatonos" unicode="&#x38a;" horiz-adv-x="437" 
d="M365 9q0 -9 -9 -9h-121q-10 0 -10 9v699q0 9 10 9h121q9 0 9 -9v-699zM171 711q0 -3 -2 -7l-80 -179q-4 -5 -10 -5h-58q-7 0 -7 6l1 3l47 182q3 6 9 6h92q8 0 8 -6z" />
    <glyph glyph-name="Omicrontonos" unicode="&#x38c;" horiz-adv-x="935" 
d="M895 360q0 -155 -99.5 -264.5t-262.5 -109.5q-166 0 -263.5 107t-97.5 267q0 97 39.5 179.5t123.5 137t198 54.5q167 0 264.5 -106.5t97.5 -264.5zM533 616q-101 0 -161 -72.5t-60 -182.5q0 -111 61 -185t160 -74q100 0 161 72.5t61 186.5q0 116 -60.5 185.5t-161.5 69.5
zM168 711q0 -3 -2 -7l-80 -179q-4 -5 -10 -5h-58q-7 0 -7 6l1 3l47 182q3 6 9 6h92q8 0 8 -6z" />
    <glyph glyph-name="Upsilontonos" unicode="&#x38e;" horiz-adv-x="884" 
d="M868 710q0 -4 -2 -6l-267 -434v-261q0 -9 -10 -9h-121q-9 0 -9 9v260l-264 435q-2 2 -2 5q0 8 9 8h141q7 0 11 -6l190 -319h2l192 319q3 6 11 6h109q10 0 10 -7zM153 711q0 -3 -2 -7l-80 -179q-4 -5 -10 -5h-58q-7 0 -7 6l1 3l47 182q3 6 9 6h92q8 0 8 -6z" />
    <glyph glyph-name="Omegatonos" unicode="&#x38f;" horiz-adv-x="949" 
d="M904 9q0 -9 -9 -9h-296q-9 0 -9 9v85q0 8 8 12q157 90 157 274q0 98 -57.5 167t-163.5 69t-163.5 -68.5t-57.5 -167.5q0 -184 157 -274q8 -4 8 -12v-85q0 -9 -9 -9h-296q-8 0 -8 9v87q0 9 8 9h64q15 0 41.5 -0.5t29.5 -0.5v1l1 1q-58 46 -96 120.5t-38 154.5
q0 142 96 246t263 104q113 0 197 -51.5t123.5 -129.5t39.5 -169q0 -83 -39.5 -156t-95.5 -119l1 -1v-1q2 0 28.5 0.5t42.5 0.5h64q9 0 9 -9v-87zM169 711q0 -3 -2 -7l-82 -182q-4 -2 -6 -2h-59q-8 0 -7 9l45 175q1 5 3.5 8t7 4t7 1.5t10.5 0t11 -0.5h65q7 0 7 -6z" />
    <glyph glyph-name="iotadieresistonos" unicode="&#x390;" horiz-adv-x="264" 
d="M240 11q0 -17 -77 -17q-62 0 -86 30t-24 99v324q0 9 8 9h101q9 0 9 -9v-328q0 -24 8.5 -32t27.5 -8h24q9 0 9 -9v-59zM212 710l-2 -5q-9 -24 -32.5 -82.5t-35.5 -90.5l-5 -10q-2 -2 -5 -2h-56q-8 0 -7 9l36 175q0 5 2 8t7 4t8 1.5t10 0t9 -0.5h63q8 0 8 -7zM303 528
q0 -8 -8 -8h-78q-8 0 -8 8v80q0 8 8 8h78q8 0 8 -8v-80zM29 528q0 -8 -8 -8h-76q-8 0 -8 8v80q0 8 8 8h76q8 0 8 -8v-80z" />
    <glyph glyph-name="Alpha" unicode="&#x391;" horiz-adv-x="722" 
d="M701 8q0 -8 -10 -8h-133q-7 0 -9 6l-68 188h-265l-70 -188q-2 -6 -8 -6h-106q-10 0 -10 8q0 3 1 4l265 697q2 6 8 6h138q6 0 8 -6l258 -697q1 -1 1 -4zM451 290l-101 282l-102 -282h203z" />
    <glyph glyph-name="Beta" unicode="&#x392;" horiz-adv-x="655" 
d="M611 198q0 -82 -61.5 -140t-167.5 -58h-304q-9 0 -9 9v699q0 9 9 9h297q98 0 153.5 -51.5t55.5 -128.5q0 -49 -30 -92.5t-87 -65.5v-3q71 -20 107.5 -69.5t36.5 -108.5zM445 516q0 44 -27.5 73.5t-83.5 29.5h-135v-212h131q59 0 87 31t28 78zM466 208q0 53 -33 83.5
t-92 30.5h-142v-224h142q61 0 93 31.5t32 78.5z" />
    <glyph glyph-name="Gamma" unicode="&#x393;" horiz-adv-x="613" 
d="M575 608q0 -9 -9 -9h-358v-590q0 -9 -9 -9h-121q-9 0 -9 9v699q0 9 9 9h488q9 0 9 -9v-100z" />
    <glyph glyph-name="Delta" unicode="&#x394;" horiz-adv-x="725" 
d="M707 9q0 -9 -11 -9h-667q-11 0 -11 9q-1 3 2 8l271 695q1 6 8 6h134q6 0 8 -6l264 -695q2 -6 2 -8zM524 99l-172 469h-3l-176 -469h351z" />
    <glyph glyph-name="Epsilon" unicode="&#x395;" horiz-adv-x="633" 
d="M585 9q0 -9 -9 -9h-498q-9 0 -9 9v699q0 9 9 9h480q9 0 9 -9v-90q0 -9 -9 -9h-350v-198h206q9 0 9 -10v-84q0 -9 -9 -9h-206v-201h368q9 0 9 -9v-89z" />
    <glyph glyph-name="Zeta" unicode="&#x396;" horiz-adv-x="666" 
d="M622 9q0 -9 -9 -9h-562q-8 0 -8 9v39l2 5l377 551h-359q-9 0 -9 9v95q0 9 9 9h547q8 0 8 -9v-37l-2 -5l-381 -553h378q9 0 9 -9v-95z" />
    <glyph glyph-name="Eta" unicode="&#x397;" horiz-adv-x="749" 
d="M679 9q0 -9 -8 -9h-122q-10 0 -10 9v293h-331v-293q0 -9 -9 -9h-121q-9 0 -9 9v699q0 9 9 9h121q9 0 9 -9v-294h331v294q0 9 10 9h122q8 0 8 -9v-699z" />
    <glyph glyph-name="Theta" unicode="&#x398;" horiz-adv-x="817" 
d="M770 360q0 -155 -99.5 -264t-262.5 -109q-166 0 -263.5 106.5t-97.5 266.5q0 97 39.5 179.5t123.5 137t198 54.5q167 0 264.5 -106.5t97.5 -264.5zM630 361q0 116 -60.5 185.5t-161.5 69.5t-161 -72.5t-60 -182.5q0 -111 61 -185t160 -74q100 0 161 72.5t61 186.5z
M562 316q0 -9 -9 -9h-289q-9 0 -9 9v85q0 10 9 10h289q9 0 9 -10v-85z" />
    <glyph glyph-name="Iota" unicode="&#x399;" horiz-adv-x="283" 
d="M212 9q0 -9 -10 -9h-121q-9 0 -9 9v699q0 9 9 9h121q10 0 10 -9v-699z" />
    <glyph glyph-name="Kappa" unicode="&#x39a;" horiz-adv-x="683" 
d="M665 6q0 -6 -8 -6h-144q-4 0 -8 4l-233 320l-64 -61v-254q0 -9 -9 -9h-121q-9 0 -9 9v699q0 9 9 9h121q9 0 9 -9v-301l2 -1l297 308q3 3 7 3h133q8 0 8 -7q0 -3 -4 -7l-288 -288l300 -402q2 -4 2 -7z" />
    <glyph glyph-name="Lambda" unicode="&#x39b;" horiz-adv-x="722" 
d="M702 8q0 -8 -10 -8h-133q-7 0 -9 6q-41 115 -197 542h-2q-109 -294 -202 -542q-1 -6 -8 -6h-111q-10 0 -10 8l1 4l1 1l265 699q2 6 8 6h138q6 0 8 -6l260 -700q1 -3 1 -4z" />
    <glyph glyph-name="Mu" unicode="&#x39c;" horiz-adv-x="914" 
d="M843 9q0 -9 -9 -9h-121q-9 0 -9 9v526h-2l-215 -529q-1 -6 -8 -6h-67q-6 0 -9 6l-217 529h-2v-526q0 -9 -9 -9h-96q-9 0 -9 9v699q0 9 9 9h157q5 0 8 -6l214 -517h2l211 517q3 6 8 6h155q9 0 9 -9v-699z" />
    <glyph glyph-name="Nu" unicode="&#x39d;" horiz-adv-x="751" 
d="M682 9q0 -9 -10 -9h-117q-6 0 -9 5l-359 514l-2 -1v-509q0 -9 -9 -9h-98q-9 0 -9 9v699q0 9 9 9h128q6 0 10 -6l346 -500l3 1v496q0 9 9 9h98q10 0 10 -9v-699z" />
    <glyph glyph-name="Xi" unicode="&#x39e;" horiz-adv-x="668" 
d="M624 608q0 -9 -9 -9h-563q-9 0 -9 9v100q0 9 9 9h563q9 0 9 -9v-100zM499 316q0 -9 -8 -9h-314q-9 0 -9 9v85q0 10 9 10h314q8 0 8 -10v-85zM624 9q0 -9 -9 -9h-563q-9 0 -9 9v99q0 9 9 9h563q9 0 9 -9v-99z" />
    <glyph glyph-name="Omicron" unicode="&#x39f;" horiz-adv-x="802" 
d="M762 360q0 -155 -99 -264.5t-262 -109.5q-166 0 -263.5 107t-97.5 267q0 97 39.5 179.5t123.5 137t198 54.5q167 0 264 -106.5t97 -264.5zM400 616q-101 0 -160.5 -72.5t-59.5 -182.5q0 -111 60.5 -185t159.5 -74q100 0 161 72.5t61 186.5q0 116 -60.5 185.5t-161.5 69.5
z" />
    <glyph glyph-name="Pi" unicode="&#x3a0;" horiz-adv-x="741" 
d="M672 9q0 -9 -10 -9h-120q-10 0 -10 9v601h-323v-601q0 -9 -9 -9h-121q-10 0 -10 9v699q0 9 10 9h583q10 0 10 -9v-699z" />
    <glyph glyph-name="Rho" unicode="&#x3a1;" horiz-adv-x="631" 
d="M593 496q0 -107 -70.5 -168t-194.5 -61h-120v-258q0 -9 -9 -9h-121q-9 0 -9 9v699q0 9 9 9h259q120 0 188 -60.5t68 -160.5zM444 490q0 58 -35 94t-96 36h-105v-262h104q62 0 97 35.5t35 96.5z" />
    <glyph glyph-name="Sigma" unicode="&#x3a3;" horiz-adv-x="659" 
d="M436 360q0 -3 -2 -7l-175 -234l1 -2h342q9 0 9 -9v-99q0 -9 -9 -9h-542q-8 0 -8 9v38q0 4 2 6l224 295l-219 318q-2 0 -2 5v37q0 9 8 9h537q9 0 9 -9v-89q0 -9 -9 -9h-335v-3l167 -239q2 -4 2 -8z" />
    <glyph glyph-name="Tau" unicode="&#x3a4;" horiz-adv-x="705" 
d="M674 608q0 -9 -9 -9h-241v-590q0 -9 -10 -9h-120q-10 0 -10 9v590h-244q-10 0 -10 9v100q0 9 10 9h625q9 0 9 -9v-100z" />
    <glyph glyph-name="Upsilon" unicode="&#x3a5;" horiz-adv-x="707" 
d="M691 710q0 -1 -1 -4l-1 -2l-267 -434v-261q0 -9 -10 -9h-121q-10 0 -10 9v260l-264 435l-1 2v3q0 8 8 8h141q9 0 11 -6l191 -319h2l192 319q3 6 10 6h110q10 0 10 -7z" />
    <glyph glyph-name="Phi" unicode="&#x3a6;" horiz-adv-x="901" 
d="M381 165v393q-98 -7 -149.5 -58.5t-51.5 -137.5t51.5 -138t149.5 -59zM721 362q0 86 -51.5 137.5t-149.5 58.5v-393q98 7 149.5 59t51.5 138zM861 362q0 -122 -88.5 -203t-252.5 -92v-62q0 -9 -9 -9h-121q-9 0 -9 9v62q-164 11 -252.5 92t-88.5 203q0 118 88 200.5
t253 93.5v57q0 9 9 9h121q9 0 9 -9v-57q165 -11 253 -93.5t88 -200.5z" />
    <glyph glyph-name="Chi" unicode="&#x3a7;" horiz-adv-x="704" 
d="M684 7q0 -7 -10 -7h-140q-8 0 -10 5l-180 255l-186 -255q-5 -5 -10 -5h-119q-9 0 -9 7q0 4 2 6l253 345l-245 346q-2 2 -2 6q0 7 8 7h143q7 0 11 -6l169 -239l175 240q2 5 10 5h115q9 0 9 -8q0 -3 -2 -5l-241 -328l256 -363q3 -3 3 -6z" />
    <glyph glyph-name="Psi" unicode="&#x3a8;" horiz-adv-x="851" 
d="M495 9q0 -9 -9 -9h-121q-9 0 -9 9v183q-130 12 -212 87.5t-82 194.5v234q0 9 9 9h121q9 0 9 -9v-234q0 -73 42 -119.5t113 -54.5v408q0 9 9 9h121q9 0 9 -9v-408q74 7 114.5 53t40.5 121v234q0 9 9 9h121q9 0 9 -9v-235q-1 -118 -83 -194t-211 -87v-183z" />
    <glyph glyph-name="uni03A9" unicode="&#x3a9;" horiz-adv-x="831" 
d="M785 9q0 -9 -9 -9h-296q-9 0 -9 9v85q0 8 8 12q157 90 157 274q0 98 -57.5 167t-163.5 69t-163.5 -68.5t-57.5 -167.5q0 -184 157 -274q8 -4 8 -12v-85q0 -9 -9 -9h-296q-8 0 -8 9v87q0 9 8 9h64q15 0 41.5 -0.5t29.5 -0.5l1 1v1q-58 46 -96 120.5t-38 154.5
q0 142 96 246t263 104q113 0 197 -51.5t123.5 -129.5t39.5 -169q0 -83 -39.5 -156t-95.5 -119v-1l1 -1q2 0 28.5 0.5t42.5 0.5h64q9 0 9 -9v-87z" />
    <glyph glyph-name="Iotadieresis" unicode="&#x3aa;" horiz-adv-x="283" 
d="M212 9q0 -9 -10 -9h-121q-9 0 -9 9v699q0 9 9 9h121q10 0 10 -9v-699zM303 795q0 -9 -9 -9h-93q-9 0 -9 9v96q0 9 9 9h93q9 0 9 -9v-96zM93 795q0 -9 -10 -9h-93q-9 0 -9 9v96q0 9 9 9h93q10 0 10 -9v-96z" />
    <glyph glyph-name="Upsilondieresis" unicode="&#x3ab;" horiz-adv-x="707" 
d="M691 710q0 -1 -1 -4l-1 -2l-267 -434v-261q0 -9 -10 -9h-121q-10 0 -10 9v260l-264 435l-1 2v3q0 8 8 8h141q9 0 11 -6l191 -319h2l192 319q3 6 10 6h110q10 0 10 -7zM519 795q0 -9 -9 -9h-94q-9 0 -9 9v96q0 9 9 9h94q9 0 9 -9v-96zM308 795q0 -9 -9 -9h-93q-9 0 -9 9
v96q0 9 9 9h93q9 0 9 -9v-96z" />
    <glyph glyph-name="alphatonos" unicode="&#x3ac;" horiz-adv-x="610" 
d="M573 447l-96 -254q23 -76 37.5 -95t47.5 -19h11q10 0 10 -8v-63q0 -14 -53 -14q-81 0 -119 102q-81 -107 -174 -107q-98 0 -149.5 70t-51.5 169q0 98 52.5 169t149.5 71q124 0 177 -138q1 0 6.5 14.5t16.5 46.5t20 56q4 9 10 9h97q8 0 8 -7v-2zM374 222
q-22 80 -49.5 120.5t-72.5 40.5t-69.5 -44.5t-24.5 -110.5q0 -71 24 -112.5t71 -41.5q63 0 121 148zM398 711q0 -3 -2 -7l-77 -172l-6 -10q-2 -2 -5 -2h-60q-7 0 -7 6l1 3l45 175q1 5 3.5 8t7 4t7 1.5t10.5 0t11 -0.5h64q8 0 8 -6z" />
    <glyph glyph-name="epsilontonos" unicode="&#x3ad;" horiz-adv-x="517" 
d="M470 165v-3q0 -65 -53.5 -119.5t-162.5 -54.5q-96 0 -153.5 38t-57.5 99q0 37 25 65t72 39q-43 11 -66.5 40.5t-23.5 63.5q0 59 55.5 97t148.5 38q94 0 152 -46.5t62 -128.5v-3q0 -9 -9 -9h-86q-9 0 -9 9q-2 50 -29 75t-72 25q-44 0 -68 -19t-24 -47q0 -59 67 -59h52
q9 0 9 -9v-53q0 -9 -9 -9h-52q-71 0 -71 -59q0 -32 25.5 -51t70.5 -19q46 0 74 25.5t29 74.5q0 9 10 9h85q9 0 9 -9zM361 711q0 -3 -2 -7l-82 -182q-4 -2 -6 -2h-59q-8 0 -7 9l45 175q1 5 3.5 8t7 4t7 1.5t10.5 0t11 -0.5h65q7 0 7 -6z" />
    <glyph glyph-name="etatonos" unicode="&#x3ae;" horiz-adv-x="528" 
d="M471 -221q0 -9 -8 -9h-101q-9 0 -9 9v511q0 41 -20.5 66.5t-53.5 25.5q-49 0 -76.5 -31t-27.5 -73v-269q0 -9 -9 -9h-101q-8 0 -8 9v438q0 9 8 9h89q10 0 11 -9l6 -47h2q59 68 142 68q71 0 113.5 -40t42.5 -106v-543zM376 711q0 -3 -2 -7l-82 -182q-4 -2 -6 -2h-59
q-9 0 -7 9l45 175q1 5 3.5 8t7 4t7 1.5t10.5 0t11 -0.5h65q7 0 7 -6z" />
    <glyph glyph-name="iotatonos" unicode="&#x3af;" horiz-adv-x="264" 
d="M240 11q0 -17 -77 -17q-62 0 -86 30t-24 99v324q0 9 8 9h101q9 0 9 -9v-328q0 -24 8.5 -32t27.5 -8h24q9 0 9 -9v-59zM231 711q0 -3 -2 -7l-82 -182q-4 -2 -6 -2h-59q-8 0 -7 9l45 175q1 5 3.5 8t7 4t7 1.5t10.5 0t11 -0.5h65q7 0 7 -6z" />
    <glyph glyph-name="upsilondieresistonos" unicode="&#x3b0;" horiz-adv-x="515" 
d="M458 183q0 -87 -52.5 -140.5t-143.5 -53.5q-205 0 -205 218v240q0 9 8 9h101q9 0 9 -9v-266q0 -52 22.5 -80t64.5 -28q90 0 90 108v266q0 9 9 9h89q8 0 8 -9v-264zM352 710l-2 -5q-9 -24 -32.5 -82.5t-35.5 -90.5l-5 -10q-2 -2 -5 -2h-56q-8 0 -7 9l36 175q0 5 2 8t7 4
t8 1.5t10 0t9 -0.5h63q8 0 8 -7zM443 528q0 -8 -8 -8h-78q-8 0 -8 8v80q0 8 8 8h78q8 0 8 -8v-80zM169 528q0 -8 -8 -8h-76q-9 0 -9 8v80q0 8 9 8h76q8 0 8 -8v-80z" />
    <glyph glyph-name="alpha" unicode="&#x3b1;" horiz-adv-x="610" 
d="M374 222q-22 80 -49.5 120.5t-72.5 40.5t-69.5 -44.5t-24.5 -110.5q0 -71 24 -112.5t71 -41.5q63 0 121 148zM573 447l-96 -254q23 -76 37.5 -95t47.5 -19h11q10 0 10 -8v-63q0 -14 -53 -14q-81 0 -119 102q-81 -107 -174 -107q-98 0 -149.5 70t-51.5 169q0 98 52.5 169
t149.5 71q124 0 177 -138q1 0 6.5 14.5t16.5 46.5t20 56q4 9 10 9h97q8 0 8 -7v-2z" />
    <glyph glyph-name="beta" unicode="&#x3b2;" horiz-adv-x="553" 
d="M517 197q0 -97 -60 -152t-143 -55q-97 0 -137 56q-1 0 -1 -0.5t-1 -0.5v-265q0 -9 -9 -9h-101q-8 0 -8 9v712q0 108 53 171t161 63q89 0 149 -53t60 -139q0 -49 -26 -96t-76 -62q65 -15 102 -64.5t37 -114.5zM398 200q0 56 -31 92t-89 36h-56q-10 0 -10 9v73q0 9 10 9h58
q41 0 64 33.5t23 83.5q0 47 -27 76t-68 29q-97 0 -97 -125v-307q0 -61 27 -98.5t82 -37.5q50 0 82 32.5t32 94.5z" />
    <glyph glyph-name="gamma" unicode="&#x3b3;" horiz-adv-x="502" 
d="M487 448q0 -2 -3 -9q-23 -51 -65 -147.5t-51 -115.5q-5 -11 -17.5 -39t-15.5 -36t-11.5 -29t-11 -30.5t-6.5 -26t-5 -31t-1 -31.5q0 -29 0.5 -87t0.5 -87q0 -9 -8 -9h-102q-8 0 -8 9q0 17 1 74.5t1 82.5q0 42 -7 83.5t-27 97.5t-33 88.5t-49.5 115t-51.5 118.5
q-3 7 -3 10q0 7 9 7h104q9 0 12 -9q76 -186 114 -310h2q53 135 130 310q4 9 13 9h80q9 0 9 -8z" />
    <glyph glyph-name="delta" unicode="&#x3b4;" horiz-adv-x="535" 
d="M497 221q0 -97 -62 -165t-167 -68q-108 0 -169 70t-61 164q0 65 35.5 118.5t102.5 88.5q-90 66 -90 148q0 61 49.5 105.5t132.5 44.5q106 0 183 -72q4 -4 4 -7q0 -2 -3 -7l-44 -51q-3 -4 -8 -4q-3 0 -6 3q-58 56 -122 56q-37 0 -55.5 -21t-18.5 -40q0 -27 22 -50
t55.5 -39t72 -40t72 -51t55.5 -74.5t22 -108.5zM380 209q0 59 -27.5 95.5t-81.5 69.5q-2 1 -4 1l-23 10q-41 -22 -63.5 -68t-22.5 -95q0 -63 30.5 -106t81.5 -43q52 0 81 39t29 97z" />
    <glyph glyph-name="epsilon" unicode="&#x3b5;" horiz-adv-x="518" 
d="M470 165v-3q0 -65 -53.5 -119.5t-162.5 -54.5q-96 0 -153.5 38t-57.5 99q0 37 25 65t72 39q-43 11 -66.5 40.5t-23.5 63.5q0 59 55.5 97t148.5 38q94 0 152 -46.5t62 -128.5v-3q0 -9 -9 -9h-86q-9 0 -9 9q-2 50 -29 75t-72 25q-44 0 -68 -19t-24 -47q0 -59 67 -59h52
q9 0 9 -9v-53q0 -9 -9 -9h-52q-71 0 -71 -59q0 -32 25.5 -51t70.5 -19q46 0 74 25.5t29 74.5q0 9 10 9h85q9 0 9 -9z" />
    <glyph glyph-name="zeta" unicode="&#x3b6;" horiz-adv-x="436" 
d="M433 -43q0 -60 -45.5 -94t-124.5 -34q-38 0 -38 12v61q0 9 11 9h34q61 0 61 39q0 23 -23 32.5t-70 13t-61 6.5q-136 30 -136 189q0 95 74 217.5t175 223.5h-152q-10 0 -10 9v67q0 9 10 9h276q9 0 9 -9v-59q0 -12 -10 -21q-104 -98 -179 -223.5t-75 -211.5q0 -31 10 -51.5
t31 -31t41 -15.5t52.5 -10.5t51.5 -11.5q41 -12 64.5 -43t23.5 -73z" />
    <glyph glyph-name="eta" unicode="&#x3b7;" horiz-adv-x="528" 
d="M471 -221q0 -9 -8 -9h-101q-9 0 -9 9v511q0 41 -20.5 66.5t-53.5 25.5q-49 0 -76.5 -31t-27.5 -73v-269q0 -9 -9 -9h-101q-8 0 -8 9v438q0 9 8 9h89q10 0 11 -9l6 -47h2q59 68 142 68q71 0 113.5 -40t42.5 -106v-543z" />
    <glyph glyph-name="theta" unicode="&#x3b8;" horiz-adv-x="560" 
d="M392 320h-224q4 -247 112 -247q107 0 112 247zM168 399h224q-5 244 -112 244q-108 0 -112 -244zM511 359q0 -179 -63.5 -275t-167.5 -96t-167.5 96t-63.5 275q0 177 63 273t168 96q104 0 167.5 -96.5t63.5 -272.5z" />
    <glyph glyph-name="iota" unicode="&#x3b9;" horiz-adv-x="264" 
d="M242 11q0 -17 -77 -17q-62 0 -86 30t-24 99v324q0 9 8 9h101q9 0 9 -9v-328q0 -24 8.5 -32t27.5 -8h24q9 0 9 -9v-59z" />
    <glyph glyph-name="kappa" unicode="&#x3ba;" horiz-adv-x="517" 
d="M498 6q0 -6 -9 -6h-92q-12 0 -17 0.5t-12 4.5t-13 13l-129 175l-54 -41v-143q0 -9 -9 -9h-98q-8 0 -8 9v438q0 9 8 9h98q9 0 9 -9v-189q1 0 2 -1q185 189 191 195q6 4 12 4h99q9 0 9 -7q0 -2 -4 -6l-177 -177l191 -252z" />
    <glyph glyph-name="lambda" unicode="&#x3bb;" horiz-adv-x="506" 
d="M243 640q41 -98 116.5 -301t124.5 -326q-1 -1 0 -3t1 -3q0 -7 -8 -7h-89q-8 0 -10 7q-28 70 -100 265l-17 46h-2l-120 -311q-2 -7 -10 -7h-104q-8 0 -8 7l1 5l183 449l-52 126q-19 42 -50 42q-4 0 -28 -2q-10 0 -10 9v71q0 8 9 10q18 4 39 4q56 0 86.5 -20.5t47.5 -60.5z
" />
    <glyph glyph-name="mu" unicode="&#x3bc;" horiz-adv-x="559" 
d="M260 79q43 0 68 29t25 76v263q0 9 9 9h99q10 0 10 -9v-283q0 -56 4.5 -70.5t26.5 -14.5h20q10 0 10 -9v-59q0 -17 -67 -17q-71 0 -96 52q-38 -52 -112 -52q-51 0 -89 30v-245q0 -9 -9 -9h-93q-9 0 -9 9v668q0 9 9 9h101q8 0 8 -9v-292q0 -38 25.5 -57t59.5 -19z" />
    <glyph glyph-name="nu" unicode="&#x3bd;" horiz-adv-x="489" 
d="M475 448q0 -3 -2 -5q-16 -44 -90 -230t-83 -207q-3 -6 -9 -6h-102q-7 0 -9 6q-121 334 -164 435q0 1 -1 4l-1 3q0 8 10 8h107q6 0 9 -6q14 -34 60.5 -172.5t51.5 -151.5h2l121 324q2 6 9 6h82q9 0 9 -8z" />
    <glyph glyph-name="xi" unicode="&#x3be;" horiz-adv-x="456" 
d="M441 -43q0 -53 -42.5 -90.5t-137.5 -37.5h-5h-5h-5t-4.5 0.5t-4 1t-3.5 1.5t-2.5 2t-2 3t-0.5 4v64q0 8 8 8q1 0 16 -0.5t34 -0.5q21 0 37 9.5t16 27.5q0 15 -6 24t-19.5 13t-23 5.5t-29.5 2t-26 0.5q-86 7 -138.5 54t-52.5 127q0 58 32.5 108t93.5 74v2q-54 21 -81.5 68
t-27.5 100q0 82 59.5 140.5t154.5 58.5q90 0 157 -52q3 -2 3 -6t-3 -7l-43 -56q-3 -3 -7 -3q-1 0 -7 3l-11 7q-44 29 -84 27q-46 0 -74.5 -33t-28.5 -86q0 -54 34 -85t93 -31h59q9 0 9 -9v-74q0 -9 -9 -9h-77q-50 0 -84.5 -35.5t-34.5 -87.5q0 -48 28.5 -75.5t78.5 -33.5
l27 -3t29 -3t26 -5t27 -10q57 -29 57 -102z" />
    <glyph glyph-name="omicron" unicode="&#x3bf;" horiz-adv-x="544" 
d="M509 229q0 -103 -64 -172t-173 -69t-173.5 69t-64.5 172q0 105 66 172t172 67q109 0 173 -68t64 -171zM389 230q0 72 -30.5 112.5t-85.5 40.5q-56 0 -87 -44.5t-31 -110.5q0 -68 31.5 -111.5t84.5 -43.5q55 0 86.5 44t31.5 113z" />
    <glyph glyph-name="pi" unicode="&#x3c0;" horiz-adv-x="602" 
d="M555 377q0 -9 -10 -9h-49v-359q0 -9 -9 -9h-99q-9 0 -9 9v359h-172v-359q0 -9 -9 -9h-85q-9 0 -9 9v359h-51q-9 0 -9 9v70q0 9 9 9h492q10 0 10 -9v-70z" />
    <glyph glyph-name="rho" unicode="&#x3c1;" horiz-adv-x="550" 
d="M514 228q0 -107 -58 -173t-145 -66t-134 57h-2v-267q0 -9 -9 -9h-101q-8 0 -8 9v460q0 96 59.5 162.5t167.5 66.5q104 0 167 -65.5t63 -174.5zM394 228q0 76 -29 115t-81 39q-34 0 -57 -13t-33.5 -38t-14.5 -50.5t-4 -60.5q0 -146 108 -146q51 0 81 41.5t30 112.5z" />
    <glyph glyph-name="sigma1" unicode="&#x3c2;" horiz-adv-x="471" 
d="M455 292q0 -9 -9 -9h-88q-8 0 -8 8l-3 13q-18 78 -88 78q-54 0 -81 -43t-27 -110q0 -68 29 -98.5t106 -42.5q70 -11 108 -40.5t38 -92.5q0 -61 -45.5 -93.5t-117.5 -32.5h-11q-4 1 -10 1t-9 0.5t-5.5 2.5t-2.5 6q0 73 10 73q9 -1 34 -1q56 0 56 40q0 19 -18.5 30
t-63.5 17q-215 18 -215 229q0 105 60.5 173t164.5 68q79 0 133.5 -47t62.5 -128v-1z" />
    <glyph glyph-name="sigma" unicode="&#x3c3;" horiz-adv-x="577" 
d="M561 377q0 -9 -9 -9l-124 2v-1q66 -68 66 -158q0 -92 -60 -157.5t-165 -65.5q-109 0 -171.5 67.5t-62.5 170.5q0 104 64.5 167t171.5 63h281q9 0 9 -9v-70zM379 221q0 70 -28.5 109.5t-80.5 39.5q-56 0 -85 -40t-29 -105q0 -70 30.5 -111t81.5 -41q54 0 82.5 39.5
t28.5 108.5z" />
    <glyph glyph-name="tau" unicode="&#x3c4;" horiz-adv-x="440" 
d="M426 377q0 -9 -10 -9h-144v-249q0 -40 37 -40h40q9 0 9 -9v-59q0 -7 -8 -9l-18 -3q-16 -3 -69 -3q-109 0 -109 109v263h-125q-9 0 -9 9v70q0 9 9 9h387q10 0 10 -9v-70z" />
    <glyph glyph-name="upsilon" unicode="&#x3c5;" horiz-adv-x="515" 
d="M458 183q0 -87 -52.5 -140.5t-143.5 -53.5q-205 0 -205 218v240q0 9 8 9h101q9 0 9 -9v-266q0 -52 22.5 -80t64.5 -28q90 0 90 108v266q0 9 9 9h89q8 0 8 -9v-264z" />
    <glyph glyph-name="phi" unicode="&#x3c6;" horiz-adv-x="703" 
d="M669 227q0 -102 -72.5 -164t-188.5 -69q0 -36 0.5 -107.5t0.5 -107.5q0 -9 -9 -9h-98q-8 0 -8 9v215q-112 7 -186 68.5t-74 164.5q0 83 54 146.5t157 81.5h5q9 0 9 -8v-65q0 -9 -10 -12q-2 -1 -3 -1q-41 -10 -68 -47.5t-27 -94.5q0 -64 39.5 -105.5t105.5 -45.5v337
q0 19 11.5 32t32.5 14h49q131 -4 205.5 -65t74.5 -167zM552 227q0 67 -38.5 107t-107.5 43v-301q67 3 106.5 43t39.5 108z" />
    <glyph glyph-name="chi" unicode="&#x3c7;" horiz-adv-x="509" 
d="M502 -221q0 -8 -9 -8h-92q-6 0 -10 6l-127 232h-1l-126 -233q-3 -6 -9 -6h-103q-9 0 -9 8l1 4l180 335l-183 327q-1 3 -1 4q0 8 9 8h97q5 0 9 -6l124 -229h1l122 226q3 9 12 9h103q7 0 7 -6l-3 -9q-34 -63 -95.5 -178.5t-80.5 -150.5l183 -329q1 -3 1 -4z" />
    <glyph glyph-name="psi" unicode="&#x3c8;" horiz-adv-x="701" 
d="M644 224q0 -41 -12.5 -78.5t-39 -71.5t-74.5 -56.5t-112 -26.5v-212q0 -9 -9 -9h-92q-9 0 -9 9q0 35 0.5 106t0.5 106q-115 8 -178 72t-63 161v224q0 9 9 9h96q9 0 9 -9v-230q0 -57 33.5 -97.5t93.5 -45.5v372q0 9 8 9h92q9 0 9 -9q0 -62 -0.5 -186t-0.5 -186
q63 4 95.5 42.5t32.5 100.5v230q0 9 9 9h94q8 0 8 -9v-224z" />
    <glyph glyph-name="omega" unicode="&#x3c9;" horiz-adv-x="750" 
d="M698 203q0 -102 -45.5 -159t-132.5 -57q-100 0 -145 92q-21 -46 -61 -69t-86 -23q-85 0 -130.5 56.5t-45.5 159.5q0 58 20.5 127.5t48.5 116.5q5 9 12 9h100q9 0 9 -9q0 -5 -5 -15q-67 -125 -67 -235q0 -58 20 -91t56 -33q46 0 61.5 39t15.5 114v57q0 12 10 12h85
q11 0 11 -12v-57q0 -78 15.5 -115t63.5 -37q37 0 56.5 34.5t19.5 89.5q0 108 -67 235q-5 9 -5 15q0 8 9 8h100q2 0 8 -8t9 -14q24 -47 42 -112t18 -119z" />
    <glyph glyph-name="iotadieresis" unicode="&#x3ca;" horiz-adv-x="264" 
d="M257 529q0 -9 -9 -9h-90q-8 0 -8 9v91q0 9 8 9h90q9 0 9 -9v-91zM76 529q0 -9 -9 -9h-88q-9 0 -9 9v91q0 9 9 9h88q9 0 9 -9v-91zM240 11q0 -17 -77 -17q-62 0 -86 30t-24 99v324q0 9 8 9h101q9 0 9 -9v-328q0 -24 8.5 -32t27.5 -8h24q9 0 9 -9v-59z" />
    <glyph glyph-name="upsilondieresis" unicode="&#x3cb;" horiz-adv-x="517" 
d="M403 529q0 -9 -9 -9h-89q-9 0 -9 9v91q0 9 9 9h89q9 0 9 -9v-91zM223 529q0 -9 -10 -9h-88q-9 0 -9 9v91q0 9 9 9h88q10 0 10 -9v-91zM458 183q0 -87 -52.5 -140.5t-143.5 -53.5q-205 0 -205 218v240q0 9 8 9h101q9 0 9 -9v-266q0 -52 22.5 -80t64.5 -28q90 0 90 108v266
q0 9 9 9h89q8 0 8 -9v-264z" />
    <glyph glyph-name="omicrontonos" unicode="&#x3cc;" horiz-adv-x="544" 
d="M509 229q0 -103 -64 -172t-173 -69t-173.5 69t-64.5 172q0 105 66 172t172 67q109 0 173 -68t64 -171zM389 230q0 72 -30.5 112.5t-85.5 40.5q-56 0 -87 -44.5t-31 -110.5q0 -68 31.5 -111.5t84.5 -43.5q55 0 86.5 44t31.5 113zM390 711q0 -3 -2 -7l-80 -179
q-4 -5 -10 -5h-58q-7 0 -7 6l1 3l47 182q3 6 9 6h92q8 0 8 -6z" />
    <glyph glyph-name="upsilontonos" unicode="&#x3cd;" horiz-adv-x="515" 
d="M458 183q0 -87 -52.5 -140.5t-143.5 -53.5q-205 0 -205 218v240q0 9 8 9h101q9 0 9 -9v-266q0 -52 22.5 -80t64.5 -28q90 0 90 108v266q0 9 9 9h89q8 0 8 -9v-264zM381 711q0 -3 -2 -7l-82 -182q-4 -2 -6 -2h-59q-8 0 -7 9l45 175q1 5 3.5 8t7 4t7 1.5t10.5 0t11 -0.5h65
q7 0 7 -6z" />
    <glyph glyph-name="omegatonos" unicode="&#x3ce;" horiz-adv-x="750" 
d="M698 203q0 -102 -45.5 -159t-132.5 -57q-100 0 -145 92q-21 -46 -61 -69t-86 -23q-85 0 -130.5 56.5t-45.5 159.5q0 58 20.5 127.5t48.5 116.5q5 9 12 9h100q9 0 9 -9q0 -5 -5 -15q-67 -125 -67 -235q0 -58 20 -91t56 -33q46 0 61.5 39t15.5 114v57q0 12 10 12h85
q11 0 11 -12v-57q0 -78 15.5 -115t63.5 -37q37 0 56.5 34.5t19.5 89.5q0 108 -67 235q-5 9 -5 15q0 8 9 8h100q2 0 8 -8t9 -14q24 -47 42 -112t18 -119zM496 711q0 -3 -2 -7l-82 -182q-4 -2 -6 -2h-59q-9 0 -7 9l45 175q1 5 3.5 8t7 4t7 1.5t10.5 0t11 -0.5h65q7 0 7 -6z
" />
    <glyph glyph-name="uni03D0" unicode="&#x3d0;" horiz-adv-x="554" 
d="M43 307q0 81 15.5 153.5t47.5 134t87.5 97.5t128.5 36q76 0 124 -38t48 -93q0 -57 -47 -95t-133 -38q-74 0 -140 24q-10 -38 -16 -97l-3 -50q15 29 58.5 51t97.5 22q96 0 150.5 -58.5t54.5 -143.5q0 -94 -63.5 -159t-168.5 -65q-122 0 -181.5 84.5t-59.5 234.5zM285 74
q51 0 81 36.5t30 95.5q0 55 -29.5 90t-82.5 35t-85 -32.5t-32 -77.5q0 -64 32 -105.5t86 -41.5zM314 650q-87 0 -124 -96q57 -19 107 -19q95 0 95 61q0 22 -20.5 38t-57.5 16z" />
    <glyph glyph-name="theta1" unicode="&#x3d1;" horiz-adv-x="580" 
d="M275 -12q-83 0 -140 57t-67 173h-34q-9 0 -9 9v67q0 9 9 9h124q12 0 12 -11v-16q0 -203 105 -203q101 0 110 248h-38q-140 0 -207.5 48t-67.5 148q0 81 56.5 145t146.5 64q102 0 161 -90.5t67 -228.5h48q9 0 9 -9v-68q0 -9 -9 -9h-47q-9 -161 -70.5 -247t-158.5 -86z
M275 641q-42 0 -68.5 -37.5t-26.5 -89.5q0 -63 43.5 -85.5t138.5 -22.5h23q-7 235 -110 235z" />
    <glyph glyph-name="Upsilon1" unicode="&#x3d2;" horiz-adv-x="785" 
d="M191 728q73 0 123 -63.5t78 -164.5q29 101 82 164t129 63q149 0 149 -203q0 -28 -0.5 -45t-2 -26t-3.5 -11.5t-5 -2.5h-92q-8 0 -8 9q0 5 1 31t1 41q0 101 -57 101q-59 0 -91.5 -109.5t-32.5 -293.5v-209q0 -9 -9 -9h-121q-9 0 -9 9v209q0 181 -33 292t-91 111
q-57 0 -57 -103q0 -14 0.5 -30t1 -27t0.5 -13q0 -9 -8 -9h-92q-11 0 -11 84q0 205 158 205z" />
    <glyph glyph-name="uni03D3" unicode="&#x3d3;" horiz-adv-x="915" 
d="M128 711q0 -3 -2 -7l-80 -179q-4 -5 -10 -5h-58q-7 0 -7 6l1 3l47 182q3 6 9 6h92q8 0 8 -6zM321 728q73 0 123 -63.5t78 -164.5q29 101 82 164t129 63q149 0 149 -203q0 -28 -0.5 -45t-2 -26t-3.5 -11.5t-5 -2.5h-92q-8 0 -8 9q0 5 1 31t1 41q0 101 -57 101
q-59 0 -91.5 -109.5t-32.5 -293.5v-209q0 -9 -9 -9h-121q-9 0 -9 9v209q0 181 -33 292t-91 111q-57 0 -57 -103q0 -14 0.5 -30t1 -27t0.5 -13q0 -9 -8 -9h-92q-11 0 -11 84q0 205 158 205z" />
    <glyph glyph-name="uni03D4" unicode="&#x3d4;" horiz-adv-x="785" 
d="M555 791q0 -10 -9 -10h-94q-9 0 -9 10v96q0 9 9 9h94q9 0 9 -9v-96zM344 791q0 -10 -9 -10h-93q-9 0 -9 10v96q0 9 9 9h93q9 0 9 -9v-96zM191 728q73 0 123 -63.5t78 -164.5q29 101 82 164t129 63q149 0 149 -203q0 -28 -0.5 -45t-2 -26t-3.5 -11.5t-5 -2.5h-92
q-8 0 -8 9q0 5 1 31t1 41q0 101 -57 101q-59 0 -91.5 -109.5t-32.5 -293.5v-209q0 -9 -9 -9h-121q-9 0 -9 9v209q0 181 -33 292t-91 111q-57 0 -57 -103q0 -14 0.5 -30t1 -27t0.5 -13q0 -9 -8 -9h-92q-11 0 -11 84q0 205 158 205z" />
    <glyph glyph-name="phi1" unicode="&#x3d5;" horiz-adv-x="708" 
d="M673 227q0 -103 -71 -164.5t-191 -69.5l1 -214q0 -9 -9 -9h-99q-8 0 -8 9v214q-120 8 -191 69.5t-71 164.5q0 102 69.5 163t192.5 68v226q0 9 8 9h99q9 0 9 -9l-1 -226q123 -7 192.5 -68t69.5 -163zM556 227q0 65 -39 105.5t-107 42.5v-298q67 3 106.5 42.5t39.5 107.5z
M152 227q0 -68 39 -107.5t106 -42.5v298q-67 -2 -106 -42.5t-39 -105.5z" />
    <glyph glyph-name="omega1" unicode="&#x3d6;" horiz-adv-x="792" 
d="M756 368h-81q44 -97 44 -179q0 -84 -44 -143t-134 -59q-100 0 -145 92q-21 -46 -61 -69t-86 -23q-87 0 -131.5 58.5t-44.5 143.5q0 86 43 179h-80q-9 0 -9 9v70q0 9 9 9h720q9 0 9 -9v-70q0 -9 -9 -9zM605 198q0 75 -45 170h-325q-44 -93 -44 -171q0 -59 20 -91.5
t56 -32.5q43 0 60 39t17 109v52q0 12 10 12h85q11 0 11 -12v-52q0 -74 16 -110.5t63 -36.5q37 0 56.5 34.5t19.5 89.5z" />
    <glyph glyph-name="uni03D7" unicode="&#x3d7;" horiz-adv-x="594" 
d="M346 226h-1q-20 -29 -63.5 -81.5t-53.5 -65.5l-54 -71q-5 -8 -16 -8h-109q-10 0 -10 7q0 4 4 10l35 40q86 97 87 194q0 47 -24.5 83.5t-71.5 37.5q-26 0 -26 9v67q0 12 46 12q61 0 105.5 -43.5t49.5 -116.5q0 -37 -7 -72q0 -1 1 -1q20 29 64.5 83.5t52.5 65.5
q6 8 15.5 21.5t16.5 22t14 18t13 14t11 4.5h109q10 0 10 -8q0 -3 -4 -9l-15 -18q-58 -70 -83 -116t-24 -102q0 -118 105 -122h11.5h13t12.5 -1t9.5 -3.5t3.5 -6.5q0 -48 -3 -97q-8 -102 -82.5 -153t-191.5 -51l-12 2q-9 2 -9 9v72q0 9 9 11h13q81 0 124 31.5t49 107.5l-18 6
q-53 11 -83 52t-30 105q0 30 7 61z" />
    <glyph glyph-name="uni03D8" unicode="&#x3d8;" horiz-adv-x="750" 
d="M446 6q0 -8 -9 -8h-121q-10 0 -10 8v96q-132 20 -199.5 107.5t-67.5 203.5q0 133 88.5 225.5t246.5 92.5q84 0 150 -27t105.5 -72.5t59.5 -101t20 -117.5q0 -117 -68 -203t-195 -107v-97zM568 413q0 91 -51.5 150t-142.5 59q-85 0 -139.5 -56t-54.5 -153q0 -92 51 -150
t143 -58t143 58.5t51 149.5z" />
    <glyph glyph-name="uni03D9" unicode="&#x3d9;" horiz-adv-x="544" 
d="M330 -222q0 -9 -9 -9h-101q-9 0 -9 9v219q-83 17 -130 81t-47 151q0 105 66 172t172 67q109 0 173 -68t64 -171q0 -88 -47.5 -152t-131.5 -81v-218zM389 230q0 72 -30.5 112.5t-85.5 40.5q-56 0 -87 -44.5t-31 -110.5q0 -68 31.5 -111.5t84.5 -43.5q55 0 86.5 44
t31.5 113z" />
    <glyph glyph-name="uni03DA" unicode="&#x3da;" horiz-adv-x="719" 
d="M671 469v-1q0 -10 -11 -10h-104q-8 0 -10 7q-16 74 -65 112t-111 38q-76 0 -132.5 -58t-56.5 -156q0 -90 58 -148.5t165 -58.5h40q10 0 10 -9v-176q0 -9 -10 -9h-121q-9 0 -9 9v85q-129 17 -201.5 101.5t-72.5 205.5q0 144 94 236t232 92q112 0 197 -65.5t108 -194.5z
" />
    <glyph glyph-name="uni03DB" unicode="&#x3db;" horiz-adv-x="519" 
d="M496 370h-112q-54 0 -94 -3q-75 -5 -108 -45t-33 -93q0 -116 112 -132l14 -2q36 -5 60 -11.5t49.5 -21t38.5 -41t13 -64.5q0 -61 -47.5 -94.5t-119.5 -33.5q-38 0 -38 10q0 73 10 73q3 0 15 -0.5t19 -0.5q56 0 56 40q0 41 -69 41q-112 8 -170.5 65t-58.5 162
q0 104 73 170q43 40 101.5 53.5t171.5 13.5h117q10 0 10 -9v-68q0 -9 -10 -9z" />
    <glyph glyph-name="uni03DC" unicode="&#x3dc;" horiz-adv-x="613" 
d="M577 618q0 -9 -9 -9h-360v-200h211q9 0 9 -9v-86q0 -9 -9 -9h-211v-296q0 -9 -9 -9h-121q-9 0 -9 9v699q0 9 9 9h490q9 0 9 -9v-90z" />
    <glyph glyph-name="uni03DD" unicode="&#x3dd;" horiz-adv-x="483" 
d="M434 370q-10 0 -81 0.5t-87 0.5q-75 0 -75 -81v-142h242q10 0 10 -9v-67q0 -9 -10 -9h-242v-284q0 -9 -9 -9h-101q-9 0 -9 9v482q0 105 51 150.5t171 45.5q13 0 39.5 0.5t42 0.5t33 -1t26 -3.5t8.5 -6.5v-68q0 -9 -9 -9z" />
    <glyph glyph-name="uni03DE" unicode="&#x3de;" horiz-adv-x="579" 
d="M470 9q-2 -9 -9 -9h-74q-56 0 -56 7v2l48 294h-330q-8 0 -8 8q4 19 5 31l59 366q2 9 10 9h122q7 0 7 -7v-2l-48 -294h332q7 0 7 -7t-5 -32z" />
    <glyph glyph-name="uni03DF" unicode="&#x3df;" horiz-adv-x="599" 
d="M186 182q19 15 123 115.5t155 143.5q6 6 16 6h2l58 -50q8 -7 8 -14t-1 -8q-129 -291 -129 -430q0 -55 19 -74t58 -19h19q8 0 8 -9v-66q0 -11 -42 -11q-81 0 -128 38t-47 120q0 71 33 178t74 198q-24 -19 -136 -125t-141 -132q-6 -6 -16 -6q-4 0 -6 2l-58 51q-6 6 -6 11
q0 2 2 6q50 101 90 227.5t40 198.5q0 55 -19.5 77t-58.5 22h-19q-8 0 -8 8v66q0 11 37 11q83 0 131 -40t48 -124q0 -72 -33 -178t-74 -193h1z" />
    <glyph glyph-name="uni03E0" unicode="&#x3e0;" horiz-adv-x="697" 
d="M518 322l-201 -90h-2q-8 0 -11 6l-27 65q-1 1 -1 3q0 4 5 7l228 103q-13 38 -25 64q-188 -85 -230 -104h-2q-1 -1 -2 -1q-6 0 -10 7l-21 48q-7 12 -7 19q0 5 5 7l212 96q-60 68 -139 68q-97 0 -191 -85q-3 -2 -9 -2q-5 0 -8 5l-38 48l-14 22q-1 1 -1 2q0 2 2 6l11 10
q114 104 263 104q145 0 244 -111t99 -263q0 -167 -103.5 -264.5t-265.5 -98.5h-3q-7 0 -10 7v94q0 9 8 9q107 -1 174.5 62.5t69.5 156.5z" />
    <glyph glyph-name="uni03E1" unicode="&#x3e1;" horiz-adv-x="606" 
d="M39 615q-9 0 -9 7v87q0 10 9 10q114 -4 210 -55.5t159 -133t100 -181t41 -203.5v-47q-8 -196 -113 -330q-4 -4 -8 -4l-6 3l-58 42q-17 7 -17 16q0 4 3 6q84 118 84 279q0 35 -9 89l-200 -91h-2q-6 0 -9 5l-21 47q-8 14 -8 21q0 3 1.5 5t4 3.5t4.5 2.5t6 2.5t6 2.5l200 90
q-10 31 -27 72l-223 -101q-1 -1 -3 -1q-1 0 -10 12.5t-18 30.5t-9 30q0 6 5 8l16 8q66 29 198 89q-53 78 -129 126t-168 53z" />
    <glyph glyph-name="uni03F0" unicode="&#x3f0;" horiz-adv-x="584" 
d="M347 227h-1q-20 -29 -64 -81.5t-54 -66.5l-54 -71q-5 -8 -16 -8h-110q-10 0 -10 7q0 6 4 10l44 51q79 100 79 183q0 47 -24.5 83.5t-71.5 37.5q-26 0 -26 9v67q0 12 46 12q62 0 106.5 -43.5t48.5 -118.5q0 -35 -7 -70q0 -1 1 -1q19 27 60 77.5t48 59.5t18 23.5t18.5 25
t16 21t15 16t11.5 5.5h111q10 0 10 -7q0 -4 -4 -10l-34 -39q-88 -101 -89 -195q0 -46 25.5 -83.5t71.5 -37.5h18q8 0 8 -9v-67q0 -11 -46 -11q-65 0 -109 43t-48 118q0 43 8 70z" />
    <glyph glyph-name="uni03F1" unicode="&#x3f1;" horiz-adv-x="553" 
d="M518 228q0 -106 -58 -167.5t-157 -61.5q-54 0 -96.5 23t-65.5 61q4 -23 10 -36q10 -42 24.5 -68.5t34 -43.5t53 -27.5t71 -16.5t99.5 -14q17 -2 26 -3q9 -2 9 -13v-83q0 -8 -9 -8h-4q-20 2 -30 4l-100 12q-155 22 -216.5 105.5t-61.5 260.5q0 69 12.5 124.5t40 99.5
t76 68.5t115.5 24.5q106 0 166.5 -67t60.5 -174zM399 229q0 67 -28 110.5t-83 43.5q-54 0 -83.5 -42t-29.5 -109q0 -65 28.5 -107.5t85.5 -42.5q48 0 79 40.5t31 106.5z" />
    <glyph glyph-name="uni03F2" unicode="&#x3f2;" horiz-adv-x="519" 
d="M473 160q-12 -80 -68.5 -126t-139.5 -46q-107 0 -169 69t-62 171t62 171t169 69q83 0 140.5 -46t67.5 -123q0 -10 -9 -10h-88q-8 0 -9 9q-5 39 -32 62t-67 23q-51 0 -82 -42.5t-31 -112.5q0 -72 32 -113.5t81 -41.5q39 0 66.5 25.5t33.5 63.5q2 9 9 9h87q9 0 9 -11z" />
    <glyph glyph-name="uni03F3" unicode="&#x3f3;" horiz-adv-x="233" 
d="M177 560q0 -9 -9 -9h-104q-9 0 -9 9v106q0 9 9 9h104q9 0 9 -9v-106zM175 -104q0 -132 -143 -132q-30 0 -55 9q-3 1 -3 6l7 66q1 7 11 7h28q37 0 37 39v556q0 9 8 9h101q9 0 9 -9v-551z" />
    <glyph glyph-name="uni03F9" unicode="&#x3f9;" horiz-adv-x="773" 
d="M180 359q0 -120 63.5 -188.5t151.5 -68.5q74 0 124 38.5t71 110.5q2 7 8 7h114q10 0 10 -9q0 -39 -35 -101q-43 -75 -120.5 -118t-176.5 -43q-154 0 -252.5 106.5t-98.5 265.5t98.5 265.5t252.5 106.5q103 0 181.5 -43.5t119.5 -124.5q28 -56 31 -94q0 -10 -10 -10h-114
q-6 0 -8 7q-22 69 -72.5 109.5t-122.5 40.5q-88 0 -151.5 -68.5t-63.5 -188.5z" />
    <glyph glyph-name="uni0400" unicode="&#x400;" horiz-adv-x="633" 
d="M402 783q0 -6 -7 -6h-75q-5 0 -8 3l-146 149q-2 2 -2 5q0 7 7 7h118q4 0 8 -4l102 -145q3 -6 3 -9zM585 9q0 -9 -9 -9h-498q-9 0 -9 9v699q0 9 9 9h480q9 0 9 -9v-90q0 -9 -9 -9h-350v-198h206q9 0 9 -10v-84q0 -9 -9 -9h-206v-201h368q9 0 9 -9v-89z" />
    <glyph glyph-name="afii10023" unicode="&#x401;" horiz-adv-x="633" 
d="M485 795q0 -10 -9 -10h-93q-10 0 -10 10v96q0 9 10 9h93q9 0 9 -9v-96zM275 795q0 -10 -10 -10h-93q-9 0 -9 10v96q0 9 9 9h93q10 0 10 -9v-96zM585 9q0 -9 -9 -9h-498q-9 0 -9 9v699q0 9 9 9h480q9 0 9 -9v-90q0 -9 -9 -9h-350v-198h206q9 0 9 -10v-84q0 -9 -9 -9h-206
v-201h368q9 0 9 -9v-89z" />
    <glyph glyph-name="afii10051" unicode="&#x402;" horiz-adv-x="885" 
d="M689 618q0 -9 -9 -9h-266v-196q76 17 161 17q123 0 190 -57t67 -163q0 -100 -68 -158t-176 -58h-43q-9 0 -9 9v88q0 9 9 9h20q62 0 95.5 31t33.5 81q0 57 -35.5 88.5t-105.5 31.5q-73 0 -139 -15v-308q0 -9 -9 -9h-123q-8 0 -8 9v600h-234q-10 0 -10 9v90q0 9 10 9h640
q9 0 9 -9v-90z" />
    <glyph glyph-name="afii10052" unicode="&#x403;" horiz-adv-x="605" 
d="M565 608q0 -9 -8 -9h-349v-590q0 -9 -9 -9h-121q-9 0 -9 9v699q0 9 9 9h479q8 0 8 -9v-100zM483 934q0 -1 -2 -5l-135 -138q-4 -4 -10 -7l-16 -6q-2 0 -7 -0.5t-7 -0.5h-54q-7 0 -7 6q0 7 8 15l92 133l7 8q16 2 48 2h76q7 0 7 -7z" />
    <glyph glyph-name="afii10053" unicode="&#x404;" horiz-adv-x="763" 
d="M38 359q0 159 100 265.5t251 106.5q122 0 208.5 -60.5t116.5 -169.5q6 -20 7 -32q0 -10 -10 -10h-106q-6 0 -8 7q-21 74 -76.5 112t-130.5 38q-79 0 -139 -54t-69 -151v-1h320q9 0 9 -9v-85q0 -9 -9 -9h-320q-1 0 -1 -1q9 -97 69 -150.5t140 -53.5q77 0 132.5 38
t74.5 111q2 7 8 7h106q10 0 10 -10q-12 -118 -104.5 -189t-227.5 -71q-151 0 -251 102t-100 269z" />
    <glyph glyph-name="afii10054" unicode="&#x405;" horiz-adv-x="634" 
d="M596 202q0 -96 -79 -156t-203 -60q-189 0 -287 149q-1 1 -1 5q0 5 3 7l81 62q1 1 4 1t8 -5q37 -53 88.5 -85t103.5 -32q70 0 108 27.5t38 68.5q0 46 -42.5 71.5t-112.5 44.5q-112 29 -169 68q-79 55 -79 149q0 87 69 150.5t188 63.5q163 0 264 -118l3 -6q0 -3 -3 -6
l-66 -71q-2 -2 -6 -2t-7 3q-84 99 -186 99q-60 0 -94 -26t-34 -67q0 -40 33 -62t94 -40q131 -40 182 -69q102 -57 102 -164z" />
    <glyph glyph-name="afii10055" unicode="&#x406;" horiz-adv-x="283" 
d="M212 9q0 -9 -10 -9h-121q-9 0 -9 9v699q0 9 9 9h121q10 0 10 -9v-699z" />
    <glyph glyph-name="afii10056" unicode="&#x407;" horiz-adv-x="283" 
d="M293 798q0 -9 -9 -9h-93q-9 0 -9 9v96q0 9 9 9h93q9 0 9 -9v-96zM103 798q0 -9 -10 -9h-93q-8 0 -8 9v96q0 9 8 9h93q10 0 10 -9v-96zM212 9q0 -9 -10 -9h-121q-9 0 -9 9v699q0 9 9 9h121q10 0 10 -9v-699z" />
    <glyph glyph-name="afii10057" unicode="&#x408;" horiz-adv-x="553" 
d="M483 210q0 -105 -67 -163.5t-173 -58.5q-102 0 -154 57.5t-52 135.5v10q0 9 9 9h104q9 0 9 -9q2 -40 26 -71.5t60 -31.5q43 0 70 28.5t27 88.5v503q0 9 9 9h123q9 0 9 -9v-498z" />
    <glyph glyph-name="afii10058" unicode="&#x409;" horiz-adv-x="1130" 
d="M939 208q0 50 -33.5 79.5t-96.5 29.5h-127v-220h128q63 0 96 31t33 80zM1087 208q0 -96 -71 -152t-194 -56h-271q-9 0 -9 9v601h-226v-376q0 -112 -64 -177t-179 -65h-29q-8 0 -8 9v88q0 9 9 9h19q63 0 96 35.5t33 100.5v474q0 9 9 9h471q9 0 9 -9v-294h149
q120 0 188 -56.5t68 -149.5z" />
    <glyph glyph-name="afii10059" unicode="&#x40a;" horiz-adv-x="1097" 
d="M1060 208q0 -89 -60.5 -144.5t-167.5 -61.5q-23 -2 -70 -2h-235q-9 0 -9 9v293h-310v-293q0 -9 -9 -9h-121q-9 0 -9 9v699q0 9 9 9h121q9 0 9 -9v-294h310v294q0 9 10 9h122q8 0 8 -9v-294h113q24 0 68 -2q104 -7 162.5 -62.5t58.5 -141.5zM914 208q0 56 -37.5 82.5
t-116.5 26.5h-102v-220h103q153 0 153 111z" />
    <glyph glyph-name="afii10060" unicode="&#x40b;" horiz-adv-x="905" 
d="M274 609h-234q-10 0 -10 9v90q0 9 10 9h640q9 0 9 -9v-90q0 -9 -9 -9h-266v-169q89 28 174 28q250 0 250 -225v-234q0 -9 -9 -9h-121q-9 0 -9 9v209q0 80 -32.5 111.5t-105.5 31.5q-79 0 -147 -25v-327q0 -9 -9 -9h-123q-8 0 -8 9v600z" />
    <glyph glyph-name="afii10061" unicode="&#x40c;" horiz-adv-x="708" 
d="M69 9v699q0 9 9 9h120q9 0 9 -9v-300h147q31 0 48 19t33 65l72 216q3 9 11 9h121q9 0 9 -7q0 -2 -3 -10l-94 -250q-20 -51 -48 -77q69 -24 98 -69t35 -133q6 -110 12 -160v-3q0 -8 -10 -8h-119q-11 0 -18 114q-3 37 -6 76q-15 116 -118 116h-170v-297q0 -9 -9 -9h-120
q-9 0 -9 9zM513 934q0 -3 -2 -5l-135 -138q-4 -4 -10 -7l-16 -6q-2 0 -6.5 -0.5t-6.5 -0.5h-55q-7 0 -7 6q0 2 1.5 4.5t3.5 5.5t3 5l92 133l7 8q8 0 24.5 1t24.5 1h75q7 0 7 -7z" />
    <glyph glyph-name="uni040D" unicode="&#x40d;" horiz-adv-x="759" 
d="M689 9q0 -9 -8 -9h-122q-10 0 -10 9v487h-1l-340 -448v-39q0 -9 -9 -9h-121q-9 0 -9 9v699q0 9 9 9h121q9 0 9 -9v-488l1 -1l340 449v40q0 9 10 9h122q8 0 8 -9v-699zM204 934q0 7 7 7h75q7 0 23.5 -1t25.5 -1l7 -8q87 -125 97 -139q3 -6 3 -9q0 -6 -7 -6h-55
q-2 0 -6.5 0.5t-6.5 0.5l-16 6q-6 3 -10 7l-135 138q-2 2 -2 5z" />
    <glyph glyph-name="afii10062" unicode="&#x40e;" horiz-adv-x="637" 
d="M487 873q0 -53 -39 -83t-114 -30t-113.5 30t-38.5 83q0 40 11 40h66q9 0 9 -9v-14q0 -56 67 -56q66 0 66 56v14q0 9 9 9h66q11 0 11 -40zM620 710q0 -2 -3 -8q-44 -114 -221 -563q-32 -83 -84 -113.5t-140 -30.5h-63q-8 2 -8 9v90q0 12 10 12q7 0 30.5 -0.5t37.5 -0.5
q84 0 84 46q0 12 -6 29l-236 524q-2 2 -2 6q0 7 8 7h137q6 0 9 -7l119 -272q42 -97 54 -128h2q25 66 74 199t74 200q2 7 9 7h106q9 0 9 -6z" />
    <glyph glyph-name="afii10145" unicode="&#x40f;" horiz-adv-x="747" 
d="M677 708v-699q0 -9 -8 -9h-236v-148q0 -9 -9 -9h-102q-9 0 -9 9v148h-235q-9 0 -9 9v699q0 9 9 9h121q9 0 9 -9v-601h329v601q0 9 10 9h122q8 0 8 -9z" />
    <glyph glyph-name="afii10017" unicode="&#x410;" horiz-adv-x="722" 
d="M701 8q0 -8 -10 -8h-133q-7 0 -9 6l-68 188h-265l-70 -188q-2 -6 -8 -6h-106q-10 0 -10 8q0 3 1 4l265 699q2 6 8 6h138q6 0 8 -6l258 -699q1 -1 1 -4zM451 290l-101 284l-102 -284h203z" />
    <glyph glyph-name="afii10018" unicode="&#x411;" horiz-adv-x="652" 
d="M613 210q0 -97 -71 -153.5t-194 -56.5h-270q-9 0 -9 9v699q0 9 9 9h478q9 0 9 -9v-90q0 -9 -9 -9h-353v-192h154q120 0 188 -57t68 -150zM465 210q0 110 -156 110h-106v-223h107q155 0 155 113z" />
    <glyph glyph-name="afii10019" unicode="&#x412;" horiz-adv-x="660" 
d="M611 198q0 -91 -70 -144.5t-194 -53.5h-269q-9 0 -9 9v699q0 9 9 9h262q117 0 180.5 -47.5t63.5 -132.5q0 -50 -29.5 -92.5t-87.5 -66.5q73 -23 108.5 -72t35.5 -108zM445 516q0 44 -27.5 73.5t-83.5 29.5h-135v-212h109q137 0 137 109zM466 208q0 114 -149 114h-118
v-224h142q61 0 93 31.5t32 78.5z" />
    <glyph glyph-name="afii10020" unicode="&#x413;" horiz-adv-x="605" 
d="M565 608q0 -9 -8 -9h-349v-590q0 -9 -9 -9h-121q-9 0 -9 9v699q0 9 9 9h479q8 0 8 -9v-100z" />
    <glyph glyph-name="afii10021" unicode="&#x414;" horiz-adv-x="825" 
d="M783 -148q0 -9 -9 -9h-101q-8 0 -8 9v148h-512v-147q0 -9 -9 -9h-100q-9 0 -9 9v244q0 9 9 9h62q108 110 108 352v250q0 9 10 9h460q10 0 10 -9v-602h80q9 0 9 -9v-245zM554 106v504h-225v-123q0 -271 -85 -381h310z" />
    <glyph glyph-name="afii10022" unicode="&#x415;" horiz-adv-x="633" 
d="M585 9q0 -9 -9 -9h-498q-9 0 -9 9v699q0 9 9 9h480q9 0 9 -9v-90q0 -9 -9 -9h-350v-198h206q9 0 9 -10v-84q0 -9 -9 -9h-206v-201h368q9 0 9 -9v-89z" />
    <glyph glyph-name="afii10024" unicode="&#x416;" horiz-adv-x="1083" 
d="M610 708v-300h58q31 0 49.5 18.5t43.5 65.5l61 115q36 68 63.5 95.5t79.5 27.5q33 0 61 -7q8 -3 8 -12v-90q0 -11 -10 -11q-3 0 -14 2t-19 2q-29 0 -58 -55l-54 -101q-34 -65 -89 -96q65 -26 106 -108l54 -110q21 -44 53 -44q10 0 20 2.5t11 2.5q9 1 9 -9v-90
q0 -10 -9 -12q-24 -7 -55 -7q-92 0 -134 82l-81 162q-20 39 -39 57t-54 18h-61v-297q0 -9 -9 -9h-120q-9 0 -9 9v297h-60q-34 0 -53 -17.5t-40 -57.5l-80 -157q-44 -87 -135 -87q-34 0 -54 6q-10 3 -10 12v87q0 13 10 13q2 0 11 -2.5t19 -2.5q32 0 53 44l50 102
q45 89 111 116q-55 30 -90 96l-54 101q-29 55 -61 55q-6 0 -17 -2t-14 -2q-9 0 -9 9v92q0 9 8 12q28 7 61 7q52 0 79.5 -27.5t63.5 -95.5l61 -115q25 -47 43.5 -65.5t49.5 -18.5h57v300q0 9 9 9h120q9 0 9 -9z" />
    <glyph glyph-name="afii10025" unicode="&#x417;" horiz-adv-x="634" 
d="M585 198q0 -93 -75 -152t-198 -59q-134 0 -200.5 64t-66.5 150v8q0 9 9 9h109q9 0 9 -9q3 -53 38 -86t96 -33q60 0 98 30.5t38 81.5q0 52 -32 81.5t-94 29.5h-74q-9 0 -9 9v79q0 9 9 9h73q59 0 89.5 29.5t30.5 81.5q0 50 -34.5 78.5t-96.5 28.5q-58 0 -93 -31t-37 -83
q0 -9 -9 -9h-107q-9 0 -9 9v6q0 84 70 147t190 63q119 0 192.5 -54t73.5 -148q0 -54 -34.5 -98t-83.5 -61v-2q54 -13 91 -59.5t37 -109.5z" />
    <glyph glyph-name="afii10026" unicode="&#x418;" horiz-adv-x="759" 
d="M689 9q0 -9 -8 -9h-122q-10 0 -10 9v481h-1l-340 -437v-44q0 -9 -9 -9h-121q-9 0 -9 9v699q0 9 9 9h121q9 0 9 -9v-483l1 -1l340 438v46q0 9 10 9h122q8 0 8 -9v-699z" />
    <glyph glyph-name="afii10027" unicode="&#x419;" horiz-adv-x="759" 
d="M689 9q0 -9 -8 -9h-122q-10 0 -10 9v482h-1l-340 -438v-44q0 -9 -9 -9h-121q-9 0 -9 9v699q0 9 9 9h121q9 0 9 -9v-483l1 -1l340 439v45q0 9 10 9h122q8 0 8 -9v-699zM528 873q0 -53 -39 -83t-114 -30t-113.5 30t-38.5 83q0 40 11 40h66q9 0 9 -9v-14q0 -56 66 -56
q67 0 67 56v14q0 9 9 9h66q11 0 11 -40z" />
    <glyph glyph-name="afii10028" unicode="&#x41a;" horiz-adv-x="691" 
d="M208 708v-300h68q31 0 49.5 18.5t43.5 65.5l62 115q35 66 65 94.5t82 28.5q27 0 55 -7q9 -3 9 -12v-92q0 -11 -10 -9q-28 4 -31 4q-32 0 -60 -54l-54 -102q-32 -61 -87 -93q35 -14 58 -42.5t47 -75.5l56 -110q18 -36 47 -36q6 0 34 4q9 1 9 -9v-91q0 -9 -9 -12
q-20 -6 -56 -6q-49 0 -80 21t-55 68l-79 155q-21 40 -40 57.5t-53 17.5h-71v-297q0 -9 -9 -9h-120q-9 0 -9 9v699q0 9 9 9h120q9 0 9 -9z" />
    <glyph glyph-name="afii10029" unicode="&#x41b;" horiz-adv-x="753" 
d="M682 9q0 -9 -8 -9h-123q-9 0 -9 9v601h-236v-324q0 -83 -12 -131t-40 -85q-59 -78 -182 -78h-29q-8 0 -8 9v98q0 9 9 9h19q57 0 87 33q33 36 33 101v466q0 9 9 9h481q9 0 9 -9v-699z" />
    <glyph glyph-name="afii10030" unicode="&#x41c;" horiz-adv-x="914" 
d="M843 9q0 -9 -9 -9h-120q-10 0 -10 9v529h-1l-215 -532q-3 -6 -9 -6h-67q-6 0 -8 6l-219 531v-528q0 -9 -9 -9h-97q-9 0 -9 9v699q0 9 9 9h157q5 0 8 -6l215 -518h1q40 97 113 275.5t99 242.5q3 6 8 6h154q9 0 9 -9v-699z" />
    <glyph glyph-name="afii10031" unicode="&#x41d;" horiz-adv-x="749" 
d="M679 9q0 -9 -8 -9h-122q-10 0 -10 9v293h-331v-293q0 -9 -9 -9h-121q-9 0 -9 9v699q0 9 9 9h121q9 0 9 -9v-294h331v294q0 9 10 9h122q8 0 8 -9v-699z" />
    <glyph glyph-name="afii10032" unicode="&#x41e;" horiz-adv-x="802" 
d="M762 360q0 -155 -99 -264.5t-262 -109.5q-166 0 -263.5 107t-97.5 267q0 97 39.5 179.5t123.5 137t198 54.5q167 0 264 -106.5t97 -264.5zM400 616q-101 0 -160.5 -72.5t-59.5 -182.5q0 -111 60.5 -185t159.5 -74q100 0 161 72.5t61 186.5q0 116 -60.5 185.5t-161.5 69.5
z" />
    <glyph glyph-name="afii10033" unicode="&#x41f;" horiz-adv-x="747" 
d="M677 9q0 -9 -8 -9h-122q-10 0 -10 9v601h-329v-601q0 -9 -9 -9h-121q-9 0 -9 9v699q0 9 9 9h591q8 0 8 -9v-699z" />
    <glyph glyph-name="afii10034" unicode="&#x420;" horiz-adv-x="641" 
d="M603 496q0 -107 -70.5 -168t-194.5 -61h-130v-258q0 -9 -9 -9h-121q-9 0 -9 9v699q0 9 9 9h269q120 0 188 -60.5t68 -160.5zM454 490q0 57 -35 92t-96 35h-115v-257h114q62 0 97 35t35 95z" />
    <glyph glyph-name="afii10035" unicode="&#x421;" horiz-adv-x="771" 
d="M180 359q0 -120 63.5 -188.5t151.5 -68.5q75 0 128.5 39t74.5 110q2 7 8 7h106q10 0 10 -9q0 -15 -8 -37q-31 -107 -117 -166t-207 -59q-154 0 -252.5 106.5t-98.5 265.5t98.5 265.5t252.5 106.5q121 0 206.5 -59t117.5 -166q7 -20 8 -37q0 -10 -10 -10h-106q-6 0 -8 7
q-21 72 -74.5 111t-128.5 39q-88 0 -151.5 -68.5t-63.5 -188.5z" />
    <glyph glyph-name="afii10036" unicode="&#x422;" horiz-adv-x="710" 
d="M677 608q0 -9 -10 -9h-241v-590q0 -9 -9 -9h-121q-10 0 -10 9v590h-244q-9 0 -9 9v100q0 9 9 9h625q10 0 10 -9v-100z" />
    <glyph glyph-name="afii10037" unicode="&#x423;" horiz-adv-x="637" 
d="M620 710q0 -2 -3 -8q-44 -114 -221 -563q-32 -83 -84 -113.5t-140 -30.5h-63q-8 2 -8 9v90q0 12 10 12q7 0 30.5 -0.5t37.5 -0.5q84 0 84 46q0 12 -6 29l-236 524q-2 2 -2 6q0 7 8 7h137q6 0 9 -7l119 -272q42 -97 54 -128h2q25 66 74 199t74 200q2 7 9 7h106q9 0 9 -6z
" />
    <glyph glyph-name="afii10038" unicode="&#x424;" horiz-adv-x="901" 
d="M382 165v423q-201 -14 -201 -209q0 -199 201 -214zM720 379q0 195 -201 209v-423q97 7 149 64t52 150zM861 379q0 -130 -88.5 -215.5t-252.5 -96.5v-62q0 -9 -9 -9h-121q-9 0 -9 9v62q-166 11 -253.5 94.5t-87.5 217.5q0 125 87.5 210t253.5 97v57q0 9 9 9h121q9 0 9 -9
v-57q165 -11 253 -98t88 -209z" />
    <glyph glyph-name="afii10039" unicode="&#x425;" horiz-adv-x="704" 
d="M684 7q0 -7 -10 -7h-140q-5 0 -10 5l-180 255l-187 -255q-5 -5 -10 -5h-118q-9 0 -9 7q0 4 2 6l253 345l-245 346q-2 2 -2 6q0 7 8 7h143q7 0 11 -6l169 -239l176 240q3 5 10 5h114q9 0 9 -8q0 -3 -2 -5l-241 -328l256 -363q3 -3 3 -6z" />
    <glyph glyph-name="afii10040" unicode="&#x426;" horiz-adv-x="795" 
d="M748 -148q0 -9 -9 -9h-101q-8 0 -8 9v148h-552q-9 0 -9 9v699q0 9 9 9h121q9 0 9 -9v-602h312v602q0 9 10 9h122q8 0 8 -9v-602h78q10 0 10 -9v-245z" />
    <glyph glyph-name="afii10041" unicode="&#x427;" horiz-adv-x="705" 
d="M636 9q0 -9 -9 -9h-122q-9 0 -9 9v270q-92 -33 -179 -33q-250 0 -250 225v237q0 9 9 9h121q9 0 9 -9v-235q0 -64 35 -92t103 -28q74 0 152 30v325q0 9 9 9h122q9 0 9 -9v-699z" />
    <glyph glyph-name="afii10042" unicode="&#x428;" horiz-adv-x="1050" 
d="M980 9q0 -9 -8 -9h-894q-9 0 -9 9v699q0 9 9 9h121q9 0 9 -9v-602h244v602q0 9 9 9h121q9 0 9 -9v-602h249v602q0 9 9 9h123q8 0 8 -9v-699z" />
    <glyph glyph-name="afii10043" unicode="&#x429;" horiz-adv-x="1107" 
d="M1065 -148q0 -9 -9 -9h-101q-8 0 -8 9v148h-869q-9 0 -9 9v699q0 9 9 9h121q9 0 9 -9v-602h244v602q0 9 9 9h121q9 0 9 -9v-602h249v602q0 9 9 9h123q8 0 8 -9v-602h75q10 0 10 -9v-245z" />
    <glyph glyph-name="afii10044" unicode="&#x42a;" horiz-adv-x="837" 
d="M799 208q0 -104 -76 -156t-216 -52h-248q-9 0 -9 9v600h-204q-9 0 -9 9v90q0 9 9 9h334q9 0 9 -9v-294h128q135 0 208.5 -53t73.5 -153zM651 208q0 57 -38.5 83t-117.5 26h-106v-220h107q155 0 155 111z" />
    <glyph glyph-name="afii10045" unicode="&#x42b;" horiz-adv-x="874" 
d="M804 9q0 -9 -9 -9h-120q-10 0 -10 9v699q0 9 10 9h120q9 0 9 -9v-699zM351 0h-273q-9 0 -9 9v699q0 9 9 9h121q9 0 9 -9v-294h152q120 0 188.5 -56.5t68.5 -149.5q0 -96 -71 -152t-195 -56zM470 208q0 57 -38.5 83t-117.5 26h-106v-220h107q155 0 155 111z" />
    <glyph glyph-name="afii10046" unicode="&#x42c;" horiz-adv-x="656" 
d="M353 0h-275q-9 0 -9 9v699q0 9 9 9h121q9 0 9 -9v-294h154q120 0 188 -56.5t68 -149.5q0 -96 -71 -152t-194 -56zM470 208q0 57 -38.5 83t-117.5 26h-106v-220h107q155 0 155 111z" />
    <glyph glyph-name="afii10047" unicode="&#x42d;" horiz-adv-x="763" 
d="M726 359q0 -167 -100 -269t-250 -102q-128 0 -214 61t-113 169q-5 15 -6 31q0 9 10 9h106q6 0 8 -7q20 -73 75.5 -111t132.5 -38q80 0 139.5 54t68.5 151h-320q-9 0 -9 9v85q0 9 9 9h319l1 1q-10 97 -69.5 151t-138.5 54q-76 0 -131 -38t-76 -112q-2 -7 -9 -7h-105
q-11 0 -11 10q22 123 111.5 192.5t221.5 69.5q150 0 250 -106.5t100 -265.5z" />
    <glyph glyph-name="afii10048" unicode="&#x42e;" horiz-adv-x="1043" 
d="M213 9q0 -9 -9 -9h-120q-10 0 -10 9v699q0 9 10 9h120q9 0 9 -9v-296h75q8 64 34 120.5t69 101.5t108 71t143 26q167 0 264 -106.5t97 -264.5q0 -155 -99 -264.5t-262 -109.5q-152 0 -245.5 90.5t-109.5 231.5h-74v-299zM641 616q-101 0 -161 -72.5t-60 -182.5
q0 -111 61 -185t160 -74q100 0 161 72.5t61 186.5q0 116 -60.5 185.5t-161.5 69.5z" />
    <glyph glyph-name="afii10049" unicode="&#x42f;" horiz-adv-x="689" 
d="M619 9q0 -9 -9 -9h-116q-9 0 -9 9v266h-133q-9 0 -16.5 -3t-12.5 -6t-10.5 -10t-8.5 -11t-7.5 -14.5t-6.5 -15.5t-6 -18t-6 -17l-39 -106q-32 -87 -123 -87q-44 0 -64 6q-12 3 -12 14v85q0 13 10 13q2 0 11 -2.5t19 -2.5q15 0 26 10t21 35l28 69q33 83 88 110
q-154 48 -154 185q0 98 69.5 152.5t187.5 54.5h264q9 0 9 -9v-698zM485 370v244h-125q-59 0 -93.5 -33t-34.5 -88q0 -56 35 -89.5t96 -33.5h122z" />
    <glyph glyph-name="afii10065" unicode="&#x430;" horiz-adv-x="512" 
d="M498 14q0 -6 -7 -8q-36 -12 -69 -12q-78 0 -99 52q-49 -58 -141 -58q-66 0 -108 33.5t-42 86.5q0 32 14 57t44 43t53 27.5t63 22.5l27 9q54 18 66.5 28.5t12.5 33.5q0 60 -66 60q-82 0 -87 -87q0 -8 -8 -8h-94q-9 0 -9 9q2 85 66 128q54 36 133 36q182 0 182 -138v-219
q0 -33 31 -33q4 0 15 0.5t15 0.5q8 0 8 -9v-55zM312 151v85q-34 -19 -65 -32q-55 -24 -75.5 -40.5t-20.5 -46.5q0 -24 19.5 -38t50.5 -14q91 0 91 86z" />
    <glyph glyph-name="afii10066" unicode="&#x431;" horiz-adv-x="553" 
d="M506 230q0 -106 -61 -174t-166 -68q-123 0 -183.5 78t-60.5 207q0 180 59 270t186 124q39 10 71 18l40 10q14 4 27.5 8t25.5 8.5t17 5.5q13 4 13 -8v-87q0 -15 -13 -20q-20 -8 -79 -22q-94 -21 -123 -29q-72 -21 -106 -68t-41 -127h1q1 -1 2 -1q16 44 65 75.5t111 31.5
q99 0 157 -62.5t58 -169.5zM387 230q0 65 -31 106.5t-79 41.5q-57 0 -85.5 -43t-28.5 -108q0 -67 30 -110t83 -43q54 0 82.5 45.5t28.5 110.5z" />
    <glyph glyph-name="afii10067" unicode="&#x432;" horiz-adv-x="504" 
d="M457 125q0 -59 -45 -92t-126 -33h-220q-9 0 -9 9v438q0 9 9 9h215q77 0 119.5 -29t42.5 -83q0 -78 -80 -108v-2q43 -10 68.5 -38.5t25.5 -70.5zM323 325q0 58 -82 58h-70v-122h68q41 0 62.5 17t21.5 47zM332 136q0 62 -90 62h-71v-125h72q89 0 89 63z" />
    <glyph glyph-name="afii10068" unicode="&#x433;" horiz-adv-x="420" 
d="M398 378q0 -9 -10 -9h-212v-360q0 -9 -10 -9h-100q-9 0 -9 9v438q0 9 9 9h322q10 0 10 -9v-69z" />
    <glyph glyph-name="afii10069" unicode="&#x434;" horiz-adv-x="599" 
d="M561 -115q0 -9 -9 -9h-84q-8 0 -8 9v115h-336v-115q0 -9 -9 -9h-83q-9 0 -9 9v188q0 9 9 9h33q86 62 86 239v126q0 2 3 5.5t6 3.5h328q10 0 10 -9v-365h54q9 0 9 -9v-188zM379 79v295h-133v-62q0 -159 -62 -233h195z" />
    <glyph glyph-name="afii10070" unicode="&#x435;" horiz-adv-x="520" 
d="M482 218q0 -9 -9 -9h-323q2 -60 32.5 -99t81.5 -39q71 0 99 65q3 5 9 5h97q9 0 9 -9v-1q-1 -1 -1.5 -2.5t-0.5 -4.5q-19 -55 -73 -95.5t-139 -40.5q-107 0 -168.5 68.5t-61.5 171.5t63 171.5t167 68.5q97 0 158 -64t60 -186zM367 276q-5 52 -33 81t-70 29
q-44 0 -74.5 -31t-37.5 -79h215z" />
    <glyph glyph-name="afii10072" unicode="&#x436;" horiz-adv-x="806" 
d="M345 447q0 9 10 9h98q9 0 9 -9v-184h37q35 0 51 28l62 110q20 34 43 50.5t62 16.5q27 0 47 -5q8 -1 8 -9v-75q0 -11 -11 -8q-20 4 -23 4q-15 0 -25 -9t-24 -34l-26 -44q-27 -45 -62 -61v-4q38 -18 61 -68l19 -39q16 -34 54 -34q15 0 35 4q9 2 9 -7v-75q0 -8 -7 -10
q-18 -6 -58 -6q-90 0 -126 73l-46 96q-8 17 -17.5 24t-29.5 7h-33v-179q0 -9 -9 -9h-98q-10 0 -10 9v179h-33q-20 0 -29.5 -7t-17.5 -24l-46 -96q-36 -73 -126 -73q-40 0 -58 6q-7 2 -7 10v75q0 9 9 7q20 -4 35 -4q38 0 54 34l19 39q23 50 61 68v4q-35 16 -62 61l-26 44
q-14 25 -24 34t-25 9q-3 0 -23 -4q-11 -3 -11 8v75q0 8 8 9q20 5 47 5q39 0 62 -16.5t43 -50.5l62 -110q16 -28 51 -28h37v184z" />
    <glyph glyph-name="afii10073" unicode="&#x437;" horiz-adv-x="496" 
d="M444 122q0 -61 -55.5 -97.5t-149.5 -36.5q-96 0 -145.5 42.5t-51.5 112.5v2q0 9 8 9h88q10 0 10 -9q3 -79 89 -79q40 0 62 19.5t22 46.5q0 28 -19 45t-49 17h-42q-10 0 -10 9v52q0 9 10 9h42q30 0 48 17t18 44q0 29 -24 47t-58 18q-40 0 -63.5 -21t-25.5 -56q0 -9 -9 -9
h-86q-9 0 -9 9q-1 66 50 110.5t148 44.5t147.5 -39t50.5 -93q0 -38 -24.5 -66.5t-70.5 -40.5q46 -9 72.5 -38t26.5 -69z" />
    <glyph glyph-name="afii10074" unicode="&#x438;" horiz-adv-x="547" 
d="M489 9q0 -9 -8 -9h-102q-8 0 -8 9v277h-1l-195 -245v-32q0 -9 -8 -9h-102q-8 0 -8 9v438q0 9 8 9h102q8 0 8 -9v-275h1l195 245v30q0 9 8 9h102q8 0 8 -9v-438z" />
    <glyph glyph-name="afii10075" unicode="&#x439;" horiz-adv-x="547" 
d="M489 9q0 -9 -8 -9h-102q-8 0 -8 9v277h-1l-195 -245v-32q0 -9 -8 -9h-102q-8 0 -8 9v438q0 9 8 9h102q8 0 8 -9v-275h1l195 245v30q0 9 8 9h102q8 0 8 -9v-438zM422 634q0 -53 -39 -83t-114 -30t-113.5 30t-38.5 83q0 39 11 39h70q9 0 9 -9v-13q0 -62 62 -62q63 0 63 62
v13q0 9 9 9h70q11 0 11 -39z" />
    <glyph glyph-name="afii10076" unicode="&#x43a;" horiz-adv-x="521" 
d="M209 188h-33v-179q0 -9 -9 -9h-98q-10 0 -10 9v438q0 9 10 9h98q9 0 9 -9v-184h37q35 0 51 28l62 110q20 34 43 50.5t62 16.5q27 0 47 -5q8 -1 8 -9v-75q0 -11 -11 -8q-20 4 -23 4q-15 0 -25 -9t-24 -34l-26 -44q-27 -45 -62 -61v-4q38 -18 61 -68l19 -39q16 -34 54 -34
q15 0 35 4q9 2 9 -7v-75q0 -8 -7 -10q-18 -6 -58 -6q-90 0 -126 73l-46 96q-8 17 -17.5 24t-29.5 7z" />
    <glyph glyph-name="afii10077" unicode="&#x43b;" horiz-adv-x="534" 
d="M477 9q0 -9 -9 -9h-101q-9 0 -9 9v365h-135v-114q0 -130 -30 -186q-41 -79 -135 -79q-38 0 -38 10v76q0 8 9 8h10q47 0 66 36q17 32 17 103v219q0 9 9 9h336q10 0 10 -9v-438z" />
    <glyph glyph-name="afii10078" unicode="&#x43c;" horiz-adv-x="633" 
d="M576 9q0 -9 -10 -9h-92q-9 0 -9 9v323h-2l-114 -326q-3 -6 -9 -6h-65q-5 0 -9 6l-115 326h-2v-323q0 -9 -10 -9h-73q-9 0 -9 9v438q0 9 9 9h132q6 0 10 -6q63 -182 109 -313h1l108 313q2 6 9 6h131q10 0 10 -9v-438z" />
    <glyph glyph-name="afii10079" unicode="&#x43d;" horiz-adv-x="535" 
d="M477 9q0 -9 -9 -9h-101q-8 0 -8 9v178h-183v-178q0 -9 -9 -9h-101q-9 0 -9 9v438q0 9 9 9h101q9 0 9 -9v-177h183v177q0 9 8 9h101q9 0 9 -9v-438z" />
    <glyph glyph-name="afii10080" unicode="&#x43e;" horiz-adv-x="544" 
d="M509 229q0 -103 -64 -172t-173 -69t-173.5 69t-64.5 172q0 105 66 172t172 67q109 0 173 -68t64 -171zM389 230q0 72 -30.5 112.5t-85.5 40.5q-56 0 -87 -44.5t-31 -110.5q0 -68 31.5 -111.5t84.5 -43.5q55 0 86.5 44t31.5 113z" />
    <glyph glyph-name="afii10081" unicode="&#x43f;" horiz-adv-x="534" 
d="M476 9q0 -9 -9 -9h-100q-9 0 -9 9v361h-183v-361q0 -9 -9 -9h-100q-9 0 -9 9v438q0 9 9 9h401q9 0 9 -9v-438z" />
    <glyph glyph-name="afii10082" unicode="&#x440;" horiz-adv-x="550" 
d="M515 228q0 -107 -58 -174t-145 -67q-86 0 -136 58v-266q0 -9 -9 -9h-101q-9 0 -9 9v668q0 9 9 9h86q7 0 9 -8q7 -36 8 -42q54 62 141 62t146 -64.5t59 -175.5zM395 228q0 74 -30.5 114t-81.5 40q-45 0 -76 -27.5t-31 -79.5v-94q0 -51 30.5 -80t76.5 -29q53 0 82.5 41.5
t29.5 114.5z" />
    <glyph glyph-name="afii10083" unicode="&#x441;" horiz-adv-x="514" 
d="M473 162q0 -4 -2 -14q-13 -66 -66 -113t-140 -47q-107 0 -169 69t-62 171t62 171t169 69q92 0 150 -53.5t58 -116.5q0 -9 -9 -9h-88q-8 0 -9 9q-7 41 -33.5 63t-65.5 22q-51 0 -82 -42.5t-31 -112.5q0 -72 32 -113.5t81 -41.5q39 0 66.5 25.5t33.5 63.5q2 9 9 9h87
q9 0 9 -9z" />
    <glyph glyph-name="afii10084" unicode="&#x442;" horiz-adv-x="479" 
d="M457 380q0 -9 -10 -9h-149v-362q0 -9 -9 -9h-100q-9 0 -9 9v362h-149q-9 0 -9 9v67q0 9 9 9h416q10 0 10 -9v-67z" />
    <glyph glyph-name="afii10085" unicode="&#x443;" horiz-adv-x="476" 
d="M464 449q0 -4 -1 -6l-182 -481q-37 -97 -58 -128q-49 -72 -136 -72q-40 0 -74 13q-6 3 -6 8l1 2q0 3 1 5l19 70q2 6 8 6q2 0 8 -2q32 -8 48 -8q43 0 72 70q11 27 11 44q0 13 -4 26q-2 6 -9 28l-151 421q0 1 -0.5 2t-0.5 2q0 7 9 7h106q8 0 12 -9l110 -328l118 328
q4 9 12 9h80q7 0 7 -7z" />
    <glyph glyph-name="afii10086" unicode="&#x444;" horiz-adv-x="780" 
d="M743 228q0 -108 -50 -173.5t-128 -65.5q-67 0 -114 57q-1 0 -1 -0.5t-1 -0.5v-266q0 -7 -9 -9h-100q-9 0 -9 9v266q-1 0 -1 0.5t-1 0.5q-47 -57 -114 -57q-78 0 -128.5 65.5t-50.5 173.5t50.5 174t128.5 66q68 0 114 -56h2v282q0 9 9 9h100q9 -5 9 -9v-282h2
q48 56 114 56q78 0 128 -65.5t50 -174.5zM624 228q-2 160 -90 160q-28 0 -46 -13t-26 -38.5t-11 -52t-3 -64.5q0 -72 19 -112t67 -40q88 0 90 160zM331 185q0 33 -0.5 50t-2.5 45t-7.5 43.5t-14.5 32.5t-24.5 24.5t-36.5 7.5q-89 0 -89 -160q0 -157 94 -157q36 0 56.5 30.5
t24.5 83.5z" />
    <glyph glyph-name="afii10087" unicode="&#x445;" horiz-adv-x="511" 
d="M489 7q0 -7 -8 -7h-118q-6 0 -11 7l-106 143l-112 -144q-3 -6 -11 -6h-93q-8 0 -8 7q0 3 5 8l164 209l-159 217q-3 6 -3 8q0 7 8 7h119q6 0 10 -5l99 -136l105 136q3 5 11 5h90q8 0 8 -7q0 -2 -5 -10l-155 -198l165 -226q5 -5 5 -8z" />
    <glyph glyph-name="afii10088" unicode="&#x446;" horiz-adv-x="564" 
d="M527 -115q0 -9 -10 -9h-83q-9 0 -9 9v115h-360q-8 0 -8 9v438q0 9 8 9h101q9 0 9 -9v-368h173v368q0 9 8 9h100q10 0 10 -9v-365h51q10 0 10 -9v-188z" />
    <glyph glyph-name="afii10089" unicode="&#x447;" horiz-adv-x="515" 
d="M457 9q0 -9 -9 -9h-99q-9 0 -10 9v164q-67 -23 -119 -23q-78 0 -123 38.5t-45 111.5v147q0 9 9 9h100q9 0 9 -9v-139q0 -37 20 -56.5t55 -19.5q43 0 94 19v196q0 9 9 9h100q9 0 9 -9v-438z" />
    <glyph glyph-name="afii10090" unicode="&#x448;" horiz-adv-x="757" 
d="M699 9q0 -9 -9 -9h-624q-9 0 -9 9v438q0 9 9 9h101q9 0 9 -9v-368h143v368q0 9 9 9h100q9 0 9 -9v-368h143v368q0 9 9 9h100q3 0 6.5 -3t3.5 -6v-438z" />
    </font>
</defs>
</svg>
