<?xml version="1.0" standalone="no"?>
<!DOCTYPE svg PUBLIC "-//W3C//DTD SVG 1.1//EN" "http://www.w3.org/Graphics/SVG/1.1/DTD/svg11.dtd" >
<svg>
<metadata>
Created by FontForge 20120731 at Tue Nov 24 13:22:43 2015
 By ,,,
Copyright (c) 2006 by Nick Shinn. All rights reserved.
</metadata>
<defs>
<font id="FigginsSans" horiz-adv-x="0" >
  <font-face 
    font-family="Figgins Sans"
    font-weight="400"
    font-stretch="normal"
    units-per-em="1000"
    panose-1="2 4 5 4 9 7 0 0 0 3"
    ascent="746"
    descent="-254"
    x-height="446"
    cap-height="717"
    bbox="-535 -321 1667 940"
    underline-thickness="26"
    underline-position="-107"
    unicode-range="U+000D-FB04"
  />
<missing-glyph horiz-adv-x="619" 
 />
    <glyph glyph-name="f_j" unicode="fj" horiz-adv-x="459" 
d="M401 559q0 -9 -10 -9h-44q-9 0 -9 9v59q0 9 9 9h44q10 0 10 -9v-59zM401 437h1v-576q0 -47 -29 -71.5t-70 -24.5h-17q-9 0 -9 9v38q0 9 9 9h17q35 0 35 40v576q0 9 9 9h44q10 0 10 -9zM276 401q0 -9 -9 -9h-110v-383q0 -9 -10 -9h-45q-9 0 -9 9v383h-84q-9 0 -9 9v36
q0 9 9 9h84v124q0 65 40 104.5t104 39.5h3q36 0 36 -11v-35q0 -9 -9 -9q-1 0 -4 0.5t-10 0.5h-16q-80 0 -80 -90v-124h110q9 0 9 -9v-36z" />
    <glyph glyph-name="ff" unicode="ff" horiz-adv-x="503" 
d="M503 401q0 -9 -9 -9h-110v-383q0 -9 -10 -9h-45q-9 0 -9 9v383h-163v-383q0 -9 -10 -9h-45q-9 0 -9 9v383h-84q-9 0 -9 9v36q0 9 9 9h84v127q0 65 40 104.5t104 39.5q14 0 30 -2q9 -1 9 -9v-35q0 -9 -9 -9h-4t-10 0.5t-16 0.5q-80 0 -80 -90v-127h163v127q0 65 40 104.5
t104 39.5q14 0 30 -2q9 -1 9 -9v-35q0 -9 -9 -9t-16 1h-14q-80 0 -80 -90v-127h110q9 0 9 -9v-36z" />
    <glyph glyph-name="fi" unicode="fi" horiz-adv-x="459" 
d="M401 559q0 -9 -10 -9h-44q-9 0 -9 9v59q0 9 9 9h44q10 0 10 -9v-59zM401 9q0 -9 -10 -9h-44q-9 0 -9 9v428q0 9 9 9h44q10 0 10 -9v-428zM276 401q0 -9 -9 -9h-110v-383q0 -9 -10 -9h-45q-9 0 -9 9v383h-84q-9 0 -9 9v36q0 9 9 9h84v127q0 65 40.5 105.5t103.5 40.5h3
q36 0 36 -11v-37q0 -9 -9 -9h-4t-10 0.5t-16 0.5q-80 0 -80 -90v-127h110q9 0 9 -9v-36z" />
    <glyph glyph-name="fl" unicode="fl" horiz-adv-x="463" 
d="M402 9q0 -9 -10 -9h-45q-9 0 -9 9v699q0 9 9 9h45q10 0 10 -9v-699zM276 401q0 -9 -9 -9h-110v-383q0 -9 -10 -9h-45q-9 0 -9 9v383h-84q-9 0 -9 9v36q0 9 9 9h84v127q0 65 40 104.5t104 39.5h3q36 0 36 -11v-35q0 -9 -9 -9h-4t-10 0.5t-16 0.5q-80 0 -80 -90v-127h110
q9 0 9 -9v-36z" />
    <glyph glyph-name="ffi" unicode="ffi" horiz-adv-x="690" 
d="M503 401q0 -9 -9 -9h-110v-383q0 -9 -10 -9h-45q-9 0 -9 9v383h-163v-383q0 -9 -10 -9h-45q-9 0 -9 9v383h-84q-9 0 -9 9v36q0 9 9 9h84v127q0 65 40 104.5t104 39.5q14 0 30 -2q9 -1 9 -9v-35q0 -9 -9 -9h-4t-10 0.5t-16 0.5q-80 0 -80 -90v-127h163v127q0 65 40 104.5
t104 39.5q14 0 30 -2q9 -1 9 -9v-35q0 -9 -9 -9t-16 1h-14q-80 0 -80 -90v-127h110q9 0 9 -9v-36zM632 559q0 -9 -10 -9h-52q-9 0 -9 9v59q0 9 9 9h52q10 0 10 -9v-59zM629 9q0 -9 -10 -9h-45q-9 0 -9 9v428q0 9 9 9h45q10 0 10 -9v-428z" />
    <glyph glyph-name="ffl" unicode="ffl" horiz-adv-x="692" 
d="M503 401q0 -9 -9 -9h-110v-383q0 -9 -10 -9h-45q-9 0 -9 9v383h-163v-383q0 -9 -10 -9h-45q-9 0 -9 9v383h-84q-9 0 -9 9v36q0 9 9 9h84v127q0 65 40 104.5t104 39.5q14 0 30 -2q9 -1 9 -9v-35q0 -9 -9 -9h-4t-10 0.5t-16 0.5q-80 0 -80 -90v-127h163v127q0 65 40 104.5
t104 39.5q14 0 30 -2q9 -1 9 -9v-35q0 -9 -9 -9h-11q-11 1 -19 1q-80 0 -80 -90v-127h110q9 0 9 -9v-36zM630 9q0 -9 -10 -9h-45q-9 0 -9 9v699q0 9 9 9h45q10 0 10 -9v-699z" />
    <glyph glyph-name=".notdef" horiz-adv-x="619" 
 />
    <glyph glyph-name=".null" 
 />
    <glyph glyph-name="nonmarkingreturn" horiz-adv-x="333" 
 />
    <glyph glyph-name="CR" unicode="&#xd;" horiz-adv-x="934" 
 />
    <glyph glyph-name="space" unicode=" " horiz-adv-x="258" 
 />
    <glyph glyph-name="exclam" unicode="!" horiz-adv-x="256" 
d="M167 708q0 -16 -4 -223t-4 -296v-21q0 -9 -10 -9h-41q-9 0 -9 9v21q0 89 -5 296t-5 223q0 9 9 9h60q9 0 9 -9zM166 9q0 -9 -9 -9h-58q-9 0 -9 9v70q0 9 9 9h58q9 0 9 -9v-70z" />
    <glyph glyph-name="quotedbl" unicode="&#x22;" horiz-adv-x="368" 
d="M291 449q0 -9 -9 -9h-46q-9 0 -9 9v259q0 9 9 9h46q9 0 9 -9v-259zM142 449q0 -9 -10 -9h-45q-9 0 -9 9v259q0 9 9 9h45q10 0 10 -9v-259z" />
    <glyph glyph-name="numbersign" unicode="#" horiz-adv-x="649" 
d="M570 453l-6 -34q-1 -7 -9 -7h-128l-24 -160h124q9 0 9 -6v-1l-5 -35q-1 -8 -10 -8h-127l-29 -194q-2 -8 -10 -8h-33q-9 0 -9 9v1l29 192h-159l-31 -194q-2 -8 -9 -8h-33q-9 0 -9 8v2l30 192h-125q-9 0 -9 7v1l6 36q1 6 8 6h127l25 160h-124q-9 0 -9 6v1l6 35q1 7 9 7h126
l27 180q2 8 9 8h34q9 0 9 -9v-1l-25 -178h158l26 180q2 8 9 8h33q9 0 9 -9v-1l-24 -178h123q11 0 11 -7v-1zM374 412h-158l-23 -160h157z" />
    <glyph glyph-name="dollar" unicode="$" horiz-adv-x="572" 
d="M499 171q0 -73 -49.5 -117t-136.5 -54v-53q0 -9 -9 -9h-40q-10 0 -10 9v53q-90 9 -137.5 53t-47.5 96q0 10 9 10h48q9 0 9 -8q3 -40 35.5 -65.5t83.5 -32.5v256q-41 15 -68 27.5t-54.5 33t-41 49t-13.5 65.5q0 72 49.5 118.5t127.5 56.5v49q0 9 10 9h40q9 0 9 -9v-49
q87 -9 133.5 -58t46.5 -100q0 -10 -9 -10h-47q-10 0 -10 8q-3 42 -34 71.5t-80 36.5v-255q43 -15 70.5 -28t57 -34.5t44 -51t14.5 -67.5zM254 373v234q-55 -10 -84.5 -42t-29.5 -79q0 -39 28.5 -64.5t85.5 -48.5zM436 170q0 42 -30.5 68t-92.5 50v-235q64 9 93.5 37.5
t29.5 79.5z" />
    <glyph glyph-name="percent" unicode="%" horiz-adv-x="720" 
d="M349 553q0 -71 -39.5 -123.5t-110.5 -52.5q-70 0 -110 52t-40 123t40 123t110 52q71 0 110.5 -51.5t39.5 -122.5zM582 703q0 -2 -1 -4l-386 -694q-3 -5 -9 -5h-48q-9 0 -9 9q0 3 1 4l384 694q2 5 8 5h51q9 0 9 -8v-1zM660 161q0 -71 -39.5 -123.5t-109.5 -52.5
q-71 0 -111 52t-40 123t40 123t111 52t110 -51.5t39 -122.5zM293 552q0 50 -25 87t-69 37t-68.5 -37t-24.5 -87t24.5 -87t68.5 -37t69 37t25 87zM604 160q0 50 -24.5 87t-68.5 37t-68.5 -37t-24.5 -87t24.5 -87t68.5 -37t68.5 37t24.5 87z" />
    <glyph glyph-name="ampersand" unicode="&#x26;" horiz-adv-x="836" 
d="M812 92q0 -3 -1 -5q-33 -60 -66.5 -82.5t-77.5 -22.5q-52 0 -90.5 21t-89.5 77q-108 -98 -216 -98q-99 0 -160 60t-61 143q0 148 175 221q-61 92 -61 150q0 79 51.5 126.5t122.5 47.5q70 0 117 -42t47 -108q0 -32 -12.5 -60t-27 -45t-46 -36.5t-47.5 -27.5t-54 -25
q25 -35 51 -67t70 -82.5t56 -64.5q100 130 124 262q2 7 9 7h48q9 0 9 -9v-2q-14 -76 -56 -157.5t-96 -147.5q45 -50 76 -68.5t62 -18.5q28 0 46 16t44 60q3 4 7 4q2 0 4 -1l39 -19q4 -1 4 -6zM439 580q0 41 -29 67t-72 26q-49 0 -78.5 -31t-29.5 -84q0 -46 53 -125
q85 36 114 61q42 36 42 86zM448 124q-14 17 -48.5 56.5t-52 60.5t-44 54t-47.5 63q-66 -31 -103 -70t-37 -99q0 -62 43.5 -105.5t116.5 -43.5q85 0 172 84z" />
    <glyph glyph-name="quotesingle" unicode="'" horiz-adv-x="162" 
d="M113 444q0 -9 -10 -9h-45q-9 0 -9 9v264q0 9 9 9h45q10 0 10 -9v-264z" />
    <glyph glyph-name="parenleft" unicode="(" horiz-adv-x="331" 
d="M301 -238l-30 -22q-4 -3 -8 -3q-5 0 -10 5q-91 103 -138 230t-47 260t47 260t138 230q5 5 10 5q3 0 8 -3l30 -22q4 -3 4 -7q0 -3 -3 -6q-168 -195 -168 -457t168 -457q3 -3 3 -6q0 -4 -4 -7z" />
    <glyph glyph-name="parenright" unicode=")" horiz-adv-x="331" 
d="M265 232q0 -133 -47 -260t-138 -230q-5 -5 -10 -5q-4 0 -8 3l-30 22q-4 3 -4 7q0 3 3 6q168 195 168 457t-168 457q-3 3 -3 6q0 4 4 7l30 22q4 3 8 3q5 0 10 -5q91 -103 138 -230t47 -260z" />
    <glyph glyph-name="asterisk" unicode="*" horiz-adv-x="411" 
d="M249 561l107 -59q9 -5 4 -13l-15 -25q-5 -9 -13 -3l-104 63l3 -122q0 -8 -10 -10h-31q-9 2 -9 10l2 122l-104 -63q-8 -6 -13 3l-15 25q-4 9 4 13l107 59l-107 59q-9 5 -4 13l15 25q5 9 13 3l104 -63l-2 122q0 8 9 10h31q10 -2 10 -10l-3 -122l104 63q8 6 13 -3l15 -25
q5 -8 -4 -13z" />
    <glyph glyph-name="plus" unicode="+" horiz-adv-x="584" 
d="M539 220q0 -9 -10 -9h-209v-202q0 -9 -9 -9h-37q-9 0 -9 9v202h-210q-10 0 -10 9v37q0 9 10 9h210v202q0 9 9 9h37q9 0 9 -9v-202h209q10 0 10 -9v-37z" />
    <glyph glyph-name="comma" unicode="," horiz-adv-x="206" 
d="M144 -1q0 -47 -25 -77.5t-57 -41.5q-2 -1 -5 -1q-5 0 -5 7v40q0 6 5 8q39 18 40 66h-23q-9 0 -9 9v70q0 9 9 9h61q9 0 9 -9v-80z" />
    <glyph glyph-name="hyphen" unicode="-" horiz-adv-x="351" 
d="M299 214q0 -9 -10 -9h-225q-9 0 -9 9v46q0 9 9 9h225q10 0 10 -9v-46z" />
    <glyph glyph-name="period" unicode="." horiz-adv-x="206" 
d="M143 9q0 -9 -9 -9h-61q-9 0 -9 9v70q0 9 9 9h61q9 0 9 -9v-70z" />
    <glyph glyph-name="slash" unicode="/" horiz-adv-x="360" 
d="M322 730h47q7 0 7 -6q0 -3 -1 -5l-347 -796q-2 -5 -8 -5h-46q-7 0 -7 6q0 3 1 5l346 796q2 5 8 5z" />
    <glyph glyph-name="zero" unicode="0" horiz-adv-x="500" 
d="M465 325q0 -158 -54.5 -249t-160.5 -91t-160.5 91t-54.5 249t54.5 248.5t160.5 90.5t160.5 -90.5t54.5 -248.5zM398 326q0 282 -148 282t-148 -284q0 -283 148 -283t148 285z" />
    <glyph glyph-name="one" unicode="1" horiz-adv-x="500" 
d="M441 9q0 -9 -9 -9h-382q-9 0 -9 9v40q0 9 9 9h168v477h-168q-9 0 -9 9v36q0 9 9 9l104 4q52 2 72 44l6 13q5 8 9 8h35q10 0 10 -9v-591h146q9 0 9 -9v-40z" />
    <glyph glyph-name="two" unicode="2" horiz-adv-x="500" 
d="M441 9q0 -9 -9 -9h-382q-9 0 -9 12q0 31 24 73q41 70 161 167q4 3 25.5 20t25.5 20.5t21.5 18.5t22 21.5t17 21t16 24.5t10 24.5t8.5 30t2 32.5q0 63 -35.5 103t-91.5 40q-60 0 -95 -42.5t-39 -120.5q0 -9 -9 -9h-49q-9 0 -9 9q0 37 10.5 73t32.5 70t63 55t95 21
q85 0 139.5 -56t54.5 -141q0 -24 -5 -46t-10 -38.5t-19 -36t-21.5 -30t-28 -29.5t-28.5 -25.5t-33.5 -26.5t-31.5 -25q-81 -65 -106 -96q-24 -28 -35 -56h309q9 0 9 -9v-40z" />
    <glyph glyph-name="three" unicode="3" horiz-adv-x="500" 
d="M447 175q0 -79 -60 -134.5t-155 -55.5q-87 0 -147 46.5t-60 118.5v2q0 8 9 8h48q8 0 10 -8q7 -53 43.5 -83t96.5 -30q67 0 107.5 39t40.5 97q0 62 -38 99.5t-110 37.5h-78q-9 0 -9 9v36q0 9 9 9h78q56 0 89.5 34.5t33.5 87.5q0 52 -34 87t-89 35t-88 -32t-35 -79
q0 -9 -13 -9h-44q-10 0 -10 9q0 23 10 49t30 53t59.5 45t90.5 18q86 0 138 -51.5t52 -124.5q0 -43 -25 -83.5t-69 -59.5q58 -18 88.5 -65t30.5 -105z" />
    <glyph glyph-name="four" unicode="4" horiz-adv-x="500" 
d="M455 196q0 -9 -10 -9h-96v-188q0 -9 -9 -9h-46q-9 0 -9 9v188h-269q-9 0 -9 9v34q0 10 8 20l280 403q4 4 8 4h37q9 0 9 -9v-410h96q10 0 10 -9v-33zM285 238v312l-214 -312h214z" />
    <glyph glyph-name="five" unicode="5" horiz-adv-x="500" 
d="M453 205q0 -96 -63 -158t-157 -62q-81 0 -136 44t-65 121v1q0 9 9 9h43q10 0 11 -9q10 -50 46 -81t97 -31q64 0 106 47t42 119q0 70 -42 116.5t-109 46.5q-33 0 -68 -15t-59 -40q-3 -3 -7 -3h-33q-9 0 -9 9v1l31 321q0 8 9 8h304q9 0 9 -9v-40q0 -9 -9 -9h-259l-22 -207
q55 39 120 39q93 0 152 -62t59 -156z" />
    <glyph glyph-name="six" unicode="6" horiz-adv-x="500" 
d="M464 202q0 -92 -59 -154.5t-149 -62.5q-57 0 -100 24.5t-67 67t-35 91t-11 103.5q0 38 1.5 70.5t7 74.5t15 75t26 66.5t39.5 56t57 36.5t76 14q48 0 85.5 -18.5t56.5 -46t28 -52t9 -43.5q0 -10 -8 -10h-47q-7 0 -9 9q-4 44 -32.5 75.5t-83.5 31.5q-32 0 -57 -12
t-48 -41.5t-36.5 -85.5t-16.5 -137q19 39 60.5 67t101.5 28q80 0 138 -59t58 -168zM400 207q0 80 -38 122.5t-104 42.5q-64 0 -106 -43.5t-42 -109.5q0 -70 39.5 -124t106.5 -54q64 0 104 45t40 121z" />
    <glyph glyph-name="seven" unicode="7" horiz-adv-x="500" 
d="M467 624l-1 -5q-104 -160 -178 -337q-65 -152 -65 -284q0 -8 -10 -8h-47q-9 0 -9 9v1q0 112 52.5 251t174.5 343h-281q-11 0 -12 -12l-11 -84q-2 -8 -9 -8h-38q-9 0 -9 8v2l10 141q0 8 9 8h415q9 0 9 -9v-16z" />
    <glyph glyph-name="eight" unicode="8" horiz-adv-x="500" 
d="M465 163q0 -81 -60.5 -129.5t-155.5 -48.5t-155 47t-60 131q0 119 147 174q-121 51 -121 159q0 72 52.5 120t136.5 48q85 0 137.5 -47t52.5 -121q0 -52 -35 -93t-84 -62q145 -56 145 -178zM374 496q0 52 -33.5 83.5t-90.5 31.5q-62 0 -93 -33.5t-31 -81.5
q0 -44 29.5 -74.5t101.5 -56.5q117 47 117 131zM398 163q0 52 -33.5 87t-119.5 65q-85 -30 -114 -65t-29 -87q0 -57 40 -91t108 -34q67 0 107.5 35.5t40.5 89.5z" />
    <glyph glyph-name="nine" unicode="9" horiz-adv-x="500" 
d="M35 447q0 92 59 154.5t149 62.5q57 0 100 -24.5t67 -67t35 -91t11 -103.5q0 -38 -1.5 -70.5t-7 -74.5t-15 -75t-26 -66.5t-39.5 -56t-57 -36.5t-76 -14q-48 0 -85.5 18.5t-56.5 46t-28 52t-9 43.5q0 10 8 10h47q8 0 9 -9q4 -44 32.5 -75.5t83.5 -31.5q32 0 57 12t48 41.5
t36.5 85.5t16.5 137q-19 -39 -60.5 -67t-101.5 -28q-80 0 -138 59t-58 168zM99 442q0 -80 38 -122.5t104 -42.5q64 0 106 43.5t42 109.5q0 70 -39.5 124t-106.5 54q-64 0 -104 -45t-40 -121z" />
    <glyph glyph-name="colon" unicode=":" horiz-adv-x="255" 
d="M167 309q0 -9 -9 -9h-61q-9 0 -9 9v70q0 9 9 9h61q9 0 9 -9v-70zM167 9q0 -9 -9 -9h-61q-9 0 -9 9v70q0 9 9 9h61q9 0 9 -9v-70z" />
    <glyph glyph-name="semicolon" unicode=";" horiz-adv-x="255" 
d="M165 309q0 -9 -9 -9h-61q-9 0 -9 9v70q0 9 9 9h61q9 0 9 -9v-70zM167 -1q0 -47 -24 -76.5t-56 -41.5q-2 -1 -4 -1q-8 0 -8 9v37q0 6 5 8q39 18 40 66h-23q-9 0 -9 9v70q0 9 9 9h61q9 0 9 -9v-80z" />
    <glyph glyph-name="less" unicode="&#x3c;" horiz-adv-x="584" 
d="M506 12q0 -10 -9 -10q-1 0 -5 2l-409 202q-5 2 -5 9v34q0 7 5 9l409 201q4 2 5 2q9 0 9 -10v-39q0 -6 -5 -9l-350 -172l350 -171q5 -2 5 -8v-40z" />
    <glyph glyph-name="equal" unicode="=" horiz-adv-x="584" 
d="M530 290q0 -9 -9 -9h-458q-9 0 -9 9v36q0 9 9 9h458q9 0 9 -9v-36zM530 131q0 -9 -9 -9h-458q-9 0 -9 9v36q0 9 9 9h458q9 0 9 -9v-36z" />
    <glyph glyph-name="greater" unicode="&#x3e;" horiz-adv-x="584" 
d="M506 215q0 -7 -5 -9l-409 -202q-2 -1 -5 -1q-9 0 -9 9v40q0 6 5 8l348 171l-348 172q-5 3 -5 9v39q0 9 9 9q3 0 5 -1l409 -201q5 -2 5 -9v-34z" />
    <glyph glyph-name="question" unicode="?" horiz-adv-x="424" 
d="M389 557q0 -68 -77 -145q-54 -54 -70 -79q-29 -46 -33 -108l-3 -57q0 -9 -9 -9h-37q-10 0 -10 8q0 5 -2 23t-2 37q0 52 18 93.5t43 68t50.5 51t43.5 54t18 64.5q0 54 -32.5 83.5t-78.5 29.5q-49 0 -82 -31t-34 -78q0 -9 -11 -9h-41q-9 0 -9 10q0 66 50.5 115t130.5 49
q72 0 124.5 -44.5t52.5 -125.5zM214 9q0 -9 -9 -9h-57q-9 0 -9 9v70q0 9 9 9h57q9 0 9 -9v-70z" />
    <glyph glyph-name="at" unicode="@" horiz-adv-x="821" 
d="M754 310q0 -59 -21.5 -113.5t-69.5 -93.5t-112 -39q-95 0 -101 58q-60 -58 -104 -58q-49 0 -77.5 34.5t-28.5 101.5q0 105 64 180t136 75q50 0 63 -54l15 34q3 7 10 7h34q9 0 9 -8v-3l-65 -266q-2 -8 -2 -20q0 -29 56 -29q53 0 92.5 57t39.5 137q0 50 -14.5 95t-43.5 83
t-79 61t-114 23q-72 0 -132.5 -27.5t-99.5 -72.5t-60.5 -101.5t-21.5 -116.5q0 -143 79 -225t236 -82q57 0 99.5 14t100.5 45q1 1 4 1q4 0 7 -4l20 -30q1 -1 1 -4q0 -5 -5 -7q-113 -70 -227 -70q-98 0 -172.5 29t-118 79.5t-64.5 114t-21 138.5q0 70 25.5 136.5t72 119.5
t119.5 85.5t159 32.5q79 0 140.5 -28t98 -75t55 -101.5t18.5 -112.5zM484 332q0 31 -11.5 50.5t-31.5 19.5q-55 0 -97.5 -61t-42.5 -141q0 -40 17 -61t37 -21t36 6.5t28.5 22t20.5 27t16 36t10.5 33.5t9.5 34q8 30 8 55z" />
    <glyph glyph-name="A" unicode="A" horiz-adv-x="664" 
d="M647 8q0 -8 -10 -8h-60q-6 0 -9 6l-91 234h-300l-89 -234q-3 -6 -9 -6h-53q-9 0 -9 8l1 4l274 699q2 6 8 6h65q6 0 8 -6l273 -699q1 -3 1 -4zM326 632l-129 -337h259l-128 337h-2z" />
    <glyph glyph-name="B" unicode="B" horiz-adv-x="614" 
d="M570 200q0 -81 -61 -140.5t-167 -59.5h-259q-9 0 -9 9v699q0 9 9 9h245q98 0 154.5 -54t56.5 -133q0 -44 -25.5 -86.5t-75.5 -63.5v-2q67 -23 99.5 -73t32.5 -105zM464 528q0 50 -34.5 88.5t-105.5 38.5h-179v-257h177q74 0 108 37.5t34 92.5zM496 200q0 61 -43.5 99.5
t-114.5 38.5h-193v-276h193q78 0 118 41t40 97z" />
    <glyph glyph-name="C" unicode="C" horiz-adv-x="759" 
d="M711 234q-26 -116 -113 -181t-218 -65q-143 0 -242 105t-99 266t99 266t242 105q131 0 218 -65t113 -181v-2q0 -9 -10 -9h-52q-7 0 -9 7q-27 95 -94.5 141t-165.5 46q-110 0 -188.5 -82.5t-78.5 -225.5t78.5 -225.5t188.5 -82.5q98 0 165.5 46t94.5 141q2 7 9 7h52
q10 0 10 -9v-2z" />
    <glyph glyph-name="D" unicode="D" horiz-adv-x="696" 
d="M659 374q0 -166 -88.5 -270t-254.5 -104h-233q-9 0 -9 9v699q0 9 9 9h249q81 0 145.5 -30t103 -79.5t58.5 -109.5t20 -124zM585 374q0 51 -16 100t-45.5 90t-79 66t-111.5 25h-188v-593h172q127 0 197.5 83.5t70.5 228.5z" />
    <glyph glyph-name="E" unicode="E" horiz-adv-x="603" 
d="M561 9q0 -9 -9 -9h-469q-9 0 -9 9v699q0 9 9 9h443q9 0 9 -9v-46q0 -9 -9 -9h-381v-262h228q9 0 9 -9v-44q0 -9 -9 -9h-228v-265h407q9 0 9 -9v-46z" />
    <glyph glyph-name="F" unicode="F" horiz-adv-x="564" 
d="M535 662q0 -9 -9 -9h-381v-261h228q9 0 9 -9v-46q0 -9 -9 -9h-228v-319q0 -9 -9 -9h-53q-9 0 -9 9v699q0 9 9 9h443q9 0 9 -9v-46z" />
    <glyph glyph-name="G" unicode="G" horiz-adv-x="787" 
d="M713 9q0 -9 -10 -9h-42q-9 0 -9 9l-2 112h-2q-95 -133 -268 -133q-143 0 -242 105t-99 266t99 266t242 105q131 0 218 -65t113 -181v-2q0 -9 -10 -9h-52q-7 0 -9 7q-27 95 -94.5 141t-165.5 46q-110 0 -188.5 -82.5t-78.5 -225.5t80 -225.5t191 -82.5q108 0 182 61
q64 56 82 130v4h-146q-9 0 -9 9v36q0 9 9 9h201q10 0 10 -9v-282z" />
    <glyph glyph-name="H" unicode="H" horiz-adv-x="707" 
d="M633 9q0 -9 -9 -9h-52q-10 0 -10 9v320h-417v-320q0 -9 -9 -9h-53q-9 0 -9 9v699q0 9 9 9h53q9 0 9 -9v-317h417v317q0 9 10 9h52q9 0 9 -9v-699z" />
    <glyph glyph-name="I" unicode="I" horiz-adv-x="229" 
d="M150 9q0 -9 -9 -9h-52q-10 0 -10 9v699q0 9 10 9h52q9 0 9 -9v-699z" />
    <glyph glyph-name="J" unicode="J" horiz-adv-x="474" 
d="M400 181q0 -90 -55 -141.5t-140 -51.5t-128.5 52.5t-43.5 115.5v1q0 8 9 8h49q9 0 9 -8q3 -48 32 -78.5t75 -30.5q54 0 87.5 35.5t33.5 96.5v528q0 9 10 9h52q10 0 10 -9v-527z" />
    <glyph glyph-name="K" unicode="K" horiz-adv-x="624" 
d="M597 6q0 -6 -7 -6h-68q-4 0 -8 4l-273 364l-96 -91v-268q0 -9 -9 -9h-53q-9 0 -9 9v699q0 9 9 9h53q9 0 9 -9v-352l2 -1l360 359q3 3 7 3h71q7 0 7 -6q0 -3 -3 -6l-301 -290l306 -402q3 -3 3 -7z" />
    <glyph glyph-name="L" unicode="L" horiz-adv-x="563" 
d="M521 9q0 -9 -9 -9h-429q-9 0 -9 9v699q0 9 9 9h53q9 0 9 -9v-644h367q9 0 9 -9v-46z" />
    <glyph glyph-name="M" unicode="M" horiz-adv-x="870" 
d="M794 9q0 -9 -9 -9h-53q-9 0 -9 9v620h-2l-261 -623q-2 -6 -9 -6h-35q-7 0 -9 6l-264 623h-2v-620q0 -9 -9 -9h-47q-9 0 -9 9v699q0 9 9 9h88q6 0 8 -6l256 -604h2l251 604q3 6 8 6h87q9 0 9 -9v-699z" />
    <glyph glyph-name="N" unicode="N" horiz-adv-x="721" 
d="M647 9q0 -9 -10 -9h-54q-5 0 -11 7l-431 610h-2v-608q0 -9 -9 -9h-47q-9 0 -9 9v699q0 9 9 9h65q7 0 12 -7l419 -592h3v590q0 9 9 9h46q10 0 10 -9v-699z" />
    <glyph glyph-name="O" unicode="O" horiz-adv-x="784" 
d="M744 359q0 -55 -13.5 -108t-42 -101t-69.5 -84t-99.5 -57t-127.5 -21t-127.5 21t-99.5 57t-69.5 84t-42 101t-13.5 108t13.5 108t42 101t69.5 84t99.5 57t127.5 21t127.5 -21t99.5 -57t69.5 -84t42 -101t13.5 -108zM392 667q-129 0 -203.5 -90t-74.5 -218t74.5 -218
t203.5 -90t203.5 90t74.5 218t-74.5 218t-203.5 90z" />
    <glyph glyph-name="P" unicode="P" horiz-adv-x="564" 
d="M529 510q0 -95 -62.5 -153t-173.5 -58h-148v-290q0 -9 -9 -9h-53q-9 0 -9 9v699q0 9 9 9h210q108 0 172 -59t64 -148zM455 507q0 62 -44 105t-118 43h-148v-296h148q78 0 120 40.5t42 107.5z" />
    <glyph glyph-name="Q" unicode="Q" horiz-adv-x="784" 
d="M796 -94q0 -9 -8 -9h-2q-130 0 -217 135q-82 -44 -178 -44q-84 0 -153 33t-111 87t-65 119t-23 132q0 55 13.5 108t42 101t69.5 84t99.5 57t127.5 21q86 0 155 -32.5t111 -86t64.5 -119t22.5 -135.5q0 -170 -116 -282q35 -54 71 -83t88 -31q9 0 9 -9v-46zM669 357
q0 129 -74.5 219.5t-203.5 90.5q-132 0 -205 -91.5t-73 -220.5q0 -162 108 -252q-12 29 -12 61q0 59 45 101.5t112 42.5q72 0 122.5 -41t104.5 -132q76 92 76 222zM535 88q-1 2 -15.5 28t-19 33t-18.5 28t-24 29l-25 20t-31.5 16.5t-35.5 4.5q-48 0 -75.5 -28.5t-27.5 -69.5
q0 -42 32.5 -70t94.5 -28q78 0 145 37z" />
    <glyph glyph-name="R" unicode="R" horiz-adv-x="605" 
d="M584 8q0 -8 -9 -8h-69q-5 0 -9 4l-208 297h-144v-292q0 -9 -9 -9h-53q-9 0 -9 9v699q0 9 9 9h210q108 0 173 -56t65 -151q0 -70 -45.5 -126t-118.5 -72l215 -298q2 -3 2 -6zM457 509q0 68 -43.5 107t-120.5 39h-148v-296h145q84 0 125.5 40.5t41.5 109.5z" />
    <glyph glyph-name="S" unicode="S" horiz-adv-x="584" 
d="M549 191q0 -92 -72.5 -147.5t-171.5 -55.5q-186 0 -280 144q-2 2 -2 5q0 4 5 7l43 29q2 1 5 1q1 0 7 -6q85 -120 222 -120q79 0 126.5 39.5t47.5 96.5q0 61 -50.5 95t-161.5 59q-214 49 -214 199q0 79 64 136t160 57q157 0 253 -126q2 -4 2 -6q0 -3 -3 -6l-41 -31
q-1 -1 -4 -1q-4 0 -8 4q-78 106 -199 106q-69 0 -112.5 -37t-43.5 -94q0 -58 45 -86.5t156 -55.5q109 -27 168 -75t59 -131z" />
    <glyph glyph-name="T" unicode="T" horiz-adv-x="644" 
d="M613 662q0 -9 -9 -9h-248v-644q0 -9 -9 -9h-52q-10 0 -10 9v644h-245q-9 0 -9 9v46q0 9 9 9h564q9 0 9 -9v-46z" />
    <glyph glyph-name="U" unicode="U" horiz-adv-x="665" 
d="M591 220q0 -99 -72 -165.5t-185 -66.5t-186.5 63.5t-73.5 168.5v488q0 9 9 9h53q9 0 9 -9v-487q0 -74 51.5 -122.5t137.5 -48.5t136 47t50 124v487q0 9 9 9h53q9 0 9 -9v-488z" />
    <glyph glyph-name="V" unicode="V" horiz-adv-x="656" 
d="M640 711l-2 -6l-277 -699q-2 -6 -8 -6h-52q-6 0 -8 6l-276 702l-1 3q0 6 9 6h62q8 0 11 -8l234 -606h2l230 606q3 8 11 8h57q8 0 8 -6z" />
    <glyph glyph-name="W" unicode="W" horiz-adv-x="1036" 
d="M1017 709l-2 -8l-230 -695q-2 -6 -9 -6h-65q-8 0 -10 6l-184 578h-2l-178 -578q-2 -6 -10 -6h-68q-7 0 -9 6l-230 699q-1 3 -1 4q0 8 9 8h57q8 0 11 -9l200 -618h2l189 621q2 6 9 6h45q7 0 9 -6l195 -621h2l202 621q2 6 9 6h50q9 0 9 -8z" />
    <glyph glyph-name="X" unicode="X" horiz-adv-x="662" 
d="M636 6q0 -6 -9 -6h-67q-7 0 -12 7l-219 301l-222 -301q-5 -7 -13 -7h-58q-8 0 -8 7l2 5l259 351l-250 342q-3 4 -3 6q0 6 7 6h69q8 0 13 -7l209 -287l212 288q4 6 12 6h58q9 0 9 -7l-2 -5l-250 -336l260 -357q3 -4 3 -6z" />
    <glyph glyph-name="Y" unicode="Y" horiz-adv-x="661" 
d="M643 711l-2 -5l-276 -441v-256q0 -9 -10 -9h-53q-9 0 -9 9v256l-274 441q-1 3 -1 4q0 7 7 7h65q9 0 13 -8l228 -372h2l231 373q4 7 13 7h57q9 0 9 -6z" />
    <glyph glyph-name="Z" unicode="Z" horiz-adv-x="632" 
d="M591 9q0 -9 -9 -9h-532q-9 0 -9 9v11q0 3 2 5l433 626l-1 2h-414q-10 0 -10 9v46q0 9 10 9h521q9 0 9 -9v-8q0 -3 -2 -5l-433 -629l1 -2h425q9 0 9 -9v-46z" />
    <glyph glyph-name="bracketleft" unicode="[" horiz-adv-x="398" 
d="M326 -221q0 -9 -9 -9h-236q-9 0 -9 9v929q0 9 9 9h236q9 0 9 -9v-38q0 -9 -9 -9h-181v-835h181q9 0 9 -9v-38z" />
    <glyph glyph-name="backslash" unicode="\" horiz-adv-x="360" 
d="M-9 730h47q6 0 8 -5l346 -796q1 -2 1 -5q0 -6 -7 -6h-46q-6 0 -8 5l-347 796q-1 2 -1 5q0 6 7 6z" />
    <glyph glyph-name="bracketright" unicode="]" horiz-adv-x="398" 
d="M326 -221q0 -9 -9 -9h-236q-9 0 -9 9v38q0 9 9 9h180v835h-180q-9 0 -9 9v38q0 9 9 9h236q9 0 9 -9v-929z" />
    <glyph glyph-name="asciicircum" unicode="^" horiz-adv-x="584" 
d="M502 307q0 -8 -11 -8h-49q-6 0 -8 5l-142 275h-2l-141 -275q-3 -5 -8 -5h-49q-10 0 -10 8l2 5l181 347q3 5 8 5h37q6 0 8 -5l182 -347q2 -4 2 -5z" />
    <glyph glyph-name="underscore" unicode="_" horiz-adv-x="496" 
d="M506 -97q0 -9 -10 -9h-496q-9 0 -9 9v37q0 9 9 9h496q10 0 10 -9v-37z" />
    <glyph glyph-name="grave" unicode="`" horiz-adv-x="515" 
d="M282 506q0 -5 -7 -5h-45q-5 0 -8 3l-127 161q-3 3 -3 6q0 6 8 6h63q5 0 8 -4l109 -162q2 -4 2 -5z" />
    <glyph glyph-name="a" unicode="a" horiz-adv-x="470" 
d="M450 11q0 -7 -7 -8q-20 -5 -44 -5q-56 0 -73 49l-2 1q-21 -29 -61.5 -44.5t-77.5 -15.5q-67 0 -109.5 32t-42.5 79q0 34 15 59t44.5 42t58 28t69.5 24.5t65 24.5q37 17 37 54q0 42 -24.5 57.5t-70.5 15.5q-105 0 -110 -104q0 -9 -9 -9h-45q-9 0 -9 9q0 82 55 122
q49 36 122 36q155 0 155 -124v-259q0 -9 7 -16t18 -7q7 0 18 0.5t13 0.5q8 0 8 -8v-34zM322 153v99l-1 1q-18 -16 -114 -54q-65 -25 -86 -45.5t-21 -49.5t27.5 -46.5t65.5 -17.5q129 0 129 113z" />
    <glyph glyph-name="b" unicode="b" horiz-adv-x="526" 
d="M486 223q0 -106 -58.5 -170.5t-153.5 -64.5q-43 0 -84.5 18t-61.5 48l-2 -1l-4 -43q-2 -10 -10 -10h-41q-9 0 -9 9v699q0 9 9 9h45q10 0 10 -9v-323l2 -1q54 74 149 74q96 0 152.5 -68.5t56.5 -166.5zM421 223q0 80 -40.5 130.5t-106.5 50.5q-77 0 -113 -51.5t-36 -129.5
q0 -85 38.5 -133t109.5 -48q70 0 109 50.5t39 130.5z" />
    <glyph glyph-name="c" unicode="c" horiz-adv-x="495" 
d="M445 150q-13 -75 -64 -118.5t-129 -43.5q-101 0 -157 70t-56 165t56 165t157 70q79 0 131 -41.5t62 -114.5v-2q0 -8 -9 -8h-47q-7 0 -9 9q-6 42 -38 72.5t-88 30.5q-71 0 -110 -54t-39 -127t39 -127t110 -54q56 0 88.5 33t38.5 77q1 9 10 9h46q8 0 8 -9v-2z" />
    <glyph glyph-name="d" unicode="d" horiz-adv-x="525" 
d="M464 708v-699q0 -9 -9 -9h-41q-8 0 -10 10l-4 44l-2 1q-20 -30 -61.5 -48.5t-84.5 -18.5q-95 0 -153.5 64.5t-58.5 170.5q0 98 56.5 166.5t152.5 68.5q95 0 149 -74l2 1v323q0 9 10 9h45q9 0 9 -9zM401 223q0 78 -36 129.5t-113 51.5q-66 0 -106.5 -50.5t-40.5 -130.5
t39 -130.5t109 -50.5q71 0 109.5 48t38.5 133z" />
    <glyph glyph-name="e" unicode="e" horiz-adv-x="493" 
d="M448 228q0 -9 -9 -9h-335q0 -76 40 -126.5t106 -50.5q102 0 132 94q2 6 9 6h46q9 0 9 -9q0 -4 -4.5 -18t-18.5 -36t-34.5 -42t-58 -34.5t-83.5 -14.5q-93 0 -150.5 65.5t-57.5 169.5q0 101 57.5 168t150.5 67q91 0 146 -60t55 -170zM380 266q-4 63 -39 100.5t-94 37.5
q-56 0 -96 -38.5t-46 -99.5h275z" />
    <glyph glyph-name="f" unicode="f" horiz-adv-x="276" 
d="M276 401q0 -9 -9 -9h-110v-383q0 -9 -10 -9h-45q-9 0 -9 9v383h-84q-9 0 -9 9v36q0 9 9 9h84v129q0 65 40.5 105.5t103.5 40.5q14 0 30 -2q9 -1 9 -9v-37q0 -9 -9 -9h-4t-10 0.5t-16 0.5q-80 0 -80 -90v-129h110q9 0 9 -9v-36z" />
    <glyph glyph-name="g" unicode="g" horiz-adv-x="484" 
d="M472 440v-37q0 -9 -10 -9q-54 -2 -85 -22q23 -37 23 -85q0 -74 -51.5 -127.5t-128.5 -53.5q-8 0 -19.5 1t-14.5 1q-77 0 -77 -43q0 -27 47 -36q21 -3 46 -3h92q77 0 116 -19q57 -27 57 -94q0 -72 -66 -109t-186 -37q-205 0 -205 119q0 36 26.5 64.5t68.5 34.5v2
q-27 7 -43 26.5t-16 41.5q0 27 22 48.5t54 26.5v2q-34 18 -56.5 60t-22.5 84q0 78 50.5 130t127.5 52q76 0 125 -49q49 40 116 40q10 0 10 -9zM332 282q0 56 -30.5 89t-81.5 33q-50 0 -81.5 -34t-31.5 -89q0 -54 30.5 -87.5t82.5 -33.5q51 0 81.5 34t30.5 88zM402 -94
q0 58 -91 63q-28 2 -120 2q-50 0 -84 -22.5t-34 -57.5q0 -71 153 -71q92 0 134 24t42 62z" />
    <glyph glyph-name="h" unicode="h" horiz-adv-x="484" 
d="M422 9q0 -9 -9 -9h-45q-10 0 -10 9v296q0 45 -25.5 72t-77.5 27q-61 0 -95 -39.5t-34 -93.5v-262q0 -9 -10 -9h-45q-9 0 -9 9v699q0 9 9 9h45q10 0 10 -9v-326q24 38 62 57t74 19q71 0 115.5 -37.5t44.5 -104.5v-307z" />
    <glyph glyph-name="i" unicode="i" horiz-adv-x="187" 
d="M129 559q0 -9 -10 -9h-52q-9 0 -9 9v59q0 9 9 9h52q10 0 10 -9v-59zM126 9q0 -9 -10 -9h-45q-9 0 -9 9v428q0 9 9 9h45q10 0 10 -9v-428z" />
    <glyph glyph-name="j" unicode="j" horiz-adv-x="187" 
d="M129 559q0 -9 -10 -9h-52q-9 0 -9 9v59q0 9 9 9h52q10 0 10 -9v-59zM125 -139q0 -47 -29 -71.5t-70 -24.5h-17q-9 0 -9 9v38q0 9 9 9h17q35 0 35 40v576q0 9 9 9h45q10 0 10 -9v-576z" />
    <glyph glyph-name="k" unicode="k" horiz-adv-x="460" 
d="M437 5q0 -5 -8 -5h-56q-10 0 -15 7l-158 217l-74 -65v-150q0 -9 -10 -9h-45q-9 0 -9 9v699q0 9 9 9h45q10 0 10 -9v-485l234 217q6 6 16 6h54q8 0 8 -6q0 -3 -3 -6l-188 -169l188 -254q2 -3 2 -6z" />
    <glyph glyph-name="l" unicode="l" horiz-adv-x="188" 
d="M126 9q0 -9 -10 -9h-45q-9 0 -9 9v699q0 9 9 9h45q10 0 10 -9v-699z" />
    <glyph glyph-name="m" unicode="m" horiz-adv-x="764" 
d="M702 9q0 -9 -9 -9h-45q-9 0 -9 9v298q0 52 -27 74.5t-66 22.5q-64 0 -98 -38.5t-34 -91.5v-265q0 -9 -9 -9h-46q-9 0 -9 9v298q0 52 -27 74.5t-66 22.5q-63 0 -97 -39.5t-34 -90.5v-265q0 -9 -10 -9h-45q-9 0 -9 9v428q0 9 9 9h41q8 0 10 -10l3 -48l2 -1q21 33 57 52
t77 19q108 0 140 -70h2q25 32 64 51t81 19q67 0 110.5 -37.5t43.5 -102.5v-309z" />
    <glyph glyph-name="n" unicode="n" horiz-adv-x="486" 
d="M424 9q0 -9 -9 -9h-45q-10 0 -10 9v298q0 44 -25.5 70.5t-71.5 26.5q-68 0 -102.5 -37.5t-34.5 -92.5v-265q0 -9 -10 -9h-45q-9 0 -9 9v428q0 9 9 9h41q8 0 10 -9l3 -45h2q22 29 59 47.5t79 18.5q76 0 117.5 -36.5t41.5 -103.5v-309z" />
    <glyph glyph-name="o" unicode="o" horiz-adv-x="521" 
d="M482 225q0 -97 -58 -167t-163 -70t-163.5 70t-58.5 167q0 100 61 166.5t161 66.5q105 0 163 -68.5t58 -164.5zM417 227q0 73 -40.5 125t-113.5 52q-75 0 -117 -53.5t-42 -127.5t41 -127.5t114 -53.5q74 0 116 55t42 130z" />
    <glyph glyph-name="p" unicode="p" horiz-adv-x="526" 
d="M486 223q0 -98 -56.5 -166.5t-152.5 -68.5q-107 0 -149 73h-2v-282q0 -9 -10 -9h-45q-9 0 -9 9v657q0 9 9 9h41q10 0 10 -9l3 -49h2q18 27 58 49t89 22q95 0 153.5 -64.5t58.5 -170.5zM421 223q0 80 -39 130.5t-109 50.5q-76 0 -112 -52t-36 -129q0 -78 36 -129.5
t113 -51.5q66 0 106.5 50.5t40.5 130.5z" />
    <glyph glyph-name="q" unicode="q" horiz-adv-x="525" 
d="M463 436v-657q0 -9 -9 -9h-45q-10 0 -10 9v282h-2q-42 -73 -149 -73q-96 0 -152.5 68.5t-56.5 166.5q0 106 58.5 170.5t153.5 64.5q49 0 89 -22t58 -49h2l3 49q0 9 10 9h41q9 0 9 -9zM400 223q0 77 -36 129t-112 52q-70 0 -109 -50.5t-39 -130.5t40.5 -130.5t106.5 -50.5
q77 0 113 51.5t36 129.5z" />
    <glyph glyph-name="r" unicode="r" horiz-adv-x="357" 
d="M343 345q0 -9 -9 -9l-38 -4q-9 0 -11 8q-12 63 -67 63q-47 0 -74 -50q-18 -31 -18 -91v-253q0 -9 -10 -9h-45q-9 0 -9 9v428q0 9 9 9h41q11 0 11 -10l2 -40h2q40 61 106 61q43 0 74.5 -30t35.5 -82z" />
    <glyph glyph-name="s" unicode="s" horiz-adv-x="431" 
d="M385 127q0 -64 -49 -101.5t-121 -37.5q-113 0 -169 85q-4 6 -4 10q0 3 3 6l33 26q3 2 6 2q5 0 8 -5q44 -70 123 -70q51 0 79.5 21.5t28.5 54.5q0 26 -19 45q-10 9 -26.5 16.5t-29.5 11.5t-42.5 11t-42.5 10q-115 31 -115 118q0 49 43.5 88.5t119.5 39.5q58 0 98.5 -24
t61.5 -53q2 -3 2 -6t-5 -7l-31 -25q-2 -2 -7 -2q-3 0 -7 4q-43 59 -117 59q-45 0 -70.5 -19t-25.5 -47q0 -19 8.5 -32t29 -22.5t37 -14.5t50.5 -13l21 -5q66 -15 97.5 -44.5t31.5 -79.5z" />
    <glyph glyph-name="t" unicode="t" horiz-adv-x="318" 
d="M286 8q0 -6 -6 -8q-39 -11 -83 -11q-49 0 -75.5 26.5t-26.5 75.5v301h-79q-9 0 -9 9v36q0 9 9 9h79v117q0 9 9 9h45q10 0 10 -9v-117h118q9 0 9 -9v-36q0 -9 -9 -9h-118v-300q0 -48 47 -48q19 0 40 3q8 1 19 3.5t13 2.5q8 0 8 -9v-36z" />
    <glyph glyph-name="u" unicode="u" horiz-adv-x="484" 
d="M422 9q0 -9 -9 -9h-41q-8 0 -9 9l-4 50h-2q-17 -29 -56 -50t-80 -21q-72 0 -115.5 35.5t-43.5 104.5v309q0 9 9 9h45q10 0 10 -9v-298q0 -97 98 -97q58 0 96 35.5t38 94.5v265q0 9 10 9h45q9 0 9 -9v-428z" />
    <glyph glyph-name="v" unicode="v" horiz-adv-x="436" 
d="M423 438l-1 -4l-166 -428q-2 -6 -9 -6h-55q-6 0 -9 6l-169 428q-1 3 -1 4q0 8 10 8h51q6 0 9 -6l141 -364h2l136 364q2 6 9 6h43q9 0 9 -8z" />
    <glyph glyph-name="w" unicode="w" horiz-adv-x="699" 
d="M686 438l-1 -4l-146 -428q-2 -6 -9 -6h-60q-8 0 -10 6l-110 323h-2l-108 -323q-2 -6 -9 -6h-65q-7 0 -9 6l-143 428q-1 3 -1 4q0 8 9 8h51q8 0 10 -6l117 -372h2l121 371q2 6 10 6h38q7 0 9 -6l122 -371h2l120 372q2 6 9 6h44q9 0 9 -8z" />
    <glyph glyph-name="x" unicode="x" horiz-adv-x="449" 
d="M426 6q0 -6 -7 -6h-58q-7 0 -12 7l-127 171l-128 -170q-5 -8 -15 -8h-49q-7 0 -7 6l2 5l162 212l-156 211q-2 3 -2 5q0 7 8 7h55q7 0 12 -6l123 -167l125 166q5 7 13 7h49q7 0 7 -6q0 -2 -4 -8l-155 -204l162 -217q2 -3 2 -5z" />
    <glyph glyph-name="y" unicode="y" horiz-adv-x="422" 
d="M409 431l-196 -510q-19 -51 -39 -89q-35 -66 -101 -66q-40 0 -58 9q-6 3 -6 8l1 4l14 39q2 4 7 4l8 -2q15 -6 31 -6q22 0 36 12.5t26 42.5l46 114l-160 441q-2 5 -2 7q0 6 7 6h52q9 0 12 -9l126 -357h2l134 358q4 9 12 9h43q7 0 7 -6q0 -5 -2 -9z" />
    <glyph glyph-name="z" unicode="z" horiz-adv-x="454" 
d="M414 9q0 -9 -9 -9h-349q-10 0 -10 9v11l2 5l268 365q0 2 -1 2h-259q-10 0 -10 9v36q0 9 10 9h347q9 0 9 -9v-15l-2 -5l-265 -361q0 -2 1 -2h259q9 0 9 -9v-36z" />
    <glyph glyph-name="braceleft" unicode="{" horiz-adv-x="452" 
d="M376 -250q0 -9 -9 -9q-98 0 -136.5 32.5t-38.5 122.5v220q0 60 -18.5 76.5t-67.5 17.5q-9 0 -9 9v38q0 9 9 9q51 1 68.5 18t17.5 76v219q0 90 38.5 122.5t136.5 32.5q9 0 9 -9v-38q0 -9 -9 -9q-74 -1 -93 -19t-19 -92v-191q0 -75 -15 -104q-11 -20 -41 -34q31 -13 43 -38
q13 -29 13 -100v-192q0 -71 20 -90.5t92 -20.5q9 0 9 -9v-38z" />
    <glyph glyph-name="bar" unicode="|" horiz-adv-x="246" 
d="M155 -191q0 -9 -9 -9h-46q-9 0 -9 9v899q0 9 9 9h46q9 0 9 -9v-899z" />
    <glyph glyph-name="braceright" unicode="}" horiz-adv-x="452" 
d="M355 219q0 -9 -9 -9q-49 -1 -67 -17.5t-18 -76.5v-220q0 -90 -39 -122.5t-137 -32.5q-9 0 -9 9v38q0 9 9 9q72 1 92 20.5t20 90.5v192q0 71 13 100q12 25 43 38q-30 14 -41 34q-15 29 -15 104v191q0 74 -19 92t-93 19q-9 0 -9 9v38q0 9 9 9q98 0 137 -32.5t39 -122.5
v-219q0 -59 17 -76t68 -18q9 0 9 -9v-38z" />
    <glyph glyph-name="asciitilde" unicode="~" horiz-adv-x="584" 
d="M516 276q0 -4 -2 -8q-48 -77 -117 -77q-46 0 -111 36t-95 36q-39 0 -88 -67q-3 -4 -7 -4q-6 0 -8 5l-17 28q-3 5 -3 11q0 4 2 8q48 77 116 77q43 0 108.5 -36t97.5 -36q39 0 88 67q3 4 7 4q5 0 7 -5l19 -28q3 -4 3 -11z" />
    <glyph glyph-name="nbspace" unicode="&#xa0;" horiz-adv-x="212" 
 />
    <glyph glyph-name="exclamdown" unicode="&#xa1;" horiz-adv-x="257" 
d="M90 -220q0 16 4 199.5t4 272.5v21q0 9 10 9h41q9 0 9 -9v-21q0 -89 5 -272.5t5 -199.5q0 -9 -9 -9h-60q-9 0 -9 9zM91 437q0 9 9 9h58q9 0 9 -9v-70q0 -9 -9 -9h-58q-9 0 -9 9v70z" />
    <glyph glyph-name="cent" unicode="&#xa2;" horiz-adv-x="566" 
d="M483 262q-11 -64 -51.5 -106t-106.5 -54v-93q0 -9 -9 -9h-45q-9 0 -9 9v93q-91 12 -138 80t-47 155q0 86 48 153.5t137 78.5v80q0 9 9 9h45q9 0 9 -9v-80q66 -9 107.5 -50t50.5 -104v-2q0 -8 -9 -8h-47q-7 0 -9 8q-5 38 -29.5 65.5t-63.5 35.5v-356q40 9 64.5 38.5
t30.5 68.5q2 8 10 8h45q8 0 8 -9v-2zM262 157v357q-59 -13 -89 -63.5t-30 -113.5q0 -64 29 -114.5t90 -65.5z" />
    <glyph glyph-name="sterling" unicode="&#xa3;" horiz-adv-x="592" 
d="M524 153q0 -62 -44.5 -113.5t-114.5 -51.5q-35 0 -63.5 11t-62.5 34.5t-44 28.5q-31 17 -56 17q-20 0 -31.5 -12t-13.5 -25t-2 -33q0 -9 -9 -9h-43q-9 0 -9 9q0 41 14 68.5t39 56t37 51.5q17 32 24 88h-102q-9 0 -9 9v36q0 9 9 9h101q-2 17 -15.5 74t-13.5 90
q0 74 49.5 123.5t138.5 49.5q84 0 137 -48.5t53 -116.5q0 -9 -9 -9h-47q-11 0 -11 9q-1 42 -32.5 76.5t-91.5 34.5q-52 0 -85.5 -33.5t-33.5 -81.5q0 -33 13 -91t15 -77h156q9 0 9 -9v-36q0 -9 -9 -9h-155q-9 -84 -56 -138q44 -4 113.5 -47.5t98.5 -43.5q45 0 69.5 29.5
t27.5 79.5q0 8 9 8h41q9 0 9 -8z" />
    <glyph glyph-name="currency" unicode="&#xa4;" horiz-adv-x="556" 
d="M493 62q0 -4 -3 -7l-28 -26q-3 -3 -6 -3q-4 0 -7 3l-49 48q-55 -39 -120 -39q-63 0 -122 39l-49 -47q-3 -3 -6 -3q-4 0 -7 3l-28 27q-3 3 -3 7q0 3 3 6l49 47q-42 59 -42 120t41 115l-49 48q-3 3 -3 7q0 3 3 6l27 27q3 3 7 3q3 0 6 -3l50 -48q56 38 121 38q66 0 122 -39
l49 49q3 3 6 3q4 0 7 -3l28 -27q3 -3 3 -6q0 -4 -3 -7l-50 -48q41 -55 41 -118q0 -62 -41 -117l50 -49q3 -3 3 -6zM424 235q0 59 -41 100t-105 41t-106 -41t-42 -100q0 -60 42 -101.5t105 -41.5q62 0 104.5 41t42.5 102z" />
    <glyph glyph-name="yen" unicode="&#xa5;" horiz-adv-x="571" 
d="M509 639q0 -2 -2 -6l-171 -276h126q10 0 10 -9v-38q0 -9 -10 -9h-146v-71h146q10 0 10 -9v-37q0 -9 -10 -9h-146v-166q0 -9 -9 -9h-45q-10 0 -10 9v166h-146q-9 0 -9 9v37q0 9 9 9h146v71h-146q-9 0 -9 9v38q0 9 9 9h127l-169 276q-2 4 -2 6q0 8 10 8h50q6 0 8 -4
l155 -259l155 259q2 4 8 4h51q10 0 10 -8z" />
    <glyph glyph-name="brokenbar" unicode="&#xa6;" horiz-adv-x="246" 
d="M155 375q0 -9 -9 -9h-46q-9 0 -9 9v333q0 9 9 9h46q9 0 9 -9v-333zM155 -191q0 -9 -9 -9h-46q-9 0 -9 9v333q0 9 9 9h46q9 0 9 -9v-333z" />
    <glyph glyph-name="section" unicode="&#xa7;" horiz-adv-x="411" 
d="M319 269q0 27 -9 50t-19 37t-32.5 28.5t-34.5 21t-39 18.5q-20 8 -40 18q-22 -20 -38 -50.5t-16 -60.5q0 -34 10 -59t32 -43.5t38.5 -27.5t47.5 -23q39 -19 49 -26l2 2q49 45 49 115zM110 -25q17 -65 88 -65q44 0 71.5 28t27.5 74q0 68 -76 103l-32 15q-35 17 -58 31
t-48.5 37t-38.5 55t-13 73q0 84 73 142q-51 51 -51 120q0 61 39 101.5t111 40.5q71 0 105 -38t34 -79q0 -10 -9 -10h-49q-7 0 -9 8q-11 64 -77 64q-40 0 -63 -23.5t-23 -63.5q0 -24 9 -43t27 -33.5t33.5 -23.5t40.5 -21q34 -16 56 -29t48.5 -36.5t39.5 -57.5t13 -77
q0 -73 -66 -145q44 -56 44 -111q0 -67 -44.5 -111t-116.5 -44q-75 0 -111 34.5t-40 81.5v1q0 9 8 9h48q7 0 9 -7z" />
    <glyph glyph-name="dieresis" unicode="&#xa8;" horiz-adv-x="515" 
d="M374 560q0 -9 -9 -9h-52q-9 0 -9 9v58q0 9 9 9h52q9 0 9 -9v-58zM185 560q0 -9 -9 -9h-51q-10 0 -10 9v58q0 9 10 9h51q9 0 9 -9v-58z" />
    <glyph glyph-name="copyright" unicode="&#xa9;" horiz-adv-x="852" 
d="M800 361q0 -71 -24 -136.5t-69 -119t-118 -86t-163 -32.5t-163 32.5t-118.5 86t-69.5 119.5t-24 136t24 135t69 118t118 85t164 32q90 0 163 -32t118 -85t69 -118t24 -135zM746 361q0 83 -34.5 154t-109 119t-176.5 48q-77 0 -139.5 -27.5t-101 -73.5t-59 -102.5
t-20.5 -117.5q0 -83 34.5 -155.5t109.5 -121t176 -48.5t176 48.5t109.5 121t34.5 155.5zM648 283q-19 -78 -77.5 -121.5t-144.5 -43.5q-95 0 -160 68t-65 174t65 174.5t160 68.5q86 0 144.5 -43.5t77.5 -121.5v-2q0 -9 -9 -9h-41q-8 0 -11 11q-4 13 -6.5 19t-10.5 23t-19 27
t-28 22.5t-42 18.5t-55 6q-70 0 -118 -51t-48 -143t48 -143t118 -51q62 0 105.5 31t58.5 90q2 7 8 7h41q9 0 9 -9v-2z" />
    <glyph glyph-name="ordfeminine" unicode="&#xaa;" horiz-adv-x="310" 
d="M309 422q0 -6 -8 -8q-17 -5 -38 -5q-39 0 -49 31q-15 -18 -42 -28t-51 -10q-47 0 -77.5 22.5t-30.5 56.5q0 24 10.5 42t31 29.5t39.5 19.5t48 17.5t45 17.5q23 10 23 32q0 28 -15.5 37t-45.5 9q-68 0 -71 -68q0 -9 -9 -9h-33q-9 0 -9 9q0 58 40 88q33 25 84 25
q111 0 111 -89v-175q0 -12 12 -12q2 0 12 0.5t14 0.5q9 0 9 -8v-25zM210 525v55q-10 -9 -73 -34q-44 -17 -57 -30t-13 -31t17 -29t42 -11q43 0 63.5 19.5t20.5 60.5zM309 320q0 -9 -10 -9h-275q-10 0 -10 9v35q0 9 10 9h275q10 0 10 -9v-35z" />
    <glyph glyph-name="guillemotleft" unicode="&#xab;" horiz-adv-x="434" 
d="M374 101q0 -2 -2 -4l-28 -26q-4 -2 -5 -2q-4 0 -7 3l-133 145q-2 4 -2 6t2 6l133 145q3 3 6 3q4 0 6 -2l28 -25q2 -2 2 -5q0 -1 -3 -7l-105 -115l105 -115q3 -3 3 -7zM212 101q0 -3 -2 -5l-28 -25q-2 -2 -6 -2t-7 3l-132 145q-2 2 -2 6t2 6l132 145q3 3 7 3q1 0 5 -2
l29 -25q2 -2 2 -5q0 -1 -3 -7l-105 -115l105 -115q3 -6 3 -7z" />
    <glyph glyph-name="logicalnot" unicode="&#xac;" horiz-adv-x="582" 
d="M534 81q0 -9 -10 -9h-34q-9 0 -9 9v209h-421q-10 0 -10 9v32q0 9 10 9h464q10 0 10 -9v-250z" />
    <glyph glyph-name="uni00AD" unicode="&#xad;" horiz-adv-x="275" 
d="M247 253q0 -11 -12 -11h-196q-11 0 -11 11v33q0 10 11 10h196q12 0 12 -10v-33z" />
    <glyph glyph-name="registered" unicode="&#xae;" horiz-adv-x="852" 
d="M800 361q0 -71 -24 -136.5t-69 -119t-118 -86t-163 -32.5t-163 32.5t-118.5 86t-69.5 119.5t-24 136t24 135t69 118t118 85t164 32q90 0 163 -32t118 -85t69 -118t24 -135zM746 361q0 83 -34.5 154t-109 119t-176.5 48q-77 0 -139.5 -27.5t-101 -73.5t-59 -102.5
t-20.5 -117.5q0 -83 34.5 -155.5t109.5 -121t176 -48.5t176 48.5t109.5 121t34.5 155.5zM593 462q0 -52 -37 -87t-95 -41l126 -200q2 -4 2 -6q0 -8 -10 -8h-43q-7 0 -9 4l-129 208h-40v-203q0 -9 -9 -9h-38q-9 0 -9 9v463q0 9 9 9h141q66 0 103.5 -42t37.5 -97zM537 464
q0 34 -22.5 59.5t-62.5 25.5h-94v-169h92q41 0 64 25t23 59z" />
    <glyph glyph-name="macron" unicode="&#xaf;" horiz-adv-x="515" 
d="M404 575q0 -9 -9 -9h-274q-9 0 -9 9v31q0 9 9 9h274q9 0 9 -9v-31z" />
    <glyph glyph-name="degree" unicode="&#xb0;" horiz-adv-x="403" 
d="M364 581q0 -71 -46 -110.5t-107 -39.5t-106 40t-45 110q0 71 45 111t106 40t107 -40t46 -111zM306 581q0 45 -28 70.5t-67 25.5q-38 0 -66 -25.5t-28 -70.5t27.5 -69.5t66.5 -24.5t67 24.5t28 69.5z" />
    <glyph glyph-name="plusminus" unicode="&#xb1;" horiz-adv-x="584" 
d="M520 282q0 -9 -9 -9h-190v-167q0 -9 -9 -9h-39q-9 0 -9 9v167h-191q-9 0 -9 9v36q0 9 9 9h191v170q0 9 9 9h39q9 0 9 -9v-170h190q9 0 9 -9v-36zM520 9q0 -9 -9 -9h-438q-9 0 -9 9v36q0 9 9 9h438q9 0 9 -9v-36z" />
    <glyph glyph-name="twosuperior" unicode="&#xb2;" horiz-adv-x="344" 
d="M300 332q0 -10 -10 -10h-249q-6 0 -7.5 1.5t-1.5 8.5q0 27 16 53q25 42 106 102l39 29q49 36 49 88q0 34 -19.5 55t-51.5 21q-39 0 -57.5 -25.5t-18.5 -65.5q0 -10 -10 -10h-41q-10 0 -10 11q0 16 3 28q11 48 48 80t89 32q57 0 91.5 -35.5t34.5 -89.5q0 -27 -8.5 -49.5
t-26.5 -42t-32 -31.5t-39 -29q-26 -18 -39 -28q-33 -28 -48 -51h183q10 0 10 -9v-33z" />
    <glyph glyph-name="threesuperior" unicode="&#xb3;" horiz-adv-x="344" 
d="M303 433q0 -50 -39.5 -85t-102.5 -35q-43 0 -77.5 17t-49.5 48q-10 22 -10 44q0 10 8 10h39q7 0 10 -10q13 -61 80 -61q39 0 62.5 19.5t23.5 52.5q0 32 -22 51t-64 19h-53q-10 0 -10 10v28q0 10 10 10h53q31 0 50 19t19 48t-20 47t-49 18q-27 0 -49.5 -17.5t-22.5 -43.5
q0 -10 -9 -10h-37q-9 0 -9 10q0 21 6 36q13 34 46 53t75 19q53 0 89 -31t36 -81q0 -24 -15 -48.5t-37 -38.5q32 -10 50.5 -36.5t18.5 -61.5z" />
    <glyph glyph-name="acute" unicode="&#xb4;" horiz-adv-x="515" 
d="M418 671l-1 -3l-130 -164q-3 -3 -7 -3h-47q-5 0 -5 5l1 4l110 163q3 4 8 4h65q6 0 6 -6z" />
    <glyph glyph-name="uni00B5" unicode="&#xb5;" horiz-adv-x="514" 
d="M440 -1q-30 0 -50 16.5t-24 48.5q-46 -68 -134 -68q-63 0 -106 41v-258q0 -9 -9 -9h-45q-10 0 -10 9v658q0 9 10 9h45q9 0 9 -9v-287q0 -53 32 -76t76 -23q49 0 87 36t38 84v266q0 9 9 9h45q10 0 10 -9v-287q0 -60 5.5 -78.5t23.5 -18.5h20q9 0 9 -9v-34q0 -7 -7 -8
q-12 -3 -34 -3z" />
    <glyph glyph-name="paragraph" unicode="&#xb6;" horiz-adv-x="411" 
d="M129 377q-62 14 -95.5 59.5t-33.5 102.5q0 71 48 124.5t130 53.5h174q9 0 9 -9v-40q0 -9 -9 -9h-25v-784q0 -9 -9 -9h-42q-9 0 -9 9v784h-78v-784q0 -9 -9 -9h-41q-10 0 -10 9v502z" />
    <glyph glyph-name="periodcentered" unicode="&#xb7;" horiz-adv-x="275" 
d="M177 217q0 -9 -9 -9h-61q-9 0 -9 9v70q0 9 9 9h61q9 0 9 -9v-70z" />
    <glyph glyph-name="cedilla" unicode="&#xb8;" horiz-adv-x="472" 
d="M269 -39q31 -5 54 -25t23 -51q0 -41 -33.5 -60t-81.5 -19q-29 0 -47 6q-13 4 -13 12v30q0 7 7 7l20 -3q20 -3 33 -3q50 0 50 33t-55 36l-10 1q-7 0 -7 7l15 62q3 10 9 10h29q7 0 7 -7v-1l-6 -23l-2 -8q0 -3 8 -4z" />
    <glyph glyph-name="onesuperior" unicode="&#xb9;" horiz-adv-x="344" 
d="M314 332q0 -10 -10 -10h-249q-9 0 -9 10v33q0 9 9 9h101v264h-101q-9 0 -9 9v31q0 10 9 10l64 1q24 1 31 4.5t11 13.5l3 8q3 10 11 10h29q9 0 9 -10v-341h91q10 0 10 -9v-33z" />
    <glyph glyph-name="ordmasculine" unicode="&#xba;" horiz-adv-x="345" 
d="M325 568q0 -67 -40.5 -115.5t-112.5 -48.5t-112.5 48.5t-40.5 115.5q0 69 42 115.5t111 46.5q73 0 113 -48t40 -114zM274 569q0 48 -27 82.5t-74 34.5q-48 0 -75.5 -35t-27.5 -84t27 -84t74 -35q48 0 75.5 36t27.5 85zM325 320q0 -9 -10 -9h-286q-10 0 -10 9v35q0 9 10 9
h286q10 0 10 -9v-35z" />
    <glyph glyph-name="guillemotright" unicode="&#xbb;" horiz-adv-x="434" 
d="M399 223q0 -4 -2 -6l-132 -145q-3 -3 -8 -3q-1 0 -5 2l-28 25q-3 3 -3 5q0 1 1 2.5t2 2.5t1 2l105 115l-105 115l-2 2q-2 3 -2 5t3 5l27 25q2 2 6 2q5 0 8 -3l132 -145q2 -2 2 -6zM237 223q0 -2 -2 -6l-133 -145q-3 -3 -7 -3h-1q-2 0 -3 1l-29 26q-2 2 -2 5q0 1 3 7
l105 115l-105 115q-3 3 -3 7q0 2 2 4l28 26q4 2 5 2q4 0 7 -3l133 -145q2 -4 2 -6z" />
    <glyph glyph-name="onequarter" unicode="&#xbc;" horiz-adv-x="516" 
d="M74 226v36q0 9 9 9h350q9 0 9 -9v-36q0 -9 -9 -9h-350q-9 0 -9 9zM395 -110q0 -10 -11 -10h-56v-107q0 -9 -8 -9h-37q-10 0 -10 9v107h-164q-9 0 -9 10v20q0 5 3 8h-1l177 248q2 7 12 7h28q9 0 9 -10v-235h56q11 0 11 -9v-29zM273 -72v149l-105 -149h105zM391 332
q0 -10 -10 -10h-249q-9 0 -9 10v33q0 9 9 9h101v264h-101q-9 0 -9 9v31q0 10 9 10l64 1q24 1 31 4t11 14l3 8q3 10 9 10h31q9 0 9 -10v-341h91q10 0 10 -9v-33z" />
    <glyph glyph-name="onehalf" unicode="&#xbd;" horiz-adv-x="516" 
d="M397 -225q0 -10 -10 -10h-249q-6 0 -7.5 1.5t-1.5 8.5q0 27 16 53q25 42 106 102l35 26q53 39 53 91q0 34 -19.5 55t-51.5 21q-39 0 -57.5 -25.5t-18.5 -65.5q0 -10 -10 -10h-41q-10 0 -10 11q0 16 3 28q11 48 48 80t89 32q57 0 91.5 -35.5t34.5 -89.5q0 -27 -8.5 -49.5
t-26.5 -42t-32 -31.5t-39 -29q-60 -41 -87 -79h183q10 0 10 -9v-33zM74 226v36q0 9 9 9h350q9 0 9 -9v-36q0 -9 -9 -9h-350q-9 0 -9 9zM391 332q0 -10 -10 -10h-249q-9 0 -9 10v33q0 9 9 9h101v264h-101q-9 0 -9 9v31q0 10 9 10l64 1q24 1 31 4t11 14l3 8q3 10 9 10h31
q9 0 9 -10v-341h91q10 0 10 -9v-33z" />
    <glyph glyph-name="threequarters" unicode="&#xbe;" horiz-adv-x="516" 
d="M74 226v36q0 9 9 9h350q9 0 9 -9v-36q0 -9 -9 -9h-350q-9 0 -9 9zM395 -110q0 -10 -11 -10h-56v-107q0 -9 -8 -9h-37q-10 0 -10 9v107h-164q-9 0 -9 10v20q0 5 3 8h-1l177 248q2 7 12 7h28q9 0 9 -10v-235h56q11 0 11 -9v-29zM273 -72v149l-105 -149h105zM398 424
q0 -50 -39.5 -85t-102.5 -35q-43 0 -77.5 17t-49.5 48q-10 22 -10 44q0 10 8 10h39q7 0 10 -10q13 -59 80 -59q39 0 62.5 18.5t23.5 51.5q0 32 -22 50.5t-64 18.5h-53q-10 0 -10 10v30q0 10 10 10h53q32 0 50.5 18.5t18.5 47.5q0 28 -20 45.5t-49 17.5q-27 0 -49 -16.5
t-22 -42.5q0 -10 -9 -10h-38q-9 0 -9 10q0 21 6 36q13 34 46 53t75 19q53 0 89 -31t36 -81q0 -24 -15 -48.5t-37 -38.5q32 -10 50.5 -36.5t18.5 -61.5z" />
    <glyph glyph-name="questiondown" unicode="&#xbf;" horiz-adv-x="408" 
d="M264 368q0 -9 -10 -9h-56q-10 0 -10 9v69q0 9 10 9h56q10 0 10 -9v-69zM379 -101q0 -49 -47 -91.5t-122 -42.5q-73 0 -126 40.5t-53 117.5q0 40 18.5 71.5t45 53.5t53 44.5t45 56.5t18.5 78q0 11 -1.5 27t-3 27t-1.5 13q0 10 9 10h37q8 0 10 -8q13 -37 13 -70
q0 -54 -18 -94t-44 -63.5t-52.5 -43.5t-44.5 -45.5t-18 -57.5q0 -48 32 -74.5t84 -26.5q49 0 75.5 24t30.5 56q0 8 10 8h41q9 0 9 -10z" />
    <glyph glyph-name="Agrave" unicode="&#xc0;" horiz-adv-x="664" 
d="M361 781q0 -5 -5 -5h-47q-4 0 -7 3l-142 139q-1 1 -1 3q0 6 6 6h65q4 0 8 -4l122 -138q1 -1 1 -4zM647 8q0 -8 -10 -8h-60q-6 0 -9 6l-91 234h-300l-89 -234q-3 -6 -9 -6h-53q-9 0 -9 8l1 4l274 699q2 6 8 6h65q6 0 8 -6l273 -699q1 -3 1 -4zM326 632l-129 -337h259
l-128 337h-2z" />
    <glyph glyph-name="Aacute" unicode="&#xc1;" horiz-adv-x="664" 
d="M507 921q0 -2 -1 -3l-142 -139q-3 -3 -7 -3h-47q-5 0 -5 5q0 3 1 4l122 138q4 4 8 4h65q6 0 6 -6zM647 8q0 -8 -10 -8h-60q-6 0 -9 6l-91 234h-300l-89 -234q-3 -6 -9 -6h-53q-9 0 -9 8l1 4l274 699q2 6 8 6h65q6 0 8 -6l273 -699q1 -3 1 -4zM326 632l-129 -337h259
l-128 337h-2z" />
    <glyph glyph-name="Acircumflex" unicode="&#xc2;" horiz-adv-x="664" 
d="M469 782q0 -6 -10 -6h-46q-5 0 -8 5l-73 92l-72 -92q-2 -5 -8 -5h-47q-10 0 -10 7q0 4 3 8l109 129q4 4 8 4h35q4 0 8 -4l109 -132q2 -2 2 -6zM647 8q0 -8 -10 -8h-60q-6 0 -9 6l-91 234h-300l-89 -234q-3 -6 -9 -6h-53q-9 0 -9 8l1 4l274 699q2 6 8 6h65q6 0 8 -6
l273 -699q1 -3 1 -4zM326 632l-129 -337h259l-128 337h-2z" />
    <glyph glyph-name="Atilde" unicode="&#xc3;" horiz-adv-x="664" 
d="M488 884q0 -13 -3.5 -29t-12.5 -34.5t-28.5 -31t-46.5 -12.5q-33 0 -75 30q-42 29 -59 29q-18 0 -26 -16.5t-8 -33.5q0 -9 -10 -9h-35q-9 0 -9 10q0 30 24 66t69 36q32 0 75 -30t60 -30q15 0 23.5 19t8.5 35q0 8 9 8h36q8 0 8 -7zM647 8q0 -8 -10 -8h-60q-6 0 -9 6
l-91 234h-300l-89 -234q-3 -6 -9 -6h-53q-9 0 -9 8l1 4l274 699q2 6 8 6h65q6 0 8 -6l273 -699q1 -3 1 -4zM326 632l-129 -337h259l-128 337h-2z" />
    <glyph glyph-name="Adieresis" unicode="&#xc4;" horiz-adv-x="664" 
d="M647 8q0 -8 -10 -8h-60q-6 0 -9 6l-91 234h-300l-89 -234q-3 -6 -9 -6h-53q-9 0 -9 8l1 4l274 699q2 6 8 6h65q6 0 8 -6l273 -699q1 -3 1 -4zM326 632l-129 -337h259l-128 337h-2zM456 803q0 -9 -9 -9h-52q-9 0 -9 9v58q0 9 9 9h52q9 0 9 -9v-58zM267 803q0 -9 -9 -9h-51
q-10 0 -10 9v58q0 9 10 9h51q9 0 9 -9v-58z" />
    <glyph glyph-name="Aring" unicode="&#xc5;" horiz-adv-x="664" 
d="M647 8q0 -8 -10 -8h-60q-6 0 -9 6l-91 234h-300l-89 -234q-3 -6 -9 -6h-53q-9 0 -9 8l1 4l274 699q2 6 8 6h65q6 0 8 -6l273 -699q1 -3 1 -4zM326 632l-129 -337h259l-128 337h-2zM426 847q0 -40 -27.5 -66.5t-69.5 -26.5q-41 0 -69 26.5t-28 66.5q0 38 27 65.5t70 27.5
q40 0 68.5 -26.5t28.5 -66.5zM377 847q0 24 -14.5 37.5t-33.5 13.5q-20 0 -34.5 -13.5t-14.5 -37.5t14.5 -37.5t34.5 -13.5q19 0 33.5 13.5t14.5 37.5z" />
    <glyph glyph-name="AE" unicode="&#xc6;" horiz-adv-x="979" 
d="M937 9q0 -9 -9 -9h-439q-9 0 -9 9v231h-258l-140 -235q-2 -5 -9 -5h-59q-5 0 -7.5 2t-1.5 6q0 1 2 5l434 697q4 7 12 7h449q9 0 9 -9v-46q0 -9 -9 -9h-351v-262h208q9 0 9 -9v-44q0 -9 -9 -9h-208v-265h377q9 0 9 -9v-46zM254 295h226v366z" />
    <glyph glyph-name="Ccedilla" unicode="&#xc7;" horiz-adv-x="759" 
d="M399 -39q31 -5 54 -25t23 -51q0 -41 -33.5 -60t-81.5 -19q-29 0 -47 6q-13 4 -13 12v30q0 7 7 7l20 -3q20 -3 33 -3q50 0 50 33t-55 36l-10 1q-7 0 -7 7l14 57q-134 11 -224 114t-90 256q0 161 99 266t242 105q131 0 218 -65t113 -181v-2q0 -9 -10 -9h-52q-7 0 -9 7
q-27 95 -94.5 141t-165.5 46q-110 0 -188.5 -82.5t-78.5 -225.5t78.5 -225.5t188.5 -82.5q98 0 165.5 46t94.5 141q2 7 9 7h52q10 0 10 -9v-2q-26 -112 -108 -177t-206 -69l-4 -15l-2 -8q0 -3 8 -4z" />
    <glyph glyph-name="Egrave" unicode="&#xc8;" horiz-adv-x="603" 
d="M371 781q0 -5 -5 -5h-47q-4 0 -7 3l-142 139q-1 1 -1 3q0 6 6 6h65q4 0 8 -4l122 -138q1 -1 1 -4zM561 9q0 -9 -9 -9h-469q-9 0 -9 9v699q0 9 9 9h443q9 0 9 -9v-46q0 -9 -9 -9h-381v-262h228q9 0 9 -9v-44q0 -9 -9 -9h-228v-265h407q9 0 9 -9v-46z" />
    <glyph glyph-name="Eacute" unicode="&#xc9;" horiz-adv-x="599" 
d="M468 921q0 -2 -1 -3l-142 -139q-3 -3 -7 -3h-47q-5 0 -5 5q0 3 1 4l122 138q4 4 8 4h65q6 0 6 -6zM561 9q0 -9 -9 -9h-469q-9 0 -9 9v699q0 9 9 9h443q9 0 9 -9v-46q0 -9 -9 -9h-381v-262h228q9 0 9 -9v-44q0 -9 -9 -9h-228v-265h407q9 0 9 -9v-46z" />
    <glyph glyph-name="Ecircumflex" unicode="&#xca;" horiz-adv-x="603" 
d="M445 782q0 -6 -10 -6h-46q-5 0 -8 5l-73 92l-72 -92q-2 -5 -8 -5h-47q-10 0 -10 7q0 4 3 8l109 129q4 4 8 4h35q4 0 8 -4l109 -132q2 -2 2 -6zM561 9q0 -9 -9 -9h-469q-9 0 -9 9v699q0 9 9 9h443q9 0 9 -9v-46q0 -9 -9 -9h-381v-262h228q9 0 9 -9v-44q0 -9 -9 -9h-228
v-265h407q9 0 9 -9v-46z" />
    <glyph glyph-name="Edieresis" unicode="&#xcb;" horiz-adv-x="603" 
d="M561 9q0 -9 -9 -9h-469q-9 0 -9 9v699q0 9 9 9h443q9 0 9 -9v-46q0 -9 -9 -9h-381v-262h228q9 0 9 -9v-44q0 -9 -9 -9h-228v-265h407q9 0 9 -9v-46zM441 803q0 -9 -9 -9h-52q-9 0 -9 9v58q0 9 9 9h52q9 0 9 -9v-58zM252 803q0 -9 -9 -9h-51q-10 0 -10 9v58q0 9 10 9h51
q9 0 9 -9v-58z" />
    <glyph glyph-name="Igrave" unicode="&#xcc;" horiz-adv-x="229" 
d="M146 781q0 -5 -5 -5h-47q-4 0 -7 3l-142 139q-1 1 -1 3q0 6 6 6h65q4 0 8 -4l122 -138q1 -1 1 -4zM150 9q0 -9 -9 -9h-52q-10 0 -10 9v699q0 9 10 9h52q9 0 9 -9v-699z" />
    <glyph glyph-name="Iacute" unicode="&#xcd;" horiz-adv-x="229" 
d="M289 921q0 -2 -1 -3l-142 -139q-3 -3 -7 -3h-47q-5 0 -5 5q0 3 1 4l122 138q4 4 8 4h65q6 0 6 -6zM150 9q0 -9 -9 -9h-52q-10 0 -10 9v699q0 9 10 9h52q9 0 9 -9v-699z" />
    <glyph glyph-name="Icircumflex" unicode="&#xce;" horiz-adv-x="229" 
d="M254 782q0 -6 -10 -6h-46q-6 0 -8 5l-73 92l-72 -92q-3 -5 -8 -5h-47q-10 0 -10 7q0 4 3 8l109 129q4 4 8 4h35q4 0 8 -4l109 -132q2 -2 2 -6zM150 9q0 -9 -9 -9h-52q-10 0 -10 9v699q0 9 10 9h52q9 0 9 -9v-699z" />
    <glyph glyph-name="Idieresis" unicode="&#xcf;" horiz-adv-x="229" 
d="M229 803q0 -9 -9 -9h-52q-9 0 -9 9v58q0 9 9 9h52q9 0 9 -9v-58zM70 803q0 -9 -10 -9h-51q-9 0 -9 9v58q0 9 9 9h51q10 0 10 -9v-58zM150 9q0 -9 -9 -9h-52q-10 0 -10 9v699q0 9 10 9h52q9 0 9 -9v-699z" />
    <glyph glyph-name="Eth" unicode="&#xd0;" horiz-adv-x="696" 
d="M657 374q0 -166 -88.5 -270t-254.5 -104h-231q-9 0 -9 9v321h-64q-9 0 -9 9v42q0 9 9 9h64v318q0 9 9 9h247q81 0 145.5 -30t103 -79.5t58.5 -109.5t20 -124zM583 374q0 51 -16 100t-45.5 90t-79 66t-111.5 25h-186v-265h170q9 0 9 -9v-42q0 -9 -9 -9h-170v-268h170
q127 0 197.5 83.5t70.5 228.5z" />
    <glyph glyph-name="Ntilde" unicode="&#xd1;" horiz-adv-x="717" 
d="M515 884q0 -13 -3.5 -29t-12.5 -34.5t-29 -31t-47 -12.5q-32 0 -74 30q-42 29 -60 29t-26 -16.5t-8 -33.5q0 -9 -9 -9h-36q-9 0 -9 10q0 30 24.5 66t69.5 36q32 0 75 -30t60 -30q15 0 23 18.5t8 35.5q0 8 9 8h36q9 0 9 -7zM647 9q0 -9 -10 -9h-54q-5 0 -11 7l-431 610h-2
v-608q0 -9 -9 -9h-47q-9 0 -9 9v699q0 9 9 9h65q7 0 12 -7l419 -592h3v590q0 9 9 9h46q10 0 10 -9v-699z" />
    <glyph glyph-name="Ograve" unicode="&#xd2;" horiz-adv-x="784" 
d="M416 781q0 -5 -5 -5h-47q-4 0 -7 3l-142 139q-1 1 -1 3q0 6 6 6h65q4 0 8 -4l122 -138q1 -1 1 -4zM744 359q0 -55 -13.5 -108t-42 -101t-69.5 -84t-99.5 -57t-127.5 -21t-127.5 21t-99.5 57t-69.5 84t-42 101t-13.5 108t13.5 108t42 101t69.5 84t99.5 57t127.5 21
t127.5 -21t99.5 -57t69.5 -84t42 -101t13.5 -108zM392 667q-129 0 -203.5 -90t-74.5 -218t74.5 -218t203.5 -90t203.5 90t74.5 218t-74.5 218t-203.5 90z" />
    <glyph glyph-name="Oacute" unicode="&#xd3;" horiz-adv-x="784" 
d="M563 921q0 -2 -1 -3l-142 -139q-3 -3 -7 -3h-47q-5 0 -5 5q0 3 1 4l122 138q4 4 8 4h65q6 0 6 -6zM744 359q0 -55 -13.5 -108t-42 -101t-69.5 -84t-99.5 -57t-127.5 -21t-127.5 21t-99.5 57t-69.5 84t-42 101t-13.5 108t13.5 108t42 101t69.5 84t99.5 57t127.5 21
t127.5 -21t99.5 -57t69.5 -84t42 -101t13.5 -108zM392 667q-129 0 -203.5 -90t-74.5 -218t74.5 -218t203.5 -90t203.5 90t74.5 218t-74.5 218t-203.5 90z" />
    <glyph glyph-name="Ocircumflex" unicode="&#xd4;" horiz-adv-x="784" 
d="M523 782q0 -6 -10 -6h-46q-5 0 -8 5l-73 92l-72 -92q-2 -5 -8 -5h-47q-10 0 -10 7q0 4 3 8l109 129q4 4 8 4h35q4 0 8 -4l109 -132q2 -2 2 -6zM744 359q0 -55 -13.5 -108t-42 -101t-69.5 -84t-99.5 -57t-127.5 -21t-127.5 21t-99.5 57t-69.5 84t-42 101t-13.5 108
t13.5 108t42 101t69.5 84t99.5 57t127.5 21t127.5 -21t99.5 -57t69.5 -84t42 -101t13.5 -108zM392 667q-129 0 -203.5 -90t-74.5 -218t74.5 -218t203.5 -90t203.5 90t74.5 218t-74.5 218t-203.5 90z" />
    <glyph glyph-name="Otilde" unicode="&#xd5;" horiz-adv-x="784" 
d="M549 884q0 -13 -3.5 -29t-12.5 -34.5t-29 -31t-47 -12.5q-32 0 -74 30q-42 29 -60 29t-26 -16.5t-8 -33.5q0 -9 -9 -9h-35q-9 0 -9 10q0 30 23.5 66t68.5 36q32 0 75 -30t60 -30q15 0 23.5 19t8.5 35q0 8 10 8h36q8 0 8 -7zM744 359q0 -55 -13.5 -108t-42 -101t-69.5 -84
t-99.5 -57t-127.5 -21t-127.5 21t-99.5 57t-69.5 84t-42 101t-13.5 108t13.5 108t42 101t69.5 84t99.5 57t127.5 21t127.5 -21t99.5 -57t69.5 -84t42 -101t13.5 -108zM392 667q-129 0 -203.5 -90t-74.5 -218t74.5 -218t203.5 -90t203.5 90t74.5 218t-74.5 218t-203.5 90z
" />
    <glyph glyph-name="Odieresis" unicode="&#xd6;" horiz-adv-x="784" 
d="M744 359q0 -55 -13.5 -108t-42 -101t-69.5 -84t-99.5 -57t-127.5 -21t-127.5 21t-99.5 57t-69.5 84t-42 101t-13.5 108t13.5 108t42 101t69.5 84t99.5 57t127.5 21t127.5 -21t99.5 -57t69.5 -84t42 -101t13.5 -108zM392 667q-129 0 -203.5 -90t-74.5 -218t74.5 -218
t203.5 -90t203.5 90t74.5 218t-74.5 218t-203.5 90zM521 803q0 -9 -9 -9h-52q-9 0 -9 9v58q0 9 9 9h52q9 0 9 -9v-58zM332 803q0 -9 -9 -9h-51q-10 0 -10 9v58q0 9 10 9h51q9 0 9 -9v-58z" />
    <glyph glyph-name="multiply" unicode="&#xd7;" horiz-adv-x="584" 
d="M486 390q0 -4 -3 -7l-151 -145l150 -145q3 -3 3 -7q0 -2 -2 -4l-31 -29q-3 -3 -6 -3t-6 3l-147 146l-152 -148q-3 -3 -6 -3q-2 0 -4 2l-32 31q-3 3 -3 5q0 3 3 6l152 146l-150 145q-3 3 -3 7q0 2 2 4l31 29q2 2 5 2q4 0 6 -2l149 -146l150 147q2 2 6 2q3 0 5 -2l32 -30
q2 -2 2 -4z" />
    <glyph glyph-name="Oslash" unicode="&#xd8;" horiz-adv-x="784" 
d="M392 51q129 0 203.5 90t74.5 218q0 129 -73 216l-369 -472q68 -52 164 -52zM392 667q-129 0 -203.5 -90t-74.5 -218q0 -132 74 -218l369 472q-68 54 -165 54zM744 359q0 -55 -13.5 -108t-42 -101t-69.5 -84t-99.5 -57t-127.5 -21q-120 0 -206 62l-47 -61q-3 -4 -7 -4
q-3 0 -5 2l-30 22q-4 4 -4 7t2 5l50 64q-52 52 -78.5 124t-26.5 150q0 55 13.5 108t42 101t69.5 84t99.5 57t127.5 21q120 0 207 -63l48 61q3 4 8 4q4 0 6 -2l29 -22q4 -4 4 -7q0 -1 -2 -5l-51 -66q50 -53 76.5 -124t26.5 -147z" />
    <glyph glyph-name="Ugrave" unicode="&#xd9;" horiz-adv-x="665" 
d="M386 781q0 -5 -5 -5h-47q-4 0 -7 3l-142 139q-1 1 -1 3q0 6 6 6h65q4 0 8 -4l122 -138q1 -1 1 -4zM591 220q0 -99 -72 -165.5t-185 -66.5t-186.5 63.5t-73.5 168.5v488q0 9 9 9h53q9 0 9 -9v-487q0 -74 51.5 -122.5t137.5 -48.5t136 47t50 124v487q0 9 9 9h53q9 0 9 -9
v-488z" />
    <glyph glyph-name="Uacute" unicode="&#xda;" horiz-adv-x="665" 
d="M498 921q0 -2 -1 -3l-142 -139q-3 -3 -7 -3h-47q-5 0 -5 5q0 3 1 4l122 138q4 4 8 4h65q6 0 6 -6zM591 220q0 -99 -72 -165.5t-185 -66.5t-186.5 63.5t-73.5 168.5v488q0 9 9 9h53q9 0 9 -9v-487q0 -74 51.5 -122.5t137.5 -48.5t136 47t50 124v487q0 9 9 9h53q9 0 9 -9
v-488z" />
    <glyph glyph-name="Ucircumflex" unicode="&#xdb;" horiz-adv-x="665" 
d="M469 782q0 -6 -10 -6h-46q-5 0 -8 5l-73 92l-72 -92q-2 -5 -8 -5h-47q-10 0 -10 7q0 4 3 8l109 129q4 4 8 4h35q4 0 8 -4l109 -132q2 -2 2 -6zM591 220q0 -99 -72 -165.5t-185 -66.5t-186.5 63.5t-73.5 168.5v488q0 9 9 9h53q9 0 9 -9v-487q0 -74 51.5 -122.5
t137.5 -48.5t136 47t50 124v487q0 9 9 9h53q9 0 9 -9v-488z" />
    <glyph glyph-name="Udieresis" unicode="&#xdc;" horiz-adv-x="665" 
d="M591 220q0 -99 -72 -165.5t-185 -66.5t-186.5 63.5t-73.5 168.5v488q0 9 9 9h53q9 0 9 -9v-487q0 -74 51.5 -122.5t137.5 -48.5t136 47t50 124v487q0 9 9 9h53q9 0 9 -9v-488zM458 805q0 -9 -9 -9h-52q-9 0 -9 9v58q0 9 9 9h52q9 0 9 -9v-58zM269 805q0 -9 -9 -9h-51
q-10 0 -10 9v58q0 9 10 9h51q9 0 9 -9v-58z" />
    <glyph glyph-name="Yacute" unicode="&#xdd;" horiz-adv-x="661" 
d="M507 921q0 -2 -1 -3l-142 -139q-3 -3 -7 -3h-47q-5 0 -5 5q0 3 1 4l122 138q4 4 8 4h65q6 0 6 -6zM643 711l-2 -5l-276 -441v-256q0 -9 -10 -9h-53q-9 0 -9 9v256l-274 441q-1 3 -1 4q0 7 7 7h65q9 0 13 -8l228 -372h2l231 373q4 7 13 7h57q9 0 9 -6z" />
    <glyph glyph-name="Thorn" unicode="&#xde;" horiz-adv-x="595" 
d="M308 592q122 0 187 -66.5t65 -159.5q0 -94 -65.5 -162.5t-186.5 -68.5h-163v-126q0 -9 -9 -9h-53q-9 0 -9 9v699q0 9 9 9h53q9 0 9 -9v-116h163zM309 196q88 0 133.5 50.5t45.5 119.5t-47 117t-134 48h-162v-335h164z" />
    <glyph glyph-name="germandbls" unicode="&#xdf;" horiz-adv-x="517" 
d="M482 193q0 -94 -49.5 -147.5t-138.5 -53.5q-39 0 -67 11t-40 28t-17 30t-5 23t9 10h46q9 0 11 -11q8 -37 62 -37q124 0 124 144q0 69 -39 115t-120 46h-74q-9 0 -9 9v36q0 9 9 9h74q52 0 80 40t28 94q0 58 -34 93t-84 35q-63 0 -92.5 -35.5t-29.5 -97.5v-525q0 -9 -10 -9
h-45q-9 0 -9 9v525q0 87 49 137t137 50q75 0 128 -49t53 -133q0 -44 -21 -89t-62 -66q72 -20 104 -71t32 -120z" />
    <glyph glyph-name="agrave" unicode="&#xe0;" horiz-adv-x="470" 
d="M450 11q0 -7 -7 -8q-20 -5 -44 -5q-56 0 -73 49l-2 1q-21 -29 -61.5 -44.5t-77.5 -15.5q-67 0 -109.5 32t-42.5 79q0 34 15 59t44.5 42t58 28t69.5 24.5t65 24.5q37 17 37 54q0 42 -24.5 57.5t-70.5 15.5q-105 0 -110 -104q0 -9 -9 -9h-45q-9 0 -9 9q0 82 55 122
q49 36 122 36q155 0 155 -124v-259q0 -9 7 -16t18 -7q7 0 18 0.5t13 0.5q8 0 8 -8v-34zM322 153v99l-1 1q-18 -16 -114 -54q-65 -25 -86 -45.5t-21 -49.5t27.5 -46.5t65.5 -17.5q129 0 129 113zM282 506q0 -5 -7 -5h-45q-5 0 -8 3l-127 161q-3 3 -3 6q0 6 8 6h63q5 0 8 -4
l109 -162q2 -4 2 -5z" />
    <glyph glyph-name="aacute" unicode="&#xe1;" horiz-adv-x="470" 
d="M450 11q0 -7 -7 -8q-20 -5 -44 -5q-56 0 -73 49l-2 1q-21 -29 -61.5 -44.5t-77.5 -15.5q-67 0 -109.5 32t-42.5 79q0 34 15 59t44.5 42t58 28t69.5 24.5t65 24.5q37 17 37 54q0 42 -24.5 57.5t-70.5 15.5q-105 0 -110 -104q0 -9 -9 -9h-45q-9 0 -9 9q0 82 55 122
q49 36 122 36q155 0 155 -124v-259q0 -9 7 -16t18 -7q7 0 18 0.5t13 0.5q8 0 8 -8v-34zM322 153v99l-1 1q-18 -16 -114 -54q-65 -25 -86 -45.5t-21 -49.5t27.5 -46.5t65.5 -17.5q129 0 129 113zM378 671l-1 -3l-130 -164q-3 -3 -7 -3h-47q-5 0 -5 5l1 4l110 163q3 4 8 4h65
q6 0 6 -6z" />
    <glyph glyph-name="acircumflex" unicode="&#xe2;" horiz-adv-x="470" 
d="M450 11q0 -7 -7 -8q-20 -5 -44 -5q-56 0 -73 49l-2 1q-21 -29 -61.5 -44.5t-77.5 -15.5q-67 0 -109.5 32t-42.5 79q0 34 15 59t44.5 42t58 28t69.5 24.5t65 24.5q37 17 37 54q0 42 -24.5 57.5t-70.5 15.5q-105 0 -110 -104q0 -9 -9 -9h-45q-9 0 -9 9q0 82 55 122
q49 36 122 36q155 0 155 -124v-259q0 -9 7 -16t18 -7q7 0 18 0.5t13 0.5q8 0 8 -8v-34zM322 153v99l-1 1q-18 -16 -114 -54q-65 -25 -86 -45.5t-21 -49.5t27.5 -46.5t65.5 -17.5q129 0 129 113zM349 512q0 -6 -10 -6h-37q-6 0 -9 5l-62 112l-65 -112q-2 -5 -9 -5h-36
q-11 0 -11 8q0 1 2 5l93 154q2 4 8 4h34q6 0 8 -4l92 -156q2 -4 2 -5z" />
    <glyph glyph-name="atilde" unicode="&#xe3;" horiz-adv-x="470" 
d="M450 11q0 -7 -7 -8q-20 -5 -44 -5q-56 0 -73 49l-2 1q-21 -29 -61.5 -44.5t-77.5 -15.5q-67 0 -109.5 32t-42.5 79q0 34 15 59t44.5 42t58 28t69.5 24.5t65 24.5q37 17 37 54q0 42 -24.5 57.5t-70.5 15.5q-105 0 -110 -104q0 -9 -9 -9h-45q-9 0 -9 9q0 82 55 122
q49 36 122 36q155 0 155 -124v-259q0 -9 7 -16t18 -7q7 0 18 0.5t13 0.5q8 0 8 -8v-34zM322 153v99l-1 1q-18 -16 -114 -54q-65 -25 -86 -45.5t-21 -49.5t27.5 -46.5t65.5 -17.5q129 0 129 113zM384 644q0 -13 -3.5 -29t-12.5 -34.5t-29 -31t-47 -12.5q-32 0 -74 30
q-42 29 -60 29t-26 -16.5t-8 -33.5q0 -9 -9 -9h-35q-9 0 -9 10q0 30 24 66t69 36q32 0 75 -30t60 -30q15 0 23 18.5t8 35.5q0 8 10 8h36q8 0 8 -7z" />
    <glyph glyph-name="adieresis" unicode="&#xe4;" horiz-adv-x="470" 
d="M450 11q0 -7 -7 -8q-20 -5 -44 -5q-56 0 -73 49l-2 1q-21 -29 -61.5 -44.5t-77.5 -15.5q-67 0 -109.5 32t-42.5 79q0 34 15 59t44.5 42t58 28t69.5 24.5t65 24.5q37 17 37 54q0 42 -24.5 57.5t-70.5 15.5q-105 0 -110 -104q0 -9 -9 -9h-45q-9 0 -9 9q0 82 55 122
q49 36 122 36q155 0 155 -124v-259q0 -9 7 -16t18 -7q7 0 18 0.5t13 0.5q8 0 8 -8v-34zM322 153v99l-1 1q-18 -16 -114 -54q-65 -25 -86 -45.5t-21 -49.5t27.5 -46.5t65.5 -17.5q129 0 129 113zM360 560q0 -9 -9 -9h-52q-9 0 -9 9v58q0 9 9 9h52q9 0 9 -9v-58zM171 560
q0 -9 -9 -9h-51q-10 0 -10 9v58q0 9 10 9h51q9 0 9 -9v-58z" />
    <glyph glyph-name="aring" unicode="&#xe5;" horiz-adv-x="470" 
d="M450 11q0 -7 -7 -8q-20 -5 -44 -5q-56 0 -73 49l-2 1q-21 -29 -61.5 -44.5t-77.5 -15.5q-67 0 -109.5 32t-42.5 79q0 34 15 59t44.5 42t58 28t69.5 24.5t65 24.5q37 17 37 54q0 42 -24.5 57.5t-70.5 15.5q-105 0 -110 -104q0 -9 -9 -9h-45q-9 0 -9 9q0 82 55 122
q49 36 122 36q155 0 155 -124v-259q0 -9 7 -16t18 -7q7 0 18 0.5t13 0.5q8 0 8 -8v-34zM322 153v99l-1 1q-18 -16 -114 -54q-65 -25 -86 -45.5t-21 -49.5t27.5 -46.5t65.5 -17.5q129 0 129 113zM334 593q0 -40 -27.5 -66.5t-69.5 -26.5q-41 0 -69 26.5t-28 66.5
q0 38 27 65.5t70 27.5q40 0 68.5 -26.5t28.5 -66.5zM285 593q0 24 -14.5 37.5t-33.5 13.5q-20 0 -34.5 -13.5t-14.5 -37.5t14.5 -37.5t34.5 -13.5q19 0 33.5 13.5t14.5 37.5z" />
    <glyph glyph-name="ae" unicode="&#xe6;" horiz-adv-x="772" 
d="M733 227q0 -8 -9 -8h-328q2 -82 38 -129.5t102 -47.5q98 0 127 93q2 6 10 6h45q9 0 9 -8v-3q-18 -69 -69 -105.5t-124 -36.5q-109 0 -165 88q-24 -42 -73 -65t-111 -23q-66 0 -109 32.5t-43 79.5q0 37 18 64t49.5 43.5t63 27t71.5 22t61 21.5q37 17 37 53q0 43 -25.5 58
t-71.5 15q-115 0 -119 -104q0 -9 -9 -9h-45q-9 0 -9 9q0 82 55 122q49 36 133 36q112 0 144 -76q56 76 148 76q50 0 88.5 -19t58.5 -45.5t32.5 -61.5t16 -59t3.5 -46zM333 164v93q-21 -17 -53 -30q-14 -6 -40.5 -15.5t-32.5 -11.5q-65 -25 -86 -45.5t-21 -49.5t27.5 -47
t65.5 -18q140 0 140 124zM665 267q-22 137 -131 137q-61 0 -96 -39t-42 -98h269z" />
    <glyph glyph-name="ccedilla" unicode="&#xe7;" horiz-adv-x="495" 
d="M269 -39q31 -5 54 -25t23 -51q0 -41 -33.5 -60t-81.5 -19q-29 0 -47 6q-13 4 -13 12v30q0 7 7 7l20 -3q20 -3 33 -3q50 0 50 33t-55 36l-10 1q-7 0 -7 7l14 58q-88 11 -136 78.5t-48 154.5q0 95 56 165t157 70q79 0 131 -41.5t62 -114.5v-2q0 -8 -9 -8h-47q-7 0 -9 9
q-6 42 -38 72.5t-88 30.5q-71 0 -110 -54t-39 -127t39 -127t110 -54q56 0 88.5 33t38.5 77q1 9 10 9h46q8 0 8 -9v-2q-12 -71 -59 -114t-119 -47l-4 -16l-2 -8q0 -3 8 -4z" />
    <glyph glyph-name="egrave" unicode="&#xe8;" horiz-adv-x="493" 
d="M282 506q0 -5 -7 -5h-45q-5 0 -8 3l-127 161q-3 3 -3 6q0 6 8 6h63q5 0 8 -4l109 -162q2 -4 2 -5zM448 228q0 -9 -9 -9h-335q0 -76 40 -126.5t106 -50.5q102 0 132 94q2 6 9 6h46q9 0 9 -9q0 -4 -4.5 -18t-18.5 -36t-34.5 -42t-58 -34.5t-83.5 -14.5q-93 0 -150.5 65.5
t-57.5 169.5q0 101 57.5 168t150.5 67q91 0 146 -60t55 -170zM380 266q-4 63 -39 100.5t-94 37.5q-56 0 -96 -38.5t-46 -99.5h275z" />
    <glyph glyph-name="eacute" unicode="&#xe9;" horiz-adv-x="493" 
d="M408 671l-1 -3l-130 -164q-3 -3 -7 -3h-47q-5 0 -5 5l1 4l110 163q3 4 8 4h65q6 0 6 -6zM448 228q0 -9 -9 -9h-335q0 -76 40 -126.5t106 -50.5q102 0 132 94q2 6 9 6h46q9 0 9 -9q0 -4 -4.5 -18t-18.5 -36t-34.5 -42t-58 -34.5t-83.5 -14.5q-93 0 -150.5 65.5
t-57.5 169.5q0 101 57.5 168t150.5 67q91 0 146 -60t55 -170zM380 266q-4 63 -39 100.5t-94 37.5q-56 0 -96 -38.5t-46 -99.5h275z" />
    <glyph glyph-name="ecircumflex" unicode="&#xea;" horiz-adv-x="493" 
d="M365 512q0 -6 -10 -6h-37q-6 0 -9 5l-62 112l-65 -112q-2 -5 -9 -5h-36q-11 0 -11 8q0 1 2 5l93 154q2 4 8 4h34q6 0 8 -4l92 -156q2 -4 2 -5zM448 228q0 -9 -9 -9h-335q0 -76 40 -126.5t106 -50.5q102 0 132 94q2 6 9 6h46q9 0 9 -9q0 -4 -4.5 -18t-18.5 -36t-34.5 -42
t-58 -34.5t-83.5 -14.5q-93 0 -150.5 65.5t-57.5 169.5q0 101 57.5 168t150.5 67q91 0 146 -60t55 -170zM380 266q-4 63 -39 100.5t-94 37.5q-56 0 -96 -38.5t-46 -99.5h275z" />
    <glyph glyph-name="edieresis" unicode="&#xeb;" horiz-adv-x="493" 
d="M374 560q0 -9 -9 -9h-52q-9 0 -9 9v58q0 9 9 9h52q9 0 9 -9v-58zM185 560q0 -9 -9 -9h-51q-10 0 -10 9v58q0 9 10 9h51q9 0 9 -9v-58zM448 228q0 -9 -9 -9h-335q0 -76 40 -126.5t106 -50.5q102 0 132 94q2 6 9 6h46q9 0 9 -9q0 -4 -4.5 -18t-18.5 -36t-34.5 -42
t-58 -34.5t-83.5 -14.5q-93 0 -150.5 65.5t-57.5 169.5q0 101 57.5 168t150.5 67q91 0 146 -60t55 -170zM380 266q-4 63 -39 100.5t-94 37.5q-56 0 -96 -38.5t-46 -99.5h275z" />
    <glyph glyph-name="igrave" unicode="&#xec;" horiz-adv-x="193" 
d="M131 9q0 -9 -10 -9h-44q-9 0 -9 9v428q0 9 9 9h44q10 0 10 -9v-428zM134 506q0 -5 -7 -5h-45q-5 0 -8 3l-127 161q-3 3 -3 6q0 6 8 6h63q5 0 8 -4l109 -162q2 -4 2 -5z" />
    <glyph glyph-name="iacute" unicode="&#xed;" horiz-adv-x="197" 
d="M125 9q0 -9 -10 -9h-44q-9 0 -9 9v428q0 9 9 9h44q10 0 10 -9v-428zM242 671l-1 -3l-130 -164q-3 -3 -7 -3h-47q-5 0 -5 5l1 4l110 163q3 4 8 4h65q6 0 6 -6z" />
    <glyph glyph-name="icircumflex" unicode="&#xee;" horiz-adv-x="187" 
d="M125 9q0 -9 -10 -9h-44q-9 0 -9 9v428q0 9 9 9h44q10 0 10 -9v-428zM213 512q0 -6 -10 -6h-37q-6 0 -9 5l-62 112l-65 -112q-2 -5 -9 -5h-36q-11 0 -11 8q0 1 2 5l93 154q2 4 8 4h34q6 0 8 -4l92 -156q2 -4 2 -5z" />
    <glyph glyph-name="idieresis" unicode="&#xef;" horiz-adv-x="187" 
d="M125 9q0 -9 -10 -9h-44q-9 0 -9 9v428q0 9 9 9h44q10 0 10 -9v-428zM204 560q0 -9 -9 -9h-52q-9 0 -9 9v58q0 9 9 9h52q9 0 9 -9v-58zM55 560q0 -9 -9 -9h-51q-10 0 -10 9v58q0 9 10 9h51q9 0 9 -9v-58z" />
    <glyph glyph-name="eth" unicode="&#xf0;" horiz-adv-x="511" 
d="M401 688l-1 -3l-72 -65q150 -122 150 -362q0 -117 -59.5 -193.5t-162.5 -76.5q-105 0 -163 69.5t-58 165.5q0 105 64 169.5t150 64.5q98 0 160 -78q-28 130 -123 203l-72 -68q-3 -3 -7 -3h-50q-5 0 -5 5l1 4l95 92q-50 27 -136 36q-8 0 -8 8v38q1 7 7 7h2q98 -7 171 -50
l39 39q3 4 8 4h64q6 0 6 -6zM416 227q0 72 -42 124.5t-115 52.5q-75 0 -117 -53.5t-42 -127.5t41.5 -127.5t114.5 -53.5q72 0 116 51t44 134z" />
    <glyph glyph-name="ntilde" unicode="&#xf1;" horiz-adv-x="486" 
d="M424 9q0 -9 -9 -9h-45q-10 0 -10 9v298q0 44 -25.5 70.5t-71.5 26.5q-68 0 -102.5 -37.5t-34.5 -92.5v-265q0 -9 -10 -9h-45q-9 0 -9 9v428q0 9 9 9h41q8 0 10 -9l3 -45h2q22 29 59 47.5t79 18.5q76 0 117.5 -36.5t41.5 -103.5v-309zM399 644q0 -13 -3.5 -29t-12.5 -34.5
t-29 -31t-47 -12.5q-32 0 -74 30q-42 29 -60 29t-26 -16.5t-8 -33.5q0 -9 -9 -9h-35q-9 0 -9 10q0 30 24 66t69 36q32 0 75 -30t60 -30q15 0 23 18.5t8 35.5q0 8 10 8h36q8 0 8 -7z" />
    <glyph glyph-name="ograve" unicode="&#xf2;" horiz-adv-x="521" 
d="M482 225q0 -97 -58 -167t-163 -70t-163.5 70t-58.5 167q0 100 61 166.5t161 66.5q105 0 163 -68.5t58 -164.5zM417 227q0 73 -40.5 125t-113.5 52q-75 0 -117 -53.5t-42 -127.5t41 -127.5t114 -53.5q74 0 116 55t42 130zM282 506q0 -5 -7 -5h-45q-5 0 -8 3l-127 161
q-3 3 -3 6q0 6 8 6h63q5 0 8 -4l109 -162q2 -4 2 -5z" />
    <glyph glyph-name="oacute" unicode="&#xf3;" horiz-adv-x="521" 
d="M482 225q0 -97 -58 -167t-163 -70t-163.5 70t-58.5 167q0 100 61 166.5t161 66.5q105 0 163 -68.5t58 -164.5zM417 227q0 73 -40.5 125t-113.5 52q-75 0 -117 -53.5t-42 -127.5t41 -127.5t114 -53.5q74 0 116 55t42 130zM418 671l-1 -3l-130 -164q-3 -3 -7 -3h-47
q-5 0 -5 5l1 4l110 163q3 4 8 4h65q6 0 6 -6z" />
    <glyph glyph-name="ocircumflex" unicode="&#xf4;" horiz-adv-x="521" 
d="M482 225q0 -97 -58 -167t-163 -70t-163.5 70t-58.5 167q0 100 61 166.5t161 66.5q105 0 163 -68.5t58 -164.5zM417 227q0 73 -40.5 125t-113.5 52q-75 0 -117 -53.5t-42 -127.5t41 -127.5t114 -53.5q74 0 116 55t42 130zM377 512q0 -6 -10 -6h-37q-6 0 -9 5l-62 112
l-65 -112q-2 -5 -9 -5h-36q-11 0 -11 8q0 1 2 5l93 154q2 4 8 4h34q6 0 8 -4l92 -156q2 -4 2 -5z" />
    <glyph glyph-name="otilde" unicode="&#xf5;" horiz-adv-x="521" 
d="M482 225q0 -97 -58 -167t-163 -70t-163.5 70t-58.5 167q0 100 61 166.5t161 66.5q105 0 163 -68.5t58 -164.5zM417 227q0 73 -40.5 125t-113.5 52q-75 0 -117 -53.5t-42 -127.5t41 -127.5t114 -53.5q74 0 116 55t42 130zM414 644q0 -13 -3.5 -29t-12.5 -34.5t-29 -31
t-47 -12.5q-32 0 -74 30q-42 29 -60 29t-26 -16.5t-8 -33.5q0 -9 -9 -9h-35q-9 0 -9 10q0 30 24 66t69 36q32 0 75 -30t60 -30q15 0 23 18.5t8 35.5q0 8 10 8h36q8 0 8 -7z" />
    <glyph glyph-name="odieresis" unicode="&#xf6;" horiz-adv-x="521" 
d="M482 225q0 -97 -58 -167t-163 -70t-163.5 70t-58.5 167q0 100 61 166.5t161 66.5q105 0 163 -68.5t58 -164.5zM417 227q0 73 -40.5 125t-113.5 52q-75 0 -117 -53.5t-42 -127.5t41 -127.5t114 -53.5q74 0 116 55t42 130zM391 560q0 -9 -9 -9h-52q-9 0 -9 9v58q0 9 9 9h52
q9 0 9 -9v-58zM202 560q0 -9 -9 -9h-51q-10 0 -10 9v58q0 9 10 9h51q9 0 9 -9v-58z" />
    <glyph glyph-name="divide" unicode="&#xf7;" horiz-adv-x="584" 
d="M327 382q0 -9 -10 -9h-51q-10 0 -10 9v58q0 9 10 9h51q10 0 10 -9v-58zM541 219q0 -9 -10 -9h-478q-10 0 -10 9v38q0 9 10 9h478q10 0 10 -9v-38zM327 38q0 -9 -10 -9h-51q-10 0 -10 9v58q0 9 10 9h51q10 0 10 -9v-58z" />
    <glyph glyph-name="oslash" unicode="&#xf8;" horiz-adv-x="521" 
d="M482 223q0 -96 -58.5 -166t-163.5 -70q-74 0 -125 38l-34 -39q-3 -3 -6 -3q-4 0 -6 2l-21 16q-4 4 -4 7t2 5l34 42q-61 70 -61 168q0 100 60.5 167.5t160.5 67.5q85 0 133 -42l35 41q3 3 6 3q4 0 6 -2l22 -17q4 -4 4 -7q0 -1 -2 -5l-37 -45q26 -28 40.5 -73t14.5 -88z
M357 371q-37 33 -94 33q-75 0 -117 -53.5t-42 -127.5q0 -73 35 -119zM417 223q0 72 -30 112l-216 -265q35 -29 87 -29q75 0 117 54t42 128z" />
    <glyph glyph-name="ugrave" unicode="&#xf9;" horiz-adv-x="484" 
d="M422 9q0 -9 -9 -9h-41q-8 0 -9 9l-4 50h-2q-17 -29 -56 -50t-80 -21q-72 0 -115.5 35.5t-43.5 104.5v309q0 9 9 9h45q10 0 10 -9v-298q0 -97 98 -97q58 0 96 35.5t38 94.5v265q0 9 10 9h45q9 0 9 -9v-428zM282 506q0 -5 -7 -5h-45q-5 0 -8 3l-127 161q-3 3 -3 6q0 6 8 6
h63q5 0 8 -4l109 -162q2 -4 2 -5z" />
    <glyph glyph-name="uacute" unicode="&#xfa;" horiz-adv-x="484" 
d="M422 9q0 -9 -9 -9h-41q-8 0 -9 9l-4 50h-2q-17 -29 -56 -50t-80 -21q-72 0 -115.5 35.5t-43.5 104.5v309q0 9 9 9h45q10 0 10 -9v-298q0 -97 98 -97q58 0 96 35.5t38 94.5v265q0 9 10 9h45q9 0 9 -9v-428zM388 671l-1 -3l-130 -164q-3 -3 -7 -3h-47q-5 0 -5 5l1 4
l110 163q3 4 8 4h65q6 0 6 -6z" />
    <glyph glyph-name="ucircumflex" unicode="&#xfb;" horiz-adv-x="484" 
d="M422 9q0 -9 -9 -9h-41q-8 0 -9 9l-4 50h-2q-17 -29 -56 -50t-80 -21q-72 0 -115.5 35.5t-43.5 104.5v309q0 9 9 9h45q10 0 10 -9v-298q0 -97 98 -97q58 0 96 35.5t38 94.5v265q0 9 10 9h45q9 0 9 -9v-428zM364 512q0 -6 -10 -6h-37q-7 0 -9 5l-62 112l-65 -112
q-3 -5 -9 -5h-36q-11 0 -11 8q0 1 2 5l93 154q2 4 8 4h34q6 0 8 -4l92 -156q2 -4 2 -5z" />
    <glyph glyph-name="udieresis" unicode="&#xfc;" horiz-adv-x="484" 
d="M422 9q0 -9 -9 -9h-41q-8 0 -9 9l-4 50h-2q-17 -29 -56 -50t-80 -21q-72 0 -115.5 35.5t-43.5 104.5v309q0 9 9 9h45q10 0 10 -9v-298q0 -97 98 -97q58 0 96 35.5t38 94.5v265q0 9 10 9h45q9 0 9 -9v-428zM374 560q0 -9 -9 -9h-52q-9 0 -9 9v58q0 9 9 9h52q9 0 9 -9v-58z
M185 560q0 -9 -9 -9h-51q-10 0 -10 9v58q0 9 10 9h51q9 0 9 -9v-58z" />
    <glyph glyph-name="yacute" unicode="&#xfd;" horiz-adv-x="422" 
d="M409 431l-196 -510q-19 -51 -39 -89q-35 -66 -101 -66q-40 0 -58 9q-6 3 -6 8l1 4l14 39q2 4 7 4l8 -2q15 -6 31 -6q22 0 36 12.5t26 42.5l46 114l-160 441q-2 5 -2 7q0 6 7 6h52q9 0 12 -9l126 -357h2l134 358q4 9 12 9h43q7 0 7 -6q0 -5 -2 -9zM348 671l-1 -3
l-130 -164q-3 -3 -7 -3h-47q-5 0 -5 5l1 4l110 163q3 4 8 4h65q6 0 6 -6z" />
    <glyph glyph-name="thorn" unicode="&#xfe;" horiz-adv-x="525" 
d="M486 223q0 -98 -56.5 -166.5t-152.5 -68.5q-109 0 -151 73v-282q0 -9 -10 -9h-45q-9 0 -9 9v929q0 9 9 9h45q10 0 10 -9v-321q17 28 59 49.5t89 21.5q95 0 153.5 -64.5t58.5 -170.5zM421 223q0 80 -39 130.5t-109 50.5q-76 0 -112 -52t-36 -129q0 -79 36 -130t113 -51
q66 0 106.5 50.5t40.5 130.5z" />
    <glyph glyph-name="ydieresis" unicode="&#xff;" horiz-adv-x="422" 
d="M339 560q0 -9 -9 -9h-52q-9 0 -9 9v58q0 9 9 9h52q9 0 9 -9v-58zM150 560q0 -9 -9 -9h-51q-10 0 -10 9v58q0 9 10 9h51q9 0 9 -9v-58zM409 431l-196 -510q-19 -51 -39 -89q-35 -66 -101 -66q-40 0 -58 9q-6 3 -6 8l1 4l14 39q2 4 7 4l8 -2q15 -6 31 -6q22 0 36 12.5
t26 42.5l46 114l-160 441q-2 5 -2 7q0 6 7 6h52q9 0 12 -9l126 -357h2l134 358q4 9 12 9h43q7 0 7 -6q0 -5 -2 -9z" />
    <glyph glyph-name="Amacron" unicode="&#x100;" horiz-adv-x="664" 
d="M475 821q0 -11 -11 -11h-276q-11 0 -11 11v27q0 11 11 11h276q11 0 11 -11v-27zM647 8q0 -8 -10 -8h-60q-6 0 -9 6l-91 234h-300l-89 -234q-3 -6 -9 -6h-53q-9 0 -9 8l1 4l274 699q2 6 8 6h65q6 0 8 -6l273 -699q1 -3 1 -4zM326 632l-129 -337h259l-128 337h-2z" />
    <glyph glyph-name="amacron" unicode="&#x101;" horiz-adv-x="470" 
d="M450 11q0 -7 -7 -8q-20 -5 -44 -5q-56 0 -73 49l-2 1q-21 -29 -61.5 -44.5t-77.5 -15.5q-67 0 -109.5 32t-42.5 79q0 34 15 59t44.5 42t58 28t69.5 24.5t65 24.5q37 17 37 54q0 42 -24.5 57.5t-70.5 15.5q-105 0 -110 -104q0 -9 -9 -9h-45q-9 0 -9 9q0 82 55 122
q49 36 122 36q155 0 155 -124v-259q0 -9 7 -16t18 -7q7 0 18 0.5t13 0.5q8 0 8 -8v-34zM322 153v99l-1 1q-18 -16 -114 -54q-65 -25 -86 -45.5t-21 -49.5t27.5 -46.5t65.5 -17.5q129 0 129 113zM384 575q0 -9 -9 -9h-274q-9 0 -9 9v31q0 9 9 9h274q9 0 9 -9v-31z" />
    <glyph glyph-name="Abreve" unicode="&#x102;" horiz-adv-x="670" 
d="M647 8q0 -8 -10 -8h-60q-6 0 -9 6l-91 234h-300l-89 -234q-3 -6 -9 -6h-53q-9 0 -9 8l1 4l274 699q2 6 8 6h65q6 0 8 -6l273 -699q1 -3 1 -4zM326 632l-129 -337h259l-128 337h-2zM453 910q0 -64 -35.5 -98t-90.5 -34t-90 33.5t-35 98.5q0 6 8 6h38q9 0 9 -6
q2 -37 21 -57.5t49 -20.5q29 0 49 21t22 57q0 6 9 6h38q8 0 8 -6z" />
    <glyph glyph-name="abreve" unicode="&#x103;" horiz-adv-x="470" 
d="M450 11q0 -7 -7 -8q-20 -5 -44 -5q-56 0 -73 49l-2 1q-21 -29 -61.5 -44.5t-77.5 -15.5q-67 0 -109.5 32t-42.5 79q0 34 15 59t44.5 42t58 28t69.5 24.5t65 24.5q37 17 37 54q0 42 -24.5 57.5t-70.5 15.5q-105 0 -110 -104q0 -9 -9 -9h-45q-9 0 -9 9q0 82 55 122
q49 36 122 36q155 0 155 -124v-259q0 -9 7 -16t18 -7q7 0 18 0.5t13 0.5q8 0 8 -8v-34zM322 153v99l-1 1q-18 -16 -114 -54q-65 -25 -86 -45.5t-21 -49.5t27.5 -46.5t65.5 -17.5q129 0 129 113zM359 640q0 -64 -35.5 -98t-90.5 -34t-90 33.5t-35 98.5q0 6 8 6h38q9 0 9 -6
q2 -37 21 -57.5t49 -20.5q29 0 49 21t22 57q0 6 9 6h38q8 0 8 -6z" />
    <glyph glyph-name="Aogonek" unicode="&#x104;" horiz-adv-x="664" 
d="M649 0q0 -9 -8 -12q-73 -30 -100.5 -53t-27.5 -46q0 -36 45 -36q30 0 71 15q6 2 8 2q6 0 6 -6l1 -30q0 -10 -6 -12q-40 -20 -86 -20t-74 22t-28 59q0 38 27 67.5t90 57.5l-90 232h-300l-89 -234q-3 -6 -9 -6h-53q-9 0 -9 8l1 4l275 702q2 6 8 6h63q6 0 8 -6l274 -702
q3 -7 3 -12zM326 632l-129 -337h261l-130 337h-2z" />
    <glyph glyph-name="aogonek" unicode="&#x105;" horiz-adv-x="470" 
d="M322 153v99l-1 1q-18 -16 -114 -54q-65 -25 -86 -45.5t-21 -49.5t27.5 -46.5t65.5 -17.5q129 0 129 113zM443 -14q-67 -35 -97 -69q-13 -16 -13 -31q0 -14 11 -23.5t31 -9.5q24 0 61 15q6 2 8 2q6 0 6 -6v-30q0 -10 -6 -12q-40 -20 -75 -20q-45 0 -70 21.5t-25 57.5
q0 63 92 114l18 10q-16 2 -31 13.5t-21 31.5l-2 1q-21 -29 -64.5 -46t-80.5 -17q-67 0 -109.5 32t-42.5 79q0 34 15 59t44.5 42t58 28t69.5 24.5t65 24.5q37 17 37 54q0 42 -24.5 57.5t-70.5 15.5q-105 0 -110 -104q0 -9 -9 -9h-45q-9 0 -9 9q0 82 55 122q49 36 122 36
q155 0 155 -124v-259q0 -9 7 -16.5t18 -7.5q10 0 20 1t11 1q8 0 8 -8v-46q0 -9 -7 -13z" />
    <glyph glyph-name="Cacute" unicode="&#x106;" horiz-adv-x="747" 
d="M567 921q0 -2 -1 -3l-142 -139q-3 -3 -7 -3h-47q-5 0 -5 5q0 3 1 4l122 138q4 4 8 4h65q6 0 6 -6zM711 234q-26 -116 -113 -181t-218 -65q-143 0 -242 105t-99 266t99 266t242 105q131 0 218 -65t113 -181v-2q0 -9 -10 -9h-52q-7 0 -9 7q-27 95 -94.5 141t-165.5 46
q-110 0 -188.5 -82.5t-78.5 -225.5t78.5 -225.5t188.5 -82.5q98 0 165.5 46t94.5 141q2 7 9 7h52q10 0 10 -9v-2z" />
    <glyph glyph-name="cacute" unicode="&#x107;" horiz-adv-x="495" 
d="M445 150q-13 -75 -64 -118.5t-129 -43.5q-101 0 -157 70t-56 165t56 165t157 70q79 0 131 -41.5t62 -114.5v-2q0 -8 -9 -8h-47q-7 0 -9 9q-6 42 -38 72.5t-88 30.5q-71 0 -110 -54t-39 -127t39 -127t110 -54q56 0 88.5 33t38.5 77q1 9 10 9h46q8 0 8 -9v-2zM416 671
l-1 -3l-130 -164q-3 -3 -7 -3h-47q-5 0 -5 5l1 4l110 163q3 4 8 4h65q6 0 6 -6z" />
    <glyph glyph-name="Ccircumflex" unicode="&#x108;" horiz-adv-x="747" 
d="M519 782q0 -6 -10 -6h-46q-5 0 -8 5l-73 92l-72 -92q-2 -5 -8 -5h-47q-10 0 -10 7q0 4 3 8l109 129q4 4 8 4h35q4 0 8 -4l109 -132q2 -2 2 -6zM711 234q-26 -116 -113 -181t-218 -65q-143 0 -242 105t-99 266t99 266t242 105q131 0 218 -65t113 -181v-2q0 -9 -10 -9h-52
q-7 0 -9 7q-27 95 -94.5 141t-165.5 46q-110 0 -188.5 -82.5t-78.5 -225.5t78.5 -225.5t188.5 -82.5q98 0 165.5 46t94.5 141q2 7 9 7h52q10 0 10 -9v-2z" />
    <glyph glyph-name="ccircumflex" unicode="&#x109;" horiz-adv-x="457" 
d="M445 150q-13 -75 -64 -118.5t-129 -43.5q-101 0 -157 70t-56 165t56 165t157 70q79 0 131 -41.5t62 -114.5v-2q0 -8 -9 -8h-47q-7 0 -9 9q-6 42 -38 72.5t-88 30.5q-71 0 -110 -54t-39 -127t39 -127t110 -54q56 0 88.5 33t38.5 77q1 9 10 9h46q8 0 8 -9v-2zM377 512
q0 -6 -10 -6h-37q-6 0 -9 5l-62 112l-65 -112q-2 -5 -9 -5h-36q-11 0 -11 8q0 1 2 5l93 154q2 4 8 4h34q6 0 8 -4l92 -156q2 -4 2 -5z" />
    <glyph glyph-name="Cdotaccent" unicode="&#x10a;" horiz-adv-x="747" 
d="M423 803q0 -9 -10 -9h-52q-9 0 -9 9v59q0 9 9 9h52q10 0 10 -9v-59zM711 234q-26 -116 -113 -181t-218 -65q-143 0 -242 105t-99 266t99 266t242 105q131 0 218 -65t113 -181v-2q0 -9 -10 -9h-52q-7 0 -9 7q-27 95 -94.5 141t-165.5 46q-110 0 -188.5 -82.5t-78.5 -225.5
t78.5 -225.5t188.5 -82.5q98 0 165.5 46t94.5 141q2 7 9 7h52q10 0 10 -9v-2z" />
    <glyph glyph-name="cdotaccent" unicode="&#x10b;" horiz-adv-x="457" 
d="M445 150q-13 -75 -64 -118.5t-129 -43.5q-101 0 -157 70t-56 165t56 165t157 70q79 0 131 -41.5t62 -114.5v-2q0 -8 -9 -8h-47q-7 0 -9 9q-6 42 -38 72.5t-88 30.5q-71 0 -110 -54t-39 -127t39 -127t110 -54q56 0 88.5 33t38.5 77q1 9 10 9h46q8 0 8 -9v-2zM293 559
q0 -9 -10 -9h-52q-9 0 -9 9v59q0 9 9 9h52q10 0 10 -9v-59z" />
    <glyph glyph-name="Ccaron" unicode="&#x10c;" horiz-adv-x="747" 
d="M249 918q0 6 10 6h46q5 0 8 -5l73 -92l72 92q2 5 8 5h47q10 0 10 -7q0 -3 -3 -8l-109 -129q-4 -4 -8 -4h-35q-4 0 -8 4l-109 132q-2 2 -2 6zM711 234q-26 -116 -113 -181t-218 -65q-143 0 -242 105t-99 266t99 266t242 105q131 0 218 -65t113 -181v-2q0 -9 -10 -9h-52
q-7 0 -9 7q-27 95 -94.5 141t-165.5 46q-110 0 -188.5 -82.5t-78.5 -225.5t78.5 -225.5t188.5 -82.5q98 0 165.5 46t94.5 141q2 7 9 7h52q10 0 10 -9v-2z" />
    <glyph glyph-name="ccaron" unicode="&#x10d;" horiz-adv-x="495" 
d="M445 150q-13 -75 -64 -118.5t-129 -43.5q-101 0 -157 70t-56 165t56 165t157 70q79 0 131 -41.5t62 -114.5v-2q0 -8 -9 -8h-47q-7 0 -9 9q-6 42 -38 72.5t-88 30.5q-71 0 -110 -54t-39 -127t39 -127t110 -54q56 0 88.5 33t38.5 77q1 9 10 9h46q8 0 8 -9v-2zM377 669
q0 -1 -2 -5l-93 -154q-2 -4 -8 -4h-34q-6 0 -8 4l-92 156q-2 4 -2 5q0 6 10 6h37q7 0 9 -5l62 -112l65 112q3 5 9 5h36q11 0 11 -8z" />
    <glyph glyph-name="Dcaron" unicode="&#x10e;" horiz-adv-x="696" 
d="M179 918q0 6 10 6h46q5 0 8 -5l73 -92l72 92q2 5 8 5h47q10 0 10 -7q0 -3 -3 -8l-109 -129q-4 -4 -8 -4h-35q-4 0 -8 4l-109 132q-2 2 -2 6zM659 374q0 -166 -88.5 -270t-254.5 -104h-233q-9 0 -9 9v699q0 9 9 9h249q81 0 145.5 -30t103 -79.5t58.5 -109.5t20 -124z
M585 374q0 51 -16 100t-45.5 90t-79 66t-111.5 25h-188v-593h172q127 0 197.5 83.5t70.5 228.5z" />
    <glyph glyph-name="dcaron" unicode="&#x10f;" horiz-adv-x="604" 
d="M464 708v-699q0 -9 -9 -9h-41q-8 0 -10 10l-4 44l-2 1q-20 -30 -61.5 -48.5t-84.5 -18.5q-95 0 -153.5 64.5t-58.5 170.5q0 98 56.5 166.5t152.5 68.5q95 0 149 -74l2 1v323q0 9 10 9h45q9 0 9 -9zM401 223q0 78 -36 129.5t-113 51.5q-66 0 -106.5 -50.5t-40.5 -130.5
t39 -130.5t109 -50.5q71 0 109.5 48t38.5 133zM620 628q0 -78 -80 -108q-2 -1 -4 -1q-8 0 -8 9v31q0 5 5 8q39 13 40 68h-8q-9 0 -9 9v64q0 9 9 9h46q9 0 9 -9v-80z" />
    <glyph glyph-name="Dcroat" unicode="&#x110;" horiz-adv-x="696" 
d="M657 371q0 -165 -88.5 -268t-254.5 -103h-231q-9 0 -9 9v336h-64q-9 0 -9 9v38q0 9 9 9h64v302q0 9 9 9h247q81 0 145.5 -29.5t103 -79t58.5 -109t20 -123.5zM583 371q0 51 -16 100t-45.5 89.5t-79 65t-111.5 24.5h-186v-249h170q9 0 9 -9v-38q0 -9 -9 -9h-170v-283h170
q127 0 197.5 82.5t70.5 226.5z" />
    <glyph glyph-name="dcroat" unicode="&#x111;" horiz-adv-x="525" 
d="M464 708v-55h64q9 0 9 -9v-33q0 -9 -9 -9h-64v-593q0 -9 -9 -9h-41q-8 0 -10 10l-4 44l-2 1q-20 -30 -61.5 -48.5t-84.5 -18.5q-95 0 -153.5 64.5t-58.5 170.5q0 98 56.5 166.5t152.5 68.5q95 0 149 -74l2 1v217h-200q-9 0 -9 9v33q0 9 9 9h200v55q0 9 10 9h45q9 0 9 -9z
M401 223q0 78 -36 129t-113 51q-66 0 -106.5 -50t-40.5 -130t39 -130t109 -50q71 0 109.5 47.5t38.5 132.5z" />
    <glyph glyph-name="Emacron" unicode="&#x112;" horiz-adv-x="603" 
d="M475 821q0 -11 -11 -11h-316q-11 0 -11 11v27q0 11 11 11h316q11 0 11 -11v-27zM561 9q0 -9 -9 -9h-469q-9 0 -9 9v699q0 9 9 9h443q9 0 9 -9v-46q0 -9 -9 -9h-381v-262h228q9 0 9 -9v-44q0 -9 -9 -9h-228v-265h407q9 0 9 -9v-46z" />
    <glyph glyph-name="emacron" unicode="&#x113;" horiz-adv-x="493" 
d="M404 575q0 -9 -9 -9h-274q-9 0 -9 9v31q0 9 9 9h274q9 0 9 -9v-31zM448 228q0 -9 -9 -9h-335q0 -76 40 -126.5t106 -50.5q102 0 132 94q2 6 9 6h46q9 0 9 -9q0 -4 -4.5 -18t-18.5 -36t-34.5 -42t-58 -34.5t-83.5 -14.5q-93 0 -150.5 65.5t-57.5 169.5q0 101 57.5 168
t150.5 67q91 0 146 -60t55 -170zM380 266q-4 63 -39 100.5t-94 37.5q-56 0 -96 -38.5t-46 -99.5h275z" />
    <glyph glyph-name="Ebreve" unicode="&#x114;" horiz-adv-x="603" 
d="M561 9q0 -9 -9 -9h-469q-9 0 -9 9v699q0 9 9 9h443q9 0 9 -9v-46q0 -9 -9 -9h-381v-262h228q9 0 9 -9v-44q0 -9 -9 -9h-228v-265h407q9 0 9 -9v-46zM443 910q0 -64 -35.5 -98t-90.5 -34t-90 33.5t-35 98.5q0 6 8 6h38q9 0 9 -6q2 -37 21 -57.5t49 -20.5q29 0 49 21t22 57
q0 6 9 6h38q8 0 8 -6z" />
    <glyph glyph-name="ebreve" unicode="&#x115;" horiz-adv-x="493" 
d="M373 640q0 -64 -35.5 -98t-90.5 -34t-90 33.5t-35 98.5q0 6 8 6h38q9 0 9 -6q2 -37 21 -57.5t49 -20.5q29 0 49 21t22 57q0 6 9 6h38q8 0 8 -6zM448 228q0 -9 -9 -9h-335q0 -76 40 -126.5t106 -50.5q102 0 132 94q2 6 9 6h46q9 0 9 -9q0 -4 -4.5 -18t-18.5 -36t-34.5 -42
t-58 -34.5t-83.5 -14.5q-93 0 -150.5 65.5t-57.5 169.5q0 101 57.5 168t150.5 67q91 0 146 -60t55 -170zM380 266q-4 63 -39 100.5t-94 37.5q-56 0 -96 -38.5t-46 -99.5h275z" />
    <glyph glyph-name="Edotaccent" unicode="&#x116;" horiz-adv-x="603" 
d="M353 803q0 -9 -10 -9h-52q-9 0 -9 9v59q0 9 9 9h52q10 0 10 -9v-59zM561 9q0 -9 -9 -9h-469q-9 0 -9 9v699q0 9 9 9h443q9 0 9 -9v-46q0 -9 -9 -9h-381v-262h228q9 0 9 -9v-44q0 -9 -9 -9h-228v-265h407q9 0 9 -9v-46z" />
    <glyph glyph-name="edotaccent" unicode="&#x117;" horiz-adv-x="493" 
d="M296 559q0 -9 -10 -9h-52q-9 0 -9 9v59q0 9 9 9h52q10 0 10 -9v-59zM448 228q0 -9 -9 -9h-335q0 -76 40 -126.5t106 -50.5q102 0 132 94q2 6 9 6h46q9 0 9 -9q0 -4 -4.5 -18t-18.5 -36t-34.5 -42t-58 -34.5t-83.5 -14.5q-93 0 -150.5 65.5t-57.5 169.5q0 101 57.5 168
t150.5 67q91 0 146 -60t55 -170zM380 266q-4 63 -39 100.5t-94 37.5q-56 0 -96 -38.5t-46 -99.5h275z" />
    <glyph glyph-name="Eogonek" unicode="&#x118;" horiz-adv-x="603" 
d="M441 -2l-1 2h-357q-9 0 -9 9v699q0 9 9 9h443q9 0 9 -9v-46q0 -9 -9 -9h-381v-262h228q9 0 9 -9v-44q0 -9 -9 -9h-228v-265h407q9 0 9 -9v-39q0 -14 -13 -19q-127 -47 -127 -107q0 -36 45 -36q30 0 71 15q6 2 8 2q6 0 6 -6l1 -31q0 -10 -6 -12q-40 -20 -86 -20t-74 22
t-28 59q0 76 83 115z" />
    <glyph glyph-name="eogonek" unicode="&#x119;" horiz-adv-x="493" 
d="M39 223q0 104 61 169.5t147 65.5q99 0 153 -66q48 -60 48 -164q0 -9 -9 -9h-335q2 -77 41 -127t104 -50q55 0 89.5 28t43.5 66q2 6 9 6h46q9 0 9 -9q0 -4 -4 -17t-19 -37t-36 -42q-19 -16 -57.5 -41t-60.5 -44q-33 -29 -33 -58q0 -18 12.5 -29.5t33.5 -11.5q30 0 71 15
q6 2 8 2q6 0 6 -6l1 -30q0 -10 -6 -12q-40 -20 -86 -20t-73 23.5t-27 58.5q0 59 64 104q-97 3 -149 70.5t-52 164.5zM104 267h276q-4 63 -39 100.5t-94 37.5q-62 0 -97.5 -38.5t-45.5 -99.5z" />
    <glyph glyph-name="Ecaron" unicode="&#x11a;" horiz-adv-x="603" 
d="M179 918q0 6 10 6h46q5 0 8 -5l73 -92l72 92q2 5 8 5h47q10 0 10 -7q0 -3 -3 -8l-109 -129q-4 -4 -8 -4h-35q-4 0 -8 4l-109 132q-2 2 -2 6zM561 9q0 -9 -9 -9h-469q-9 0 -9 9v699q0 9 9 9h443q9 0 9 -9v-46q0 -9 -9 -9h-381v-262h228q9 0 9 -9v-44q0 -9 -9 -9h-228v-265
h407q9 0 9 -9v-46z" />
    <glyph glyph-name="ecaron" unicode="&#x11b;" horiz-adv-x="493" 
d="M380 669q0 -1 -2 -5l-93 -154q-2 -4 -8 -4h-34q-6 0 -8 4l-92 156q-2 4 -2 5q0 6 10 6h37q6 0 9 -5l62 -112l65 112q2 5 9 5h36q11 0 11 -8zM448 228q0 -9 -9 -9h-335q0 -76 40 -126.5t106 -50.5q102 0 132 94q2 6 9 6h46q9 0 9 -9q0 -4 -4.5 -18t-18.5 -36t-34.5 -42
t-58 -34.5t-83.5 -14.5q-93 0 -150.5 65.5t-57.5 169.5q0 101 57.5 168t150.5 67q91 0 146 -60t55 -170zM380 266q-4 63 -39 100.5t-94 37.5q-56 0 -96 -38.5t-46 -99.5h275z" />
    <glyph glyph-name="Gcircumflex" unicode="&#x11c;" horiz-adv-x="787" 
d="M519 782q0 -6 -10 -6h-46q-5 0 -8 5l-73 92l-72 -92q-2 -5 -8 -5h-47q-10 0 -10 7q0 4 3 8l109 129q4 4 8 4h35q4 0 8 -4l109 -132q2 -2 2 -6zM713 9q0 -9 -10 -9h-42q-9 0 -9 9l-2 112h-2q-95 -133 -268 -133q-143 0 -242 105t-99 266t99 266t242 105q131 0 218 -65
t113 -181v-2q0 -9 -10 -9h-52q-7 0 -9 7q-27 95 -94.5 141t-165.5 46q-110 0 -188.5 -82.5t-78.5 -225.5t80 -225.5t191 -82.5q108 0 182 61q64 56 82 130v4h-146q-9 0 -9 9v36q0 9 9 9h201q10 0 10 -9v-282z" />
    <glyph glyph-name="gcircumflex" unicode="&#x11d;" horiz-adv-x="484" 
d="M472 440v-37q0 -9 -10 -9q-54 -2 -85 -22q23 -37 23 -85q0 -74 -51.5 -127.5t-128.5 -53.5q-8 0 -19.5 1t-14.5 1q-77 0 -77 -43q0 -27 47 -36q21 -3 46 -3h92q77 0 116 -19q57 -27 57 -94q0 -72 -66 -109t-186 -37q-205 0 -205 119q0 36 26.5 64.5t68.5 34.5v2
q-27 7 -43 26.5t-16 41.5q0 27 22 48.5t54 26.5v2q-34 18 -56.5 60t-22.5 84q0 78 50.5 130t127.5 52q76 0 125 -49q49 40 116 40q10 0 10 -9zM332 282q0 56 -30.5 89t-81.5 33q-50 0 -81.5 -34t-31.5 -89q0 -54 30.5 -87.5t82.5 -33.5q51 0 81.5 34t30.5 88zM402 -94
q0 58 -91 63q-28 2 -120 2q-50 0 -84 -22.5t-34 -57.5q0 -71 153 -71q92 0 134 24t42 62zM356 512q0 -6 -10 -6h-37q-7 0 -9 5l-62 112l-65 -112q-3 -5 -9 -5h-36q-11 0 -11 8q0 1 2 5l93 154q2 4 8 4h34q6 0 8 -4l92 -156q2 -4 2 -5z" />
    <glyph glyph-name="Gbreve" unicode="&#x11e;" horiz-adv-x="785" 
d="M713 9q0 -9 -10 -9h-42q-9 0 -9 9l-2 112h-2q-95 -133 -268 -133q-143 0 -242 105t-99 266t99 266t242 105q131 0 218 -65t113 -181v-2q0 -9 -10 -9h-52q-7 0 -9 7q-27 95 -94.5 141t-165.5 46q-110 0 -188.5 -82.5t-78.5 -225.5t80 -225.5t191 -82.5q108 0 182 61
q64 56 82 130v4h-146q-9 0 -9 9v36q0 9 9 9h201q10 0 10 -9v-282zM513 910q0 -64 -35.5 -98t-90.5 -34t-90 33.5t-35 98.5q0 6 8 6h38q9 0 9 -6q2 -37 21 -57.5t49 -20.5q29 0 49 21t22 57q0 6 9 6h38q8 0 8 -6z" />
    <glyph glyph-name="gbreve" unicode="&#x11f;" horiz-adv-x="484" 
d="M472 440v-37q0 -9 -10 -9q-54 -2 -85 -22q23 -37 23 -85q0 -74 -51.5 -127.5t-128.5 -53.5q-8 0 -19.5 1t-14.5 1q-77 0 -77 -43q0 -27 47 -36q21 -3 46 -3h92q77 0 116 -19q57 -27 57 -94q0 -72 -66 -109t-186 -37q-205 0 -205 119q0 36 26.5 64.5t68.5 34.5v2
q-27 7 -43 26.5t-16 41.5q0 27 22 48.5t54 26.5v2q-34 18 -56.5 60t-22.5 84q0 78 50.5 130t127.5 52q76 0 125 -49q49 40 116 40q10 0 10 -9zM332 282q0 56 -30.5 89t-81.5 33q-50 0 -81.5 -34t-31.5 -89q0 -54 30.5 -87.5t82.5 -33.5q51 0 81.5 34t30.5 88zM402 -94
q0 58 -91 63q-28 2 -120 2q-50 0 -84 -22.5t-34 -57.5q0 -71 153 -71q92 0 134 24t42 62zM355 640q0 -64 -35.5 -98t-90.5 -34t-90 33.5t-35 98.5q0 6 8 6h38q9 0 9 -6q2 -37 21 -57.5t49 -20.5q29 0 49 21t22 57q0 6 9 6h38q8 0 8 -6z" />
    <glyph glyph-name="Gdotaccent" unicode="&#x120;" horiz-adv-x="787" 
d="M423 803q0 -9 -10 -9h-52q-9 0 -9 9v59q0 9 9 9h52q10 0 10 -9v-59zM713 9q0 -9 -10 -9h-42q-9 0 -9 9l-2 112h-2q-95 -133 -268 -133q-143 0 -242 105t-99 266t99 266t242 105q131 0 218 -65t113 -181v-2q0 -9 -10 -9h-52q-7 0 -9 7q-27 95 -94.5 141t-165.5 46
q-110 0 -188.5 -82.5t-78.5 -225.5t80 -225.5t191 -82.5q108 0 182 61q64 56 82 130v4h-146q-9 0 -9 9v36q0 9 9 9h201q10 0 10 -9v-282z" />
    <glyph glyph-name="gdotaccent" unicode="&#x121;" horiz-adv-x="484" 
d="M472 440v-37q0 -9 -10 -9q-54 -2 -85 -22q23 -37 23 -85q0 -74 -51.5 -127.5t-128.5 -53.5q-8 0 -19.5 1t-14.5 1q-77 0 -77 -43q0 -27 47 -36q21 -3 46 -3h92q77 0 116 -19q57 -27 57 -94q0 -72 -66 -109t-186 -37q-205 0 -205 119q0 36 26.5 64.5t68.5 34.5v2
q-27 7 -43 26.5t-16 41.5q0 27 22 48.5t54 26.5v2q-34 18 -56.5 60t-22.5 84q0 78 50.5 130t127.5 52q76 0 125 -49q49 40 116 40q10 0 10 -9zM332 282q0 56 -30.5 89t-81.5 33q-50 0 -81.5 -34t-31.5 -89q0 -54 30.5 -87.5t82.5 -33.5q51 0 81.5 34t30.5 88zM402 -94
q0 58 -91 63q-28 2 -120 2q-50 0 -84 -22.5t-34 -57.5q0 -71 153 -71q92 0 134 24t42 62zM273 559q0 -9 -10 -9h-52q-9 0 -9 9v59q0 9 9 9h52q10 0 10 -9v-59z" />
    <glyph glyph-name="Gcommaaccent" unicode="&#x122;" horiz-adv-x="785" 
d="M713 9q0 -9 -10 -9h-42q-9 0 -9 9l-2 112h-2q-95 -133 -268 -133q-143 0 -242 105t-99 266t99 266t242 105q131 0 218 -65t113 -181v-2q0 -9 -10 -9h-52q-7 0 -9 7q-27 95 -94.5 141t-165.5 46q-110 0 -188.5 -82.5t-78.5 -225.5t80 -225.5t191 -82.5q108 0 182 61
q64 56 82 130v4h-146q-9 0 -9 9v36q0 9 9 9h201q10 0 10 -9v-282zM433 -125q0 -78 -80 -108q-2 -1 -4 -1q-8 0 -8 9v31q0 6 5 8q39 13 40 68h-18q-9 0 -9 9v64q0 9 9 9h56q9 0 9 -9v-80z" />
    <glyph glyph-name="gcommaaccent" unicode="&#x123;" horiz-adv-x="484" 
d="M472 440v-37q0 -9 -10 -9q-54 -2 -85 -22q23 -37 23 -85q0 -74 -51.5 -127.5t-128.5 -53.5q-8 0 -19.5 1t-14.5 1q-77 0 -77 -43q0 -27 47 -36q21 -3 46 -3h92q77 0 116 -19q57 -27 57 -94q0 -72 -66 -109t-186 -37q-205 0 -205 119q0 36 26.5 64.5t68.5 34.5v2
q-27 7 -43 26.5t-16 41.5q0 27 22 48.5t54 26.5v2q-34 18 -56.5 60t-22.5 84q0 78 50.5 130t127.5 52q76 0 125 -49q49 40 116 40q10 0 10 -9zM332 282q0 56 -30.5 89t-81.5 33q-50 0 -81.5 -34t-31.5 -89q0 -54 30.5 -87.5t82.5 -33.5q51 0 81.5 34t30.5 88zM402 -94
q0 58 -91 63q-28 2 -120 2q-50 0 -84 -22.5t-34 -57.5q0 -71 153 -71q92 0 134 24t42 62zM178 591q0 78 80 108q2 1 4 1q8 0 8 -9v-31q0 -6 -5 -8q-39 -13 -40 -68h18q9 0 9 -9v-64q0 -9 -9 -9h-56q-9 0 -9 9v80z" />
    <glyph glyph-name="Hcircumflex" unicode="&#x124;" horiz-adv-x="707" 
d="M489 782q0 -6 -10 -6h-46q-5 0 -8 5l-73 92l-72 -92q-2 -5 -8 -5h-47q-10 0 -10 7q0 4 3 8l109 129q4 4 8 4h35q4 0 8 -4l109 -132q2 -2 2 -6zM633 9q0 -9 -9 -9h-52q-10 0 -10 9v320h-417v-320q0 -9 -9 -9h-53q-9 0 -9 9v699q0 9 9 9h53q9 0 9 -9v-317h417v317q0 9 10 9
h52q9 0 9 -9v-699z" />
    <glyph glyph-name="hcircumflex" unicode="&#x125;" horiz-adv-x="484" 
d="M380 782q0 -6 -10 -6h-46q-6 0 -8 5l-73 92l-72 -92q-3 -5 -8 -5h-47q-10 0 -10 7q0 4 3 8l109 129q4 4 8 4h35q4 0 8 -4l109 -132q2 -2 2 -6zM422 9q0 -9 -9 -9h-45q-10 0 -10 9v296q0 45 -25.5 72t-77.5 27q-61 0 -95 -39.5t-34 -93.5v-262q0 -9 -10 -9h-45q-9 0 -9 9
v699q0 9 9 9h45q10 0 10 -9v-326q24 38 62 57t74 19q71 0 115.5 -37.5t44.5 -104.5v-307z" />
    <glyph glyph-name="Hbar" unicode="&#x126;" horiz-adv-x="709" 
d="M633 9q0 -9 -9 -9h-52q-10 0 -10 9v320h-417v-320q0 -9 -9 -9h-53q-9 0 -9 9v501h-69q-9 0 -9 9v36q0 9 9 9h69v144q0 9 9 9h53q9 0 9 -9v-144h417v144q0 9 10 9h52q9 0 9 -9v-144h71q9 0 9 -9v-36q0 -9 -9 -9h-71v-501zM145 391h417v119h-417v-119z" />
    <glyph glyph-name="hbar" unicode="&#x127;" horiz-adv-x="484" 
d="M301 539h-175v-157q24 38 62 57t74 19q71 0 115.5 -37.5t44.5 -104.5v-307q0 -9 -9 -9h-45q-10 0 -10 9v296q0 45 -25.5 72t-77.5 27q-61 0 -95 -39.5t-34 -93.5v-262q0 -9 -10 -9h-45q-9 0 -9 9v530h-64q-9 0 -9 9v33q0 9 9 9h64v118q0 9 9 9h45q10 0 10 -9v-118h175
q9 0 9 -9v-33q0 -9 -9 -9z" />
    <glyph glyph-name="Itilde" unicode="&#x128;" horiz-adv-x="229" 
d="M272 884q0 -13 -3.5 -29t-12.5 -34.5t-29 -31t-47 -12.5q-32 0 -74 30q-42 29 -60 29t-26 -16.5t-8 -33.5q0 -9 -9 -9h-36q-9 0 -9 10q0 30 24.5 66t69.5 36q32 0 75 -30t60 -30q15 0 23 18.5t8 35.5q0 8 9 8h36q9 0 9 -7zM150 9q0 -9 -9 -9h-52q-10 0 -10 9v699
q0 9 10 9h52q9 0 9 -9v-699z" />
    <glyph glyph-name="itilde" unicode="&#x129;" horiz-adv-x="187" 
d="M238 669q0 -19 -5.5 -41t-26 -44t-52.5 -22q-25 0 -62.5 29.5t-58.5 29.5q-29 0 -29 -50q0 -9 -8 -9h-36q-9 0 -9 10q0 30 22 66t64 36q29 0 67 -30t54 -30q14 0 20.5 18.5t6.5 35.5q0 8 9 8h37q7 0 7 -7zM125 9q0 -9 -10 -9h-44q-9 0 -9 9v428q0 9 9 9h44q10 0 10 -9
v-428z" />
    <glyph glyph-name="Imacron" unicode="&#x12a;" horiz-adv-x="223" 
d="M257 821q0 -11 -11 -11h-276q-11 0 -11 11v27q0 11 11 11h276q11 0 11 -11v-27zM150 9q0 -9 -9 -9h-52q-10 0 -10 9v699q0 9 10 9h52q9 0 9 -9v-699z" />
    <glyph glyph-name="imacron" unicode="&#x12b;" horiz-adv-x="184" 
d="M125 9q0 -9 -10 -9h-44q-9 0 -9 9v428q0 9 9 9h44q10 0 10 -9v-428zM239 575q0 -9 -9 -9h-274q-9 0 -9 9v31q0 9 9 9h274q9 0 9 -9v-31z" />
    <glyph glyph-name="Ibreve" unicode="&#x12c;" horiz-adv-x="229" 
d="M150 9q0 -9 -9 -9h-52q-10 0 -10 9v699q0 9 10 9h52q9 0 9 -9v-699zM242 910q0 -64 -35.5 -98t-90.5 -34t-90 33.5t-35 98.5q0 6 8 6h38q9 0 9 -6q2 -37 21 -57.5t49 -20.5q29 0 49 21t22 57q0 6 9 6h38q8 0 8 -6z" />
    <glyph glyph-name="ibreve" unicode="&#x12d;" horiz-adv-x="187" 
d="M125 9q0 -9 -10 -9h-44q-9 0 -9 9v428q0 9 9 9h44q10 0 10 -9v-428zM221 640q0 -64 -35.5 -98t-90.5 -34t-90 33.5t-35 98.5q0 6 8 6h38q9 0 9 -6q2 -37 21 -57.5t49 -20.5q29 0 49 21t22 57q0 6 9 6h38q8 0 8 -6z" />
    <glyph glyph-name="Iogonek" unicode="&#x12e;" horiz-adv-x="229" 
d="M79 9v699q0 9 10 9h52q9 0 9 -9v-699q0 -24 -14 -37q-1 0 -26 -20t-36 -34.5t-11 -31.5q0 -14 11 -23.5t31 -9.5q23 0 61 15q6 2 8 2q6 0 6 -6v-30q0 -10 -6 -12q-40 -20 -75 -20q-45 0 -70 21.5t-25 57.5q0 31 13 54.5t51 55.5q11 11 11 18z" />
    <glyph glyph-name="iogonek" unicode="&#x12f;" horiz-adv-x="187" 
d="M63 9l-1 2v426q0 9 9 9h45q10 0 10 -9v-428q0 -24 -14 -37l-18 -16q-18 -15 -24 -21.5t-14.5 -21t-8.5 -27.5q0 -14 11 -23.5t31 -9.5q23 0 61 15q6 2 8 2q6 0 6 -6v-30q0 -10 -6 -12q-40 -20 -75 -20q-45 0 -70 21.5t-25 57.5q0 31 13 54.5t51 55.5q11 11 11 18z
M129 559q0 -9 -10 -9h-52q-9 0 -9 9v59q0 9 9 9h52q10 0 10 -9v-59z" />
    <glyph glyph-name="Idotaccent" unicode="&#x130;" horiz-adv-x="229" 
d="M150 9q0 -9 -9 -9h-52q-10 0 -10 9v699q0 9 10 9h52q9 0 9 -9v-699zM150 802q0 -9 -10 -9h-52q-9 0 -9 9v59q0 9 9 9h52q10 0 10 -9v-59z" />
    <glyph glyph-name="dotlessi" unicode="&#x131;" horiz-adv-x="187" 
d="M125 9q0 -9 -10 -9h-44q-9 0 -9 9v428q0 9 9 9h44q10 0 10 -9v-428z" />
    <glyph glyph-name="IJ" unicode="&#x132;" horiz-adv-x="708" 
d="M150 9q0 -9 -9 -9h-52q-10 0 -10 9v699q0 9 10 9h52q9 0 9 -9v-699zM629 181q0 -90 -55 -141.5t-140 -51.5t-128.5 52.5t-43.5 115.5v1q0 8 9 8h49q9 0 9 -8q3 -48 32 -78.5t75 -30.5q54 0 87.5 35.5t33.5 96.5v528q0 9 10 9h52q10 0 10 -9v-527z" />
    <glyph glyph-name="ij" unicode="&#x133;" horiz-adv-x="373" 
d="M129 559q0 -9 -10 -9h-52q-9 0 -9 9v59q0 9 9 9h52q10 0 10 -9v-59zM126 9q0 -9 -10 -9h-45q-9 0 -9 9v428q0 9 9 9h45q10 0 10 -9v-428zM315 559q0 -9 -10 -9h-52q-9 0 -9 9v59q0 9 9 9h52q10 0 10 -9v-59zM311 -139q0 -47 -29 -71.5t-70 -24.5h-17q-9 0 -9 9v38
q0 9 9 9h17q35 0 35 40v576q0 9 9 9h45q10 0 10 -9v-576z" />
    <glyph glyph-name="Jcircumflex" unicode="&#x134;" horiz-adv-x="474" 
d="M499 782q0 -6 -10 -6h-46q-5 0 -8 5l-73 92l-72 -92q-2 -5 -8 -5h-47q-10 0 -10 7q0 4 3 8l109 129q4 4 8 4h35q4 0 8 -4l109 -132q2 -2 2 -6zM400 181q0 -90 -55 -141.5t-140 -51.5t-128.5 52.5t-43.5 115.5v1q0 8 9 8h49q9 0 9 -8q3 -48 32 -78.5t75 -30.5
q54 0 87.5 35.5t33.5 96.5v528q0 9 10 9h52q10 0 10 -9v-527z" />
    <glyph glyph-name="jcircumflex" unicode="&#x135;" horiz-adv-x="191" 
d="M125 -139q0 -47 -29 -71.5t-70 -24.5h-17q-9 0 -9 9v38q0 9 9 9h17q35 0 35 40v576q0 9 9 9h45q10 0 10 -9v-576zM213 512q0 -6 -10 -6h-37q-6 0 -9 5l-62 112l-65 -112q-2 -5 -9 -5h-36q-11 0 -11 8q0 1 2 5l93 154q2 4 8 4h34q6 0 8 -4l92 -156q2 -4 2 -5z" />
    <glyph glyph-name="Kcommaaccent" unicode="&#x136;" horiz-adv-x="650" 
d="M597 6q0 -6 -7 -6h-68q-4 0 -8 4l-273 364l-96 -91v-268q0 -9 -9 -9h-53q-9 0 -9 9v699q0 9 9 9h53q9 0 9 -9v-352l2 -1l360 359q3 3 7 3h71q7 0 7 -6q0 -3 -3 -6l-301 -290l306 -402q3 -3 3 -7zM351 -125q0 -78 -80 -108q-2 -1 -4 -1q-8 0 -8 9v31q0 6 5 8q39 13 40 68
h-18q-9 0 -9 9v64q0 9 9 9h56q9 0 9 -9v-80z" />
    <glyph glyph-name="kcommaaccent" unicode="&#x137;" horiz-adv-x="487" 
d="M437 5q0 -5 -8 -5h-56q-10 0 -15 7l-158 217l-74 -65v-150q0 -9 -10 -9h-45q-9 0 -9 9v699q0 9 9 9h45q10 0 10 -9v-485l234 217q6 6 16 6h54q8 0 8 -6q0 -3 -3 -6l-188 -169l188 -254q2 -3 2 -6zM283 -125q0 -78 -80 -108q-2 -1 -4 -1q-8 0 -8 9v31q0 6 5 8q39 13 40 68
h-18q-9 0 -9 9v64q0 9 9 9h56q9 0 9 -9v-80z" />
    <glyph glyph-name="kgreenlandic" unicode="&#x138;" horiz-adv-x="460" 
d="M437 5q0 -5 -8 -5h-56q-10 0 -15 7l-158 217l-74 -65v-150q0 -9 -10 -9h-45q-9 0 -9 9v427q0 9 9 9h45q10 0 10 -9v-213l234 216q6 6 16 6h54q8 0 8 -6q0 -3 -3 -6l-188 -168l188 -254q2 -3 2 -6z" />
    <glyph glyph-name="Lacute" unicode="&#x139;" horiz-adv-x="563" 
d="M355 921q0 -2 -1 -3l-142 -139q-3 -3 -7 -3h-47q-5 0 -5 5q0 3 1 4l122 138q4 4 8 4h65q6 0 6 -6zM521 9q0 -9 -9 -9h-429q-9 0 -9 9v699q0 9 9 9h53q9 0 9 -9v-644h367q9 0 9 -9v-46z" />
    <glyph glyph-name="lacute" unicode="&#x13a;" horiz-adv-x="188" 
d="M267 921q0 -2 -1 -3l-142 -139q-3 -3 -7 -3h-47q-5 0 -5 5q0 3 1 4l122 138q4 4 8 4h65q6 0 6 -6zM126 9q0 -9 -10 -9h-45q-9 0 -9 9v699q0 9 9 9h45q10 0 10 -9v-699z" />
    <glyph glyph-name="Lcommaaccent" unicode="&#x13b;" horiz-adv-x="563" 
d="M521 9q0 -9 -9 -9h-429q-9 0 -9 9v699q0 9 9 9h53q9 0 9 -9v-644h367q9 0 9 -9v-46zM351 -125q0 -78 -80 -108q-2 -1 -4 -1q-8 0 -8 9v31q0 6 5 8q39 13 40 68h-18q-9 0 -9 9v64q0 9 9 9h56q9 0 9 -9v-80z" />
    <glyph glyph-name="lcommaaccent" unicode="&#x13c;" horiz-adv-x="188" 
d="M126 9q0 -9 -10 -9h-45q-9 0 -9 9v699q0 9 9 9h45q10 0 10 -9v-699zM133 -125q0 -78 -80 -108q-2 -1 -4 -1q-8 0 -8 9v31q0 6 5 8q39 13 40 68h-18q-9 0 -9 9v54q0 9 9 9h56q9 0 9 -9v-70z" />
    <glyph glyph-name="Lcaron" unicode="&#x13d;" horiz-adv-x="563" 
d="M521 9q0 -9 -9 -9h-429q-9 0 -9 9v699q0 9 9 9h53q9 0 9 -9v-644h367q9 0 9 -9v-46zM333 693q0 -78 -80 -108q-2 -1 -4 -1q-8 0 -8 9v31q0 6 5 8q39 13 40 68h-21q-9 0 -9 9v64q0 9 9 9h59q9 0 9 -9v-80z" />
    <glyph glyph-name="lcaron" unicode="&#x13e;" horiz-adv-x="266" 
d="M126 9q0 -9 -10 -9h-45q-9 0 -9 9v699q0 9 9 9h45q10 0 10 -9v-699zM282 628q0 -78 -80 -108q-2 -1 -4 -1q-8 0 -8 9v31q0 5 5 8q39 13 40 68h-8q-9 0 -9 9v64q0 9 9 9h46q9 0 9 -9v-80z" />
    <glyph glyph-name="Ldot" unicode="&#x13f;" horiz-adv-x="563" 
d="M457 334q0 -9 -9 -9h-61q-9 0 -9 9v70q0 9 9 9h61q9 0 9 -9v-70zM521 9q0 -9 -9 -9h-429q-9 0 -9 9v699q0 9 9 9h53q9 0 9 -9v-644h367q9 0 9 -9v-46z" />
    <glyph glyph-name="ldot" unicode="&#x140;" horiz-adv-x="290" 
d="M126 9q0 -9 -10 -9h-45q-9 0 -9 9v699q0 9 9 9h45q10 0 10 -9v-699zM277 217q0 -9 -9 -9h-61q-9 0 -9 9v70q0 9 9 9h61q9 0 9 -9v-70z" />
    <glyph glyph-name="Lslash" unicode="&#x141;" horiz-adv-x="581" 
d="M539 9q0 -9 -9 -9h-424q-9 0 -9 9v256l-47 -34q-6 -4 -9 -4q-7 0 -7 10v48q0 3 4 7l59 43v373q0 9 9 9h53q9 0 9 -9v-321l132 95q3 3 6 3q8 0 8 -10v-47q0 -4 -4 -8l-142 -103v-253h362q9 0 9 -9v-46z" />
    <glyph glyph-name="lslash" unicode="&#x142;" horiz-adv-x="244" 
d="M224 405q0 -4 -4 -8l-66 -47v-341q0 -9 -10 -9h-45q-9 0 -9 9v297l-58 -43q-3 -2 -7 -2q-5 0 -5 10v43q0 4 4 8l66 47v339q0 9 9 9h45q10 0 10 -9v-295l58 43q2 2 7 2t5 -10v-43z" />
    <glyph glyph-name="Nacute" unicode="&#x143;" horiz-adv-x="721" 
d="M513 921q0 -2 -1 -3l-142 -139q-3 -3 -7 -3h-47q-5 0 -5 5q0 3 1 4l122 138q4 4 8 4h65q6 0 6 -6zM647 9q0 -9 -10 -9h-54q-5 0 -11 7l-431 610h-2v-608q0 -9 -9 -9h-47q-9 0 -9 9v699q0 9 9 9h65q7 0 12 -7l419 -592h3v590q0 9 9 9h46q10 0 10 -9v-699z" />
    <glyph glyph-name="nacute" unicode="&#x144;" horiz-adv-x="494" 
d="M424 9q0 -9 -9 -9h-45q-10 0 -10 9v298q0 44 -25.5 70.5t-71.5 26.5q-68 0 -102.5 -37.5t-34.5 -92.5v-265q0 -9 -10 -9h-45q-9 0 -9 9v428q0 9 9 9h41q8 0 10 -9l3 -45h2q22 29 59 47.5t79 18.5q76 0 117.5 -36.5t41.5 -103.5v-309zM388 671l-1 -3l-130 -164
q-3 -3 -7 -3h-47q-5 0 -5 5l1 4l110 163q3 4 8 4h65q6 0 6 -6z" />
    <glyph glyph-name="Ncommaaccent" unicode="&#x145;" horiz-adv-x="721" 
d="M647 9q0 -9 -10 -9h-54q-5 0 -11 7l-431 610h-2v-608q0 -9 -9 -9h-47q-9 0 -9 9v699q0 9 9 9h65q7 0 12 -7l419 -592h3v590q0 9 9 9h46q10 0 10 -9v-699zM413 -125q0 -78 -80 -108q-2 -1 -4 -1q-8 0 -8 9v31q0 6 5 8q39 13 40 68h-18q-9 0 -9 9v64q0 9 9 9h56q9 0 9 -9
v-80z" />
    <glyph glyph-name="ncommaaccent" unicode="&#x146;" horiz-adv-x="490" 
d="M424 9q0 -9 -9 -9h-45q-10 0 -10 9v298q0 44 -25.5 70.5t-71.5 26.5q-68 0 -102.5 -37.5t-34.5 -92.5v-265q0 -9 -10 -9h-45q-9 0 -9 9v428q0 9 9 9h41q8 0 10 -9l3 -45h2q22 29 59 47.5t79 18.5q76 0 117.5 -36.5t41.5 -103.5v-309zM283 -125q0 -78 -80 -108
q-2 -1 -4 -1q-8 0 -8 9v31q0 6 5 8q39 13 40 68h-18q-9 0 -9 9v64q0 9 9 9h56q9 0 9 -9v-80z" />
    <glyph glyph-name="Ncaron" unicode="&#x147;" horiz-adv-x="721" 
d="M229 918q0 6 10 6h46q5 0 8 -5l73 -92l72 92q2 5 8 5h47q10 0 10 -7q0 -3 -3 -8l-109 -129q-4 -4 -8 -4h-35q-4 0 -8 4l-109 132q-2 2 -2 6zM647 9q0 -9 -10 -9h-54q-5 0 -11 7l-431 610h-2v-608q0 -9 -9 -9h-47q-9 0 -9 9v699q0 9 9 9h65q7 0 12 -7l419 -592h3v590
q0 9 9 9h46q10 0 10 -9v-699z" />
    <glyph glyph-name="ncaron" unicode="&#x148;" horiz-adv-x="484" 
d="M424 9q0 -9 -9 -9h-45q-10 0 -10 9v298q0 44 -25.5 70.5t-71.5 26.5q-68 0 -102.5 -37.5t-34.5 -92.5v-265q0 -9 -10 -9h-45q-9 0 -9 9v428q0 9 9 9h41q8 0 10 -9l3 -45h2q22 29 59 47.5t79 18.5q76 0 117.5 -36.5t41.5 -103.5v-309zM367 669q0 -1 -2 -5l-93 -154
q-2 -4 -8 -4h-34q-6 0 -8 4l-92 156q-2 4 -2 5q0 6 10 6h37q7 0 9 -5l62 -112l65 112q3 5 9 5h36q11 0 11 -8z" />
    <glyph glyph-name="napostrophe" unicode="&#x149;" horiz-adv-x="486" 
d="M424 9q0 -9 -9 -9h-45q-10 0 -10 9v298q0 44 -25.5 70.5t-71.5 26.5q-68 0 -102.5 -37.5t-34.5 -92.5v-265q0 -9 -10 -9h-45q-9 0 -9 9v428q0 9 9 9h41q8 0 10 -9l3 -45h2q22 29 59 47.5t79 18.5q76 0 117.5 -36.5t41.5 -103.5v-309zM136 588q0 -68 -80 -98q-2 -1 -4 -1
q-8 0 -8 9v31q0 5 5 8q14 5 21 9t13 16.5t6 32.5h-18q-9 0 -9 9v64q0 9 9 9h56q9 0 9 -9v-80z" />
    <glyph glyph-name="Eng" unicode="&#x14a;" horiz-adv-x="721" 
d="M647 -23q0 -95 -58.5 -154t-155.5 -59h-17q-9 0 -9 9v44q0 9 9 9h10q69 0 110 35t41 90q0 43 -24 78l-412 588h-2v-608q0 -9 -9 -9h-47q-9 0 -9 9v699q0 9 9 9h69q7 0 12 -7l415 -592h3v590q0 9 9 9h46q10 0 10 -9v-731z" />
    <glyph glyph-name="eng" unicode="&#x14b;" horiz-adv-x="486" 
d="M424 -139q0 -47 -29 -71.5t-70 -24.5h-17q-9 0 -9 9v38q0 9 9 9h17q35 0 35 40v446q0 44 -25.5 70.5t-71.5 26.5q-68 0 -102.5 -37.5t-34.5 -92.5v-265q0 -9 -10 -9h-45q-9 0 -9 9v428q0 9 9 9h41q8 0 10 -9l3 -45h2q22 29 59 47.5t79 18.5q76 0 117.5 -36.5t41.5 -103.5
v-457z" />
    <glyph glyph-name="Omacron" unicode="&#x14c;" horiz-adv-x="784" 
d="M542 811q0 -11 -11 -11h-276q-11 0 -11 11v27q0 11 11 11h276q11 0 11 -11v-27zM744 359q0 -55 -13.5 -108t-42 -101t-69.5 -84t-99.5 -57t-127.5 -21t-127.5 21t-99.5 57t-69.5 84t-42 101t-13.5 108t13.5 108t42 101t69.5 84t99.5 57t127.5 21t127.5 -21t99.5 -57
t69.5 -84t42 -101t13.5 -108zM392 667q-129 0 -203.5 -90t-74.5 -218t74.5 -218t203.5 -90t203.5 90t74.5 218t-74.5 218t-203.5 90z" />
    <glyph glyph-name="omacron" unicode="&#x14d;" horiz-adv-x="521" 
d="M482 225q0 -97 -58 -167t-163 -70t-163.5 70t-58.5 167q0 100 61 166.5t161 66.5q105 0 163 -68.5t58 -164.5zM417 227q0 73 -40.5 125t-113.5 52q-75 0 -117 -53.5t-42 -127.5t41 -127.5t114 -53.5q74 0 116 55t42 130zM408 575q0 -9 -9 -9h-274q-9 0 -9 9v31q0 9 9 9
h274q9 0 9 -9v-31z" />
    <glyph glyph-name="Obreve" unicode="&#x14e;" horiz-adv-x="784" 
d="M744 359q0 -55 -13.5 -108t-42 -101t-69.5 -84t-99.5 -57t-127.5 -21t-127.5 21t-99.5 57t-69.5 84t-42 101t-13.5 108t13.5 108t42 101t69.5 84t99.5 57t127.5 21t127.5 -21t99.5 -57t69.5 -84t42 -101t13.5 -108zM392 667q-129 0 -203.5 -90t-74.5 -218t74.5 -218
t203.5 -90t203.5 90t74.5 218t-74.5 218t-203.5 90zM517 910q0 -64 -35.5 -98t-90.5 -34t-90 33.5t-35 98.5q0 6 8 6h38q9 0 9 -6q2 -37 21 -57.5t49 -20.5q29 0 49 21t22 57q0 6 9 6h38q8 0 8 -6z" />
    <glyph glyph-name="obreve" unicode="&#x14f;" horiz-adv-x="521" 
d="M482 225q0 -97 -58 -167t-163 -70t-163.5 70t-58.5 167q0 100 61 166.5t161 66.5q105 0 163 -68.5t58 -164.5zM417 227q0 73 -40.5 125t-113.5 52q-75 0 -117 -53.5t-42 -127.5t41 -127.5t114 -53.5q74 0 116 55t42 130zM386 640q0 -64 -35.5 -98t-90.5 -34t-90 33.5
t-35 98.5q0 6 8 6h38q9 0 9 -6q2 -37 21 -57.5t49 -20.5q29 0 49 21t22 57q0 6 9 6h38q8 0 8 -6z" />
    <glyph glyph-name="Ohungarumlaut" unicode="&#x150;" horiz-adv-x="784" 
d="M635 921q0 -2 -1 -3l-130 -139q-3 -3 -7 -3h-49q-6 0 -6 5q0 3 1 4l118 138q4 4 8 4h60q6 0 6 -6zM453 921q0 -2 -1 -3l-120 -139q-3 -3 -7 -3h-46q-5 0 -5 5q0 3 1 4l103 138q4 4 9 4h59q7 0 7 -6zM744 359q0 -55 -13.5 -108t-42 -101t-69.5 -84t-99.5 -57t-127.5 -21
t-127.5 21t-99.5 57t-69.5 84t-42 101t-13.5 108t13.5 108t42 101t69.5 84t99.5 57t127.5 21t127.5 -21t99.5 -57t69.5 -84t42 -101t13.5 -108zM392 667q-129 0 -203.5 -90t-74.5 -218t74.5 -218t203.5 -90t203.5 90t74.5 218t-74.5 218t-203.5 90z" />
    <glyph glyph-name="ohungarumlaut" unicode="&#x151;" horiz-adv-x="521" 
d="M482 225q0 -97 -58 -167t-163 -70t-163.5 70t-58.5 167q0 100 61 166.5t161 66.5q105 0 163 -68.5t58 -164.5zM417 227q0 73 -40.5 125t-113.5 52q-75 0 -117 -53.5t-42 -127.5t41 -127.5t114 -53.5q74 0 116 55t42 130zM495 671q0 -2 -1 -3l-135 -164q-3 -3 -7 -3h-49
q-6 0 -6 5q0 3 1 4l118 163q4 4 8 4h65q6 0 6 -6zM313 671q0 -2 -1 -3l-125 -164q-3 -3 -7 -3h-47q-5 0 -5 5q0 3 1 4l104 163q4 4 9 4h64q7 0 7 -6z" />
    <glyph glyph-name="OE" unicode="&#x152;" horiz-adv-x="1132" 
d="M1090 9q0 -9 -9 -9h-438q-10 0 -10 9v115q-47 -71 -108 -105t-151 -34q-86 0 -152 32.5t-104.5 87t-58 119t-19.5 135.5t19.5 135.5t58 118.5t104.5 86.5t152 32.5q90 0 152 -35t107 -108v119q0 9 10 9h412q10 0 10 -9v-46q0 -9 -10 -9h-350v-260h197q9 0 9 -9v-44
q0 -9 -9 -9h-197v-267h376q9 0 9 -9v-46zM633 328v58q0 119 -69 201t-190 82q-86 0 -146.5 -44.5t-87 -113t-26.5 -152.5q0 -132 66.5 -221.5t193.5 -89.5q122 0 190.5 80.5t68.5 199.5z" />
    <glyph glyph-name="oe" unicode="&#x153;" horiz-adv-x="871" 
d="M826 230q0 -11 -10 -11h-339q5 -82 42 -129.5t103 -47.5q55 0 88 28t45 66q2 6 9 6h46q8 0 8 -10q0 -5 -4.5 -19t-18.5 -36t-34.5 -41.5t-57.5 -33.5t-83 -14q-116 0 -177 110q-66 -110 -187 -110q-105 0 -163 69.5t-58 165.5q0 100 60.5 167.5t160.5 67.5
q125 0 189 -110q64 110 175 110q55 0 97 -21.5t64.5 -57t33.5 -73t11 -76.5zM757 267q-8 66 -44.5 102t-92.5 36q-61 0 -96 -38.5t-47 -99.5h280zM413 223q0 74 -40.5 127.5t-113.5 53.5q-75 0 -117 -53.5t-42 -127.5t40.5 -127.5t113.5 -53.5q75 0 117 53.5t42 127.5z" />
    <glyph glyph-name="Racute" unicode="&#x154;" horiz-adv-x="605" 
d="M443 921q0 -2 -1 -3l-142 -139q-3 -3 -7 -3h-47q-5 0 -5 5q0 3 1 4l122 138q4 4 8 4h65q6 0 6 -6zM584 8q0 -8 -9 -8h-69q-5 0 -9 4l-208 297h-144v-292q0 -9 -9 -9h-53q-9 0 -9 9v699q0 9 9 9h210q108 0 173 -56t65 -151q0 -70 -45.5 -126t-118.5 -72l215 -298
q2 -3 2 -6zM457 509q0 68 -43.5 107t-120.5 39h-148v-296h145q84 0 125.5 40.5t41.5 109.5z" />
    <glyph glyph-name="racute" unicode="&#x155;" horiz-adv-x="378" 
d="M343 345q0 -9 -9 -9l-38 -4q-9 0 -11 8q-12 63 -67 63q-47 0 -74 -50q-18 -31 -18 -91v-253q0 -9 -10 -9h-45q-9 0 -9 9v428q0 9 9 9h41q11 0 11 -10l2 -40h2q40 61 106 61q43 0 74.5 -30t35.5 -82zM324 671l-1 -3l-130 -164q-3 -3 -7 -3h-47q-5 0 -5 5l1 4l110 163
q3 4 8 4h65q6 0 6 -6z" />
    <glyph glyph-name="Rcommaaccent" unicode="&#x156;" horiz-adv-x="605" 
d="M584 8q0 -8 -9 -8h-69q-5 0 -9 4l-208 297h-144v-292q0 -9 -9 -9h-53q-9 0 -9 9v699q0 9 9 9h210q108 0 173 -56t65 -151q0 -70 -45.5 -126t-118.5 -72l215 -298q2 -3 2 -6zM457 509q0 68 -43.5 107t-120.5 39h-148v-296h145q84 0 125.5 40.5t41.5 109.5zM363 -125
q0 -78 -80 -108q-2 -1 -4 -1q-8 0 -8 9v31q0 6 5 8q39 13 40 68h-18q-9 0 -9 9v64q0 9 9 9h56q9 0 9 -9v-80z" />
    <glyph glyph-name="rcommaaccent" unicode="&#x157;" horiz-adv-x="420" 
d="M343 345q0 -9 -9 -9l-38 -4q-9 0 -11 8q-12 63 -67 63q-47 0 -74 -50q-18 -31 -18 -91v-253q0 -9 -10 -9h-45q-9 0 -9 9v428q0 9 9 9h41q11 0 11 -10l2 -40h2q40 61 106 61q43 0 74.5 -30t35.5 -82zM193 -125q0 -78 -80 -108q-2 -1 -4 -1q-8 0 -8 9v31q0 6 5 8
q39 13 40 68h-18q-9 0 -9 9v64q0 9 9 9h56q9 0 9 -9v-80z" />
    <glyph glyph-name="Rcaron" unicode="&#x158;" horiz-adv-x="605" 
d="M149 918q0 6 10 6h46q5 0 8 -5l73 -92l72 92q2 5 8 5h47q10 0 10 -7q0 -3 -3 -8l-109 -129q-4 -4 -8 -4h-35q-4 0 -8 4l-109 132q-2 2 -2 6zM584 8q0 -8 -9 -8h-69q-5 0 -9 4l-208 297h-144v-292q0 -9 -9 -9h-53q-9 0 -9 9v699q0 9 9 9h210q108 0 173 -56t65 -151
q0 -70 -45.5 -126t-118.5 -72l215 -298q2 -3 2 -6zM457 509q0 68 -43.5 107t-120.5 39h-148v-296h145q84 0 125.5 40.5t41.5 109.5z" />
    <glyph glyph-name="rcaron" unicode="&#x159;" horiz-adv-x="357" 
d="M343 345q0 -9 -9 -9l-38 -4q-9 0 -11 8q-12 63 -67 63q-47 0 -74 -50q-18 -31 -18 -91v-253q0 -9 -10 -9h-45q-9 0 -9 9v428q0 9 9 9h41q11 0 11 -10l2 -40h2q40 61 106 61q43 0 74.5 -30t35.5 -82zM317 669q0 -1 -2 -5l-93 -154q-2 -4 -8 -4h-34q-6 0 -8 4l-92 156
q-2 4 -2 5q0 6 10 6h37q7 0 9 -5l62 -112l65 112q3 5 9 5h36q11 0 11 -8z" />
    <glyph glyph-name="Sacute" unicode="&#x15a;" horiz-adv-x="584" 
d="M443 921q0 -2 -1 -3l-142 -139q-3 -3 -7 -3h-47q-5 0 -5 5q0 3 1 4l122 138q4 4 8 4h65q6 0 6 -6zM549 191q0 -92 -72.5 -147.5t-171.5 -55.5q-186 0 -280 144q-2 2 -2 5q0 4 5 7l43 29q2 1 5 1q1 0 7 -6q85 -120 222 -120q79 0 126.5 39.5t47.5 96.5q0 61 -50.5 95
t-161.5 59q-214 49 -214 199q0 79 64 136t160 57q157 0 253 -126q2 -4 2 -6q0 -3 -3 -6l-41 -31q-1 -1 -4 -1q-4 0 -8 4q-78 106 -199 106q-69 0 -112.5 -37t-43.5 -94q0 -58 45 -86.5t156 -55.5q109 -27 168 -75t59 -131z" />
    <glyph glyph-name="sacute" unicode="&#x15b;" horiz-adv-x="431" 
d="M385 127q0 -64 -49 -101.5t-121 -37.5q-113 0 -169 85q-4 6 -4 10q0 3 3 6l33 26q3 2 6 2q5 0 8 -5q44 -70 123 -70q51 0 79.5 21.5t28.5 54.5q0 26 -19 45q-10 9 -26.5 16.5t-29.5 11.5t-42.5 11t-42.5 10q-115 31 -115 118q0 49 43.5 88.5t119.5 39.5q58 0 98.5 -24
t61.5 -53q2 -3 2 -6t-5 -7l-31 -25q-2 -2 -7 -2q-3 0 -7 4q-43 59 -117 59q-45 0 -70.5 -19t-25.5 -47q0 -19 8.5 -32t29 -22.5t37 -14.5t50.5 -13l21 -5q66 -15 97.5 -44.5t31.5 -79.5zM335 671l-1 -3l-130 -164q-3 -3 -7 -3h-47q-5 0 -5 5l1 4l110 163q3 4 8 4h65
q6 0 6 -6z" />
    <glyph glyph-name="Scircumflex" unicode="&#x15c;" horiz-adv-x="584" 
d="M419 782q0 -6 -10 -6h-46q-5 0 -8 5l-73 92l-72 -92q-2 -5 -8 -5h-47q-10 0 -10 7q0 4 3 8l109 129q4 4 8 4h35q4 0 8 -4l109 -132q2 -2 2 -6zM549 191q0 -92 -72.5 -147.5t-171.5 -55.5q-186 0 -280 144q-2 2 -2 5q0 4 5 7l43 29q2 1 5 1q1 0 7 -6q85 -120 222 -120
q79 0 126.5 39.5t47.5 96.5q0 61 -50.5 95t-161.5 59q-214 49 -214 199q0 79 64 136t160 57q157 0 253 -126q2 -4 2 -6q0 -3 -3 -6l-41 -31q-1 -1 -4 -1q-4 0 -8 4q-78 106 -199 106q-69 0 -112.5 -37t-43.5 -94q0 -58 45 -86.5t156 -55.5q109 -27 168 -75t59 -131z" />
    <glyph glyph-name="scircumflex" unicode="&#x15d;" horiz-adv-x="431" 
d="M385 127q0 -64 -49 -101.5t-121 -37.5q-113 0 -169 85q-4 6 -4 10q0 3 3 6l33 26q3 2 6 2q5 0 8 -5q44 -70 123 -70q51 0 79.5 21.5t28.5 54.5q0 26 -19 45q-10 9 -26.5 16.5t-29.5 11.5t-42.5 11t-42.5 10q-115 31 -115 118q0 49 43.5 88.5t119.5 39.5q58 0 98.5 -24
t61.5 -53q2 -3 2 -6t-5 -7l-31 -25q-2 -2 -7 -2q-3 0 -7 4q-43 59 -117 59q-45 0 -70.5 -19t-25.5 -47q0 -19 8.5 -32t29 -22.5t37 -14.5t50.5 -13l21 -5q66 -15 97.5 -44.5t31.5 -79.5zM330 512q0 -6 -10 -6h-37q-7 0 -9 5l-62 112l-65 -112q-3 -5 -9 -5h-36q-11 0 -11 8
q0 1 2 5l93 154q2 4 8 4h34q6 0 8 -4l92 -156q2 -4 2 -5z" />
    <glyph glyph-name="Scedilla" unicode="&#x15e;" horiz-adv-x="584" 
d="M319 -39q31 -5 54 -25t23 -51q0 -41 -33.5 -60t-81.5 -19q-29 0 -47 6q-13 4 -13 12v30q0 7 7 7l20 -3q20 -3 33 -3q50 0 50 33t-55 36l-10 1q-7 0 -7 7l14 57q-163 12 -248 143q-2 2 -2 5q0 4 5 7l43 29q2 1 5 1q1 0 7 -6q85 -120 222 -120q79 0 126.5 39.5t47.5 96.5
q0 61 -50.5 95t-161.5 59q-214 49 -214 199q0 79 64 136t160 57q157 0 253 -126q2 -4 2 -6q0 -3 -3 -6l-41 -31q-1 -1 -4 -1q-4 0 -8 4q-78 106 -199 106q-69 0 -112.5 -37t-43.5 -94q0 -58 45 -86.5t156 -55.5q109 -27 168 -75t59 -131q0 -89 -68 -144t-164 -59l-4 -15
l-2 -8q0 -3 8 -4z" />
    <glyph glyph-name="scedilla" unicode="&#x15f;" horiz-adv-x="431" 
d="M225 -39q31 -5 54 -25t23 -51q0 -41 -33.5 -60t-81.5 -19q-29 0 -47 6q-13 4 -13 12v30q0 7 7 7l20 -3q20 -3 33 -3q50 0 50 33t-55 36l-10 1q-7 0 -7 7l14 59q-87 11 -133 82q-4 6 -4 10q0 3 3 6l33 26q3 2 6 2q5 0 8 -5q44 -70 123 -70q51 0 79.5 21.5t28.5 54.5
q0 26 -19 45q-10 9 -26.5 16.5t-29.5 11.5t-42.5 11t-42.5 10q-115 31 -115 118q0 49 43.5 88.5t119.5 39.5q58 0 98.5 -24t61.5 -53q2 -3 2 -6t-5 -7l-31 -25q-2 -2 -7 -2q-3 0 -7 4q-43 59 -117 59q-45 0 -70.5 -19t-25.5 -47q0 -19 8.5 -32t29 -22.5t37 -14.5t50.5 -13
l21 -5q66 -15 97.5 -44.5t31.5 -79.5q0 -63 -46.5 -100t-115.5 -39l-4 -15l-2 -8q0 -3 8 -4z" />
    <glyph glyph-name="Scaron" unicode="&#x160;" horiz-adv-x="584" 
d="M139 918q0 6 10 6h46q5 0 8 -5l73 -92l72 92q2 5 8 5h47q10 0 10 -7q0 -3 -3 -8l-109 -129q-4 -4 -8 -4h-35q-4 0 -8 4l-109 132q-2 2 -2 6zM549 191q0 -92 -72.5 -147.5t-171.5 -55.5q-186 0 -280 144q-2 2 -2 5q0 4 5 7l43 29q2 1 5 1q1 0 7 -6q85 -120 222 -120
q79 0 126.5 39.5t47.5 96.5q0 61 -50.5 95t-161.5 59q-214 49 -214 199q0 79 64 136t160 57q157 0 253 -126q2 -4 2 -6q0 -3 -3 -6l-41 -31q-1 -1 -4 -1q-4 0 -8 4q-78 106 -199 106q-69 0 -112.5 -37t-43.5 -94q0 -58 45 -86.5t156 -55.5q109 -27 168 -75t59 -131z" />
    <glyph glyph-name="scaron" unicode="&#x161;" horiz-adv-x="431" 
d="M385 127q0 -64 -49 -101.5t-121 -37.5q-113 0 -169 85q-4 6 -4 10q0 3 3 6l33 26q3 2 6 2q5 0 8 -5q44 -70 123 -70q51 0 79.5 21.5t28.5 54.5q0 26 -19 45q-10 9 -26.5 16.5t-29.5 11.5t-42.5 11t-42.5 10q-115 31 -115 118q0 49 43.5 88.5t119.5 39.5q58 0 98.5 -24
t61.5 -53q2 -3 2 -6t-5 -7l-31 -25q-2 -2 -7 -2q-3 0 -7 4q-43 59 -117 59q-45 0 -70.5 -19t-25.5 -47q0 -19 8.5 -32t29 -22.5t37 -14.5t50.5 -13l21 -5q66 -15 97.5 -44.5t31.5 -79.5zM327 669q0 -1 -2 -5l-93 -154q-2 -4 -8 -4h-34q-6 0 -8 4l-92 156q-2 4 -2 5q0 6 10 6
h37q7 0 9 -5l62 -112l65 112q3 5 9 5h36q11 0 11 -8z" />
    <glyph glyph-name="Tcommaaccent" unicode="&#x162;" horiz-adv-x="676" 
d="M645 662q0 -9 -9 -9h-248v-644q0 -9 -9 -9h-52q-10 0 -10 9v644h-245q-9 0 -9 9v46q0 9 9 9h564q9 0 9 -9v-46zM395 -125q0 -78 -80 -108q-2 -1 -4 -1q-8 0 -8 9v31q0 6 5 8q39 13 40 68h-18q-9 0 -9 9v59q0 9 9 9h56q9 0 9 -9v-75z" />
    <glyph glyph-name="tcommaaccent" unicode="&#x163;" horiz-adv-x="323" 
d="M286 8q0 -6 -6 -8q-39 -11 -83 -11q-49 0 -75.5 26.5t-26.5 75.5v301h-79q-9 0 -9 9v36q0 9 9 9h79v117q0 9 9 9h45q10 0 10 -9v-117h118q9 0 9 -9v-36q0 -9 -9 -9h-118v-300q0 -48 47 -48q19 0 40 3q8 1 19 3.5t13 2.5q8 0 8 -9v-36zM213 -125q0 -78 -80 -108
q-2 -1 -4 -1q-8 0 -8 9v31q0 6 5 8q39 13 40 68h-18q-9 0 -9 9v64q0 9 9 9h56q9 0 9 -9v-80z" />
    <glyph glyph-name="Tcaron" unicode="&#x164;" horiz-adv-x="644" 
d="M179 918q0 6 10 6h46q5 0 8 -5l73 -92l72 92q2 5 8 5h47q10 0 10 -7q0 -3 -3 -8l-109 -129q-4 -4 -8 -4h-35q-4 0 -8 4l-109 132q-2 2 -2 6zM613 662q0 -9 -9 -9h-248v-644q0 -9 -9 -9h-52q-10 0 -10 9v644h-245q-9 0 -9 9v46q0 9 9 9h564q9 0 9 -9v-46z" />
    <glyph glyph-name="tcaron" unicode="&#x165;" horiz-adv-x="318" 
d="M286 8q0 -6 -6 -8q-39 -11 -83 -11q-49 0 -75.5 26.5t-26.5 75.5v301h-79q-9 0 -9 9v36q0 9 9 9h79v117q0 9 9 9h45q10 0 10 -9v-117h118q9 0 9 -9v-36q0 -9 -9 -9h-118v-300q0 -48 47 -48q19 0 40 3q8 1 19 3.5t13 2.5q8 0 8 -9v-36zM322 628q0 -78 -80 -108
q-2 -1 -4 -1q-8 0 -8 9v31q0 5 5 8q39 13 40 68h-8q-9 0 -9 9v64q0 9 9 9h46q9 0 9 -9v-80z" />
    <glyph glyph-name="Tbar" unicode="&#x166;" horiz-adv-x="644" 
d="M544 330h-188v-321q0 -9 -9 -9h-52q-10 0 -10 9v321h-185q-9 0 -9 9v43q0 9 9 9h185v262h-245q-9 0 -9 9v46q0 9 9 9h564q9 0 9 -9v-46q0 -9 -9 -9h-248v-262h188q9 0 9 -9v-43q0 -9 -9 -9z" />
    <glyph glyph-name="tbar" unicode="&#x167;" horiz-adv-x="318" 
d="M21 277h74v115h-79q-9 0 -9 9v36q0 9 9 9h79v117q0 9 9 9h45q10 0 10 -9v-117h118q9 0 9 -9v-36q0 -9 -9 -9h-118v-115h108q9 0 9 -9v-36q0 -9 -9 -9h-108v-131q0 -48 47 -48q19 0 40 3q8 1 19 3.5t13 2.5q8 0 8 -9v-36q0 -6 -6 -8q-39 -11 -83 -11q-49 0 -75.5 26.5
t-26.5 75.5v132h-74q-9 0 -9 9v36q0 9 9 9z" />
    <glyph glyph-name="Utilde" unicode="&#x168;" horiz-adv-x="665" 
d="M495 884q0 -13 -3.5 -29t-12.5 -34.5t-29 -31t-47 -12.5q-32 0 -74 30q-42 29 -60 29t-26 -16.5t-8 -33.5q0 -9 -9 -9h-36q-9 0 -9 10q0 30 24.5 66t69.5 36q32 0 75 -30t60 -30q15 0 23 18.5t8 35.5q0 8 9 8h36q9 0 9 -7zM591 220q0 -99 -72 -165.5t-185 -66.5
t-186.5 63.5t-73.5 168.5v488q0 9 9 9h53q9 0 9 -9v-487q0 -74 51.5 -122.5t137.5 -48.5t136 47t50 124v487q0 9 9 9h53q9 0 9 -9v-488z" />
    <glyph glyph-name="utilde" unicode="&#x169;" horiz-adv-x="484" 
d="M422 9q0 -9 -9 -9h-41q-8 0 -9 9l-4 50h-2q-17 -29 -56 -50t-80 -21q-72 0 -115.5 35.5t-43.5 104.5v309q0 9 9 9h45q10 0 10 -9v-298q0 -97 98 -97q58 0 96 35.5t38 94.5v265q0 9 10 9h45q9 0 9 -9v-428zM394 644q0 -13 -3.5 -29t-12.5 -34.5t-29 -31t-47 -12.5
q-32 0 -74 30q-42 29 -60 29t-26 -16.5t-8 -33.5q0 -9 -9 -9h-35q-9 0 -9 10q0 30 24 66t69 36q32 0 75 -30t60 -30q15 0 23 18.5t8 35.5q0 8 10 8h36q8 0 8 -7z" />
    <glyph glyph-name="Umacron" unicode="&#x16a;" horiz-adv-x="665" 
d="M499 821q0 -11 -11 -11h-316q-11 0 -11 11v27q0 11 11 11h316q11 0 11 -11v-27zM591 220q0 -99 -72 -165.5t-185 -66.5t-186.5 63.5t-73.5 168.5v488q0 9 9 9h53q9 0 9 -9v-487q0 -74 51.5 -122.5t137.5 -48.5t136 47t50 124v487q0 9 9 9h53q9 0 9 -9v-488z" />
    <glyph glyph-name="umacron" unicode="&#x16b;" horiz-adv-x="487" 
d="M422 9q0 -9 -9 -9h-41q-8 0 -9 9l-4 50h-2q-17 -29 -56 -50t-80 -21q-72 0 -115.5 35.5t-43.5 104.5v309q0 9 9 9h45q10 0 10 -9v-298q0 -97 98 -97q58 0 96 35.5t38 94.5v265q0 9 10 9h45q9 0 9 -9v-428zM384 575q0 -9 -9 -9h-274q-9 0 -9 9v31q0 9 9 9h274q9 0 9 -9
v-31z" />
    <glyph glyph-name="Ubreve" unicode="&#x16c;" horiz-adv-x="665" 
d="M591 220q0 -99 -72 -165.5t-185 -66.5t-186.5 63.5t-73.5 168.5v488q0 9 9 9h53q9 0 9 -9v-487q0 -74 51.5 -122.5t137.5 -48.5t136 47t50 124v487q0 9 9 9h53q9 0 9 -9v-488zM463 910q0 -64 -35.5 -98t-90.5 -34t-90 33.5t-35 98.5q0 6 8 6h38q9 0 9 -6q2 -37 21 -57.5
t49 -20.5q29 0 49 21t22 57q0 6 9 6h38q8 0 8 -6z" />
    <glyph glyph-name="ubreve" unicode="&#x16d;" horiz-adv-x="484" 
d="M422 9q0 -9 -9 -9h-41q-8 0 -9 9l-4 50h-2q-17 -29 -56 -50t-80 -21q-72 0 -115.5 35.5t-43.5 104.5v309q0 9 9 9h45q10 0 10 -9v-298q0 -97 98 -97q58 0 96 35.5t38 94.5v265q0 9 10 9h45q9 0 9 -9v-428zM371 640q0 -64 -35.5 -98t-90.5 -34t-90 33.5t-35 98.5q0 6 8 6
h38q9 0 9 -6q2 -37 21 -57.5t49 -20.5q29 0 49 21t22 57q0 6 9 6h38q8 0 8 -6z" />
    <glyph glyph-name="Uring" unicode="&#x16e;" horiz-adv-x="665" 
d="M437 838q0 -44 -29 -68.5t-68 -24.5t-68 24.5t-29 68.5t29 68.5t68 24.5t68 -24.5t29 -68.5zM388 838q0 24 -14 37.5t-34 13.5t-34.5 -13.5t-14.5 -37.5t14.5 -37.5t34.5 -13.5t34 13.5t14 37.5zM591 220q0 -99 -72 -165.5t-185 -66.5t-186.5 63.5t-73.5 168.5v488
q0 9 9 9h53q9 0 9 -9v-487q0 -74 51.5 -122.5t137.5 -48.5t136 47t50 124v487q0 9 9 9h53q9 0 9 -9v-488z" />
    <glyph glyph-name="uring" unicode="&#x16f;" horiz-adv-x="486" 
d="M422 9q0 -9 -9 -9h-41q-8 0 -9 9l-4 50h-2q-17 -29 -56 -50t-80 -21q-72 0 -115.5 35.5t-43.5 104.5v309q0 9 9 9h45q10 0 10 -9v-298q0 -97 98 -97q58 0 96 35.5t38 94.5v265q0 9 10 9h45q9 0 9 -9v-428zM339 593q0 -44 -29 -68.5t-68 -24.5t-68 24.5t-29 68.5t29 68.5
t68 24.5t68 -24.5t29 -68.5zM290 593q0 24 -14 37.5t-34 13.5t-34.5 -13.5t-14.5 -37.5t14.5 -37.5t34.5 -13.5t34 13.5t14 37.5z" />
    <glyph glyph-name="Uhungarumlaut" unicode="&#x170;" horiz-adv-x="664" 
d="M565 921q0 -2 -1 -3l-130 -139q-3 -3 -7 -3h-49q-6 0 -6 5q0 3 1 4l118 138q4 4 8 4h60q6 0 6 -6zM383 921q0 -2 -1 -3l-120 -139q-3 -3 -7 -3h-46q-5 0 -5 5q0 3 1 4l103 138q4 4 9 4h59q7 0 7 -6zM591 220q0 -99 -72 -165.5t-185 -66.5t-186.5 63.5t-73.5 168.5v488
q0 9 9 9h53q9 0 9 -9v-487q0 -74 51.5 -122.5t137.5 -48.5t136 47t50 124v487q0 9 9 9h53q9 0 9 -9v-488z" />
    <glyph glyph-name="uhungarumlaut" unicode="&#x171;" horiz-adv-x="487" 
d="M422 9q0 -9 -9 -9h-41q-8 0 -9 9l-4 50h-2q-17 -29 -56 -50t-80 -21q-72 0 -115.5 35.5t-43.5 104.5v309q0 9 9 9h45q10 0 10 -9v-298q0 -97 98 -97q58 0 96 35.5t38 94.5v265q0 9 10 9h45q9 0 9 -9v-428zM480 671q0 -2 -1 -3l-135 -164q-3 -3 -7 -3h-49q-6 0 -6 5
q0 3 1 4l118 163q4 4 8 4h65q6 0 6 -6zM298 671q0 -2 -1 -3l-125 -164q-3 -3 -7 -3h-47q-5 0 -5 5q0 3 1 4l104 163q4 4 9 4h64q7 0 7 -6z" />
    <glyph glyph-name="Uogonek" unicode="&#x172;" horiz-adv-x="665" 
d="M249 -117q0 59 92 114l-15 -1q-113 0 -182.5 59.5t-69.5 164.5v488q0 9 9 9h53q9 0 9 -9v-475q0 -83 46 -129q52 -54 143 -54q86 0 136 45t50 138v475q0 9 9 9h53q9 0 9 -9v-488q0 -77 -42.5 -128t-121.5 -98q-39 -23 -71 -47q-44 -33 -44 -58q0 -36 43 -36q31 0 71 15
q6 2 8 2q6 0 6 -6l1 -30q0 -10 -6 -12q-40 -20 -86 -20t-73 22t-27 59z" />
    <glyph glyph-name="uogonek" unicode="&#x173;" horiz-adv-x="484" 
d="M422 437v-436q0 -13 -8 -17q-62 -31 -93 -67q-13 -16 -13 -31q0 -14 11 -23.5t31 -9.5q24 0 61 15q6 2 8 2q6 0 6 -6v-30q0 -10 -6 -12q-40 -20 -75 -20q-45 0 -70 21.5t-25 57.5q0 63 92 114l25 14q0 35 -2 53l-3 2q-25 -27 -67.5 -49t-82.5 -22q-70 0 -109.5 36
t-39.5 99v309q0 9 9 9h45q10 0 10 -9v-298q0 -92 98 -92q58 0 96 35.5t38 95.5v259q0 9 10 9h45q9 0 9 -9z" />
    <glyph glyph-name="Wcircumflex" unicode="&#x174;" horiz-adv-x="1036" 
d="M655 782q0 -6 -10 -6h-46q-5 0 -8 5l-73 92l-72 -92q-2 -5 -8 -5h-47q-10 0 -10 7q0 4 3 8l109 129q4 4 8 4h35q4 0 8 -4l109 -132q2 -2 2 -6zM1017 709l-2 -8l-230 -695q-2 -6 -9 -6h-65q-8 0 -10 6l-184 578h-2l-178 -578q-2 -6 -10 -6h-68q-7 0 -9 6l-230 699
q-1 3 -1 4q0 8 9 8h57q8 0 11 -9l200 -618h2l189 621q2 6 9 6h45q7 0 9 -6l195 -621h2l202 621q2 6 9 6h50q9 0 9 -8z" />
    <glyph glyph-name="wcircumflex" unicode="&#x175;" horiz-adv-x="703" 
d="M686 438l-1 -4l-146 -428q-2 -6 -9 -6h-60q-8 0 -10 6l-110 323h-2l-108 -323q-2 -6 -9 -6h-65q-7 0 -9 6l-143 428q-1 3 -1 4q0 8 9 8h51q8 0 10 -6l117 -372h2l121 371q2 6 10 6h38q7 0 9 -6l122 -371h2l120 372q2 6 9 6h44q9 0 9 -8zM469 512q0 -6 -10 -6h-37
q-6 0 -9 5l-62 112l-65 -112q-2 -5 -9 -5h-36q-11 0 -11 8q0 1 2 5l93 154q2 4 8 4h34q6 0 8 -4l92 -156q2 -4 2 -5z" />
    <glyph glyph-name="Ycircumflex" unicode="&#x176;" horiz-adv-x="661" 
d="M475 782q0 -6 -10 -6h-46q-5 0 -8 5l-73 92l-72 -92q-2 -5 -8 -5h-47q-10 0 -10 7q0 4 3 8l109 129q4 4 8 4h35q4 0 8 -4l109 -132q2 -2 2 -6zM643 711l-2 -5l-276 -441v-256q0 -9 -10 -9h-53q-9 0 -9 9v256l-274 441q-1 3 -1 4q0 7 7 7h65q9 0 13 -8l228 -372h2l231 373
q4 7 13 7h57q9 0 9 -6z" />
    <glyph glyph-name="ycircumflex" unicode="&#x177;" horiz-adv-x="422" 
d="M409 431l-196 -510q-19 -51 -39 -89q-35 -66 -101 -66q-40 0 -58 9q-6 3 -6 8l1 4l14 39q2 4 7 4l8 -2q15 -6 31 -6q22 0 36 12.5t26 42.5l46 114l-160 441q-2 5 -2 7q0 6 7 6h52q9 0 12 -9l126 -357h2l134 358q4 9 12 9h43q7 0 7 -6q0 -5 -2 -9zM333 512q0 -6 -10 -6
h-37q-6 0 -9 5l-62 112l-65 -112q-2 -5 -9 -5h-36q-11 0 -11 8q0 1 2 5l93 154q2 4 8 4h34q6 0 8 -4l92 -156q2 -4 2 -5z" />
    <glyph glyph-name="Ydieresis" unicode="&#x178;" horiz-adv-x="661" 
d="M459 805q0 -9 -9 -9h-51q-10 0 -10 9v58q0 9 10 9h51q9 0 9 -9v-58zM271 805q0 -9 -9 -9h-52q-9 0 -9 9v58q0 9 9 9h52q9 0 9 -9v-58zM643 711l-2 -5l-276 -441v-256q0 -9 -10 -9h-53q-9 0 -9 9v256l-274 441q-1 3 -1 4q0 7 7 7h65q9 0 13 -8l228 -372h2l231 373
q4 7 13 7h57q9 0 9 -6z" />
    <glyph glyph-name="Zacute" unicode="&#x179;" horiz-adv-x="632" 
d="M467 921q0 -2 -1 -3l-142 -139q-3 -3 -7 -3h-47q-5 0 -5 5q0 3 1 4l122 138q4 4 8 4h65q6 0 6 -6zM591 9q0 -9 -9 -9h-532q-9 0 -9 9v11q0 3 2 5l433 626l-1 2h-414q-10 0 -10 9v46q0 9 10 9h521q9 0 9 -9v-8q0 -3 -2 -5l-433 -629l1 -2h425q9 0 9 -9v-46z" />
    <glyph glyph-name="zacute" unicode="&#x17a;" horiz-adv-x="454" 
d="M414 9q0 -9 -9 -9h-349q-10 0 -10 9v11l2 5l268 365q0 2 -1 2h-259q-10 0 -10 9v36q0 9 10 9h347q9 0 9 -9v-15l-2 -5l-265 -361q0 -2 1 -2h259q9 0 9 -9v-36zM418 671l-1 -3l-130 -164q-3 -3 -7 -3h-47q-5 0 -5 5l1 4l110 163q3 4 8 4h65q6 0 6 -6z" />
    <glyph glyph-name="Zdotaccent" unicode="&#x17b;" horiz-adv-x="632" 
d="M353 803q0 -9 -10 -9h-52q-9 0 -9 9v59q0 9 9 9h52q10 0 10 -9v-59zM591 9q0 -9 -9 -9h-532q-9 0 -9 9v11q0 3 2 5l433 626l-1 2h-414q-10 0 -10 9v46q0 9 10 9h521q9 0 9 -9v-8q0 -3 -2 -5l-433 -629l1 -2h425q9 0 9 -9v-46z" />
    <glyph glyph-name="zdotaccent" unicode="&#x17c;" horiz-adv-x="454" 
d="M414 9q0 -9 -9 -9h-349q-10 0 -10 9v11l2 5l268 365q0 2 -1 2h-259q-10 0 -10 9v36q0 9 10 9h347q9 0 9 -9v-15l-2 -5l-265 -361q0 -2 1 -2h259q9 0 9 -9v-36zM257 559q0 -9 -10 -9h-52q-9 0 -9 9v59q0 9 9 9h52q10 0 10 -9v-59z" />
    <glyph glyph-name="Zcaron" unicode="&#x17d;" horiz-adv-x="632" 
d="M179 918q0 6 10 6h46q5 0 8 -5l73 -92l72 92q2 5 8 5h47q10 0 10 -7q0 -3 -3 -8l-109 -129q-4 -4 -8 -4h-35q-4 0 -8 4l-109 132q-2 2 -2 6zM591 9q0 -9 -9 -9h-532q-9 0 -9 9v11q0 3 2 5l433 626l-1 2h-414q-10 0 -10 9v46q0 9 10 9h521q9 0 9 -9v-8q0 -3 -2 -5
l-433 -629l1 -2h425q9 0 9 -9v-46z" />
    <glyph glyph-name="zcaron" unicode="&#x17e;" horiz-adv-x="454" 
d="M414 9q0 -9 -9 -9h-349q-10 0 -10 9v11l2 5l268 365q0 2 -1 2h-259q-10 0 -10 9v36q0 9 10 9h347q9 0 9 -9v-15l-2 -5l-265 -361q0 -2 1 -2h259q9 0 9 -9v-36zM342 669q0 -1 -2 -5l-93 -154q-2 -4 -8 -4h-34q-6 0 -8 4l-92 156q-2 4 -2 5q0 6 10 6h37q6 0 9 -5l62 -112
l65 112q2 5 9 5h36q11 0 11 -8z" />
    <glyph glyph-name="longs" unicode="&#x17f;" horiz-adv-x="220" 
d="M157 570v-561q0 -9 -10 -9h-45q-9 0 -9 9v383h-84q-9 0 -9 9v36q0 9 9 9h84v124q0 65 40 104.5t104 39.5q14 0 30 -2q9 -2 9 -9v-35q0 -9 -9 -9q-1 0 -4 0.5t-10 0.5h-16q-80 0 -80 -90z" />
    <glyph glyph-name="Schwa" unicode="&#x18f;" horiz-adv-x="768" 
d="M385 -12q-158 0 -247.5 98.5t-89.5 265.5v10q0 8 9 8h600q0 141 -82.5 219.5t-194.5 78.5q-87 0 -156.5 -49t-93.5 -139q-2 -7 -9 -7h-52q-10 0 -10 9v2q24 117 115.5 181.5t205.5 64.5q67 0 128 -23.5t111 -67.5t80 -116.5t30 -163.5q0 -163 -97.5 -267t-246.5 -104z
M385 50q107 0 181.5 71t86.5 188h-534q10 -126 82.5 -192.5t183.5 -66.5z" />
    <glyph glyph-name="florin" unicode="&#x192;" horiz-adv-x="390" 
d="M388 709l-12 -39q-3 -6 -8 -6q-39 -3 -60.5 -37.5t-35.5 -96.5l-34 -155h64q9 0 9 -9v-38q0 -9 -9 -9h-76l-52 -239q-11 -50 -17.5 -77t-20.5 -65t-28.5 -57.5t-39 -34t-54.5 -14.5q-12 0 -12 8v1l10 40q2 8 9 8q25 2 41 30t33 105l65 295h-65q-10 0 -10 9v38q0 9 10 9
h77l30 136q8 37 18 66t29.5 65.5t51 57t73.5 20.5q14 0 14 -9v-2z" />
    <glyph glyph-name="uni0195" unicode="&#x195;" horiz-adv-x="752" 
d="M626 141v220q0 32 -26 36l-7 1q-9 2 -9 9v35q0 9 9 9h12q37 0 61 -22t24 -68v-223q0 -69 -50 -109.5t-126 -40.5q-73 0 -121.5 38t-48.5 106v173q0 99 -94 99q-61 0 -92.5 -39t-31.5 -94v-262q0 -9 -10 -9h-45q-9 0 -9 9v699q0 9 9 9h45q10 0 10 -9v-326q24 39 59.5 57.5
t71.5 18.5q70 0 110.5 -37.5t40.5 -104.5v-173q0 -49 31 -75t78 -26q46 0 77.5 26.5t31.5 72.5z" />
    <glyph glyph-name="Ohorn" unicode="&#x1a0;" horiz-adv-x="784" 
d="M729 773q0 -44 -25.5 -80.5t-64.5 -60.5q52 -52 78.5 -124t26.5 -149q0 -55 -13.5 -108t-42 -101t-69.5 -84t-99.5 -57t-127.5 -21t-127.5 21t-99.5 57t-69.5 84t-42 101t-13.5 108t13.5 108t42 101t69.5 84t99.5 57t127.5 21q117 0 205 -62q32 7 57.5 37t26.5 69h-27
q-9 0 -9 9v64q0 9 9 9h66q9 0 9 -9v-74zM392 667q-129 0 -203.5 -90t-74.5 -218t74.5 -218t203.5 -90t203.5 90t74.5 218t-74.5 218t-203.5 90z" />
    <glyph glyph-name="ohorn" unicode="&#x1a1;" horiz-adv-x="521" 
d="M482 225q0 -97 -58 -167t-163 -70t-163.5 70t-58.5 167q0 100 61 166.5t161 66.5q75 0 129 -39q17 15 29.5 48t12.5 66v9h-27q-9 0 -9 9v64q0 9 9 9h66q9 0 9 -9v-66q0 -40 -14 -87.5t-44 -70.5q60 -66 60 -166zM417 227q0 73 -40.5 125t-113.5 52q-75 0 -117 -53.5
t-42 -127.5t41 -127.5t114 -53.5q74 0 116 55t42 130z" />
    <glyph glyph-name="Uhorn" unicode="&#x1af;" horiz-adv-x="665" 
d="M591 220q0 -99 -72 -165.5t-185 -66.5t-186.5 63.5t-73.5 168.5v488q0 9 9 9h53q9 0 9 -9v-487q0 -74 51.5 -122.5t137.5 -48.5t136 47t50 124v487q0 9 9 9h85q33 0 45 12.5t12 44.5h-21q-9 0 -9 9v64q0 9 9 9h66q9 0 9 -9v-74q0 -43 -31.5 -71.5t-79.5 -28.5h-23v-453z
" />
    <glyph glyph-name="uhorn" unicode="&#x1b0;" horiz-adv-x="592" 
d="M422 9q0 -9 -9 -9h-41q-8 0 -9 9l-4 50h-2q-17 -29 -56 -50t-80 -21q-72 0 -115.5 35.5t-43.5 104.5v309q0 9 9 9h45q10 0 10 -9v-298q0 -97 98 -97q58 0 96 35.5t38 94.5v265q0 9 10 9h76q33 0 45 12t12 44h-21q-9 0 -9 9v64q0 9 9 9h66q9 0 9 -9v-74q0 -43 -31.5 -71.5
t-79.5 -28.5h-22v-392z" />
    <glyph glyph-name="uni01BF" unicode="&#x1bf;" horiz-adv-x="481" 
d="M264 458q81 0 129 -48.5t48 -126.5t-51 -164t-179 -191l-85 -70v-79q0 -9 -10 -9h-45q-9 0 -9 9v657q0 9 9 9h41q10 0 10 -9l3 -49h2q19 29 54 50t83 21zM125 223v-297l48 40q197 163 197 317q0 56 -28.5 88.5t-78.5 32.5q-138 0 -138 -181z" />
    <glyph glyph-name="Oogonek" unicode="&#x1ea;" horiz-adv-x="784" 
d="M744 359q0 -101 -47.5 -190.5t-133.5 -140.5q-40 -24 -70 -40t-43 -23t-27 -18q-44 -33 -44 -58q0 -36 43 -36q30 0 71 15q6 2 8 2q6 0 6 -6l1 -30q0 -10 -6 -12q-40 -20 -86 -20t-73 22t-27 59q0 54 77 105h-1q-69 0 -127.5 21t-99.5 57t-69.5 84t-42 101t-13.5 108
t13.5 108t42 101t69.5 84t99.5 57t127.5 21t127.5 -21t99.5 -57t69.5 -84t42 -101t13.5 -108zM392 667q-129 0 -203.5 -90t-74.5 -218t74.5 -218t203.5 -90t203.5 90t74.5 218t-74.5 218t-203.5 90z" />
    <glyph glyph-name="oogonek" unicode="&#x1eb;" horiz-adv-x="521" 
d="M482 225q0 -56 -21.5 -107t-61.5 -84q-27 -21 -58 -41.5t-52 -36.5t-41 -39q-13 -16 -13 -31q0 -14 11 -23.5t31 -9.5q23 0 61 15q6 2 8 2q6 0 6 -6v-30q0 -10 -6 -12q-40 -20 -75 -20q-45 0 -70 21.5t-25 57.5q0 55 83 107q-104 1 -162 71t-58 166q0 100 61 166.5
t161 66.5q105 0 163 -68.5t58 -164.5zM417 227q0 73 -40.5 125t-113.5 52q-75 0 -117 -53.5t-42 -127.5t41 -127.5t114 -53.5q74 0 116 55t42 130z" />
    <glyph glyph-name="uni01F6" unicode="&#x1f6;" horiz-adv-x="1092" 
d="M542 210v119h-397v-320q0 -9 -9 -9h-53q-9 0 -9 9v699q0 9 9 9h53q9 0 9 -9v-317h397v317q0 9 10 9h52q9 0 9 -9v-497q-1 -69 45 -115t123 -46q74 0 120 43t46 118v226q0 9 9 9h53q9 0 9 -9v-227q0 -97 -67.5 -159.5t-169.5 -62.5q-104 0 -171.5 61.5t-67.5 160.5z" />
    <glyph glyph-name="uni01F7" unicode="&#x1f7;" horiz-adv-x="579" 
d="M145 9q0 -9 -9 -9h-53q-9 0 -9 9v699q0 9 9 9h240q107 0 162.5 -54.5t55.5 -138.5q0 -43 -25.5 -89.5t-80.5 -100.5t-102.5 -95t-128.5 -106q-9 -7 -14 -11l-45 -37v-76zM145 655v-491q56 43 186 156q72 64 104 111.5t32 92.5q0 58 -36 94.5t-108 36.5h-178z" />
    <glyph glyph-name="AEacute" unicode="&#x1fc;" horiz-adv-x="935" 
d="M707 921q0 -2 -1 -3l-142 -139q-3 -3 -7 -3h-47q-5 0 -5 5q0 3 1 4l122 138q4 4 8 4h65q6 0 6 -6zM937 9q0 -9 -9 -9h-439q-9 0 -9 9v231h-258l-140 -235q-2 -5 -9 -5h-59q-5 0 -7.5 2t-1.5 6q0 1 2 5l434 697q4 7 12 7h449q9 0 9 -9v-46q0 -9 -9 -9h-351v-262h208
q9 0 9 -9v-44q0 -9 -9 -9h-208v-265h377q9 0 9 -9v-46zM254 295h226v366z" />
    <glyph glyph-name="aeacute" unicode="&#x1fd;" horiz-adv-x="778" 
d="M733 227q0 -8 -9 -8h-328q2 -82 38 -129.5t102 -47.5q98 0 127 93q2 6 10 6h45q9 0 9 -8v-3q-18 -69 -69 -105.5t-124 -36.5q-109 0 -165 88q-24 -42 -73 -65t-111 -23q-66 0 -109 32.5t-43 79.5q0 37 18 64t49.5 43.5t63 27t71.5 22t61 21.5q37 17 37 53q0 43 -25.5 58
t-71.5 15q-115 0 -119 -104q0 -9 -9 -9h-45q-9 0 -9 9q0 82 55 122q49 36 133 36q112 0 144 -76q56 76 148 76q50 0 88.5 -19t58.5 -45.5t32.5 -61.5t16 -59t3.5 -46zM333 164v93q-21 -17 -53 -30q-14 -6 -40.5 -15.5t-32.5 -11.5q-65 -25 -86 -45.5t-21 -49.5t27.5 -47
t65.5 -18q140 0 140 124zM665 267q-22 137 -131 137q-61 0 -96 -39t-42 -98h269zM544 671l-1 -3l-130 -164q-3 -3 -7 -3h-47q-5 0 -5 5l1 4l110 163q3 4 8 4h65q6 0 6 -6z" />
    <glyph glyph-name="Oslashacute" unicode="&#x1fe;" horiz-adv-x="784" 
d="M557 921q0 -2 -1 -3l-142 -139q-3 -3 -7 -3h-47q-5 0 -5 5q0 3 1 4l122 138q4 4 8 4h65q6 0 6 -6zM392 51q129 0 203.5 90t74.5 218q0 129 -73 216l-369 -472q68 -52 164 -52zM392 667q-129 0 -203.5 -90t-74.5 -218q0 -132 74 -218l369 472q-68 54 -165 54zM744 359
q0 -55 -13.5 -108t-42 -101t-69.5 -84t-99.5 -57t-127.5 -21q-120 0 -206 62l-47 -61q-3 -4 -7 -4q-3 0 -5 2l-30 22q-4 4 -4 7t2 5l50 64q-52 52 -78.5 124t-26.5 150q0 55 13.5 108t42 101t69.5 84t99.5 57t127.5 21q120 0 207 -63l46 59q3 4 8 4q4 0 6 -2l29 -22
q4 -4 4 -7q0 -1 -2 -5l-49 -64q50 -53 76.5 -124t26.5 -147z" />
    <glyph glyph-name="oslashacute" unicode="&#x1ff;" horiz-adv-x="521" 
d="M395 671l-1 -3l-130 -164q-3 -3 -7 -3h-47q-5 0 -5 5l1 4l110 163q3 4 8 4h65q6 0 6 -6zM478 223q0 -96 -58.5 -166t-163.5 -70q-74 0 -125 38l-34 -39q-3 -3 -6 -3q-4 0 -6 2l-21 16q-4 4 -4 7t2 5l34 42q-61 70 -61 168q0 100 60.5 167.5t160.5 67.5q85 0 133 -42
l35 41q3 3 6 3q4 0 6 -2l22 -17q4 -4 4 -7q0 -1 -2 -5l-37 -45q26 -28 40.5 -73t14.5 -88zM353 371q-37 33 -94 33q-75 0 -117 -53.5t-42 -127.5q0 -73 35 -119zM413 223q0 72 -30 112l-216 -265q35 -29 87 -29q75 0 117 54t42 128z" />
    <glyph glyph-name="Scommaaccent" unicode="&#x218;" horiz-adv-x="608" 
d="M549 191q0 -92 -72.5 -147.5t-171.5 -55.5q-186 0 -280 144q-2 2 -2 5q0 4 5 7l43 29q2 1 5 1q1 0 7 -6q85 -120 222 -120q79 0 126.5 39.5t47.5 96.5q0 61 -50.5 95t-161.5 59q-214 49 -214 199q0 79 64 136t160 57q157 0 253 -126q2 -4 2 -6q0 -3 -3 -6l-41 -31
q-1 -1 -4 -1q-4 0 -8 4q-78 106 -199 106q-69 0 -112.5 -37t-43.5 -94q0 -58 45 -86.5t156 -55.5q109 -27 168 -75t59 -131zM331 -125q0 -78 -80 -108q-2 -1 -4 -1q-8 0 -8 9v31q0 6 5 8q39 13 40 68h-18q-9 0 -9 9v64q0 9 9 9h56q9 0 9 -9v-80z" />
    <glyph glyph-name="scommaaccent" unicode="&#x219;" horiz-adv-x="440" 
d="M385 127q0 -64 -49 -101.5t-121 -37.5q-113 0 -169 85q-4 6 -4 10q0 3 3 6l33 26q3 2 6 2q5 0 8 -5q44 -70 123 -70q51 0 79.5 21.5t28.5 54.5q0 26 -19 45q-10 9 -26.5 16.5t-29.5 11.5t-42.5 11t-42.5 10q-115 31 -115 118q0 49 43.5 88.5t119.5 39.5q58 0 98.5 -24
t61.5 -53q2 -3 2 -6t-5 -7l-31 -25q-2 -2 -7 -2q-3 0 -7 4q-43 59 -117 59q-45 0 -70.5 -19t-25.5 -47q0 -19 8.5 -32t29 -22.5t37 -14.5t50.5 -13l21 -5q66 -15 97.5 -44.5t31.5 -79.5zM249 -125q0 -78 -80 -108q-2 -1 -4 -1q-8 0 -8 9v31q0 6 5 8q39 13 40 68h-18
q-9 0 -9 9v64q0 9 9 9h56q9 0 9 -9v-80z" />
    <glyph glyph-name="uni021A" unicode="&#x21a;" horiz-adv-x="644" 
d="M613 662q0 -9 -9 -9h-248v-644q0 -9 -9 -9h-52q-10 0 -10 9v644h-245q-9 0 -9 9v46q0 9 9 9h564q9 0 9 -9v-46zM360 -125q0 -78 -80 -108q-2 -1 -4 -1q-8 0 -8 9v31q0 6 5 8q39 13 40 68h-18q-9 0 -9 9v64q0 9 9 9h56q9 0 9 -9v-80z" />
    <glyph glyph-name="uni021B" unicode="&#x21b;" horiz-adv-x="333" 
d="M286 8q0 -6 -6 -8q-39 -11 -83 -11q-49 0 -75.5 26.5t-26.5 75.5v301h-79q-9 0 -9 9v36q0 9 9 9h79v117q0 9 9 9h45q10 0 10 -9v-117h118q9 0 9 -9v-36q0 -9 -9 -9h-118v-300q0 -48 47 -48q19 0 40 3q8 1 19 3.5t13 2.5q8 0 8 -9v-36zM231 -125q0 -78 -80 -108
q-2 -1 -4 -1q-8 0 -8 9v31q0 6 5 8q39 13 40 68h-18q-9 0 -9 9v64q0 9 9 9h56q9 0 9 -9v-80z" />
    <glyph glyph-name="uni021C" unicode="&#x21c;" horiz-adv-x="603" 
d="M561 247q0 -106 -105 -176.5t-285 -70.5h-83q-9 0 -9 9v46q0 9 9 9h73q158 0 242 51.5t84 131.5q0 49 -34 78.5t-90 29.5q-36 0 -73.5 -15.5t-97.5 -51.5l-68 -40q-4 -2 -7.5 -0.5t-3.5 6.5v49q0 12 8 16l142 79q93 52 132.5 88t39.5 79q0 44 -34.5 72.5t-102.5 28.5
q-66 0 -112 -35.5t-46 -92.5q0 -8 1 -19.5t1 -12.5q0 -9 -9 -9h-53q-7 0 -9 9q-2 20 -2 30q0 82 65 136.5t163 54.5q97 0 154.5 -44t57.5 -118q0 -91 -131 -157h3q79 0 129.5 -42.5t50.5 -118.5z" />
    <glyph glyph-name="uni021D" unicode="&#x21d;" horiz-adv-x="427" 
d="M383 36q0 -94 -95 -172t-235 -103q-8 0 -8 9v36q0 7 9 9q131 35 196.5 92t65.5 129q0 40 -19 63.5t-47 23.5q-39 0 -72 -23l-88 -60q-8 -5 -11 -5q-4 0 -7 4l-20 27q-6 9 3 15l132 85q56 36 85 71t29 78q0 34 -28 61t-73 27q-49 0 -78 -29t-31 -75q0 -9 -9 -9h-45
q-9 0 -9 9q0 67 49.5 112.5t122.5 45.5q76 0 122 -40.5t46 -101.5q0 -79 -102 -147q50 1 83.5 -40t33.5 -92z" />
    <glyph glyph-name="schwa" unicode="&#x259;" horiz-adv-x="493" 
d="M45 218q0 9 9 9h335q0 77 -38.5 127t-104.5 50q-55 0 -89 -28.5t-46 -65.5q-2 -6 -9 -6h-46q-9 0 -9 9q0 4 4 17.5t18 36t34 42.5t58 34.5t85 14.5q100 0 154 -68.5t54 -166.5q0 -101 -57.5 -168t-150.5 -67q-91 0 -146 60t-55 170zM113 180q4 -63 39 -100.5t94 -37.5
q56 0 96 38.5t46 99.5h-275z" />
    <glyph glyph-name="afii57929" unicode="&#x2bc;" horiz-adv-x="236" 
d="M174 613q0 -91 -99 -128q-2 -1 -5 -1h-2q-6 0 -6 10v36q0 7 8 10q51 24 51 74v22h-42q-9 0 -9 9v63q0 9 9 9h86q9 0 9 -9v-95z" />
    <glyph glyph-name="uni02BE" unicode="&#x2be;" horiz-adv-x="293" 
d="M84 721q65 0 103.5 -36t38.5 -90t-38 -89.5t-104 -35.5q-6 0 -6 8v38q0 9 6 9q37 2 57.5 21t20.5 49q0 29 -21 49t-57 22q-6 0 -6 9v38q0 8 6 8z" />
    <glyph glyph-name="uni02BF" unicode="&#x2bf;" horiz-adv-x="293" 
d="M209 721q6 0 6 -8v-38q0 -9 -6 -9q-36 -2 -57 -22t-21 -49q0 -30 20.5 -49t57.5 -21q6 0 6 -9v-38q0 -8 -6 -8q-66 0 -104 35.5t-38 89.5t38.5 90t103.5 36z" />
    <glyph glyph-name="circumflex" unicode="&#x2c6;" horiz-adv-x="515" 
d="M377 512q0 -6 -10 -6h-37q-6 0 -9 5l-62 112l-65 -112q-2 -5 -9 -5h-36q-11 0 -11 8q0 1 2 5l93 154q2 4 8 4h34q6 0 8 -4l92 -156q2 -4 2 -5z" />
    <glyph glyph-name="caron" unicode="&#x2c7;" horiz-adv-x="515" 
d="M377 669q0 -1 -2 -5l-93 -154q-2 -4 -8 -4h-34q-6 0 -8 4l-92 156q-2 4 -2 5q0 6 10 6h37q7 0 9 -5l62 -112l65 112q3 5 9 5h36q11 0 11 -8z" />
    <glyph glyph-name="breve" unicode="&#x2d8;" horiz-adv-x="515" 
d="M383 640q0 -64 -35.5 -98t-90.5 -34t-90 33.5t-35 98.5q0 6 8 6h38q9 0 9 -6q2 -37 21 -57.5t49 -20.5q29 0 49 21t22 57q0 6 9 6h38q8 0 8 -6z" />
    <glyph glyph-name="dotaccent" unicode="&#x2d9;" horiz-adv-x="515" 
d="M293 559q0 -9 -10 -9h-52q-9 0 -9 9v59q0 9 9 9h52q10 0 10 -9v-59z" />
    <glyph glyph-name="ring" unicode="&#x2da;" horiz-adv-x="505" 
d="M334 593q0 -44 -29 -68.5t-68 -24.5t-68 24.5t-29 68.5t29 68.5t68 24.5t68 -24.5t29 -68.5zM285 593q0 24 -14.5 37.5t-33.5 13.5q-20 0 -34.5 -13.5t-14.5 -37.5t14.5 -37.5t34.5 -13.5q19 0 33.5 13.5t14.5 37.5z" />
    <glyph glyph-name="ogonek" unicode="&#x2db;" horiz-adv-x="515" 
d="M352 -16q-65 -36 -92 -67q-13 -16 -13 -31q0 -14 11 -23.5t31 -9.5q23 0 61 15q6 2 8 2q6 0 6 -6v-30q0 -10 -6 -12q-40 -20 -75 -20q-45 0 -70 21.5t-25 57.5q0 31 20.5 58t71.5 56l7 4l5 1h55q10 0 10 -8q0 -6 -5 -8z" />
    <glyph glyph-name="tilde" unicode="&#x2dc;" horiz-adv-x="515" 
d="M414 644q0 -13 -3.5 -29t-12.5 -34.5t-29 -31t-47 -12.5q-32 0 -74 30q-42 29 -60 29t-26 -16.5t-8 -33.5q0 -9 -9 -9h-35q-9 0 -9 10q0 30 24 66t69 36q32 0 75 -30t60 -30q15 0 23 18.5t8 35.5q0 8 10 8h36q8 0 8 -7z" />
    <glyph glyph-name="hungarumlaut" unicode="&#x2dd;" horiz-adv-x="515" 
d="M445 671q0 -2 -1 -3l-135 -164q-3 -3 -7 -3h-49q-6 0 -6 5q0 3 1 4l118 163q4 4 8 4h65q6 0 6 -6zM263 671q0 -2 -1 -3l-125 -164q-3 -3 -7 -3h-47q-5 0 -5 5q0 3 1 4l104 163q4 4 9 4h64q7 0 7 -6z" />
    <glyph glyph-name="gravecomb" unicode="&#x300;" 
d="M-194 506q0 -5 -7 -5h-45q-5 0 -8 3l-127 161q-3 3 -3 6q0 6 8 6h63q5 0 8 -4l109 -162q2 -4 2 -5z" />
    <glyph glyph-name="acutecomb" unicode="&#x301;" 
d="M-98 671l-1 -3l-130 -164q-3 -3 -7 -3h-47q-5 0 -5 5l1 4l110 163q3 4 8 4h65q6 0 6 -6z" />
    <glyph glyph-name="uni0302" unicode="&#x302;" 
d="M-131 512q0 -6 -10 -6h-37q-6 0 -9 5l-62 112l-65 -112q-2 -5 -9 -5h-36q-11 0 -11 8q0 1 2 5l93 154q2 4 8 4h34q6 0 8 -4l92 -156q2 -4 2 -5z" />
    <glyph glyph-name="tildecomb" unicode="&#x303;" 
d="M-97 644q0 -13 -3.5 -29t-12.5 -34.5t-29 -31t-47 -12.5q-32 0 -74 30q-42 29 -60 29t-26 -16.5t-8 -33.5q0 -9 -9 -9h-35q-9 0 -9 10q0 30 24 66t69 36q32 0 75 -30t60 -30q15 0 23 18.5t8 35.5q0 8 10 8h36q8 0 8 -7z" />
    <glyph glyph-name="uni0304" unicode="&#x304;" 
d="M-94 575q0 -9 -9 -9h-274q-9 0 -9 9v31q0 9 9 9h274q9 0 9 -9v-31z" />
    <glyph glyph-name="uni0305" unicode="&#x305;" 
d="M9 575q0 -9 -9 -9h-517q-9 0 -9 9v31q0 9 9 9h517q9 0 9 -9v-31z" />
    <glyph glyph-name="uni0306" unicode="&#x306;" 
d="M-117 660q0 -64 -35.5 -98t-90.5 -34t-90 33.5t-35 98.5q0 6 8 6h38q9 0 9 -6q2 -37 21 -57.5t49 -20.5q29 0 49 21t22 57q0 6 9 6h38q8 0 8 -6z" />
    <glyph glyph-name="uni0307" unicode="&#x307;" 
d="M-201 559q0 -9 -10 -9h-52q-9 0 -9 9v59q0 9 9 9h52q10 0 10 -9v-59z" />
    <glyph glyph-name="uni0308" unicode="&#x308;" 
d="M-128 560q0 -9 -9 -9h-52q-9 0 -9 9v58q0 9 9 9h52q9 0 9 -9v-58zM-317 560q0 -9 -9 -9h-51q-10 0 -10 9v58q0 9 10 9h51q9 0 9 -9v-58z" />
    <glyph glyph-name="hookabovecomb" unicode="&#x309;" 
d="M-194 517q0 -32 -23 -63t-56 -45q-2 -1 -5 -1h-2q-6 0 -6 10v26q0 5 8 10q27 17 35 35q6 13 6 29h-27q-9 0 -9 9v75q0 9 9 9h61q9 0 9 -9v-85z" />
    <glyph glyph-name="uni030A" unicode="&#x30a;" 
d="M-150 593q0 -44 -29 -68.5t-68 -24.5t-68 24.5t-29 68.5t29 68.5t68 24.5t68 -24.5t29 -68.5zM-199 593q0 24 -14.5 37.5t-33.5 13.5q-20 0 -34.5 -13.5t-14.5 -37.5t14.5 -37.5t34.5 -13.5q19 0 33.5 13.5t14.5 37.5z" />
    <glyph glyph-name="uni030B" unicode="&#x30b;" 
d="M-23 671q0 -2 -1 -3l-135 -164q-3 -3 -7 -3h-49q-6 0 -6 5q0 3 1 4l118 163q4 4 8 4h65q6 0 6 -6zM-205 671q0 -2 -1 -3l-125 -164q-3 -3 -7 -3h-47q-5 0 -5 5q0 3 1 4l104 163q4 4 9 4h64q7 0 7 -6z" />
    <glyph glyph-name="uni030C" unicode="&#x30c;" 
d="M-124 669q0 -1 -2 -5l-93 -154q-2 -4 -8 -4h-34q-6 0 -8 4l-92 156q-2 4 -2 5q0 6 10 6h37q6 0 9 -5l62 -112l65 112q2 5 9 5h36q11 0 11 -8z" />
    <glyph glyph-name="uni030D" unicode="&#x30d;" 
d="M-211 510q0 -9 -10 -9h-45q-9 0 -9 9v158q0 9 9 9h45q10 0 10 -9v-158z" />
    <glyph glyph-name="uni030E" unicode="&#x30e;" 
d="M-281 510q0 -9 -10 -9h-45q-9 0 -9 9v158q0 9 9 9h45q10 0 10 -9v-158zM-141 510q0 -9 -10 -9h-45q-9 0 -9 9v158q0 9 9 9h45q10 0 10 -9v-158z" />
    <glyph glyph-name="uni030F" unicode="&#x30f;" 
d="M-490 671q0 6 6 6h65q4 0 8 -4l118 -163q1 -1 1 -4q0 -5 -6 -5h-49q-4 0 -7 3l-135 164q-1 1 -1 3zM-308 671q0 6 7 6h64q5 0 9 -4l104 -163q1 -1 1 -4q0 -5 -5 -5h-47q-4 0 -7 3l-125 164q-1 1 -1 3z" />
    <glyph glyph-name="uni0310" unicode="&#x310;" 
d="M-295 635q0 17 11.5 28t27.5 11t27.5 -11t11.5 -28t-11.5 -28t-27.5 -11t-27.5 11t-11.5 28zM-125 634q0 -53 -36 -91t-95 -38q-60 0 -95 37t-35 92q0 6 8 6h35q9 0 9 -6q2 -36 24.5 -57t53.5 -21q30 0 53.5 21.5t25.5 56.5q0 6 9 6h35q8 0 8 -6z" />
    <glyph glyph-name="uni0311" unicode="&#x311;" 
d="M-373 534q0 64 35.5 98t90.5 34t90 -33.5t35 -98.5q0 -6 -8 -6h-38q-9 0 -9 6q-2 37 -21 57.5t-49 20.5q-29 0 -49 -21t-22 -57q0 -6 -9 -6h-38q-8 0 -8 6z" />
    <glyph glyph-name="uni0312" unicode="&#x312;" 
d="M-286 582q0 78 80 108q2 1 4 1q8 0 8 -9v-31q0 -5 -5 -8q-39 -13 -40 -68h18q9 0 9 -9v-64q0 -9 -9 -9h-56q-9 0 -9 9v80z" />
    <glyph glyph-name="uni0313" unicode="&#x313;" 
d="M-194 602q0 -78 -80 -108q-2 -1 -4 -1q-8 0 -8 9v31q0 5 5 8q39 13 40 68h-18q-9 0 -9 9v64q0 9 9 9h56q9 0 9 -9v-80z" />
    <glyph glyph-name="uni0314" unicode="&#x314;" 
d="M-286 602v80q0 9 9 9h56q9 0 9 -9v-64q0 -9 -9 -9h-18q1 -55 40 -68q5 -3 5 -8v-31q0 -9 -8 -9q-2 0 -4 1q-80 30 -80 108z" />
    <glyph glyph-name="uni0315" unicode="&#x315;" 
d="M-14 602q0 -78 -80 -108q-2 -1 -4 -1q-8 0 -8 9v31q0 5 5 8q39 13 40 68h-18q-9 0 -9 9v64q0 9 9 9h56q9 0 9 -9v-80z" />
    <glyph glyph-name="uni0316" unicode="&#x316;" 
d="M-149 -224q0 -5 -7 -5h-45q-5 0 -8 3l-127 161q-3 3 -3 6q0 6 8 6h63q5 0 8 -4l109 -162q2 -4 2 -5z" />
    <glyph glyph-name="uni0317" unicode="&#x317;" 
d="M-359 -224q0 1 2 5l109 162q3 4 8 4h63q8 0 8 -6q0 -3 -3 -6l-127 -161q-3 -3 -8 -3h-45q-7 0 -7 5z" />
    <glyph glyph-name="uni0318" unicode="&#x318;" 
d="M-161 -42v-179q0 -9 -9 -9h-37q-9 0 -9 9v62h-100q-10 0 -10 9v37q0 9 10 9h100v62q0 9 9 9h37q9 0 9 -9z" />
    <glyph glyph-name="uni0319" unicode="&#x319;" 
d="M-336 -221v179q0 9 9 9h37q9 0 9 -9v-62h100q10 0 10 -9v-37q0 -9 -10 -9h-100v-62q0 -9 -9 -9h-37q-9 0 -9 9z" />
    <glyph glyph-name="uni031A" unicode="&#x31a;" 
d="M-21 668v-128q0 -9 -9 -9h-37q-9 0 -9 9v82h-80q-10 0 -10 9v37q0 9 10 9h126q9 0 9 -9z" />
    <glyph glyph-name="uni031B" unicode="&#x31b;" 
d="M-173 406v31q0 9 10 9h6q33 0 45 12t12 44h-21q-9 0 -9 9v64q0 9 9 9h66q9 0 9 -9v-74q0 -47 -30.5 -76t-80.5 -29h-4q-12 0 -12 10z" />
    <glyph glyph-name="uni031C" unicode="&#x31c;" 
d="M-212 -32q6 0 6 -8v-33q0 -9 -6 -9q-30 -1 -46.5 -15.5t-16.5 -35.5t16.5 -35.5t46.5 -16.5q6 0 6 -9v-33q0 -8 -6 -8q-56 0 -87 30t-31 73q0 42 31 71t87 29z" />
    <glyph glyph-name="uni031D" unicode="&#x31d;" 
d="M-152 -219h-194q-10 0 -10 9v37q0 9 10 9h70v82q0 9 9 9h37q9 0 9 -9v-82h69q10 0 10 -9v-37q0 -9 -10 -9z" />
    <glyph glyph-name="uni031E" unicode="&#x31e;" 
d="M-346 -83h194q10 0 10 -9v-37q0 -9 -10 -9h-70v-82q0 -9 -9 -9h-37q-9 0 -9 9v82h-69q-10 0 -10 9v37q0 9 10 9z" />
    <glyph glyph-name="uni031F" unicode="&#x31f;" 
d="M-142 -150q0 -9 -10 -9h-69v-62q0 -9 -9 -9h-37q-9 0 -9 9v62h-70q-10 0 -10 9v37q0 9 10 9h70v62q0 9 9 9h37q9 0 9 -9v-62h69q10 0 10 -9v-37z" />
    <glyph glyph-name="uni0320" unicode="&#x320;" 
d="M-346 -104h194q10 0 10 -9v-37q0 -9 -10 -9h-194q-10 0 -10 9v37q0 9 10 9z" />
    <glyph glyph-name="uni0321" unicode="&#x321;" 
d="M-118 -139v142q0 9 9 9h45q10 0 10 -9v-142q0 -47 -29 -71.5t-70 -24.5h-17q-9 0 -9 9v38q0 9 9 9h17q35 0 35 40z" />
    <glyph glyph-name="uni0322" unicode="&#x322;" 
d="M-54 3v-142q0 -40 35 -40h17q9 0 9 -9v-38q0 -9 -9 -9h-17q-41 0 -70 24.5t-29 71.5v142q0 9 10 9h45q9 0 9 -9z" />
    <glyph glyph-name="dotbelowcomb" unicode="&#x323;" 
d="M-223 -170q0 -9 -10 -9h-52q-9 0 -9 9v59q0 9 9 9h52q10 0 10 -9v-59z" />
    <glyph glyph-name="uni0324" unicode="&#x324;" 
d="M-123 -169q0 -9 -9 -9h-52q-9 0 -9 9v58q0 9 9 9h52q9 0 9 -9v-58zM-312 -169q0 -9 -9 -9h-51q-10 0 -10 9v58q0 9 10 9h51q9 0 9 -9v-58z" />
    <glyph glyph-name="uni0325" unicode="&#x325;" 
d="M-151 -141q0 -44 -29 -68.5t-68 -24.5t-68 24.5t-29 68.5t29 68.5t68 24.5t68 -24.5t29 -68.5zM-200 -141q0 24 -14.5 37.5t-33.5 13.5q-20 0 -34.5 -13.5t-14.5 -37.5t14.5 -37.5t34.5 -13.5q19 0 33.5 13.5t14.5 37.5z" />
    <glyph glyph-name="uni0326" unicode="&#x326;" 
d="M-214 -125q0 -78 -80 -108q-2 -1 -4 -1q-8 0 -8 9v31q0 6 5 8q39 13 40 68h-18q-9 0 -9 9v64q0 9 9 9h56q9 0 9 -9v-80z" />
    <glyph glyph-name="uni0327" unicode="&#x327;" 
d="M-232 -39q31 -5 54 -25t23 -51q0 -41 -33.5 -60t-81.5 -19q-29 0 -47 6q-13 4 -13 12v30q0 7 7 7q1 0 21 -3t32 -3q50 0 50 33t-55 36l-10 1q-7 0 -7 7l15 62q3 10 9 10h29q7 0 7 -7v-1l-6 -23l-2 -8q0 -3 8 -4z" />
    <glyph glyph-name="uni0328" unicode="&#x328;" 
d="M-190 -16q-65 -36 -92 -67q-13 -16 -13 -31q0 -14 11 -23.5t31 -9.5q23 0 61 15q6 2 8 2q6 0 6 -6v-30q0 -10 -6 -12q-40 -20 -75 -20q-45 0 -70 21.5t-25 57.5q0 31 20.5 58t71.5 56l7 4l5 1h55q10 0 10 -8q0 -6 -5 -8z" />
    <glyph glyph-name="uni0329" unicode="&#x329;" 
d="M-276 -221v179q0 9 9 9h37q9 0 9 -9v-179q0 -9 -9 -9h-37q-9 0 -9 9z" />
    <glyph glyph-name="uni032A" unicode="&#x32a;" 
d="M-352 -84h211q10 0 10 -9v-108q0 -9 -9 -9h-37q-9 0 -9 9v62h-121v-62q0 -9 -9 -9h-37q-9 0 -9 9v108q0 9 10 9z" />
    <glyph glyph-name="uni032B" unicode="&#x32b;" 
d="M-89 -101q0 -46 -26 -73t-63 -27q-51 0 -75 47q-19 -48 -73 -48q-37 0 -64 27t-27 74q0 6 8 6h38q9 0 9 -6q4 -53 41 -53q36 0 39 53q0 6 9 6h42q7 0 7 -6q4 -53 40 -53q37 0 40 53q0 6 9 6h38q8 0 8 -6z" />
    <glyph glyph-name="uni032C" unicode="&#x32c;" 
d="M-133 -66q0 -1 -2 -5l-93 -154q-2 -4 -8 -4h-34q-6 0 -8 4l-92 156q-2 4 -2 5q0 6 10 6h37q7 0 9 -5l62 -112l65 112q3 5 9 5h36q11 0 11 -8z" />
    <glyph glyph-name="uni032D" unicode="&#x32d;" 
d="M-372 -221q0 1 2 5l93 154q2 4 8 4h34q6 0 8 -4l92 -156q2 -4 2 -5q0 -6 -10 -6h-37q-6 0 -9 5l-62 112l-65 -112q-2 -5 -9 -5h-36q-11 0 -11 8z" />
    <glyph glyph-name="uni032E" unicode="&#x32e;" 
d="M-122 -102q0 -64 -35.5 -98t-90.5 -34t-90 33.5t-35 98.5q0 6 8 6h38q9 0 9 -6q2 -37 21 -57.5t49 -20.5q29 0 49 21t22 57q0 6 9 6h38q8 0 8 -6z" />
    <glyph glyph-name="uni032F" unicode="&#x32f;" 
d="M-379 -193q0 64 35.5 98t90.5 34t90 -33.5t35 -98.5q0 -6 -8 -6h-38q-9 0 -9 6q-2 37 -21 57.5t-49 20.5q-29 0 -49 -21t-22 -57q0 -6 -9 -6h-38q-8 0 -8 6z" />
    <glyph glyph-name="uni0330" unicode="&#x330;" 
d="M-100 -89q0 -13 -3.5 -29t-12.5 -34.5t-29 -31t-47 -12.5q-32 0 -74 30q-42 29 -60 29t-26 -16.5t-8 -33.5q0 -9 -9 -9h-35q-9 0 -9 10q0 30 24 66t69 36q32 0 75 -30t60 -30q15 0 23 18.5t8 35.5q0 8 10 8h36q8 0 8 -7z" />
    <glyph glyph-name="uni0331" unicode="&#x331;" 
d="M-115 -160q0 -9 -9 -9h-274q-9 0 -9 9v31q0 9 9 9h274q9 0 9 -9v-31z" />
    <glyph glyph-name="uni0332" unicode="&#x332;" 
d="M9 -160q0 -9 -9 -9h-517q-9 0 -9 9v31q0 9 9 9h517q9 0 9 -9v-31z" />
    <glyph glyph-name="uni0333" unicode="&#x333;" 
d="M-105 -220q0 -9 -9 -9h-274q-9 0 -9 9v31q0 9 9 9h274q9 0 9 -9v-31zM-105 -115q0 -9 -9 -9h-274q-9 0 -9 9v31q0 9 9 9h274q9 0 9 -9v-31z" />
    <glyph glyph-name="uni0334" unicode="&#x334;" 
d="M-107 265q0 -13 -3.5 -29t-12.5 -34.5t-29 -31t-47 -12.5q-32 0 -74 30q-42 29 -60 29t-26 -16.5t-8 -33.5q0 -9 -9 -9h-35q-9 0 -9 10q0 30 24 66t69 36q32 0 75 -30t60 -30q15 0 23 18.5t8 35.5q0 8 10 8h36q8 0 8 -7z" />
    <glyph glyph-name="uni0335" unicode="&#x335;" 
d="M-149 209q0 -9 -9 -9h-214q-9 0 -9 9v31q0 9 9 9h214q9 0 9 -9v-31z" />
    <glyph glyph-name="uni0336" unicode="&#x336;" 
d="M9 209q0 -9 -9 -9h-526q-9 0 -9 9v31q0 9 9 9h526q9 0 9 -9v-31z" />
    <glyph glyph-name="uni0337" unicode="&#x337;" 
d="M-94 373q2 -4 2 -6q0 -4 -2 -6l-307 -307q-3 -3 -7 -3q-3 0 -6 3l-22 22q-2 1 -2 6q0 4 2 6l307 307q3 3 6 3q4 0 7 -3z" />
    <glyph glyph-name="uni0338" unicode="&#x338;" 
d="M-54 618q0 -3 -1 -4l-341 -785q-2 -5 -8 -5h-43q-10 0 -10 7q0 3 1 4l339 783q3 5 8 5h46q9 0 9 -5z" />
    <glyph glyph-name="uni0340" unicode="&#x340;" horiz-adv-x="515" 
d="M282 506q0 -5 -7 -5h-45q-5 0 -8 3l-127 161q-3 3 -3 6q0 6 8 6h63q5 0 8 -4l109 -162q2 -4 2 -5z" />
    <glyph glyph-name="uni0341" unicode="&#x341;" horiz-adv-x="515" 
d="M418 671l-1 -3l-130 -164q-3 -3 -7 -3h-47q-5 0 -5 5l1 4l110 163q3 4 8 4h65q6 0 6 -6z" />
    <glyph glyph-name="uni0374" unicode="&#x374;" horiz-adv-x="257" 
d="M113 444q-2 -9 -13 -9h-45q-8 0 -6 9l95 259q2 9 12 9h45q9 0 7 -9z" />
    <glyph glyph-name="uni0375" unicode="&#x375;" horiz-adv-x="268" 
d="M236 -32l-1 -3l-178 -192q-3 -3 -7 -3h-57q-5 0 -5 5l1 4l172 191q3 4 8 4h61q6 0 6 -6z" />
    <glyph glyph-name="uni037A" unicode="&#x37a;" horiz-adv-x="500" 
d="M168 -146v-38q0 -9 -9 -9h-5q-49 0 -70.5 19.5t-21.5 63.5v49q0 9 10 9h45q9 0 9 -9v-49q0 -27 28 -27h5q9 0 9 -9z" />
    <glyph glyph-name="uni037E" unicode="&#x37e;" horiz-adv-x="255" 
d="M165 309q0 -9 -9 -9h-61q-9 0 -9 9v70q0 9 9 9h61q9 0 9 -9v-70zM167 -1q0 -47 -24 -76.5t-56 -41.5q-2 -1 -4 -1q-8 0 -8 9v37q0 6 5 8q39 18 40 66h-23q-9 0 -9 9v70q0 9 9 9h61q9 0 9 -9v-80z" />
    <glyph glyph-name="tonos" unicode="&#x384;" horiz-adv-x="154" 
d="M146 711l-1 -3l-82 -184q-3 -3 -7 -3h-43q-5 0 -5 5l1 4l69 183q3 4 8 4h54q6 0 6 -6z" />
    <glyph glyph-name="dieresistonos" unicode="&#x385;" horiz-adv-x="500" 
d="M338 530q0 -9 -9 -9h-52q-9 0 -9 9v58q0 9 9 9h52q9 0 9 -9v-58zM121 530q0 -9 -9 -9h-51q-10 0 -10 9v58q0 9 10 9h51q9 0 9 -9v-58zM275 711l-1 -3l-63 -184q-3 -3 -7 -3h-45q-5 0 -5 5l1 4l49 183q3 4 8 4h57q6 0 6 -6z" />
    <glyph glyph-name="Alphatonos" unicode="&#x386;" horiz-adv-x="765" 
d="M744 8q0 -8 -10 -8h-60q-6 0 -9 6l-91 234h-300l-89 -234q-3 -6 -9 -6h-53q-9 0 -9 8l1 4l274 699q2 6 8 6h65q6 0 8 -6l273 -699q1 -3 1 -4zM423 632l-129 -337h259l-128 337h-2zM153 711l-1 -3l-82 -184q-3 -3 -7 -3h-43q-5 0 -5 5l1 4l69 183q3 4 8 4h54q6 0 6 -6z
" />
    <glyph glyph-name="anotoleia" unicode="&#x387;" horiz-adv-x="275" 
d="M177 309q0 -9 -9 -9h-61q-9 0 -9 9v70q0 9 9 9h61q9 0 9 -9v-70z" />
    <glyph glyph-name="Epsilontonos" unicode="&#x388;" horiz-adv-x="730" 
d="M688 9q0 -9 -9 -9h-469q-9 0 -9 9v699q0 9 9 9h443q9 0 9 -9v-46q0 -9 -9 -9h-381v-262h228q9 0 9 -9v-44q0 -9 -9 -9h-228v-265h407q9 0 9 -9v-46zM141 711l-1 -3l-82 -184q-3 -3 -7 -3h-43q-5 0 -5 5l1 4l69 183q3 4 8 4h54q6 0 6 -6z" />
    <glyph glyph-name="Etatonos" unicode="&#x389;" horiz-adv-x="834" 
d="M760 9q0 -9 -9 -9h-52q-10 0 -10 9v320h-417v-320q0 -9 -9 -9h-53q-9 0 -9 9v699q0 9 9 9h53q9 0 9 -9v-317h417v317q0 9 10 9h52q9 0 9 -9v-699zM141 711l-1 -3l-82 -184q-3 -3 -7 -3h-43q-5 0 -5 5l1 4l69 183q3 4 8 4h54q6 0 6 -6z" />
    <glyph glyph-name="Iotatonos" unicode="&#x38a;" horiz-adv-x="356" 
d="M277 9q0 -9 -9 -9h-52q-10 0 -10 9v699q0 9 10 9h52q9 0 9 -9v-699zM144 711l-1 -3l-82 -184q-3 -3 -7 -3h-43q-5 0 -5 5l1 4l69 183q3 4 8 4h54q6 0 6 -6z" />
    <glyph glyph-name="Omicrontonos" unicode="&#x38c;" horiz-adv-x="881" 
d="M841 359q0 -55 -13.5 -108t-42 -101t-69.5 -84t-99.5 -57t-127.5 -21t-127.5 21t-99.5 57t-69.5 84t-42 101t-13.5 108t13.5 108t42 101t69.5 84t99.5 57t127.5 21t127.5 -21t99.5 -57t69.5 -84t42 -101t13.5 -108zM489 667q-129 0 -203.5 -90t-74.5 -218t74.5 -218
t203.5 -90t203.5 90t74.5 218t-74.5 218t-203.5 90zM138 711l-1 -3l-82 -184q-3 -3 -7 -3h-43q-5 0 -5 5l1 4l69 183q3 4 8 4h54q6 0 6 -6z" />
    <glyph glyph-name="Upsilontonos" unicode="&#x38e;" horiz-adv-x="790" 
d="M772 711l-2 -5l-276 -441v-256q0 -9 -10 -9h-53q-9 0 -9 9v256l-274 441q-1 3 -1 4q0 7 7 7h65q9 0 13 -8l228 -372h2l231 373q4 7 13 7h57q9 0 9 -6zM108 711l-1 -3l-82 -184q-3 -3 -7 -3h-43q-5 0 -5 5l1 4l69 183q3 4 8 4h54q6 0 6 -6z" />
    <glyph glyph-name="Omegatonos" unicode="&#x38f;" horiz-adv-x="889" 
d="M488 667q-132 0 -204.5 -85t-72.5 -205q0 -115 59 -196t131 -117q9 -4 9 -13v-42q0 -9 -9 -9h-247q-9 0 -9 9v42q0 9 9 9h70l83 -2l1 2q-69 45 -119 131t-50 186q0 68 22.5 130.5t64.5 112.5t110 80t152 30t152 -30t110 -80t64.5 -112.5t22.5 -130.5q0 -106 -51.5 -190
t-118.5 -127l1 -2q51 2 84 2h70q9 0 9 -9v-42q0 -9 -9 -9h-247q-9 0 -9 9v42q0 9 9 13q72 36 131 117t59 196q0 120 -72.5 205t-204.5 85zM139 711l-1 -3l-82 -184q-3 -3 -7 -3h-43q-5 0 -5 5l1 4l69 183q3 4 8 4h54q6 0 6 -6z" />
    <glyph glyph-name="iotadieresistonos" unicode="&#x390;" horiz-adv-x="218" 
d="M192 44v-33q0 -7 -8 -9q-12 -3 -40 -3q-34 0 -62 21t-28 57v360q0 9 9 9h44q10 0 10 -9v-337q0 -27 9 -37t30 -10h27q9 0 9 -9zM248 530q0 -9 -9 -9h-52q-9 0 -9 9v58q0 9 9 9h52q9 0 9 -9v-58zM31 530q0 -9 -9 -9h-51q-10 0 -10 9v58q0 9 10 9h51q9 0 9 -9v-58zM185 711
l-1 -3l-63 -184q-3 -3 -7 -3h-45q-5 0 -5 5l1 4l49 183q3 4 8 4h57q6 0 6 -6z" />
    <glyph glyph-name="Alpha" unicode="&#x391;" horiz-adv-x="664" 
d="M647 8q0 -8 -10 -8h-60q-6 0 -9 6l-91 234h-300l-89 -234q-3 -6 -9 -6h-53q-9 0 -9 8l1 4l274 699q2 6 8 6h65q6 0 8 -6l273 -699q1 -3 1 -4zM326 632l-129 -337h259l-128 337h-2z" />
    <glyph glyph-name="Beta" unicode="&#x392;" horiz-adv-x="614" 
d="M570 200q0 -81 -61 -140.5t-167 -59.5h-259q-9 0 -9 9v699q0 9 9 9h245q98 0 154.5 -54t56.5 -133q0 -44 -25.5 -86.5t-75.5 -63.5v-2q67 -23 99.5 -73t32.5 -105zM464 528q0 50 -34.5 88.5t-105.5 38.5h-179v-257h177q74 0 108 37.5t34 92.5zM496 200q0 61 -43.5 99.5
t-114.5 38.5h-193v-276h193q78 0 118 41t40 97z" />
    <glyph glyph-name="Gamma" unicode="&#x393;" horiz-adv-x="564" 
d="M531 708v-46q0 -9 -9 -9h-377v-644q0 -9 -9 -9h-53q-9 0 -9 9v699q0 9 9 9h439q9 0 9 -9z" />
    <glyph glyph-name="Delta" unicode="&#x394;" horiz-adv-x="670" 
d="M328 621l-227 -559h457l-227 559h-3zM645 0h-620q-13 0 -13 11q0 4 2 8l286 695q3 6 8 6h56q6 0 8 -6l284 -695q2 -4 2 -8q0 -11 -13 -11z" />
    <glyph glyph-name="Epsilon" unicode="&#x395;" horiz-adv-x="603" 
d="M561 9q0 -9 -9 -9h-469q-9 0 -9 9v699q0 9 9 9h443q9 0 9 -9v-46q0 -9 -9 -9h-381v-262h228q9 0 9 -9v-44q0 -9 -9 -9h-228v-265h407q9 0 9 -9v-46z" />
    <glyph glyph-name="Zeta" unicode="&#x396;" horiz-adv-x="652" 
d="M591 9q0 -9 -9 -9h-532q-9 0 -9 9v11q0 3 2 5l433 626l-1 2h-414q-10 0 -10 9v46q0 9 10 9h521q9 0 9 -9v-8q0 -3 -2 -5l-433 -629l1 -2h425q9 0 9 -9v-46z" />
    <glyph glyph-name="Eta" unicode="&#x397;" horiz-adv-x="707" 
d="M633 9q0 -9 -9 -9h-52q-10 0 -10 9v320h-417v-320q0 -9 -9 -9h-53q-9 0 -9 9v699q0 9 9 9h53q9 0 9 -9v-317h417v317q0 9 10 9h52q9 0 9 -9v-699z" />
    <glyph glyph-name="Theta" unicode="&#x398;" horiz-adv-x="814" 
d="M759 359q0 -55 -13.5 -108t-42 -101t-69.5 -84t-99.5 -57t-127.5 -21t-127.5 21t-99.5 57t-69.5 84t-42 101t-13.5 108t13.5 108t42 101t69.5 84t99.5 57t127.5 21t127.5 -21t99.5 -57t69.5 -84t42 -101t13.5 -108zM407 667q-129 0 -203.5 -90t-74.5 -218t74.5 -218
t203.5 -90t203.5 90t74.5 218t-74.5 218t-203.5 90zM227 391h360q9 0 9 -9v-46q0 -9 -9 -9h-360q-9 0 -9 9v46q0 9 9 9z" />
    <glyph glyph-name="Iota" unicode="&#x399;" horiz-adv-x="229" 
d="M150 9q0 -9 -9 -9h-52q-10 0 -10 9v699q0 9 10 9h52q9 0 9 -9v-699z" />
    <glyph glyph-name="Kappa" unicode="&#x39a;" horiz-adv-x="624" 
d="M597 6q0 -6 -7 -6h-68q-4 0 -8 4l-273 364l-96 -91v-268q0 -9 -9 -9h-53q-9 0 -9 9v699q0 9 9 9h53q9 0 9 -9v-352l2 -1l360 359q3 3 7 3h71q7 0 7 -6q0 -3 -3 -6l-301 -290l306 -402q3 -3 3 -7z" />
    <glyph glyph-name="Lambda" unicode="&#x39b;" horiz-adv-x="664" 
d="M568 6l-238 621h-2l-240 -621q-3 -6 -9 -6h-53q-9 0 -9 8l1 4l274 702q2 6 8 6h64q6 0 8 -6l274 -702q1 -3 1 -4q0 -8 -10 -8h-60q-6 0 -9 6z" />
    <glyph glyph-name="Mu" unicode="&#x39c;" horiz-adv-x="870" 
d="M794 9q0 -9 -9 -9h-53q-9 0 -9 9v620h-2l-261 -623q-2 -6 -9 -6h-35q-7 0 -9 6l-264 623h-2v-620q0 -9 -9 -9h-47q-9 0 -9 9v699q0 9 9 9h88q6 0 8 -6l256 -604h2l251 604q3 6 8 6h87q9 0 9 -9v-699z" />
    <glyph glyph-name="Nu" unicode="&#x39d;" horiz-adv-x="721" 
d="M647 9q0 -9 -10 -9h-54q-5 0 -11 7l-431 610h-2v-608q0 -9 -9 -9h-47q-9 0 -9 9v699q0 9 9 9h65q7 0 12 -7l419 -592h3v590q0 9 9 9h46q10 0 10 -9v-699z" />
    <glyph glyph-name="Xi" unicode="&#x39e;" horiz-adv-x="642" 
d="M51 64h540q9 0 9 -9v-46q0 -9 -9 -9h-540q-9 0 -9 9v46q0 9 9 9zM591 653h-540q-9 0 -9 9v46q0 9 9 9h540q9 0 9 -9v-46q0 -9 -9 -9zM176 391h290q9 0 9 -9v-46q0 -9 -9 -9h-290q-9 0 -9 9v46q0 9 9 9z" />
    <glyph glyph-name="Omicron" unicode="&#x39f;" horiz-adv-x="784" 
d="M744 359q0 -55 -13.5 -108t-42 -101t-69.5 -84t-99.5 -57t-127.5 -21t-127.5 21t-99.5 57t-69.5 84t-42 101t-13.5 108t13.5 108t42 101t69.5 84t99.5 57t127.5 21t127.5 -21t99.5 -57t69.5 -84t42 -101t13.5 -108zM392 667q-129 0 -203.5 -90t-74.5 -218t74.5 -218
t203.5 -90t203.5 90t74.5 218t-74.5 218t-203.5 90z" />
    <glyph glyph-name="Pi" unicode="&#x3a0;" horiz-adv-x="703" 
d="M83 717h537q9 0 9 -9v-699q0 -9 -9 -9h-52q-10 0 -10 9v646h-413v-646q0 -9 -9 -9h-53q-9 0 -9 9v699q0 9 9 9z" />
    <glyph glyph-name="Rho" unicode="&#x3a1;" horiz-adv-x="564" 
d="M529 510q0 -95 -62.5 -153t-173.5 -58h-148v-290q0 -9 -9 -9h-53q-9 0 -9 9v699q0 9 9 9h210q108 0 172 -59t64 -148zM455 507q0 62 -44 105t-118 43h-148v-296h148q78 0 120 40.5t42 107.5z" />
    <glyph glyph-name="Sigma" unicode="&#x3a3;" horiz-adv-x="624" 
d="M383 358q0 -3 -2 -5l-215 -287l1 -2h406q9 0 9 -9v-46q0 -9 -9 -9h-512q-9 0 -9 9v11q0 3 2 5l247 327l-237 343q-2 2 -2 5v8q0 9 9 9h501q10 0 10 -9v-44q0 -9 -10 -9h-392v-4l201 -288q2 -2 2 -5z" />
    <glyph glyph-name="Tau" unicode="&#x3a4;" horiz-adv-x="644" 
d="M613 662q0 -9 -9 -9h-248v-644q0 -9 -9 -9h-52q-10 0 -10 9v644h-245q-9 0 -9 9v46q0 9 9 9h564q9 0 9 -9v-46z" />
    <glyph glyph-name="Upsilon" unicode="&#x3a5;" horiz-adv-x="661" 
d="M643 711l-2 -5l-276 -441v-256q0 -9 -10 -9h-53q-9 0 -9 9v256l-274 441q-1 3 -1 4q0 7 7 7h65q9 0 13 -8l228 -372h2l231 373q4 7 13 7h57q9 0 9 -6z" />
    <glyph glyph-name="Phi" unicode="&#x3a6;" horiz-adv-x="825" 
d="M377 120v483q-264 -18 -264 -241q0 -108 65.5 -170t198.5 -72zM712 362q0 223 -264 241v-483q133 10 198.5 72t65.5 170zM785 362q0 -126 -87.5 -209t-249.5 -93v-58q0 -9 -9 -9h-52q-10 0 -10 9v58q-162 10 -249.5 93t-87.5 209q0 124 88 207.5t249 94.5v55q0 9 10 9h52
q9 0 9 -9v-55q161 -11 249 -94.5t88 -207.5z" />
    <glyph glyph-name="Chi" unicode="&#x3a7;" horiz-adv-x="664" 
d="M636 6q0 -6 -9 -6h-67q-7 0 -12 7l-219 301l-222 -301q-5 -7 -13 -7h-58q-8 0 -8 7l2 5l259 351l-250 342q-3 4 -3 6q0 6 7 6h69q8 0 13 -7l209 -287l212 288q4 6 12 6h58q9 0 9 -7l-2 -5l-250 -336l260 -357q3 -4 3 -6z" />
    <glyph glyph-name="Psi" unicode="&#x3a8;" horiz-adv-x="765" 
d="M418 9q0 -9 -9 -9h-52q-10 0 -10 9v211q-129 10 -201 82.5t-72 184.5v221q0 9 9 9h53q9 0 9 -9v-221q0 -88 54.5 -142.5t147.5 -63.5v427q0 9 10 9h52q9 0 9 -9v-428q100 8 151 62.5t51 144.5v221q0 9 9 9h53q9 0 9 -9v-223q-1 -109 -72.5 -182.5t-200.5 -82.5v-211z" />
    <glyph glyph-name="uni03A9" unicode="&#x3a9;" horiz-adv-x="802" 
d="M401 667q-132 0 -204.5 -85t-72.5 -205q0 -115 59 -196t131 -117q9 -4 9 -13v-42q0 -9 -9 -9h-247q-9 0 -9 9v42q0 9 9 9h70l83 -2l1 2q-69 45 -119 131t-50 186q0 68 22.5 130.5t64.5 112.5t110 80t152 30t152 -30t110 -80t64.5 -112.5t22.5 -130.5q0 -106 -51.5 -190
t-118.5 -127l1 -2q51 2 84 2h70q9 0 9 -9v-42q0 -9 -9 -9h-247q-9 0 -9 9v42q0 9 9 13q72 36 131 117t59 196q0 120 -72.5 205t-204.5 85z" />
    <glyph glyph-name="Iotadieresis" unicode="&#x3aa;" horiz-adv-x="229" 
d="M150 9q0 -9 -9 -9h-52q-10 0 -10 9v699q0 9 10 9h52q9 0 9 -9v-699zM245 804q0 -9 -9 -9h-52q-9 0 -9 9v58q0 9 9 9h52q9 0 9 -9v-58zM56 804q0 -9 -9 -9h-51q-10 0 -10 9v58q0 9 10 9h51q9 0 9 -9v-58z" />
    <glyph glyph-name="Upsilondieresis" unicode="&#x3ab;" horiz-adv-x="661" 
d="M643 711l-2 -5l-276 -441v-256q0 -9 -10 -9h-53q-9 0 -9 9v256l-274 441q-1 3 -1 4q0 7 7 7h65q9 0 13 -8l228 -372h2l231 373q4 7 13 7h57q9 0 9 -6zM458 804q0 -9 -9 -9h-52q-9 0 -9 9v58q0 9 9 9h52q9 0 9 -9v-58zM269 804q0 -9 -9 -9h-51q-10 0 -10 9v58q0 9 10 9h51
q9 0 9 -9v-58z" />
    <glyph glyph-name="alphatonos" unicode="&#x3ac;" horiz-adv-x="584" 
d="M538 439v-2l-98 -233l11 -35q16 -51 30.5 -78t23.5 -33t21 -6q8 0 21 1q10 0 10 -8v-37q0 -7 -8 -9q-12 -3 -32 -3q-42 0 -65.5 35t-43.5 104h-2q-81 -146 -182 -146q-86 0 -134 69.5t-48 163.5q0 95 49 165.5t135 70.5q125 0 185 -175h2q10 31 58 154q4 9 12 9h46
q9 0 9 -7zM224 45q43 0 80 39.5t77 126.5q-10 34 -18.5 58t-22.5 51t-29 44t-36.5 28t-47.5 11q-55 0 -88 -55.5t-33 -125.5q0 -75 30 -126t88 -51zM379 711l-1 -3l-82 -184q-3 -3 -7 -3h-43q-5 0 -5 5l1 4l69 183q3 4 8 4h54q6 0 6 -6z" />
    <glyph glyph-name="epsilontonos" unicode="&#x3ad;" horiz-adv-x="482" 
d="M209 253h68q9 0 9 -9v-36q0 -9 -9 -9h-68q-95 0 -95 -74q0 -38 32.5 -61t94.5 -23q58 0 92 30t37 78q0 9 10 9h46q8 0 8 -9v-2q-1 -24 -11 -49t-30.5 -51t-60 -42t-91.5 -16q-92 0 -141.5 39t-49.5 97q0 76 87 101q-41 12 -58.5 41t-17.5 60q0 57 48.5 94t131.5 37
q80 0 131 -40.5t58 -118.5v-2q0 -8 -9 -8h-47q-9 0 -9 9q-4 49 -36 78.5t-88 29.5q-57 0 -88.5 -22.5t-31.5 -56.5t22 -54t66 -20zM326 711l-1 -3l-82 -184q-3 -3 -7 -3h-43q-5 0 -5 5l1 4l69 183q3 4 8 4h54q6 0 6 -6z" />
    <glyph glyph-name="etatonos" unicode="&#x3ae;" horiz-adv-x="486" 
d="M424 -221q0 -9 -9 -9h-45q-10 0 -10 9v494q0 60 -13 84q-25 47 -84 47q-68 0 -102.5 -37.5t-34.5 -92.5v-265q0 -9 -10 -9h-45q-9 0 -9 9v428q0 9 9 9h41q8 0 10 -9l3 -45h2q22 29 59 47.5t79 18.5q70 0 114.5 -38.5t44.5 -111.5v-529zM346 711l-1 -3l-82 -184
q-3 -3 -7 -3h-43q-5 0 -5 5l1 4l69 183q3 4 8 4h54q6 0 6 -6z" />
    <glyph glyph-name="iotatonos" unicode="&#x3af;" horiz-adv-x="218" 
d="M192 44v-33q0 -7 -8 -9q-12 -3 -40 -3q-34 0 -62 21t-28 57v360q0 9 9 9h44q10 0 10 -9v-337q0 -27 9 -37t30 -10h27q9 0 9 -9zM196 711l-1 -3l-82 -184q-3 -3 -7 -3h-43q-5 0 -5 5l1 4l69 183q3 4 8 4h54q6 0 6 -6z" />
    <glyph glyph-name="upsilondieresistonos" unicode="&#x3b0;" horiz-adv-x="481" 
d="M419 437v-284q0 -66 -51 -115t-126 -49q-83 0 -131.5 45.5t-48.5 118.5v284q0 9 9 9h45q10 0 10 -9v-273q0 -55 30.5 -88.5t85.5 -33.5q50 0 82.5 34.5t32.5 87.5v273q0 9 10 9h43q9 0 9 -9zM388 530q0 -9 -9 -9h-52q-9 0 -9 9v58q0 9 9 9h52q9 0 9 -9v-58zM171 530
q0 -9 -9 -9h-51q-10 0 -10 9v58q0 9 10 9h51q9 0 9 -9v-58zM325 711l-1 -3l-63 -184q-3 -3 -7 -3h-45q-5 0 -5 5l1 4l49 183q3 4 8 4h57q6 0 6 -6z" />
    <glyph glyph-name="alpha" unicode="&#x3b1;" horiz-adv-x="584" 
d="M538 439v-2l-98 -233l11 -35q16 -51 30.5 -78t23.5 -33t21 -6q8 0 21 1q10 0 10 -8v-37q0 -7 -8 -9q-12 -3 -32 -3q-42 0 -65.5 35t-43.5 104h-2q-81 -146 -182 -146q-86 0 -134 69.5t-48 163.5q0 95 49 165.5t135 70.5q125 0 185 -175h2q10 31 58 154q4 9 12 9h46
q9 0 9 -7zM224 45q43 0 80 39.5t77 126.5q-10 34 -18.5 58t-22.5 51t-29 44t-36.5 28t-47.5 11q-55 0 -88 -55.5t-33 -125.5q0 -75 30 -126t88 -51z" />
    <glyph glyph-name="beta" unicode="&#x3b2;" horiz-adv-x="526" 
d="M427 191q0 70 -39 116.5t-120 46.5h-89q-9 0 -9 9v36q0 9 9 9h89q52 0 80 40t28 94q0 58 -36.5 93t-87.5 35q-63 0 -94.5 -36t-31.5 -97v-344q0 -69 41 -110t109 -41q64 0 107.5 40.5t43.5 108.5zM492 194q0 -91 -61.5 -148.5t-152.5 -57.5q-109 0 -150 74l-2 -1v-281
q0 -9 -10 -9h-45q-9 0 -9 9v757q0 87 50.5 137t139.5 50q76 0 131.5 -49t55.5 -133q0 -44 -21 -89t-62 -66q71 -20 103.5 -72t32.5 -121z" />
    <glyph glyph-name="gamma" unicode="&#x3b3;" horiz-adv-x="448" 
d="M435 438q0 -2 -3 -9l-118 -249q-45 -96 -55 -135t-10 -95l1 -171q0 -9 -8 -9h-50q-8 0 -8 9l1 169v2q0 105 -55 231q-11 26 -114 248q-3 7 -3 10q0 7 9 7h51q9 0 12 -9q95 -206 134 -339h1q66 164 149 339q4 9 13 9h44q9 0 9 -8z" />
    <glyph glyph-name="delta" unicode="&#x3b4;" horiz-adv-x="510" 
d="M465 209q0 -98 -60.5 -159.5t-152.5 -61.5q-97 0 -152.5 66t-55.5 157q0 71 36.5 132t108.5 96v2q-49 32 -70.5 66t-21.5 78q0 57 44.5 98.5t119.5 41.5q97 0 154 -67q4 -5 4 -8q0 -4 -3 -7l-26 -27q-4 -4 -9 -4q-3 0 -6 3q-52 56 -114 56q-50 0 -74.5 -28t-24.5 -58
q0 -20 7.5 -37.5t14 -27.5t30 -26t33 -21.5t45.5 -25.5q40 -22 63.5 -38.5t52.5 -45t43 -67t14 -87.5zM400 209q0 32 -9 59.5t-20 45t-34.5 36.5t-40 29t-47.5 27q-3 2 -8 2q-6 0 -10 -2q-60 -24 -91 -77.5t-31 -117.5q0 -75 40.5 -122t106.5 -47q68 0 106 44.5t38 122.5z
" />
    <glyph glyph-name="epsilon" unicode="&#x3b5;" horiz-adv-x="484" 
d="M209 253h68q9 0 9 -9v-36q0 -9 -9 -9h-68q-95 0 -95 -74q0 -38 32.5 -61t94.5 -23q58 0 92 30t37 78q0 9 10 9h46q8 0 8 -9v-2q-1 -24 -11 -49t-30.5 -51t-60 -42t-91.5 -16q-92 0 -141.5 39t-49.5 97q0 76 87 101q-41 12 -58.5 41t-17.5 60q0 57 48.5 94t131.5 37
q80 0 131 -40.5t58 -118.5v-2q0 -8 -9 -8h-47q-9 0 -9 9q-4 49 -36 78.5t-88 29.5q-57 0 -88.5 -22.5t-31.5 -56.5t22 -54t66 -20z" />
    <glyph glyph-name="zeta" unicode="&#x3b6;" horiz-adv-x="415" 
d="M411 677q0 -12 -10 -21q-131 -127 -208.5 -254t-77.5 -208q0 -52 25 -86.5t66 -44.5q10 -3 28.5 -5.5t46 -5.5t45.5 -6q40 -6 65 -30.5t25 -65.5q0 -37 -29 -62.5t-78 -28.5q-17 -1 -39 -1h-13q-10 0 -10 9v35q0 9 10 9h32q64 0 64 39q0 15 -11 25.5t-29 12.5
q-7 1 -51.5 5t-68.5 9q-142 31 -142 192q0 94 80 225.5t196 243.5h-183q-10 0 -10 9v36q0 9 9 9h259q9 0 9 -9v-31z" />
    <glyph glyph-name="eta" unicode="&#x3b7;" horiz-adv-x="486" 
d="M424 -221q0 -9 -9 -9h-45q-10 0 -10 9v494q0 60 -13 84q-25 47 -84 47q-68 0 -102.5 -37.5t-34.5 -92.5v-265q0 -9 -10 -9h-45q-9 0 -9 9v428q0 9 9 9h41q8 0 10 -9l3 -45h2q22 29 59 47.5t79 18.5q70 0 114.5 -38.5t44.5 -111.5v-529z" />
    <glyph glyph-name="theta" unicode="&#x3b8;" horiz-adv-x="536" 
d="M412 332h-288q10 -290 144 -290q67 0 103 69.5t41 220.5zM124 384h288q-10 290 -144 290q-67 0 -103 -69.5t-41 -220.5zM476 358q0 -178 -58.5 -274t-149.5 -96t-149.5 96t-58.5 274t58.5 274t149.5 96t149.5 -96t58.5 -274z" />
    <glyph glyph-name="iota" unicode="&#x3b9;" horiz-adv-x="218" 
d="M196 44v-33q0 -7 -8 -9q-12 -3 -40 -3q-34 0 -62 21t-28 57v360q0 9 9 9h44q10 0 10 -9v-337q0 -27 9 -37t30 -10h27q9 0 9 -9z" />
    <glyph glyph-name="kappa" unicode="&#x3ba;" horiz-adv-x="460" 
d="M437 5q0 -5 -8 -5h-56q-10 0 -15 7l-158 217l-74 -61v-154q0 -9 -10 -9h-45q-9 0 -9 9v428q0 9 9 9h45q10 0 10 -9v-215q85 75 228 218q6 6 16 6h54q8 0 8 -6q0 -3 -3 -6l-182 -169l188 -254q2 -3 2 -6z" />
    <glyph glyph-name="lambda" unicode="&#x3bb;" horiz-adv-x="456" 
d="M432 6q0 -6 -7 -6h-48q-8 0 -12 9q-4 10 -117 305l-21 54h-2l-142 -359q-3 -9 -12 -9h-48q-7 0 -7 6l2 7l178 435l-64 158q-22 56 -60 56q-11 0 -20 -2l-10 -1q-7 0 -7 6v35q0 9 5 12q12 7 42 7q58 0 92 -68q36 -73 84 -200l47 -123q61 -156 125 -313q2 -4 2 -9z" />
    <glyph glyph-name="mu" unicode="&#x3bc;" horiz-adv-x="514" 
d="M440 -1q-30 0 -50 16.5t-24 48.5q-46 -68 -134 -68q-63 0 -106 41v-258q0 -9 -9 -9h-45q-10 0 -10 9v658q0 9 10 9h45q9 0 9 -9v-287q0 -53 32 -76t76 -23q49 0 87 36t38 84v266q0 9 9 9h45q10 0 10 -9v-287q0 -60 5.5 -78.5t23.5 -18.5h20q9 0 9 -9v-34q0 -7 -7 -8
q-12 -3 -34 -3z" />
    <glyph glyph-name="nu" unicode="&#x3bd;" horiz-adv-x="438" 
d="M423 438l-1 -4q-31 -84 -93 -231t-85 -197q-2 -6 -9 -6h-43q-6 0 -9 6q-72 200 -167 428q-1 3 -1 4q0 8 10 8h49q6 0 9 -6q22 -54 49 -125t52.5 -141.5t33.5 -90.5h2q1 3 34 85.5t64.5 161.5t42.5 110q2 6 9 6h44q9 0 9 -8z" />
    <glyph glyph-name="xi" unicode="&#x3be;" horiz-adv-x="426" 
d="M389 634q-3 0 -7 2q-52 35 -110 35q-57 0 -96 -39t-39 -104q0 -57 34.5 -97.5t99.5 -40.5h83q9 0 9 -9v-40q0 -9 -9 -9h-83q-59 0 -105.5 -44.5t-46.5 -105.5q0 -64 38 -99q16 -15 39 -24t39.5 -11t48.5 -4.5t45 -3.5q98 -12 98 -87q0 -41 -34.5 -69t-103.5 -28
q-28 0 -38 2q-6 1 -6 10v36q0 8 8 8l29 -1q23 0 41 2q42 5 42 39q0 32 -46 37q-13 1 -50 3t-56.5 5t-47.5 13t-48 28q-62 54 -62 144q0 56 35 104t95 72v2q-55 21 -82.5 69.5t-27.5 102.5q0 84 58.5 139t138.5 55t143 -43q4 -2 4 -7q0 -2 -3 -7l-20 -32q-2 -3 -7 -3z" />
    <glyph glyph-name="omicron" unicode="&#x3bf;" horiz-adv-x="521" 
d="M482 225q0 -97 -58 -167t-163 -70t-163.5 70t-58.5 167q0 100 61 166.5t161 66.5q105 0 163 -68.5t58 -164.5zM417 227q0 73 -40.5 125t-113.5 52q-75 0 -117 -53.5t-42 -127.5t41 -127.5t114 -53.5q74 0 116 55t42 130z" />
    <glyph glyph-name="pi" unicode="&#x3c0;" horiz-adv-x="560" 
d="M496 437v-41q0 -9 -9 -9h-37v-378q0 -9 -10 -9h-43q-9 0 -9 9v378h-223v-378q0 -9 -10 -9h-43q-9 0 -9 9v378h-37q-9 0 -9 9v41q0 9 9 9h421q9 0 9 -9z" />
    <glyph glyph-name="rho" unicode="&#x3c1;" horiz-adv-x="526" 
d="M486 223q0 -98 -56.5 -166t-152.5 -68q-107 0 -149 73h-2v-283q0 -9 -10 -9h-45q-9 0 -9 9v444q0 61 20 112t69.5 87t122.5 36q95 0 153.5 -64.5t58.5 -170.5zM421 223q0 80 -39 130t-109 50q-76 0 -112 -51.5t-36 -128.5q0 -78 36 -128.5t113 -50.5q66 0 106.5 49.5
t40.5 129.5z" />
    <glyph glyph-name="sigma1" unicode="&#x3c2;" horiz-adv-x="432" 
d="M423 302v-2q0 -8 -9 -8h-47q-7 0 -9 9q-6 44 -33 73.5t-83 29.5q-70 0 -104.5 -52.5t-34.5 -127.5q1 -74 35.5 -111t115.5 -53q82 -16 114 -40.5t32 -68.5q0 -37 -27.5 -63.5t-73.5 -29.5q-16 -1 -37 -1h-12q-9 0 -9 9v36q0 9 9 9h30q57 0 57 40q0 18 -19.5 31.5
t-75.5 23.5q-100 16 -151.5 68.5t-51.5 149.5q0 103 56.5 168.5t144.5 65.5q78 0 125 -41t58 -115z" />
    <glyph glyph-name="sigma" unicode="&#x3c3;" horiz-adv-x="538" 
d="M516 437v-41q0 -9 -9 -9l-131 5q40 -32 62.5 -79.5t22.5 -96.5q0 -94 -55.5 -161t-150.5 -67q-104 0 -159 68.5t-55 166.5q0 99 59 161t160 62h247q9 0 9 -9zM396 219q0 73 -37.5 121.5t-101.5 48.5q-75 0 -113 -47t-38 -121q0 -76 39 -127.5t108 -51.5q70 0 106.5 49.5
t36.5 127.5z" />
    <glyph glyph-name="tau" unicode="&#x3c4;" horiz-adv-x="401" 
d="M314 44v-33q0 -7 -8 -9q-12 -3 -53 -3q-34 0 -62 21t-28 57v310h-132q-9 0 -9 9v41q0 9 9 9h351q9 0 9 -9v-41q0 -9 -9 -9h-156v-287q0 -47 39 -47h40q9 0 9 -9z" />
    <glyph glyph-name="upsilon" unicode="&#x3c5;" horiz-adv-x="481" 
d="M419 437v-284q0 -66 -51 -115t-126 -49q-83 0 -131.5 45.5t-48.5 118.5v284q0 9 9 9h45q10 0 10 -9v-273q0 -55 30.5 -88.5t85.5 -33.5q50 0 82.5 34.5t32.5 87.5v273q0 9 10 9h43q9 0 9 -9z" />
    <glyph glyph-name="phi" unicode="&#x3c6;" horiz-adv-x="626" 
d="M588 221q0 -103 -71 -163t-174 -66l1 -213q0 -9 -10 -9h-44q-9 0 -9 9l1 213q-103 6 -173.5 66t-70.5 163q0 79 50 141.5t136 80.5q4 1 8 1q7 0 7 -7v-37q0 -6 -8 -8q-62 -16 -95.5 -61.5t-33.5 -109.5q0 -79 48 -126.5t133 -52.5v365q0 15 11 27t26 12h13
q114 0 184.5 -60.5t70.5 -164.5zM524 221q0 80 -49.5 127.5t-132.5 49.5v-356q83 4 132.5 49.5t49.5 129.5z" />
    <glyph glyph-name="chi" unicode="&#x3c7;" horiz-adv-x="459" 
d="M11 -218l186 325l-188 327q-1 3 -1 4q0 8 9 8h52q5 0 9 -6l154 -271l153 268q3 9 12 9h46q7 0 7 -6l-3 -9l-182 -319l187 -329q1 -3 1 -4q0 -8 -9 -8h-47q-6 0 -10 6l-157 273l-157 -274q-3 -6 -9 -6h-45q-9 0 -9 8z" />
    <glyph glyph-name="psi" unicode="&#x3c8;" horiz-adv-x="632" 
d="M348 -10l1 -211q0 -9 -10 -9h-44q-9 0 -9 9l1 211q-89 6 -157 64.5t-68 150.5v232q0 9 9 9h46q10 0 10 -9v-231q0 -64 41.5 -109.5t119.5 -52.5l-1 393q0 9 9 9h42q10 0 10 -9l-1 -393q76 7 119 49t43 113v231q0 9 10 9h42q9 0 9 -9v-232q0 -72 -59.5 -140t-162.5 -75z
" />
    <glyph glyph-name="omega" unicode="&#x3c9;" horiz-adv-x="708" 
d="M658 193q0 -86 -41 -145.5t-125 -59.5q-44 0 -81 27t-57 85q-20 -58 -57 -85t-81 -27q-84 0 -125 59.5t-41 145.5q0 61 21.5 127t55.5 117q5 8 12 8h47q9 0 9 -8q0 -5 -6 -15q-33 -49 -54.5 -110.5t-21.5 -115.5q0 -58 25.5 -106t77.5 -48q107 0 107 178v47q0 12 10 12
h42q10 0 10 -12v-47q0 -178 107 -178q52 0 77.5 48t25.5 106q0 54 -22 115.5t-55 111.5q-6 10 -6 15q0 8 9 8h47q7 0 12 -8q34 -51 56 -117.5t22 -127.5z" />
    <glyph glyph-name="iotadieresis" unicode="&#x3ca;" horiz-adv-x="218" 
d="M196 530q0 -9 -9 -9h-52q-9 0 -9 9v58q0 9 9 9h52q9 0 9 -9v-58zM49 530q0 -9 -9 -9h-51q-10 0 -10 9v58q0 9 10 9h51q9 0 9 -9v-58zM192 44v-33q0 -7 -8 -9q-12 -3 -40 -3q-34 0 -62 21t-28 57v360q0 9 9 9h44q10 0 10 -9v-337q0 -27 9 -37t30 -10h27q9 0 9 -9z" />
    <glyph glyph-name="upsilondieresis" unicode="&#x3cb;" horiz-adv-x="484" 
d="M346 530q0 -9 -9 -9h-52q-9 0 -9 9v58q0 9 9 9h52q9 0 9 -9v-58zM199 530q0 -9 -9 -9h-51q-10 0 -10 9v58q0 9 10 9h51q9 0 9 -9v-58zM419 437v-284q0 -66 -51 -115t-126 -49q-83 0 -131.5 45.5t-48.5 118.5v284q0 9 9 9h45q10 0 10 -9v-273q0 -55 30.5 -88.5t85.5 -33.5
q50 0 82.5 34.5t32.5 87.5v273q0 9 10 9h43q9 0 9 -9z" />
    <glyph glyph-name="omicrontonos" unicode="&#x3cc;" horiz-adv-x="521" 
d="M482 225q0 -97 -58 -167t-163 -70t-163.5 70t-58.5 167q0 100 61 166.5t161 66.5q105 0 163 -68.5t58 -164.5zM417 227q0 73 -40.5 125t-113.5 52q-75 0 -117 -53.5t-42 -127.5t41 -127.5t114 -53.5q74 0 116 55t42 130zM363 711l-1 -3l-82 -184q-3 -3 -7 -3h-43
q-5 0 -5 5l1 4l69 183q3 4 8 4h54q6 0 6 -6z" />
    <glyph glyph-name="upsilontonos" unicode="&#x3cd;" horiz-adv-x="481" 
d="M419 437v-284q0 -66 -51 -115t-126 -49q-83 0 -131.5 45.5t-48.5 118.5v284q0 9 9 9h45q10 0 10 -9v-273q0 -55 30.5 -88.5t85.5 -33.5q50 0 82.5 34.5t32.5 87.5v273q0 9 10 9h43q9 0 9 -9zM351 711l-1 -3l-82 -184q-3 -3 -7 -3h-43q-5 0 -5 5l1 4l69 183q3 4 8 4h54
q6 0 6 -6z" />
    <glyph glyph-name="omegatonos" unicode="&#x3ce;" horiz-adv-x="708" 
d="M658 193q0 -86 -41 -145.5t-125 -59.5q-44 0 -81 27t-57 85q-20 -58 -57 -85t-81 -27q-84 0 -125 59.5t-41 145.5q0 61 21.5 127t55.5 117q5 8 12 8h47q9 0 9 -8q0 -5 -6 -15q-33 -49 -54.5 -110.5t-21.5 -115.5q0 -58 25.5 -106t77.5 -48q107 0 107 178v47q0 12 10 12
h42q10 0 10 -12v-47q0 -178 107 -178q52 0 77.5 48t25.5 106q0 54 -22 115.5t-55 111.5q-6 10 -6 15q0 8 9 8h47q7 0 12 -8q34 -51 56 -117.5t22 -127.5zM466 711l-1 -3l-82 -184q-3 -3 -7 -3h-43q-5 0 -5 5l1 4l69 183q3 4 8 4h54q6 0 6 -6z" />
    <glyph glyph-name="uni03D0" unicode="&#x3d0;" horiz-adv-x="509" 
d="M470 212q0 -100 -60.5 -162t-152.5 -62q-135 0 -186 130q-26 69 -26 168q0 190 48 299q27 61 78.5 99t117.5 38q63 0 108.5 -33t45.5 -84t-41 -85t-116 -34q-78 0 -158 43q-20 -64 -29 -153l-5 -59l2 -1q16 49 62.5 78t107.5 29q92 0 148 -59.5t56 -151.5zM406 209
q0 75 -39.5 117.5t-108.5 42.5q-66 0 -106.5 -43t-40.5 -110q0 -77 40.5 -125.5t110.5 -48.5q66 0 105 45.5t39 121.5zM283 672q-94 0 -139 -101q72 -36 143 -36q46 0 71 19t25 49t-26 49.5t-74 19.5z" />
    <glyph glyph-name="theta1" unicode="&#x3d1;" horiz-adv-x="564" 
d="M268 -12q-84 0 -140.5 71.5t-56.5 216.5h-21q-9 0 -9 9v36q0 9 9 9h75q10 0 10 -9v-31q0 -248 133 -248q62 0 99 75t42 225h-14q-48 0 -88 4t-82.5 16t-71.5 32.5t-47.5 56t-18.5 82.5q0 78 50 134.5t131 56.5q55 0 96 -31.5t62.5 -83.5t32.5 -104.5t13 -108.5h53
q9 0 9 -9v-36q0 -9 -9 -9h-52q-5 -168 -61 -261t-144 -93zM409 394q-9 276 -141 276q-57 0 -89 -41.5t-32 -97.5q0 -42 19 -70.5t56 -42.5t76.5 -19t94.5 -5h16z" />
    <glyph glyph-name="Upsilon1" unicode="&#x3d2;" horiz-adv-x="717" 
d="M564 728q72 0 99.5 -43t27.5 -117q0 -15 -4 -83q0 -8 -9 -8h-43q-9 0 -9 8t1 36.5t1 47.5q0 97 -64 97q-62 0 -113 -131q-35 -88 -45.5 -152.5t-10.5 -162.5v-211q0 -9 -10 -9h-52q-10 0 -10 9v211q0 97 -11 160.5t-44 148.5q-26 67 -56 102t-59 35q-64 0 -64 -97
q0 -21 0.5 -40.5t1 -31t0.5 -12.5q0 -8 -9 -8h-43q-9 0 -9 8q-4 60 -4 79q0 164 127 164q43 0 79 -28t60 -76.5t40 -102t26 -115.5q10 62 26 115t40 102t60 77t80 28z" />
    <glyph glyph-name="uni03D3" unicode="&#x3d3;" horiz-adv-x="814" 
d="M661 728q72 0 99.5 -43t27.5 -117q0 -15 -4 -83q0 -8 -9 -8h-43q-9 0 -9 8t1 36.5t1 47.5q0 97 -64 97q-62 0 -113 -131q-35 -88 -45.5 -152.5t-10.5 -162.5v-211q0 -9 -10 -9h-52q-10 0 -10 9v211q0 97 -11 160.5t-44 148.5q-26 67 -56 102t-59 35q-64 0 -64 -97
q0 -21 0.5 -40.5t1 -31t0.5 -12.5q0 -8 -9 -8h-43q-9 0 -9 8q-4 60 -4 79q0 164 127 164q43 0 79 -28t60 -76.5t40 -102t26 -115.5q10 62 26 115t40 102t60 77t80 28zM69 711l-1 -3l-82 -184q-3 -3 -7 -3h-43q-5 0 -5 5l1 4l69 183q3 4 8 4h54q6 0 6 -6z" />
    <glyph glyph-name="uni03D4" unicode="&#x3d4;" horiz-adv-x="717" 
d="M564 728q72 0 99.5 -43t27.5 -117q0 -15 -4 -83q0 -8 -9 -8h-43q-9 0 -9 8t1 36.5t1 47.5q0 97 -64 97q-62 0 -113 -131q-35 -88 -45.5 -152.5t-10.5 -162.5v-211q0 -9 -10 -9h-52q-10 0 -10 9v211q0 97 -11 160.5t-44 148.5q-26 67 -56 102t-59 35q-64 0 -64 -97
q0 -21 0.5 -40.5t1 -31t0.5 -12.5q0 -8 -9 -8h-43q-9 0 -9 8q-4 60 -4 79q0 164 127 164q43 0 79 -28t60 -76.5t40 -102t26 -115.5q10 62 26 115t40 102t60 77t80 28zM490 806q0 -9 -9 -9h-52q-9 0 -9 9v58q0 9 9 9h52q9 0 9 -9v-58zM301 806q0 -9 -9 -9h-51q-10 0 -10 9v58
q0 9 10 9h51q9 0 9 -9v-58z" />
    <glyph glyph-name="phi1" unicode="&#x3d5;" horiz-adv-x="626" 
d="M588 221q0 -103 -71 -163t-174 -66l1 -213q0 -9 -10 -9h-44q-9 0 -9 9l1 213q-103 6 -174 66t-71 163q0 101 67.5 161.5t177.5 63.5l-1 214q0 9 9 9h44q10 0 10 -9l-1 -214q110 -3 177.5 -63.5t67.5 -161.5zM524 221q0 80 -49 126t-133 48v-350q84 4 133 48t49 128z
M101 221q0 -84 49 -128t133 -48v350q-84 -2 -133 -48t-49 -126z" />
    <glyph glyph-name="omega1" unicode="&#x3d6;" horiz-adv-x="748" 
d="M678 193q0 -86 -41 -145.5t-125 -59.5q-44 0 -81 27t-57 85q-20 -58 -57 -85t-81 -27q-84 0 -125 59.5t-41 145.5q0 98 53 194h-92q-9 0 -9 9v41q0 9 9 9h686q9 0 9 -9v-41q0 -9 -9 -9h-94q55 -103 55 -194zM133 196q0 -58 25.5 -106t77.5 -48q107 0 107 178v47
q0 12 10 12h42q10 0 10 -12v-47q0 -178 107 -178q52 0 77.5 48t25.5 106q0 90 -56 191h-371q-55 -100 -55 -191z" />
    <glyph glyph-name="uni03D7" unicode="&#x3d7;" horiz-adv-x="525" 
d="M236 -174q100 -1 161.5 45t68.5 129h-7q-66 0 -105 43t-39 116q0 57 17 114l-2 1q-23 -34 -78 -97.5t-65 -75.5q-55 -68 -72 -92q-6 -9 -18 -9h-41q-12 0 -12 9q0 6 4 11q107 114 107 233q0 23 -3.5 44t-12.5 45t-28.5 38t-47.5 14h-20q-8 0 -8 8v35q0 7 7 8q10 3 35 3
q48 0 83 -35q48 -50 48 -134q0 -78 -17 -109l2 -1q23 33 78.5 97t66.5 78q29 35 71 92q8 10 19 10h40q12 0 12 -9q0 -6 -4 -11q-64 -68 -86 -126q-26 -66 -22 -130q4 -60 29.5 -91t81.5 -31q10 0 22 1t14 1q11 0 11 -10q0 -39 -6 -70q-18 -90 -88.5 -142.5t-192.5 -58.5h-1
q-9 0 -10 8v37q0 10 8 12z" />
    <glyph glyph-name="uni03D8" unicode="&#x3d8;" horiz-adv-x="736" 
d="M404 91v-87q0 -9 -9 -9h-52q-10 0 -10 9v86q-76 6 -134.5 35.5t-92.5 75t-50.5 98.5t-16.5 112q0 137 86.5 227.5t241.5 90.5q85 0 150 -27t102.5 -73t56 -101t18.5 -117q0 -131 -74.5 -219.5t-215.5 -100.5zM619 411q0 50 -14 94t-43 81t-79 59t-116 22
q-115 0 -183.5 -69.5t-68.5 -186.5q0 -51 14 -95.5t42.5 -82.5t79 -60t116.5 -22q128 0 190 76.5t62 183.5z" />
    <glyph glyph-name="uni03D9" unicode="&#x3d9;" horiz-adv-x="521" 
d="M292 -223q0 -9 -10 -9h-45q-9 0 -9 9v213q-90 11 -139.5 79t-49.5 156q0 100 61 166.5t161 66.5q105 0 163 -68.5t58 -164.5q0 -89 -49.5 -156.5t-140.5 -78.5v-213zM417 227q0 73 -40.5 125t-113.5 52q-75 0 -117 -53.5t-42 -127.5t41 -127.5t114 -53.5q74 0 116 55
t42 130z" />
    <glyph glyph-name="uni03DA" unicode="&#x3da;" horiz-adv-x="672" 
d="M628 483v-2q0 -9 -10 -9h-49q-10 0 -12 7q-18 93 -77.5 140.5t-134.5 47.5q-93 0 -161.5 -71.5t-68.5 -194.5q0 -105 68.5 -178.5t198.5 -73.5h27q10 0 10 -9v-131q0 -9 -9 -9h-52q-10 0 -10 9v83q-148 9 -228.5 98t-80.5 211q0 103 45.5 179.5t114 112.5t147.5 36
q105 0 183 -61.5t99 -184.5z" />
    <glyph glyph-name="uni03DB" unicode="&#x3db;" horiz-adv-x="514" 
d="M497 437v-36q0 -9 -9 -9h-111q-98 0 -144 -12.5t-76 -38.5q-54 -48 -54 -124q0 -62 27 -102.5t72 -52.5q9 -3 26.5 -5.5t43.5 -5.5t42 -6q38 -6 62 -29.5t24 -64.5q0 -37 -27.5 -63.5t-73.5 -29.5q-16 -1 -37 -1h-12q-9 0 -9 9v36q0 9 9 9h30q57 0 57 40q0 34 -35 39
q-7 1 -48.5 5t-63.5 9q-71 17 -112 77t-41 135q0 108 81 172q43 33 98 45.5t159 12.5h113q9 0 9 -9z" />
    <glyph glyph-name="uni03DC" unicode="&#x3dc;" horiz-adv-x="564" 
d="M535 662q0 -9 -9 -9h-381v-261h228q9 0 9 -9v-46q0 -9 -9 -9h-228v-319q0 -9 -9 -9h-53q-9 0 -9 9v699q0 9 9 9h443q9 0 9 -9v-46z" />
    <glyph glyph-name="uni03DD" unicode="&#x3dd;" horiz-adv-x="506" 
d="M93 -222v525q0 65 40 104.5t104 39.5q202 0 210 -1q9 -2 9 -9v-36q0 -9 -9 -9h-49t-100 0.5t-61 0.5q-80 0 -80 -90v-154h290q9 0 9 -9v-36q0 -9 -9 -9h-290v-317q0 -9 -10 -9h-45q-9 0 -9 9z" />
    <glyph glyph-name="uni03DE" unicode="&#x3de;" horiz-adv-x="515" 
d="M179 708l-53 -318h332q9 0 9 -8v-1l-60 -372q-2 -9 -9 -9h-52q-10 0 -10 8v1l52 321h-331q-9 0 -9 8v1l60 369q2 9 9 9h53q9 0 9 -9z" />
    <glyph glyph-name="uni03DF" unicode="&#x3df;" horiz-adv-x="562" 
d="M148 139q194 215 288 297q9 9 17 9q5 0 9 -3l27 -17q9 -6 9 -14q0 -5 -3 -11q-38 -94 -67 -228.5t-29 -233.5q0 -69 22 -93.5t61 -24.5h28q8 0 8 -8v-34q0 -7 -7 -8q-20 -5 -41 -5q-132 0 -132 173q0 80 26.5 208.5t50.5 195.5l-2 1q-240 -249 -286 -293q-7 -7 -18 -7
q-4 0 -6 1l-29 17q-10 7 -10 12q0 2 2 8q33 63 65.5 218.5t32.5 235.5q0 129 -84 129h-28q-8 0 -8 8v34q0 7 7 8q20 5 41 5q54 0 92 -44.5t38 -141.5q0 -88 -25 -208.5t-51 -184.5z" />
    <glyph glyph-name="uni03E0" unicode="&#x3e0;" horiz-adv-x="687" 
d="M220 435l275 124q-79 110 -198 110q-112 0 -218 -97q-4 -4 -9 -4t-9 4l-25 28q-4 4 -4 9t5 9q117 112 264 112q139 0 236.5 -113.5t97.5 -257.5q0 -163 -96 -262.5t-253 -101.5q-2 0 -5 2.5t-3 5.5v45q0 8 7 8q129 3 207 88.5t73 217.5l-259 -117q-10 0 -12 5l-17 39
q-1 2 -1 5q0 6 5 8l275 124q-10 39 -29 80l-281 -127l-1 -1h-2q-7 0 -9 6l-18 39q-1 2 -1 5q0 5 5 7z" />
    <glyph glyph-name="uni03E1" unicode="&#x3e1;" horiz-adv-x="625" 
d="M147 315l262 118q-63 103 -157 164t-209 62q-9 0 -9 7v41q0 10 9 10q87 0 168.5 -34.5t144 -95t109.5 -138.5t72 -167.5t25 -179.5q0 -193 -109 -329q-4 -4 -7 -4q-4 0 -7 3l-29 23q-3 1 -3 7q0 4 3 7q93 118 93 293q0 68 -15 135l-254 -115q-10 0 -12 5l-15 34
q-2 4 -2 7q0 6 5 8l262 118q-12 41 -35 89l-265 -121q-2 -1 -5 -1q-4 0 -7 6l-17 36q-1 2 -1 5q0 5 5 7z" />
    <glyph glyph-name="uni03F0" unicode="&#x3f0;" horiz-adv-x="525" 
d="M187 101q-55 -68 -72 -92q-6 -9 -18 -9h-44q-12 0 -12 9q0 6 4 11q110 117 110 233q0 23 -3.5 44t-12.5 45t-28.5 38t-47.5 14h-20q-8 0 -8 8v35q0 7 7 8q10 3 35 3q48 0 83 -35q48 -50 48 -134q0 -78 -17 -109l2 -1q23 33 78.5 97t66.5 78q55 68 72 92q6 9 18 9h44
q12 0 12 -9q0 -6 -4 -11q-110 -117 -110 -233q0 -23 3.5 -44t13 -44.5t29.5 -37.5t48 -14h22q8 0 8 -8v-36q0 -7 -7 -8q-10 -3 -37 -3q-54 0 -93.5 45.5t-39.5 123.5t17 109l-2 1q-23 -33 -78.5 -97t-66.5 -78z" />
    <glyph glyph-name="uni03F1" unicode="&#x3f1;" horiz-adv-x="520" 
d="M64 291q40 168 207 168q100 0 155 -67t55 -169q0 -110 -57 -171t-147 -61q-62 0 -108.5 31.5t-65.5 85.5l-2 -1l3 -19q20 -123 53 -169.5t116 -63.5q38 -9 131 -19q9 -2 9 -13v-36q0 -9 -9 -9h-4q-177 12 -248.5 65t-90.5 183q-9 62 -9 124q0 87 12 141zM416 221
q0 77 -36.5 130t-110.5 53q-73 0 -111 -51.5t-38 -125.5q0 -78 36 -130t115 -52q65 0 105 47.5t40 128.5z" />
    <glyph glyph-name="uni03F2" unicode="&#x3f2;" horiz-adv-x="495" 
d="M445 150q-13 -75 -64 -118.5t-129 -43.5q-101 0 -157 70t-56 165t56 165t157 70q79 0 131 -41.5t62 -114.5v-2q0 -8 -9 -8h-47q-7 0 -9 9q-6 42 -38 72.5t-88 30.5q-71 0 -110 -54t-39 -127t39 -127t110 -54q56 0 88.5 33t38.5 77q1 9 10 9h46q8 0 8 -9v-2z" />
    <glyph glyph-name="uni03F3" unicode="&#x3f3;" horiz-adv-x="187" 
d="M129 559q0 -9 -10 -9h-52q-9 0 -9 9v59q0 9 9 9h52q10 0 10 -9v-59zM125 -139q0 -47 -29 -71.5t-70 -24.5h-17q-9 0 -9 9v38q0 9 9 9h17q35 0 35 40v576q0 9 9 9h45q10 0 10 -9v-576z" />
    <glyph glyph-name="uni03F9" unicode="&#x3f9;" horiz-adv-x="759" 
d="M711 234q-26 -116 -113 -181t-218 -65q-143 0 -242 105t-99 266t99 266t242 105q131 0 218 -65t113 -181v-2q0 -9 -10 -9h-52q-7 0 -9 7q-27 95 -94.5 141t-165.5 46q-110 0 -188.5 -82.5t-78.5 -225.5t78.5 -225.5t188.5 -82.5q98 0 165.5 46t94.5 141q2 7 9 7h52
q10 0 10 -9v-2z" />
    <glyph glyph-name="uni0400" unicode="&#x400;" horiz-adv-x="603" 
d="M371 781q0 -5 -5 -5h-47q-4 0 -7 3l-142 139q-1 1 -1 3q0 6 6 6h65q4 0 8 -4l122 -138q1 -1 1 -4zM561 9q0 -9 -9 -9h-469q-9 0 -9 9v699q0 9 9 9h443q9 0 9 -9v-46q0 -9 -9 -9h-381v-262h228q9 0 9 -9v-44q0 -9 -9 -9h-228v-265h407q9 0 9 -9v-46z" />
    <glyph glyph-name="afii10023" unicode="&#x401;" horiz-adv-x="603" 
d="M441 803q0 -9 -9 -9h-51q-10 0 -10 9v58q0 9 10 9h51q9 0 9 -9v-58zM253 803q0 -9 -9 -9h-52q-9 0 -9 9v58q0 9 9 9h52q9 0 9 -9v-58zM561 9q0 -9 -9 -9h-469q-9 0 -9 9v699q0 9 9 9h443q9 0 9 -9v-46q0 -9 -9 -9h-381v-262h228q9 0 9 -9v-44q0 -9 -9 -9h-228v-265h407
q9 0 9 -9v-46z" />
    <glyph glyph-name="afii10051" unicode="&#x402;" horiz-adv-x="805" 
d="M593 662q0 -9 -9 -9h-248v-271q77 16 170 16q118 0 181.5 -54t63.5 -152q0 -90 -61.5 -144t-162.5 -54h-17q-9 0 -9 9v44q0 9 9 9h10q79 0 120 37.5t41 97.5q0 148 -180 148q-85 0 -165 -16v-314q0 -9 -10 -9h-52q-9 0 -9 9v644h-225q-9 0 -9 9v46q0 9 9 9h544q9 0 9 -9
v-46z" />
    <glyph glyph-name="afii10052" unicode="&#x403;" horiz-adv-x="548" 
d="M437 921q0 -2 -1 -3l-142 -139q-3 -3 -7 -3h-47q-5 0 -5 5q0 3 1 4l122 138q4 4 8 4h65q6 0 6 -6zM512 708v-46q0 -9 -9 -9h-358v-644q0 -9 -9 -9h-53q-9 0 -9 9v699q0 9 9 9h420q9 0 9 -9z" />
    <glyph glyph-name="afii10053" unicode="&#x404;" horiz-adv-x="747" 
d="M711 234q-26 -116 -113 -181t-218 -65q-143 0 -242 105t-99 266t99 266t242 105q131 0 218 -65t113 -181v-2q0 -9 -10 -9h-52q-7 0 -9 7q-27 95 -94.5 141t-165.5 46q-104 0 -182 -74t-87 -203h412q9 0 9 -9v-44q0 -9 -9 -9h-412q9 -129 87 -203t182 -74q98 0 165.5 46
t94.5 141q2 7 9 7h52q10 0 10 -9v-2z" />
    <glyph glyph-name="afii10054" unicode="&#x405;" horiz-adv-x="608" 
d="M549 191q0 -92 -72.5 -147.5t-171.5 -55.5q-186 0 -280 144q-2 2 -2 5q0 4 5 7l43 29q2 1 5 1q1 0 7 -6q85 -120 222 -120q79 0 126.5 39.5t47.5 96.5q0 61 -50.5 95t-161.5 59q-214 49 -214 199q0 79 64 136t160 57q157 0 253 -126q2 -4 2 -6q0 -3 -3 -6l-41 -31
q-1 -1 -4 -1q-4 0 -8 4q-78 106 -199 106q-69 0 -112.5 -37t-43.5 -94q0 -58 45 -86.5t156 -55.5q109 -27 168 -75t59 -131z" />
    <glyph glyph-name="afii10055" unicode="&#x406;" horiz-adv-x="229" 
d="M150 9q0 -9 -9 -9h-52q-10 0 -10 9v699q0 9 10 9h52q9 0 9 -9v-699z" />
    <glyph glyph-name="afii10056" unicode="&#x407;" horiz-adv-x="229" 
d="M224 810q0 -9 -9 -9h-52q-9 0 -9 9v58q0 9 9 9h52q9 0 9 -9v-58zM76 810q0 -9 -10 -9h-51q-9 0 -9 9v58q0 9 9 9h51q10 0 10 -9v-58zM150 9q0 -9 -9 -9h-52q-10 0 -10 9v699q0 9 10 9h52q9 0 9 -9v-699z" />
    <glyph glyph-name="afii10057" unicode="&#x408;" horiz-adv-x="474" 
d="M400 181q0 -90 -55 -141.5t-140 -51.5t-128.5 52.5t-43.5 115.5v1q0 8 9 8h49q9 0 9 -8q3 -48 32 -78.5t75 -30.5q54 0 87.5 35.5t33.5 96.5v528q0 9 10 9h52q10 0 10 -9v-527z" />
    <glyph glyph-name="afii10058" unicode="&#x409;" horiz-adv-x="1105" 
d="M987 196q0 55 -40 94t-118 39h-193v-267h193q78 0 118 39.5t40 94.5zM1061 196q0 -81 -61 -138.5t-167 -57.5h-259q-9 0 -9 9v646h-293v-448q0 -95 -59 -154t-155 -59h-17q-9 0 -9 9v44q0 9 9 9h10q72 0 111 38.5t39 112.5v501q0 9 9 9h417q9 0 9 -9v-317h197
q106 0 167 -57.5t61 -137.5z" />
    <glyph glyph-name="afii10059" unicode="&#x40a;" horiz-adv-x="1054" 
d="M783 329h-192v-267h192q78 0 118 39.5t40 94.5t-40 94t-118 39zM591 391h196q106 0 167 -57.5t61 -137.5q0 -81 -61 -138.5t-167 -57.5h-258q-9 0 -9 9v320h-375v-320q0 -9 -9 -9h-53q-9 0 -9 9v699q0 9 9 9h53q9 0 9 -9v-317h375v317q0 9 10 9h52q9 0 9 -9v-317z" />
    <glyph glyph-name="afii10060" unicode="&#x40b;" horiz-adv-x="837" 
d="M336 653v-238q88 38 186 38q240 0 240 -202v-242q0 -9 -9 -9h-53q-9 0 -9 9v235q0 147 -175 147q-96 0 -180 -36v-346q0 -9 -10 -9h-52q-9 0 -9 9v644h-225q-9 0 -9 9v46q0 9 9 9h554q9 0 9 -9v-46q0 -9 -9 -9h-258z" />
    <glyph glyph-name="afii10061" unicode="&#x40c;" horiz-adv-x="667" 
d="M468 921q0 -2 -1 -3l-142 -139q-3 -3 -7 -3h-47q-5 0 -5 5q0 3 1 4l122 138q4 4 8 4h65q6 0 6 -6zM377 329h-234v-320q0 -9 -9 -9h-51q-9 0 -9 9v699q0 9 9 9h51q9 0 9 -9v-318h201q34 0 55 22t42 80l76 216q3 9 11 9h55q9 0 9 -7q0 -2 -3 -10l-92 -250q-20 -53 -52 -77
q69 -20 99.5 -68t35.5 -134q1 -18 3 -50.5t4 -59.5t5 -50v-3q0 -8 -10 -8h-48q-10 0 -12 9q-4 21 -5.5 47t-3 61t-2.5 48q-5 83 -36.5 123.5t-97.5 40.5z" />
    <glyph glyph-name="uni040D" unicode="&#x40d;" horiz-adv-x="707" 
d="M633 9q0 -9 -9 -9h-52q-10 0 -10 9v584l-417 -566v-18q0 -9 -9 -9h-53q-9 0 -9 9v699q0 9 9 9h53q9 0 9 -9v-581l417 566v15q0 9 10 9h52q9 0 9 -9v-699zM411 781q0 -5 -5 -5h-47q-4 0 -7 3l-142 139q-1 1 -1 3q0 6 6 6h65q4 0 8 -4l122 -138q1 -1 1 -4z" />
    <glyph glyph-name="afii10062" unicode="&#x40e;" horiz-adv-x="591" 
d="M429 869q0 -105 -123 -105q-121 0 -121 105q0 15 2 21q2 8 9 8h36q9 0 9 -9v-11q0 -35 15 -47.5t51 -12.5q35 0 50.5 12t15.5 48v11q0 9 9 9h36q7 0 9 -8q2 -6 2 -21zM573 710l-2 -6l-217 -546q-37 -93 -78 -126t-114 -33q-37 0 -46 1q-9 2 -9 9l2 44q0 9 9 9l18 -1
q17 -1 30 -1q49 0 75.5 21t26.5 53q0 29 -26 88l-219 486l-1 3q0 6 9 6h62q8 0 11 -8l136 -307q51 -112 74 -177h2l185 483q3 8 11 8h53q8 0 8 -6z" />
    <glyph glyph-name="afii10145" unicode="&#x40f;" horiz-adv-x="703" 
d="M629 708v-699q0 -9 -9 -9h-235v-133q0 -9 -10 -9h-48q-9 0 -9 9v133h-235q-9 0 -9 9v699q0 9 9 9h53q9 0 9 -9v-646h413v646q0 9 10 9h52q9 0 9 -9z" />
    <glyph glyph-name="afii10017" unicode="&#x410;" horiz-adv-x="664" 
d="M647 8q0 -8 -10 -8h-60q-6 0 -9 6l-91 234h-300l-89 -234q-3 -6 -9 -6h-53q-9 0 -9 8l1 4l274 699q2 6 8 6h65q6 0 8 -6l273 -699q1 -3 1 -4zM326 632l-129 -337h259l-128 337h-2z" />
    <glyph glyph-name="afii10018" unicode="&#x411;" horiz-adv-x="615" 
d="M348 335h-203v-273h203q78 0 118 40.5t40 96.5t-40 96t-118 40zM145 653v-256h207q106 0 167 -58.5t61 -139.5t-61 -140t-167 -59h-269q-9 0 -9 9v699q0 9 9 9h439q9 0 9 -9v-46q0 -9 -9 -9h-377z" />
    <glyph glyph-name="afii10019" unicode="&#x412;" horiz-adv-x="614" 
d="M570 200q0 -81 -61 -140.5t-167 -59.5h-259q-9 0 -9 9v699q0 9 9 9h245q98 0 154.5 -54t56.5 -133q0 -44 -25.5 -86.5t-75.5 -63.5v-2q67 -23 99.5 -73t32.5 -105zM464 528q0 50 -34.5 88.5t-105.5 38.5h-179v-257h177q74 0 108 37.5t34 92.5zM496 200q0 61 -43.5 99.5
t-114.5 38.5h-193v-276h193q78 0 118 41t40 97z" />
    <glyph glyph-name="afii10020" unicode="&#x413;" horiz-adv-x="548" 
d="M512 708v-46q0 -9 -9 -9h-358v-644q0 -9 -9 -9h-53q-9 0 -9 9v699q0 9 9 9h420q9 0 9 -9z" />
    <glyph glyph-name="afii10021" unicode="&#x414;" horiz-adv-x="726" 
d="M559 655h-281q-31 -426 -122 -593h403v593zM686 52v-185q0 -9 -10 -9h-44q-9 0 -9 9v133h-529v-132q0 -9 -9 -9h-44q-10 0 -10 9v185q0 9 9 9h23q14 0 23 11q48 58 84 256.5t42 378.5q0 9 10 9h399q9 0 9 -9v-646h47q9 0 9 -10z" />
    <glyph glyph-name="afii10022" unicode="&#x415;" horiz-adv-x="603" 
d="M561 9q0 -9 -9 -9h-469q-9 0 -9 9v699q0 9 9 9h443q9 0 9 -9v-46q0 -9 -9 -9h-381v-262h228q9 0 9 -9v-44q0 -9 -9 -9h-228v-265h407q9 0 9 -9v-46z" />
    <glyph glyph-name="afii10024" unicode="&#x416;" horiz-adv-x="1028" 
d="M960 710q0 -3 -5 -16l-90 -244q-21 -54 -53 -77q69 -20 99.5 -68t35.5 -134q1 -18 3 -50.5t4 -59.5t5 -50v-3q0 -8 -10 -8h-48q-10 0 -12 9q-4 21 -5.5 47t-3 61t-2.5 48q-5 83 -36.5 123.5t-97.5 40.5h-195v-320q0 -9 -9 -9h-51q-9 0 -9 9v320h-195q-66 0 -97.5 -40.5
t-36.5 -123.5q-1 -13 -2.5 -48t-3 -61t-5.5 -47q-2 -9 -12 -9h-48q-10 0 -10 8v3q3 23 5 50t4 59.5t3 50.5q5 86 35.5 134t99.5 68q-32 23 -53 77l-90 244q-5 13 -5 16q0 7 9 7h55q8 0 11 -9l76 -216q21 -60 42.5 -81t55.5 -21h162v318q0 9 9 9h51q9 0 9 -9v-318h162
q34 0 55.5 21t42.5 81l76 216q3 9 11 9h55q9 0 9 -7z" />
    <glyph glyph-name="afii10025" unicode="&#x417;" horiz-adv-x="587" 
d="M533 532q0 -60 -34.5 -104t-85.5 -61q57 -17 93.5 -64.5t36.5 -108.5q0 -90 -70 -148t-180 -58q-114 0 -181.5 58.5t-67.5 148.5q0 9 9 9h56q9 0 9 -9q5 -70 49.5 -107t125.5 -37q80 0 128 39t48 104q0 61 -39 99.5t-109 38.5h-92q-9 0 -9 8v46q0 9 9 9h89
q66 0 103.5 36.5t37.5 100.5q0 60 -42 96.5t-125 36.5q-78 0 -122 -37.5t-48 -101.5q0 -9 -9 -9h-56q-9 0 -9 9q0 78 63 140t181 62q109 0 175 -55.5t66 -140.5z" />
    <glyph glyph-name="afii10026" unicode="&#x418;" horiz-adv-x="707" 
d="M633 9q0 -9 -9 -9h-52q-10 0 -10 9v584l-417 -566v-18q0 -9 -9 -9h-53q-9 0 -9 9v699q0 9 9 9h53q9 0 9 -9v-581l417 566v15q0 9 10 9h52q9 0 9 -9v-699z" />
    <glyph glyph-name="afii10027" unicode="&#x419;" horiz-adv-x="707" 
d="M474 869q0 -105 -123 -105q-121 0 -121 105q0 15 2 21q2 8 9 8h36q9 0 9 -9v-11q0 -35 15 -47.5t51 -12.5q35 0 50.5 12t15.5 48v11q0 9 9 9h36q7 0 9 -8q2 -6 2 -21zM633 9q0 -9 -9 -9h-52q-10 0 -10 9v584l-417 -566v-18q0 -9 -9 -9h-53q-9 0 -9 9v699q0 9 9 9h53
q9 0 9 -9v-581l417 566v15q0 9 10 9h52q9 0 9 -9v-699z" />
    <glyph glyph-name="afii10028" unicode="&#x41a;" horiz-adv-x="664" 
d="M377 329h-234v-320q0 -9 -9 -9h-51q-9 0 -9 9v699q0 9 9 9h51q9 0 9 -9v-318h201q34 0 55 22t42 80l76 216q3 9 11 9h55q9 0 9 -7q0 -2 -3 -10l-92 -250q-20 -53 -52 -77q69 -20 99.5 -68t35.5 -134q1 -18 3 -50.5t4 -59.5t5 -50v-3q0 -8 -10 -8h-48q-10 0 -12 9
q-4 21 -5.5 47t-3 61t-2.5 48q-5 83 -36.5 123.5t-97.5 40.5z" />
    <glyph glyph-name="afii10029" unicode="&#x41b;" horiz-adv-x="722" 
d="M191 207v501q0 9 9 9h437q9 0 9 -9v-699q0 -9 -9 -9h-52q-10 0 -10 9v646h-313v-448q0 -97 -54.5 -155t-149.5 -58h-17q-9 0 -9 9v44q0 9 9 9h10q140 0 140 151z" />
    <glyph glyph-name="afii10030" unicode="&#x41c;" horiz-adv-x="870" 
d="M794 9q0 -9 -9 -9h-53q-9 0 -9 9v620h-2l-261 -623q-2 -6 -9 -6h-35q-7 0 -9 6l-264 623h-2v-620q0 -9 -9 -9h-47q-9 0 -9 9v699q0 9 9 9h88q6 0 8 -6l256 -604h2l251 604q3 6 8 6h87q9 0 9 -9v-699z" />
    <glyph glyph-name="afii10031" unicode="&#x41d;" horiz-adv-x="707" 
d="M633 9q0 -9 -9 -9h-52q-10 0 -10 9v320h-417v-320q0 -9 -9 -9h-53q-9 0 -9 9v699q0 9 9 9h53q9 0 9 -9v-317h417v317q0 9 10 9h52q9 0 9 -9v-699z" />
    <glyph glyph-name="afii10032" unicode="&#x41e;" horiz-adv-x="784" 
d="M744 359q0 -55 -13.5 -108t-42 -101t-69.5 -84t-99.5 -57t-127.5 -21t-127.5 21t-99.5 57t-69.5 84t-42 101t-13.5 108t13.5 108t42 101t69.5 84t99.5 57t127.5 21t127.5 -21t99.5 -57t69.5 -84t42 -101t13.5 -108zM392 667q-129 0 -203.5 -90t-74.5 -218t74.5 -218
t203.5 -90t203.5 90t74.5 218t-74.5 218t-203.5 90z" />
    <glyph glyph-name="afii10033" unicode="&#x41f;" horiz-adv-x="703" 
d="M83 717h537q9 0 9 -9v-699q0 -9 -9 -9h-52q-10 0 -10 9v646h-413v-646q0 -9 -9 -9h-53q-9 0 -9 9v699q0 9 9 9z" />
    <glyph glyph-name="afii10034" unicode="&#x420;" horiz-adv-x="584" 
d="M549 510q0 -95 -62.5 -153t-173.5 -58h-168v-290q0 -9 -9 -9h-53q-9 0 -9 9v699q0 9 9 9h230q108 0 172 -59t64 -148zM475 507q0 62 -44 105t-118 43h-168v-296h168q78 0 120 40.5t42 107.5z" />
    <glyph glyph-name="afii10035" unicode="&#x421;" horiz-adv-x="756" 
d="M711 234q-26 -116 -113 -181t-218 -65q-143 0 -242 105t-99 266t99 266t242 105q131 0 218 -65t113 -181v-2q0 -9 -10 -9h-52q-7 0 -9 7q-27 95 -94.5 141t-165.5 46q-110 0 -188.5 -82.5t-78.5 -225.5t78.5 -225.5t188.5 -82.5q98 0 165.5 46t94.5 141q2 7 9 7h52
q10 0 10 -9v-2z" />
    <glyph glyph-name="afii10036" unicode="&#x422;" horiz-adv-x="654" 
d="M618 662q0 -9 -9 -9h-248v-644q0 -9 -9 -9h-52q-10 0 -10 9v644h-245q-9 0 -9 9v46q0 9 9 9h564q9 0 9 -9v-46z" />
    <glyph glyph-name="afii10037" unicode="&#x423;" horiz-adv-x="591" 
d="M573 710l-2 -6l-217 -546q-37 -93 -78 -126t-114 -33q-37 0 -46 1q-9 2 -9 9l2 44q0 9 9 9l18 -1q17 -1 30 -1q49 0 75.5 21t26.5 53q0 29 -26 88l-219 486l-1 3q0 6 9 6h62q8 0 11 -8l136 -307q51 -112 74 -177h2l185 483q3 8 11 8h53q8 0 8 -6z" />
    <glyph glyph-name="afii10038" unicode="&#x424;" horiz-adv-x="825" 
d="M377 120v483q-264 -18 -264 -241q0 -108 65.5 -170t198.5 -72zM712 362q0 223 -264 241v-483q133 10 198.5 72t65.5 170zM785 362q0 -126 -87.5 -209t-249.5 -93v-58q0 -9 -9 -9h-52q-10 0 -10 9v58q-162 10 -249.5 93t-87.5 209q0 124 88 207.5t249 94.5v55q0 9 10 9h52
q9 0 9 -9v-55q161 -11 249 -94.5t88 -207.5z" />
    <glyph glyph-name="afii10039" unicode="&#x425;" horiz-adv-x="664" 
d="M636 6q0 -6 -9 -6h-67q-7 0 -12 7l-219 301l-222 -301q-5 -7 -13 -7h-58q-8 0 -8 7l2 5l259 351l-250 342q-3 4 -3 6q0 6 7 6h69q8 0 13 -7l209 -287l212 288q4 6 12 6h58q9 0 9 -7l-2 -5l-250 -336l260 -357q3 -4 3 -6z" />
    <glyph glyph-name="afii10040" unicode="&#x426;" horiz-adv-x="701" 
d="M657 53v-187q0 -9 -10 -9h-44q-9 0 -9 9v134h-511q-9 0 -9 9v699q0 9 9 9h53q9 0 9 -9v-646h389v646q0 9 10 9h52q9 0 9 -9v-646h42q10 0 10 -9z" />
    <glyph glyph-name="afii10041" unicode="&#x427;" horiz-adv-x="645" 
d="M571 9q0 -9 -9 -9h-52q-10 0 -10 9v297q-88 -38 -186 -38q-240 0 -240 202v238q0 9 9 9h53q9 0 9 -9v-231q0 -147 175 -147q96 0 180 36v342q0 9 10 9h52q9 0 9 -9v-699z" />
    <glyph glyph-name="afii10042" unicode="&#x428;" horiz-adv-x="988" 
d="M904 0h-821q-9 0 -9 9v699q0 9 9 9h53q9 0 9 -9v-646h313v646q0 9 9 9h53q9 0 9 -9v-646h313v646q0 9 9 9h53q9 0 9 -9v-699q0 -9 -9 -9z" />
    <glyph glyph-name="afii10043" unicode="&#x429;" horiz-adv-x="1003" 
d="M896 -134v134h-813q-9 0 -9 9v699q0 9 9 9h53q9 0 9 -9v-646h313v646q0 9 9 9h53q9 0 9 -9v-646h313v646q0 9 9 9h53q9 0 9 -9v-646h36q10 0 10 -9v-187q0 -9 -10 -9h-44q-9 0 -9 9z" />
    <glyph glyph-name="afii10044" unicode="&#x42a;" horiz-adv-x="796" 
d="M529 329h-203v-267h203q78 0 118 39.5t40 94.5t-40 94t-118 39zM255 653h-215q-9 0 -9 9v46q0 9 9 9h277q9 0 9 -9v-317h207q106 0 167 -57.5t61 -137.5q0 -81 -61 -138.5t-167 -57.5h-269q-9 0 -9 9v644z" />
    <glyph glyph-name="afii10045" unicode="&#x42b;" horiz-adv-x="781" 
d="M348 329h-203v-267h203q78 0 118 39.5t40 94.5t-40 94t-118 39zM577 196q0 -81 -61 -138.5t-167 -57.5h-266q-9 0 -9 9v699q0 9 9 9h53q9 0 9 -9v-317h204q106 0 167 -57.5t61 -137.5zM707 9q0 -9 -9 -9h-52q-10 0 -10 9v699q0 9 10 9h52q9 0 9 -9v-699z" />
    <glyph glyph-name="afii10046" unicode="&#x42c;" horiz-adv-x="615" 
d="M348 329h-203v-267h203q78 0 118 39.5t40 94.5t-40 94t-118 39zM580 196q0 -81 -61 -138.5t-167 -57.5h-269q-9 0 -9 9v699q0 9 9 9h53q9 0 9 -9v-317h207q106 0 167 -57.5t61 -137.5z" />
    <glyph glyph-name="afii10047" unicode="&#x42d;" horiz-adv-x="747" 
d="M39 234v2q0 9 10 9h52q7 0 9 -7q27 -95 94.5 -141t165.5 -46q104 0 182 74t87 203h-412q-9 0 -9 9v44q0 9 9 9h412q-9 129 -87 203t-182 74q-98 0 -165.5 -46t-94.5 -141q-2 -7 -9 -7h-52q-10 0 -10 9v2q26 116 113 181t218 65q143 0 242 -105t99 -266t-99 -266
t-242 -105q-131 0 -218 65t-113 181z" />
    <glyph glyph-name="afii10048" unicode="&#x42e;" horiz-adv-x="984" 
d="M150 9q0 -9 -9 -9h-52q-10 0 -10 9v699q0 9 10 9h52q9 0 9 -9v-320h93q4 66 28 126t65.5 109t107.5 78t148 29q69 0 127.5 -21t99.5 -57t69.5 -84t42 -101t13.5 -108t-13.5 -108t-42 -101t-69.5 -84t-99.5 -57t-127.5 -21q-82 0 -148 29t-107.5 78t-65.5 109t-28 126h-93
v-321zM592 667q-129 0 -204.5 -90t-75.5 -218t75.5 -218t204.5 -90t203.5 90t74.5 218t-74.5 218t-203.5 90z" />
    <glyph glyph-name="afii10049" unicode="&#x42f;" horiz-adv-x="639" 
d="M565 707v-698q0 -9 -9 -9h-53q-9 0 -9 9v291h-210q-64 0 -98.5 -33.5t-42.5 -101.5q-2 -17 -8 -73.5t-9 -82.5q-2 -9 -12 -9h-50q-10 0 -10 8v3q2 21 10.5 80t11.5 92q6 55 32 92t86 60q-52 18 -84 63t-32 109q0 95 65 152t173 57h240q9 0 9 -9zM152 506q0 -68 43.5 -108
t127.5 -40h171v296h-178q-77 0 -120.5 -40t-43.5 -108z" />
    <glyph glyph-name="afii10065" unicode="&#x430;" horiz-adv-x="470" 
d="M450 11q0 -7 -7 -8q-20 -5 -44 -5q-56 0 -73 49l-2 1q-21 -29 -61.5 -44.5t-77.5 -15.5q-67 0 -109.5 32t-42.5 79q0 34 15 59t44.5 42t58 28t69.5 24.5t65 24.5q37 17 37 54q0 42 -24.5 57.5t-70.5 15.5q-105 0 -110 -104q0 -9 -9 -9h-45q-9 0 -9 9q0 82 55 122
q49 36 122 36q155 0 155 -124v-259q0 -9 7 -16t18 -7q7 0 18 0.5t13 0.5q8 0 8 -8v-34zM322 153v99l-1 1q-18 -16 -114 -54q-65 -25 -86 -45.5t-21 -49.5t27.5 -46.5t65.5 -17.5q129 0 129 113z" />
    <glyph glyph-name="afii10066" unicode="&#x431;" horiz-adv-x="520" 
d="M416 226q0 81 -40 128.5t-105 47.5q-79 0 -115 -52t-36 -130q0 -74 38 -125.5t111 -51.5q74 0 110.5 53t36.5 130zM472 696q0 -48 -47 -68l-101 -44q-111 -48 -155 -90t-63 -132l-5 -22l2 -1q19 54 65.5 85.5t108.5 31.5q90 0 147 -61t57 -171q0 -102 -55 -169t-155 -67
q-167 0 -207 168q-13 57 -13 138q0 149 71 230.5t262 155.5q28 11 28 27q0 10 9 10h40q11 0 11 -21z" />
    <glyph glyph-name="afii10067" unicode="&#x432;" horiz-adv-x="460" 
d="M409 123q0 -51 -38.5 -87t-105.5 -36h-194q-9 0 -9 9v428q0 9 9 9h184q62 0 100.5 -33t38.5 -79q0 -76 -72 -104v-2q41 -10 64 -38.5t23 -66.5zM260 202h-134v-148h135q42 0 63 21t21 53q0 34 -23 54t-62 20zM126 392v-142h128q38 0 58 21.5t20 53.5q0 29 -22 48t-55 19
h-129z" />
    <glyph glyph-name="afii10068" unicode="&#x433;" horiz-adv-x="388" 
d="M62 9v428q0 9 9 9h285q9 0 9 -9v-41q0 -9 -9 -9h-230v-378q0 -9 -10 -9h-45q-9 0 -9 9z" />
    <glyph glyph-name="afii10069" unicode="&#x434;" horiz-adv-x="535" 
d="M95 -103q0 -9 -10 -9h-40q-9 0 -9 9v148q0 9 9 9h24q12 0 22 18q31 54 45 159.5t14 205.5q0 2 3 5.5t6 3.5h276q9 0 9 -9v-383h39q10 0 10 -9v-148q0 -9 -10 -9h-40q-9 0 -9 9v103h-339v-103zM147 54h233v338h-172q-7 -225 -61 -338z" />
    <glyph glyph-name="afii10070" unicode="&#x435;" horiz-adv-x="486" 
d="M448 228q0 -9 -9 -9h-335q0 -77 38.5 -127t104.5 -50q55 0 89 28.5t46 65.5q2 6 9 6h46q9 0 9 -9q0 -4 -4 -17.5t-18 -36t-34 -42.5t-58 -34.5t-85 -14.5q-100 0 -154 68.5t-54 166.5q0 101 57.5 168t150.5 67q91 0 146 -60t55 -170zM380 266q-4 63 -39 101t-94 38
q-56 0 -96 -39t-46 -100h275z" />
    <glyph glyph-name="afii10072" unicode="&#x436;" horiz-adv-x="678" 
d="M471 200h-101v-191q0 -9 -9 -9h-43q-10 0 -10 9v191h-101q-78 0 -82 -93q-5 -86 -7 -98q-2 -9 -9 -9h-45q-9 0 -9 8v2q6 42 10 101q4 52 25 81t64 43q-32 19 -49 67l-44 124q-4 10 -4 12q0 8 9 8h46q10 0 13 -9l42 -130q10 -31 27.5 -44t49.5 -13h64v187q0 9 10 9h43
q9 0 9 -9v-187h64q32 0 49.5 13t27.5 44l42 130q3 9 13 9h46q9 0 9 -8q0 -2 -4 -12l-44 -124q-17 -48 -49 -67q43 -14 64 -43t25 -81q4 -59 10 -101v-2q0 -8 -9 -8h-45q-7 0 -9 9q-2 12 -7 98q-4 93 -82 93z" />
    <glyph glyph-name="afii10073" unicode="&#x437;" horiz-adv-x="468" 
d="M203 252h55q35 0 58 21t23 52q0 38 -31.5 59t-75.5 21q-54 0 -84.5 -24.5t-34.5 -67.5q-1 -9 -9 -9h-46q-9 0 -9 9v1q5 66 51 105.5t132 39.5q79 0 124.5 -36.5t45.5 -90.5q0 -79 -86 -105q42 -9 66.5 -37.5t24.5 -70.5q0 -58 -49 -94.5t-126 -36.5q-89 0 -135 42
t-49 107v2q0 9 8 9h45q11 0 11 -9q3 -47 33.5 -72t86.5 -25q52 0 81.5 23t29.5 60q0 33 -24 53t-61 20h-55q-9 0 -9 9v36q0 9 9 9z" />
    <glyph glyph-name="afii10074" unicode="&#x438;" horiz-adv-x="496" 
d="M62 9v428q0 9 9 9h46q9 0 9 -9v-328l244 317v11q0 9 9 9h46q9 0 9 -9v-428q0 -9 -9 -9h-46q-9 0 -9 9v328l-244 -317v-11q0 -9 -9 -9h-46q-9 0 -9 9z" />
    <glyph glyph-name="afii10075" unicode="&#x439;" horiz-adv-x="496" 
d="M365 635q0 -105 -123 -105q-121 0 -121 105q0 15 2 21q2 8 9 8h36q9 0 9 -9v-11q0 -35 15 -47.5t51 -12.5q35 0 50.5 12t15.5 48v11q0 9 9 9h36q7 0 9 -8q2 -6 2 -21zM62 9v428q0 9 9 9h46q9 0 9 -9v-328l244 317v11q0 9 9 9h46q9 0 9 -9v-428q0 -9 -9 -9h-46q-9 0 -9 9
v328l-244 -317v-11q0 -9 -9 -9h-46q-9 0 -9 9z" />
    <glyph glyph-name="afii10076" unicode="&#x43a;" horiz-adv-x="480" 
d="M62 9v428q0 9 10 9h43q9 0 9 -9v-187h108q32 0 49.5 13t27.5 44l42 130q3 9 13 9h46q9 0 9 -8q0 -2 -4 -12l-44 -124q-17 -48 -49 -67q43 -14 64 -43t25 -81q4 -59 10 -101v-2q0 -8 -9 -8h-45q-7 0 -9 9q-2 12 -7 98q-4 93 -82 93h-145v-191q0 -9 -9 -9h-43q-10 0 -10 9z
" />
    <glyph glyph-name="afii10077" unicode="&#x43b;" horiz-adv-x="503" 
d="M115 129l-1 308q0 9 9 9h309q9 0 9 -9v-428q0 -9 -10 -9h-45q-9 0 -9 9v383h-199v-266q0 -56 -34.5 -91.5t-90.5 -35.5q-13 0 -23 2q-8 2 -8 9v34q0 9 9 9h20q29 0 46.5 18.5t17.5 57.5z" />
    <glyph glyph-name="afii10078" unicode="&#x43c;" horiz-adv-x="566" 
d="M442 9v369h-2l-136 -372q-2 -6 -9 -6h-28q-6 0 -9 6l-137 372h-2v-369q0 -9 -10 -9h-38q-9 0 -9 9v428q0 9 9 9h75q6 0 9 -6l128 -351l127 351q2 6 9 6h75q10 0 10 -9v-428q0 -9 -10 -9h-43q-9 0 -9 9z" />
    <glyph glyph-name="afii10079" unicode="&#x43d;" horiz-adv-x="496" 
d="M62 9v428q0 9 9 9h45q10 0 10 -9v-186h244v186q0 9 9 9h45q10 0 10 -9v-428q0 -9 -10 -9h-45q-9 0 -9 9v188h-244v-188q0 -9 -10 -9h-45q-9 0 -9 9z" />
    <glyph glyph-name="afii10080" unicode="&#x43e;" horiz-adv-x="521" 
d="M482 225q0 -97 -58 -167t-163 -70t-163.5 70t-58.5 167q0 100 61 166.5t161 66.5q105 0 163 -68.5t58 -164.5zM417 227q0 73 -40.5 125t-113.5 52q-75 0 -117 -53.5t-42 -127.5t41 -127.5t114 -53.5q74 0 116 55t42 130z" />
    <glyph glyph-name="afii10081" unicode="&#x43f;" horiz-adv-x="496" 
d="M62 9v428q0 9 9 9h354q9 0 9 -9v-428q0 -9 -10 -9h-45q-9 0 -9 9v383h-244v-383q0 -9 -10 -9h-45q-9 0 -9 9z" />
    <glyph glyph-name="afii10082" unicode="&#x440;" horiz-adv-x="526" 
d="M486 223q0 -98 -56.5 -166.5t-152.5 -68.5q-107 0 -149 73h-2v-282q0 -9 -10 -9h-45q-9 0 -9 9v657q0 9 9 9h41q10 0 10 -9l3 -49h2q18 27 58 49t89 22q95 0 153.5 -64.5t58.5 -170.5zM421 223q0 80 -39 130.5t-109 50.5q-76 0 -112 -52t-36 -129q0 -78 36 -129.5
t113 -51.5q66 0 106.5 50.5t40.5 130.5z" />
    <glyph glyph-name="afii10083" unicode="&#x441;" horiz-adv-x="485" 
d="M445 150q-13 -75 -64 -118.5t-129 -43.5q-101 0 -157 70t-56 165t56 165t157 70q79 0 131 -41.5t62 -114.5v-2q0 -8 -9 -8h-47q-7 0 -9 9q-6 42 -38 72.5t-88 30.5q-71 0 -110 -54t-39 -127t39 -127t110 -54q56 0 88.5 33t38.5 77q1 9 10 9h46q8 0 8 -9v-2z" />
    <glyph glyph-name="afii10084" unicode="&#x442;" horiz-adv-x="452" 
d="M430 437v-36q0 -9 -9 -9h-163v-383q0 -9 -10 -9h-45q-9 0 -9 9v383h-163q-9 0 -9 9v36q0 9 9 9h390q9 0 9 -9z" />
    <glyph glyph-name="afii10085" unicode="&#x443;" horiz-adv-x="420" 
d="M409 431l-196 -510q-19 -51 -39 -89q-35 -66 -101 -66q-40 0 -58 9q-6 3 -6 8l1 4l14 39q2 4 7 4l8 -2q15 -6 31 -6q22 0 36 12.5t26 42.5l46 114l-160 441q-2 5 -2 7q0 6 7 6h52q9 0 12 -9l126 -357h2l134 358q4 9 12 9h43q7 0 7 -6q0 -5 -2 -9z" />
    <glyph glyph-name="afii10086" unicode="&#x444;" horiz-adv-x="722" 
d="M104 223q1 -84 28 -132t83 -48q115 0 115 180t-115 180q-56 0 -83 -48t-28 -132zM383 -231h-45q-9 0 -9 9v281h-2q-40 -70 -119 -70q-84 0 -126.5 65.5t-42.5 168.5t42.5 168.5t126.5 65.5q80 0 119 -69h2v291q0 9 9 9h45q9 0 9 -9v-291h2q39 69 119 69q84 0 126.5 -65.5
t42.5 -168.5t-42.5 -168.5t-126.5 -65.5q-78 0 -119 70h-2v-281q0 -9 -9 -9zM617 223q-1 84 -28 132t-83 48q-115 0 -115 -180t115 -180q56 0 83 48t28 132z" />
    <glyph glyph-name="afii10087" unicode="&#x445;" horiz-adv-x="449" 
d="M426 6q0 -6 -7 -6h-58q-7 0 -12 7l-127 171l-128 -170q-5 -8 -15 -8h-49q-7 0 -7 6l2 5l162 212l-156 211q-2 3 -2 5q0 7 8 7h55q7 0 12 -6l123 -167l125 166q5 7 13 7h49q7 0 7 -6q0 -2 -4 -8l-155 -204l162 -217q2 -3 2 -5z" />
    <glyph glyph-name="afii10088" unicode="&#x446;" horiz-adv-x="499" 
d="M457 45v-148q0 -9 -10 -9h-40q-9 0 -9 9v103h-327q-9 0 -9 9v428q0 9 9 9h45q10 0 10 -9v-383h224v383q0 9 9 9h45q10 0 10 -9v-383h33q10 0 10 -9z" />
    <glyph glyph-name="afii10089" unicode="&#x447;" horiz-adv-x="477" 
d="M415 9q0 -9 -9 -9h-45q-7 0 -9 9v176q-68 -30 -130 -30q-71 0 -115.5 38t-44.5 107v137q0 9 9 9h45q10 0 10 -9v-130q0 -49 26.5 -73.5t72.5 -24.5q72 0 126 29v199q0 9 10 9h45q9 0 9 -9v-428z" />
    <glyph glyph-name="afii10090" unicode="&#x448;" horiz-adv-x="675" 
d="M305 54v383q0 9 9 9h45q10 0 10 -9v-383h179v383q0 9 9 9h45q10 0 10 -9v-428q0 -9 -9 -9h-532q-9 0 -9 9v428q0 9 9 9h45q10 0 10 -9v-383h179z" />
    <glyph glyph-name="afii10091" unicode="&#x449;" horiz-adv-x="703" 
d="M612 437v-383h39q10 0 10 -9v-148q0 -9 -10 -9h-42q-9 0 -9 9v103h-529q-9 0 -9 9v428q0 9 9 9h45q10 0 10 -9v-383h179v383q0 9 9 9h45q10 0 10 -9v-383h179v383q0 9 9 9h45q10 0 10 -9z" />
    </font>
</defs>
</svg>
